%TF.GenerationSoftware,KiCad,Pcbnew,(5.1.6)-1*%
%TF.CreationDate,2022-03-29T15:59:44+02:00*%
%TF.ProjectId,MW_generator,4d575f67-656e-4657-9261-746f722e6b69,rev?*%
%TF.SameCoordinates,Original*%
%TF.FileFunction,Copper,L1,Top*%
%TF.FilePolarity,Positive*%
%FSLAX46Y46*%
G04 Gerber Fmt 4.6, Leading zero omitted, Abs format (unit mm)*
G04 Created by KiCad (PCBNEW (5.1.6)-1) date 2022-03-29 15:59:44*
%MOMM*%
%LPD*%
G01*
G04 APERTURE LIST*
%TA.AperFunction,SMDPad,CuDef*%
%ADD10R,0.500000X0.600000*%
%TD*%
%TA.AperFunction,SMDPad,CuDef*%
%ADD11R,0.900000X0.600000*%
%TD*%
%TA.AperFunction,SMDPad,CuDef*%
%ADD12R,2.800000X1.000000*%
%TD*%
%TA.AperFunction,SMDPad,CuDef*%
%ADD13R,1.700000X0.600000*%
%TD*%
%TA.AperFunction,SMDPad,CuDef*%
%ADD14R,1.100000X1.300000*%
%TD*%
%TA.AperFunction,SMDPad,CuDef*%
%ADD15R,0.700000X1.300000*%
%TD*%
%TA.AperFunction,SMDPad,CuDef*%
%ADD16R,0.600000X0.900000*%
%TD*%
%TA.AperFunction,SMDPad,CuDef*%
%ADD17R,3.800000X1.000000*%
%TD*%
%TA.AperFunction,SMDPad,CuDef*%
%ADD18R,5.000000X1.000000*%
%TD*%
%TA.AperFunction,SMDPad,CuDef*%
%ADD19R,1.000000X3.800000*%
%TD*%
%TA.AperFunction,SMDPad,CuDef*%
%ADD20R,1.000000X5.550000*%
%TD*%
%TA.AperFunction,SMDPad,CuDef*%
%ADD21R,0.400000X0.400000*%
%TD*%
%TA.AperFunction,SMDPad,CuDef*%
%ADD22R,1.780000X1.020000*%
%TD*%
%TA.AperFunction,SMDPad,CuDef*%
%ADD23R,1.300000X0.700000*%
%TD*%
%TA.AperFunction,SMDPad,CuDef*%
%ADD24R,0.600000X0.300000*%
%TD*%
%TA.AperFunction,SMDPad,CuDef*%
%ADD25R,0.300000X0.600000*%
%TD*%
%TA.AperFunction,SMDPad,CuDef*%
%ADD26R,3.100000X3.100000*%
%TD*%
%TA.AperFunction,SMDPad,CuDef*%
%ADD27R,1.600000X0.900000*%
%TD*%
%TA.AperFunction,SMDPad,CuDef*%
%ADD28R,0.700000X1.450000*%
%TD*%
%TA.AperFunction,SMDPad,CuDef*%
%ADD29R,5.000000X1.524000*%
%TD*%
%TA.AperFunction,ViaPad*%
%ADD30C,0.700000*%
%TD*%
%TA.AperFunction,ViaPad*%
%ADD31C,0.800000*%
%TD*%
%TA.AperFunction,Conductor*%
%ADD32C,0.250000*%
%TD*%
%TA.AperFunction,Conductor*%
%ADD33C,0.300000*%
%TD*%
%TA.AperFunction,Conductor*%
%ADD34C,1.000000*%
%TD*%
%TA.AperFunction,Conductor*%
%ADD35C,0.254000*%
%TD*%
G04 APERTURE END LIST*
D10*
%TO.P,R11,2*%
%TO.N,GND*%
X170100000Y-113000000D03*
%TO.P,R11,1*%
%TO.N,Net-(L5-Pad2)*%
X171100000Y-113000000D03*
%TD*%
%TO.P,L5,2*%
%TO.N,Net-(L5-Pad2)*%
X174750000Y-113000000D03*
%TO.P,L5,1*%
%TO.N,Net-(C25-Pad1)*%
X175750000Y-113000000D03*
%TD*%
%TO.P,L4,2*%
%TO.N,/RF_OUT+*%
X174750000Y-107000000D03*
%TO.P,L4,1*%
%TO.N,Net-(C22-Pad1)*%
X175750000Y-107000000D03*
%TD*%
D11*
%TO.P,L2,2*%
%TO.N,+3V3*%
X178000000Y-105250000D03*
%TO.P,L2,1*%
%TO.N,Net-(C22-Pad2)*%
X178000000Y-103750000D03*
%TD*%
%TO.P,L3,2*%
%TO.N,Net-(C25-Pad2)*%
X178000000Y-116250000D03*
%TO.P,L3,1*%
%TO.N,+3V3*%
X178000000Y-114750000D03*
%TD*%
D12*
%TO.P,J1,*%
%TO.N,*%
X210500000Y-106600000D03*
X210500000Y-113400000D03*
D13*
%TO.P,J1,6*%
%TO.N,GND*%
X207150000Y-112500000D03*
%TO.P,J1,5*%
%TO.N,+3V3*%
X207150000Y-111500000D03*
%TO.P,J1,4*%
%TO.N,/LE*%
X207150000Y-110500000D03*
%TO.P,J1,3*%
%TO.N,/DATA*%
X207150000Y-109500000D03*
%TO.P,J1,2*%
%TO.N,/CLK*%
X207150000Y-108500000D03*
%TO.P,J1,1*%
%TO.N,+5V*%
X207150000Y-107500000D03*
%TD*%
D14*
%TO.P,X1,4*%
%TO.N,Net-(C1-Pad1)*%
X200075000Y-110800000D03*
%TO.P,X1,3*%
%TO.N,Net-(R2-Pad2)*%
X200075000Y-112900000D03*
%TO.P,X1,2*%
%TO.N,GND*%
X198425000Y-112900000D03*
%TO.P,X1,1*%
%TO.N,Net-(C1-Pad1)*%
X198425000Y-110800000D03*
%TD*%
D15*
%TO.P,C24,2*%
%TO.N,+3V3*%
X178000000Y-109000000D03*
%TO.P,C24,1*%
%TO.N,GND*%
X176100000Y-109000000D03*
%TD*%
D16*
%TO.P,C23,2*%
%TO.N,+3V3*%
X178000000Y-111000000D03*
%TO.P,C23,1*%
%TO.N,GND*%
X176500000Y-111000000D03*
%TD*%
D17*
%TO.P,J3,1*%
%TO.N,GND*%
X193500000Y-119150000D03*
X181500000Y-119150000D03*
X193500000Y-100850000D03*
X181500000Y-100850000D03*
D18*
X200080000Y-100850000D03*
X200080000Y-119150000D03*
X174920000Y-119150000D03*
X174920000Y-100850000D03*
D17*
X187500000Y-100850000D03*
X187500000Y-119150000D03*
D19*
X202080000Y-110000000D03*
D20*
X202080000Y-116875000D03*
X202080000Y-103125000D03*
X172920000Y-116875000D03*
D19*
X172920000Y-110000000D03*
D20*
X172920000Y-103125000D03*
%TD*%
D11*
%TO.P,C32,2*%
%TO.N,+5V*%
X129200000Y-108000000D03*
%TO.P,C32,1*%
%TO.N,GND*%
X129200000Y-106500000D03*
%TD*%
%TO.P,C29,2*%
%TO.N,+5V*%
X116050000Y-108050000D03*
%TO.P,C29,1*%
%TO.N,GND*%
X116050000Y-106550000D03*
%TD*%
%TO.P,C27,2*%
%TO.N,GND*%
X182050000Y-113050000D03*
%TO.P,C27,1*%
%TO.N,+3V3*%
X182050000Y-114550000D03*
%TD*%
%TO.P,C25,2*%
%TO.N,Net-(C25-Pad2)*%
X176000000Y-116250000D03*
%TO.P,C25,1*%
%TO.N,Net-(C25-Pad1)*%
X176000000Y-114750000D03*
%TD*%
%TO.P,C22,2*%
%TO.N,Net-(C22-Pad2)*%
X176000000Y-103750000D03*
%TO.P,C22,1*%
%TO.N,Net-(C22-Pad1)*%
X176000000Y-105250000D03*
%TD*%
%TO.P,C21,2*%
%TO.N,GND*%
X187350000Y-103300000D03*
%TO.P,C21,1*%
%TO.N,+3V3*%
X187350000Y-104800000D03*
%TD*%
%TO.P,C19,2*%
%TO.N,GND*%
X185850000Y-103300000D03*
%TO.P,C19,1*%
%TO.N,+3V3*%
X185850000Y-104800000D03*
%TD*%
%TO.P,C16,2*%
%TO.N,GND*%
X187350000Y-116300000D03*
%TO.P,C16,1*%
%TO.N,Net-(C16-Pad1)*%
X187350000Y-114800000D03*
%TD*%
D16*
%TO.P,C14,2*%
%TO.N,GND*%
X190275000Y-108350000D03*
%TO.P,C14,1*%
%TO.N,+3V3*%
X191775000Y-108350000D03*
%TD*%
D11*
%TO.P,C13,2*%
%TO.N,GND*%
X194900000Y-107950000D03*
%TO.P,C13,1*%
%TO.N,+3V3*%
X194900000Y-109450000D03*
%TD*%
D16*
%TO.P,C10,2*%
%TO.N,Net-(C10-Pad2)*%
X190250000Y-109750000D03*
%TO.P,C10,1*%
%TO.N,Net-(C10-Pad1)*%
X188750000Y-109750000D03*
%TD*%
D11*
%TO.P,C9,2*%
%TO.N,GND*%
X193950000Y-116750000D03*
%TO.P,C9,1*%
%TO.N,Net-(C11-Pad1)*%
X193950000Y-115250000D03*
%TD*%
%TO.P,C6,2*%
%TO.N,Net-(C6-Pad2)*%
X193400000Y-111250000D03*
%TO.P,C6,1*%
%TO.N,Net-(C10-Pad2)*%
X193400000Y-109750000D03*
%TD*%
%TO.P,C5,2*%
%TO.N,GND*%
X195550000Y-116750000D03*
%TO.P,C5,1*%
%TO.N,Net-(C5-Pad1)*%
X195550000Y-115250000D03*
%TD*%
%TO.P,C3,2*%
%TO.N,GND*%
X194875000Y-112300000D03*
%TO.P,C3,1*%
%TO.N,Net-(C1-Pad1)*%
X194875000Y-110800000D03*
%TD*%
%TO.P,C2,2*%
%TO.N,GND*%
X185800000Y-116300000D03*
%TO.P,C2,1*%
%TO.N,Net-(C2-Pad1)*%
X185800000Y-114800000D03*
%TD*%
D21*
%TO.P,U3,6*%
%TO.N,Net-(C31-Pad1)*%
X117875000Y-110100000D03*
%TO.P,U3,5*%
%TO.N,GND*%
X117875000Y-110750000D03*
%TO.P,U3,4*%
X117875000Y-111400000D03*
%TO.P,U3,3*%
%TO.N,Net-(C33-Pad2)*%
X116025000Y-111400000D03*
%TO.P,U3,2*%
%TO.N,GND*%
X116025000Y-110750000D03*
%TO.P,U3,1*%
%TO.N,+5V*%
X116025000Y-110100000D03*
%TD*%
%TO.P,U2,6*%
%TO.N,Net-(C28-Pad1)*%
X132775000Y-108300000D03*
%TO.P,U2,5*%
%TO.N,GND*%
X132775000Y-108950000D03*
%TO.P,U2,4*%
X132775000Y-109600000D03*
%TO.P,U2,3*%
%TO.N,Net-(C30-Pad2)*%
X130925000Y-109600000D03*
%TO.P,U2,2*%
%TO.N,GND*%
X130925000Y-108950000D03*
%TO.P,U2,1*%
%TO.N,+5V*%
X130925000Y-108300000D03*
%TD*%
D22*
%TO.P,L6,2*%
%TO.N,+5V*%
X124550000Y-108050000D03*
%TO.P,L6,1*%
%TO.N,Net-(C30-Pad1)*%
X124550000Y-109850000D03*
%TD*%
%TO.P,L7,2*%
%TO.N,+5V*%
X112800000Y-108050000D03*
%TO.P,L7,1*%
%TO.N,Net-(C33-Pad2)*%
X112800000Y-109850000D03*
%TD*%
D23*
%TO.P,C33,2*%
%TO.N,Net-(C33-Pad2)*%
X110400000Y-111900000D03*
%TO.P,C33,1*%
%TO.N,Net-(C33-Pad1)*%
X110400000Y-110000000D03*
%TD*%
D15*
%TO.P,C31,2*%
%TO.N,Net-(C30-Pad1)*%
X122200000Y-109850000D03*
%TO.P,C31,1*%
%TO.N,Net-(C31-Pad1)*%
X120300000Y-109850000D03*
%TD*%
%TO.P,C30,2*%
%TO.N,Net-(C30-Pad2)*%
X128400000Y-109850000D03*
%TO.P,C30,1*%
%TO.N,Net-(C30-Pad1)*%
X126500000Y-109850000D03*
%TD*%
%TO.P,C28,2*%
%TO.N,/RF_OUT+*%
X138100000Y-108050000D03*
%TO.P,C28,1*%
%TO.N,Net-(C28-Pad1)*%
X136200000Y-108050000D03*
%TD*%
D24*
%TO.P,U1,32*%
%TO.N,+3V3*%
X187400000Y-108250000D03*
%TO.P,U1,31*%
%TO.N,GND*%
X187400000Y-108750000D03*
%TO.P,U1,30*%
%TO.N,/MUXout*%
X187400000Y-109250000D03*
%TO.P,U1,29*%
%TO.N,Net-(C10-Pad1)*%
X187400000Y-109750000D03*
%TO.P,U1,28*%
%TO.N,+3V3*%
X187400000Y-110250000D03*
%TO.P,U1,27*%
%TO.N,GND*%
X187400000Y-110750000D03*
%TO.P,U1,26*%
%TO.N,/PDBrf*%
X187400000Y-111250000D03*
%TO.P,U1,25*%
%TO.N,/LD*%
X187400000Y-111750000D03*
D25*
%TO.P,U1,24*%
%TO.N,Net-(C5-Pad1)*%
X186750000Y-112400000D03*
%TO.P,U1,23*%
%TO.N,Net-(C11-Pad1)*%
X186250000Y-112400000D03*
%TO.P,U1,22*%
%TO.N,Net-(R5-Pad1)*%
X185750000Y-112400000D03*
%TO.P,U1,21*%
%TO.N,GND*%
X185250000Y-112400000D03*
%TO.P,U1,20*%
%TO.N,Net-(C16-Pad1)*%
X184750000Y-112400000D03*
%TO.P,U1,19*%
%TO.N,Net-(C2-Pad1)*%
X184250000Y-112400000D03*
%TO.P,U1,18*%
%TO.N,GND*%
X183750000Y-112400000D03*
%TO.P,U1,17*%
%TO.N,+3V3*%
X183250000Y-112400000D03*
D24*
%TO.P,U1,16*%
X182600000Y-111750000D03*
%TO.P,U1,15*%
%TO.N,Net-(U1-Pad15)*%
X182600000Y-111250000D03*
%TO.P,U1,14*%
%TO.N,Net-(U1-Pad14)*%
X182600000Y-110750000D03*
%TO.P,U1,13*%
%TO.N,Net-(R10-Pad1)*%
X182600000Y-110250000D03*
%TO.P,U1,12*%
%TO.N,Net-(R9-Pad1)*%
X182600000Y-109750000D03*
%TO.P,U1,11*%
%TO.N,GND*%
X182600000Y-109250000D03*
%TO.P,U1,10*%
%TO.N,+3V3*%
X182600000Y-108750000D03*
%TO.P,U1,9*%
%TO.N,GND*%
X182600000Y-108250000D03*
D25*
%TO.P,U1,8*%
X183250000Y-107600000D03*
%TO.P,U1,7*%
%TO.N,Net-(C18-Pad1)*%
X183750000Y-107600000D03*
%TO.P,U1,6*%
%TO.N,+3V3*%
X184250000Y-107600000D03*
%TO.P,U1,5*%
%TO.N,Net-(R7-Pad2)*%
X184750000Y-107600000D03*
%TO.P,U1,4*%
%TO.N,/CE*%
X185250000Y-107600000D03*
%TO.P,U1,3*%
%TO.N,/LE*%
X185750000Y-107600000D03*
%TO.P,U1,2*%
%TO.N,/DATA*%
X186250000Y-107600000D03*
%TO.P,U1,1*%
%TO.N,/CLK*%
X186750000Y-107600000D03*
D26*
%TO.P,U1,GND*%
%TO.N,N/C*%
X185000000Y-110000000D03*
%TD*%
D11*
%TO.P,R14,2*%
%TO.N,GND*%
X197300000Y-102250000D03*
%TO.P,R14,1*%
%TO.N,/LE*%
X197300000Y-103750000D03*
%TD*%
%TO.P,R13,2*%
%TO.N,GND*%
X200500000Y-102250000D03*
%TO.P,R13,1*%
%TO.N,/CLK*%
X200500000Y-103750000D03*
%TD*%
%TO.P,R12,2*%
%TO.N,GND*%
X198900000Y-102250000D03*
%TO.P,R12,1*%
%TO.N,/DATA*%
X198900000Y-103750000D03*
%TD*%
D27*
%TO.P,R10,2*%
%TO.N,Net-(C25-Pad2)*%
X180200000Y-116250000D03*
%TO.P,R10,1*%
%TO.N,Net-(R10-Pad1)*%
X180200000Y-113350000D03*
%TD*%
%TO.P,R9,2*%
%TO.N,Net-(C22-Pad2)*%
X180200000Y-103750000D03*
%TO.P,R9,1*%
%TO.N,Net-(R9-Pad1)*%
X180200000Y-106650000D03*
%TD*%
D16*
%TO.P,R8,2*%
%TO.N,GND*%
X189200000Y-103000000D03*
%TO.P,R8,1*%
%TO.N,Net-(C18-Pad2)*%
X190700000Y-103000000D03*
%TD*%
D11*
%TO.P,R7,2*%
%TO.N,Net-(R7-Pad2)*%
X190700000Y-106300000D03*
%TO.P,R7,1*%
%TO.N,Net-(C18-Pad2)*%
X190700000Y-104800000D03*
%TD*%
%TO.P,R6,2*%
%TO.N,Net-(C16-Pad1)*%
X188900000Y-114800000D03*
%TO.P,R6,1*%
%TO.N,Net-(C18-Pad1)*%
X188900000Y-116300000D03*
%TD*%
%TO.P,R5,2*%
%TO.N,GND*%
X190450000Y-116300000D03*
%TO.P,R5,1*%
%TO.N,Net-(R5-Pad1)*%
X190450000Y-114800000D03*
%TD*%
%TO.P,R4,2*%
%TO.N,+3V3*%
X189150000Y-104800000D03*
%TO.P,R4,1*%
%TO.N,/CE*%
X189150000Y-106300000D03*
%TD*%
%TO.P,R3,2*%
%TO.N,GND*%
X191825000Y-111250000D03*
%TO.P,R3,1*%
%TO.N,Net-(C10-Pad2)*%
X191825000Y-109750000D03*
%TD*%
D27*
%TO.P,R2,2*%
%TO.N,Net-(R2-Pad2)*%
X199475000Y-117500000D03*
%TO.P,R2,1*%
%TO.N,Net-(C6-Pad2)*%
X199475000Y-114600000D03*
%TD*%
D16*
%TO.P,R1,2*%
%TO.N,+3V3*%
X190375000Y-112025000D03*
%TO.P,R1,1*%
%TO.N,/PDBrf*%
X188875000Y-112025000D03*
%TD*%
D28*
%TO.P,L1,2*%
%TO.N,+3V3*%
X198575000Y-108525000D03*
%TO.P,L1,1*%
%TO.N,Net-(C1-Pad1)*%
X200075000Y-108525000D03*
%TD*%
D29*
%TO.P,J2,2*%
%TO.N,GND*%
X102500000Y-114250000D03*
X102500000Y-105750000D03*
%TO.P,J2,1*%
%TO.N,Net-(C33-Pad1)*%
X102500000Y-110000000D03*
%TD*%
D23*
%TO.P,C26,2*%
%TO.N,GND*%
X182325000Y-117650000D03*
%TO.P,C26,1*%
%TO.N,+3V3*%
X182325000Y-115750000D03*
%TD*%
%TO.P,C20,2*%
%TO.N,GND*%
X195250000Y-103000000D03*
%TO.P,C20,1*%
%TO.N,Net-(C18-Pad1)*%
X195250000Y-104900000D03*
%TD*%
%TO.P,C18,2*%
%TO.N,Net-(C18-Pad2)*%
X193300000Y-103000000D03*
%TO.P,C18,1*%
%TO.N,Net-(C18-Pad1)*%
X193300000Y-104900000D03*
%TD*%
%TO.P,C17,2*%
%TO.N,GND*%
X184150000Y-103300000D03*
%TO.P,C17,1*%
%TO.N,+3V3*%
X184150000Y-105200000D03*
%TD*%
%TO.P,C15,2*%
%TO.N,GND*%
X182250000Y-103300000D03*
%TO.P,C15,1*%
%TO.N,+3V3*%
X182250000Y-105200000D03*
%TD*%
%TO.P,C12,2*%
%TO.N,GND*%
X193225000Y-106625000D03*
%TO.P,C12,1*%
%TO.N,+3V3*%
X193225000Y-108525000D03*
%TD*%
%TO.P,C11,2*%
%TO.N,GND*%
X192250000Y-116750000D03*
%TO.P,C11,1*%
%TO.N,Net-(C11-Pad1)*%
X192250000Y-114850000D03*
%TD*%
%TO.P,C8,2*%
%TO.N,GND*%
X196625000Y-107550000D03*
%TO.P,C8,1*%
%TO.N,+3V3*%
X196625000Y-109450000D03*
%TD*%
%TO.P,C7,2*%
%TO.N,GND*%
X197275000Y-117150000D03*
%TO.P,C7,1*%
%TO.N,Net-(C5-Pad1)*%
X197275000Y-115250000D03*
%TD*%
%TO.P,C4,2*%
%TO.N,GND*%
X184175000Y-116700000D03*
%TO.P,C4,1*%
%TO.N,Net-(C2-Pad1)*%
X184175000Y-114800000D03*
%TD*%
%TO.P,C1,2*%
%TO.N,GND*%
X196625000Y-112700000D03*
%TO.P,C1,1*%
%TO.N,Net-(C1-Pad1)*%
X196625000Y-110800000D03*
%TD*%
D30*
%TO.N,+3V3*%
X192000000Y-112400000D03*
X199100000Y-107150000D03*
X202100000Y-113050000D03*
X182325000Y-115750000D03*
X182250000Y-105200000D03*
%TO.N,Net-(C18-Pad1)*%
X191900000Y-104900000D03*
X188900000Y-117200000D03*
X183500000Y-106700000D03*
%TO.N,GND*%
X202100000Y-116900000D03*
X202100000Y-110000000D03*
X202100000Y-103150000D03*
X200100000Y-100850000D03*
X193500000Y-100850000D03*
X187500000Y-100850000D03*
X181500000Y-100850000D03*
X174950000Y-100850000D03*
X172950000Y-103150000D03*
X172950000Y-110000000D03*
X197300000Y-117150000D03*
X186000000Y-109000000D03*
X174900000Y-119150000D03*
X187450000Y-119150000D03*
X200100000Y-119150000D03*
X193500000Y-119150000D03*
X181500000Y-119150000D03*
X172950000Y-116900000D03*
X104700000Y-105750000D03*
X104650000Y-114250000D03*
X105600000Y-108650000D03*
X106600000Y-108650000D03*
X107600000Y-108650000D03*
X108600000Y-108650000D03*
X109600000Y-108650000D03*
X110600000Y-108650000D03*
X105600000Y-111350000D03*
X106600000Y-111350000D03*
X107600000Y-111350000D03*
X108600000Y-111350000D03*
X108600000Y-112350000D03*
X109300000Y-113050000D03*
X118000000Y-112350000D03*
X104600000Y-108350000D03*
X103600000Y-108350000D03*
X102600000Y-108350000D03*
X101600000Y-108350000D03*
X104600000Y-111650000D03*
X103600000Y-111650000D03*
X102600000Y-111650000D03*
X101600000Y-111650000D03*
X119000000Y-111350000D03*
X110300000Y-113050000D03*
X111300000Y-113050000D03*
X112300000Y-113050000D03*
X113300000Y-113050000D03*
X114300000Y-113050000D03*
X115300000Y-113050000D03*
X116300000Y-113050000D03*
X117300000Y-113050000D03*
X119000000Y-112350000D03*
X120000000Y-111350000D03*
X121000000Y-111350000D03*
X122000000Y-111350000D03*
X123000000Y-111350000D03*
X124000000Y-111350000D03*
X125000000Y-111350000D03*
X126000000Y-111350000D03*
X127000000Y-111350000D03*
X128000000Y-111350000D03*
X129000000Y-111350000D03*
X130000000Y-111350000D03*
X131000000Y-111350000D03*
X132000000Y-111350000D03*
X132700000Y-110650000D03*
X133700000Y-110650000D03*
X133700000Y-109650000D03*
X134700000Y-109650000D03*
X135700000Y-109650000D03*
X136700000Y-109650000D03*
X137700000Y-109650000D03*
X138700000Y-109650000D03*
X139400000Y-108950000D03*
X140100000Y-108250000D03*
X110600000Y-107650000D03*
X111300000Y-106950000D03*
X141100000Y-108250000D03*
X142100000Y-108250000D03*
X143100000Y-108250000D03*
X144100000Y-108250000D03*
X145100000Y-108250000D03*
X146100000Y-108250000D03*
X147100000Y-108250000D03*
X148100000Y-108250000D03*
X149100000Y-108250000D03*
X150100000Y-108250000D03*
X151100000Y-108250000D03*
X152100000Y-108250000D03*
X153100000Y-108250000D03*
X154100000Y-108250000D03*
X155100000Y-108250000D03*
X156100000Y-108250000D03*
X157100000Y-108250000D03*
X158100000Y-108250000D03*
X159100000Y-108250000D03*
X160100000Y-108250000D03*
X161100000Y-108250000D03*
X162100000Y-108250000D03*
X163100000Y-108250000D03*
X164100000Y-108250000D03*
X165100000Y-108250000D03*
X166100000Y-108250000D03*
X167100000Y-108250000D03*
X168100000Y-108250000D03*
X169100000Y-108250000D03*
X170100000Y-108250000D03*
X171100000Y-108250000D03*
X140100000Y-105750000D03*
X141100000Y-105750000D03*
X142100000Y-105750000D03*
X143100000Y-105750000D03*
X144100000Y-105750000D03*
X145100000Y-105750000D03*
X146100000Y-105750000D03*
X147100000Y-105750000D03*
X148100000Y-105750000D03*
X149100000Y-105750000D03*
X150100000Y-105750000D03*
X151100000Y-105750000D03*
X152100000Y-105750000D03*
X153100000Y-105750000D03*
X154100000Y-105750000D03*
X155100000Y-105750000D03*
X156100000Y-105750000D03*
X157100000Y-105750000D03*
X158100000Y-105750000D03*
X159100000Y-105750000D03*
X160100000Y-105750000D03*
X161100000Y-105750000D03*
X162100000Y-105750000D03*
X163100000Y-105750000D03*
X164100000Y-105750000D03*
X165100000Y-105750000D03*
X166100000Y-105750000D03*
X167100000Y-105750000D03*
X168100000Y-105750000D03*
X169100000Y-105750000D03*
X170100000Y-105750000D03*
X171100000Y-105750000D03*
X139100000Y-105750000D03*
X138100000Y-105750000D03*
X137400000Y-106450000D03*
X136400000Y-106450000D03*
X135400000Y-106450000D03*
X134400000Y-106450000D03*
X133400000Y-106450000D03*
X132400000Y-106450000D03*
X131700000Y-107150000D03*
X127950000Y-107050000D03*
X126950000Y-107050000D03*
X125950000Y-107050000D03*
X123150000Y-107050000D03*
X122150000Y-107050000D03*
X121150000Y-107050000D03*
X120150000Y-107050000D03*
X119150000Y-107050000D03*
X118150000Y-107050000D03*
X117150000Y-107050000D03*
X114550000Y-107050000D03*
X113850000Y-106350000D03*
X112000000Y-106250000D03*
X171100000Y-109250000D03*
X171100000Y-110250000D03*
X171100000Y-111250000D03*
X170100000Y-111250000D03*
X169100000Y-111250000D03*
X169100000Y-112250000D03*
X169100000Y-113250000D03*
X171100000Y-114250000D03*
X170100000Y-114250000D03*
X169100000Y-114250000D03*
X174450000Y-114650000D03*
X174450000Y-115650000D03*
X174450000Y-116650000D03*
X174450000Y-117650000D03*
X175450000Y-117650000D03*
X176450000Y-117650000D03*
X177450000Y-117650000D03*
X178450000Y-117650000D03*
X179450000Y-117650000D03*
X180450000Y-117650000D03*
X181450000Y-117650000D03*
X177100000Y-115000000D03*
X177100000Y-114000000D03*
X177100000Y-113000000D03*
X177100000Y-112000000D03*
X177100000Y-111000000D03*
X177100000Y-110000000D03*
X177100000Y-109000000D03*
X177100000Y-108000000D03*
X177100000Y-107000000D03*
X177100000Y-106000000D03*
X177100000Y-105000000D03*
X174450000Y-105350000D03*
X174450000Y-104350000D03*
X174450000Y-103350000D03*
X174450000Y-102350000D03*
X175450000Y-102350000D03*
X176450000Y-102350000D03*
X177450000Y-102350000D03*
X178450000Y-102350000D03*
X179450000Y-102350000D03*
X180450000Y-102350000D03*
X181450000Y-102350000D03*
X185000000Y-109000000D03*
X184000000Y-109000000D03*
X186000000Y-110000000D03*
X185000000Y-110000000D03*
X184000000Y-110000000D03*
X186000000Y-111000000D03*
X185000000Y-111000000D03*
X184000000Y-111000000D03*
X196500000Y-118350000D03*
X178700000Y-113900000D03*
X178700000Y-112900000D03*
X178700000Y-111900000D03*
X178650000Y-105800000D03*
X178650000Y-106800000D03*
X178650000Y-107800000D03*
X179050000Y-110850000D03*
X179050000Y-108850000D03*
X179050000Y-109850000D03*
X180250000Y-110350000D03*
X181200000Y-108450000D03*
X181450000Y-112150000D03*
X197400000Y-113350000D03*
%TO.N,/LE*%
X197300000Y-104600000D03*
X189900000Y-107250000D03*
%TO.N,/CLK*%
X200500000Y-104600000D03*
X188625000Y-108450000D03*
%TO.N,/DATA*%
X198900000Y-104600000D03*
X189250000Y-107850000D03*
D31*
%TO.N,+5V*%
X205200000Y-104000000D03*
D30*
X112800000Y-104000000D03*
X124550000Y-104000000D03*
%TO.N,Net-(C10-Pad2)*%
X190250000Y-109750000D03*
X191850000Y-109750000D03*
%TD*%
D32*
%TO.N,Net-(C1-Pad1)*%
X194875000Y-110800000D02*
X196625000Y-110800000D01*
X196625000Y-110800000D02*
X198425000Y-110800000D01*
X200075000Y-110800000D02*
X198425000Y-110800000D01*
X200075000Y-110800000D02*
X200075000Y-108525000D01*
D33*
%TO.N,Net-(C2-Pad1)*%
X184250000Y-113250000D02*
X185800000Y-114800000D01*
X184250000Y-112500000D02*
X184250000Y-113250000D01*
X184175000Y-114800000D02*
X185800000Y-114800000D01*
D32*
%TO.N,Net-(C5-Pad1)*%
X188724979Y-113174979D02*
X193463569Y-113174979D01*
X188050000Y-112500000D02*
X188724979Y-113174979D01*
X186750000Y-112500000D02*
X188050000Y-112500000D01*
X197275000Y-115250000D02*
X195550000Y-115250000D01*
X195538590Y-115250000D02*
X193463569Y-113174979D01*
X195550000Y-115250000D02*
X195538590Y-115250000D01*
D33*
%TO.N,+3V3*%
X178000000Y-111000000D02*
X178000000Y-109000000D01*
X178050000Y-105200000D02*
X178000000Y-105150000D01*
X178000000Y-109000000D02*
X178000000Y-105150000D01*
X182250000Y-105200000D02*
X178050000Y-105200000D01*
X182250000Y-105200000D02*
X182250000Y-105200000D01*
X184150000Y-105200000D02*
X184550000Y-104800000D01*
X184550000Y-104800000D02*
X185850000Y-104800000D01*
X185850000Y-104800000D02*
X187350000Y-104800000D01*
X184250000Y-105300000D02*
X184150000Y-105200000D01*
X184250000Y-107500000D02*
X184250000Y-105300000D01*
X187350000Y-104800000D02*
X189150000Y-104800000D01*
X181949999Y-105500001D02*
X182250000Y-105200000D01*
X181949999Y-108697895D02*
X181949999Y-105500001D01*
X182002104Y-108750000D02*
X181949999Y-108697895D01*
X182500000Y-108750000D02*
X182002104Y-108750000D01*
D32*
X188535002Y-110850000D02*
X189525000Y-110850000D01*
X187935002Y-110250000D02*
X188535002Y-110850000D01*
X187500000Y-110250000D02*
X187935002Y-110250000D01*
X190375000Y-111700000D02*
X189525000Y-110850000D01*
X190375000Y-112025000D02*
X190375000Y-111700000D01*
X197550000Y-108525000D02*
X196625000Y-109450000D01*
X198575000Y-108525000D02*
X197550000Y-108525000D01*
X196625000Y-109450000D02*
X194900000Y-109450000D01*
X193975000Y-108525000D02*
X193225000Y-108525000D01*
X194900000Y-109450000D02*
X193975000Y-108525000D01*
X191950000Y-108525000D02*
X191775000Y-108350000D01*
X193225000Y-108525000D02*
X191950000Y-108525000D01*
X189525000Y-110850000D02*
X189525000Y-109189998D01*
X187935002Y-108250000D02*
X188075000Y-108389998D01*
X187500000Y-108250000D02*
X187935002Y-108250000D01*
X188075000Y-108389998D02*
X188075000Y-108850000D01*
X189310001Y-108974999D02*
X189525000Y-109189998D01*
X188199999Y-108974999D02*
X189310001Y-108974999D01*
X188075000Y-108850000D02*
X188199999Y-108974999D01*
D33*
X182325000Y-114825000D02*
X182050000Y-114550000D01*
X182325000Y-115750000D02*
X182325000Y-115750000D01*
X182050000Y-114550000D02*
X178000000Y-114550000D01*
X178000000Y-111000000D02*
X178000000Y-114550000D01*
X182500000Y-111750000D02*
X183250000Y-112500000D01*
X183250000Y-113350000D02*
X182050000Y-114550000D01*
X183250000Y-112500000D02*
X183250000Y-113350000D01*
D32*
X191625000Y-112025000D02*
X192000000Y-112400000D01*
X190375000Y-112025000D02*
X191625000Y-112025000D01*
X198575000Y-107675000D02*
X199100000Y-107150000D01*
X198575000Y-108525000D02*
X198575000Y-107675000D01*
D33*
X182325000Y-115750000D02*
X182325000Y-114825000D01*
X182250000Y-105200000D02*
X184150000Y-105200000D01*
X202100000Y-113050000D02*
X203200000Y-113050000D01*
X204750000Y-111500000D02*
X207150000Y-111500000D01*
X203200000Y-113050000D02*
X204750000Y-111500000D01*
%TO.N,Net-(C11-Pad1)*%
X190507119Y-114149999D02*
X191549999Y-114149999D01*
X190007109Y-113649989D02*
X190507119Y-114149999D01*
X186250000Y-113128640D02*
X186271339Y-113149979D01*
X186250000Y-112500000D02*
X186250000Y-113128640D01*
X186271339Y-113149979D02*
X187157099Y-113149979D01*
X191549999Y-114149999D02*
X192250000Y-114850000D01*
X187157099Y-113149979D02*
X187657109Y-113649989D01*
X187657109Y-113649989D02*
X190007109Y-113649989D01*
D32*
X193550000Y-114850000D02*
X193950000Y-115250000D01*
X192250000Y-114850000D02*
X193550000Y-114850000D01*
%TO.N,Net-(C10-Pad1)*%
X187500000Y-109750000D02*
X188750000Y-109750000D01*
D33*
%TO.N,Net-(C16-Pad1)*%
X184750000Y-112500000D02*
X184750000Y-113042880D01*
X186699999Y-114149999D02*
X187350000Y-114800000D01*
X185857119Y-114149999D02*
X186699999Y-114149999D01*
X184750000Y-113042880D02*
X185857119Y-114149999D01*
X187350000Y-114800000D02*
X188900000Y-114800000D01*
D32*
%TO.N,Net-(C18-Pad1)*%
X183750000Y-106950000D02*
X183750000Y-107500000D01*
X183500000Y-106700000D02*
X183750000Y-106950000D01*
D33*
X188900000Y-116300000D02*
X188900000Y-117200000D01*
D32*
X191900000Y-104900000D02*
X193300000Y-104900000D01*
X193300000Y-104900000D02*
X195250000Y-104900000D01*
D34*
%TO.N,Net-(C22-Pad1)*%
X176000000Y-105250000D02*
X176000000Y-107000000D01*
D32*
%TO.N,GND*%
X116025000Y-110750000D02*
X117875000Y-110750000D01*
X119000000Y-110750000D02*
X119600000Y-111350000D01*
X117875000Y-110750000D02*
X119000000Y-110750000D01*
X117875000Y-110750000D02*
X117875000Y-111400000D01*
X130925000Y-108950000D02*
X132775000Y-108950000D01*
X132775000Y-108950000D02*
X132775000Y-109600000D01*
X183274999Y-108274999D02*
X183900000Y-108900000D01*
X182774999Y-108274999D02*
X183274999Y-108274999D01*
X182750000Y-108250000D02*
X182774999Y-108274999D01*
X182500000Y-108250000D02*
X182750000Y-108250000D01*
X183250000Y-108250000D02*
X185000000Y-110000000D01*
X183250000Y-107500000D02*
X183250000Y-108250000D01*
X183900000Y-108900000D02*
X185000000Y-110000000D01*
X185250000Y-110250000D02*
X185000000Y-110000000D01*
X185250000Y-112500000D02*
X185250000Y-110250000D01*
X185000000Y-110614998D02*
X185000000Y-110000000D01*
X183750000Y-111864998D02*
X185000000Y-110614998D01*
X183750000Y-112500000D02*
X183750000Y-111864998D01*
X184250000Y-109250000D02*
X185000000Y-110000000D01*
X182500000Y-109250000D02*
X184250000Y-109250000D01*
X185750000Y-110750000D02*
X185000000Y-110000000D01*
X187500000Y-110750000D02*
X185750000Y-110750000D01*
X186250000Y-108750000D02*
X185000000Y-110000000D01*
X187500000Y-108750000D02*
X186250000Y-108750000D01*
X192000000Y-106625000D02*
X193225000Y-106625000D01*
X190275000Y-108350000D02*
X192000000Y-106625000D01*
X196225000Y-112300000D02*
X196625000Y-112700000D01*
X194875000Y-112300000D02*
X196225000Y-112300000D01*
X198225000Y-112700000D02*
X198425000Y-112900000D01*
X196625000Y-112700000D02*
X198225000Y-112700000D01*
X181450000Y-112450000D02*
X182050000Y-113050000D01*
X181450000Y-112150000D02*
X181450000Y-112450000D01*
X187650000Y-103000000D02*
X187350000Y-103300000D01*
D33*
X189200000Y-103000000D02*
X187650000Y-103000000D01*
D32*
X190925001Y-110350001D02*
X191825000Y-111250000D01*
X190925001Y-109000001D02*
X190925001Y-110350001D01*
X190275000Y-108350000D02*
X190925001Y-109000001D01*
X196750000Y-112700000D02*
X197400000Y-113350000D01*
X196625000Y-112700000D02*
X196750000Y-112700000D01*
X197850000Y-112900000D02*
X197400000Y-113350000D01*
X198425000Y-112900000D02*
X197850000Y-112900000D01*
X196225001Y-107150001D02*
X196625000Y-107550000D01*
X196225001Y-103975001D02*
X196225001Y-107150001D01*
X195250000Y-103000000D02*
X196225001Y-103975001D01*
X200500000Y-101250000D02*
X200100000Y-100850000D01*
X200500000Y-102250000D02*
X200500000Y-101250000D01*
D34*
%TO.N,Net-(C25-Pad1)*%
X176000000Y-113000000D02*
X176000000Y-114750000D01*
D32*
%TO.N,/LE*%
X188119221Y-106524989D02*
X188744232Y-107150000D01*
X185750000Y-107175000D02*
X185799990Y-107125010D01*
X185750000Y-107500000D02*
X185750000Y-107175000D01*
X185799990Y-107125010D02*
X185799990Y-106878598D01*
X185799990Y-106878598D02*
X186153599Y-106524989D01*
X186153599Y-106524989D02*
X188119221Y-106524989D01*
X189800000Y-107150000D02*
X189900000Y-107250000D01*
X188744232Y-107150000D02*
X189800000Y-107150000D01*
X197300000Y-104600000D02*
X197300000Y-103750000D01*
X200985001Y-107774999D02*
X202840001Y-107774999D01*
X197300000Y-104600000D02*
X197810002Y-104600000D01*
X205565002Y-110500000D02*
X207150000Y-110500000D01*
X202840001Y-107774999D02*
X205565002Y-110500000D01*
X197810002Y-104600000D02*
X200985001Y-107774999D01*
%TO.N,/CLK*%
X187924990Y-107799990D02*
X187625000Y-107500000D01*
X187625000Y-107500000D02*
X186750000Y-107500000D01*
X188121402Y-107799990D02*
X187924990Y-107799990D01*
X188625000Y-108450000D02*
X188625000Y-108303588D01*
X188625000Y-108303588D02*
X188121402Y-107799990D01*
X200500000Y-104600000D02*
X200500000Y-103750000D01*
X201924979Y-106874979D02*
X203261390Y-106874980D01*
X200500000Y-104600000D02*
X200500000Y-105450000D01*
X200500000Y-105450000D02*
X201924979Y-106874979D01*
X204886410Y-108500000D02*
X207150000Y-108500000D01*
X203261390Y-106874980D02*
X204886410Y-108500000D01*
%TO.N,/DATA*%
X186250000Y-107500000D02*
X186250000Y-107064998D01*
X186339999Y-106974999D02*
X187736409Y-106974999D01*
X187736409Y-106974999D02*
X188111390Y-107349980D01*
X186250000Y-107064998D02*
X186339999Y-106974999D01*
X189174999Y-107774999D02*
X189250000Y-107850000D01*
X188732821Y-107774999D02*
X189174999Y-107774999D01*
X188307802Y-107349980D02*
X188732821Y-107774999D01*
X188111390Y-107349980D02*
X188307802Y-107349980D01*
X198900000Y-104600000D02*
X198900000Y-103750000D01*
X198900000Y-104600000D02*
X198900000Y-105053588D01*
X201171401Y-107324989D02*
X203074989Y-107324989D01*
X198900000Y-105053588D02*
X201171401Y-107324989D01*
X205250000Y-109500000D02*
X207150000Y-109500000D01*
X203074989Y-107324989D02*
X205250000Y-109500000D01*
D33*
%TO.N,+5V*%
X116025000Y-108075000D02*
X116000000Y-108050000D01*
X112800000Y-108050000D02*
X116000000Y-108050000D01*
X116025000Y-110100000D02*
X116025000Y-108075000D01*
X116000000Y-108050000D02*
X124550000Y-108050000D01*
X124550000Y-108050000D02*
X129150000Y-108050000D01*
X130625000Y-108000000D02*
X130925000Y-108300000D01*
X129200000Y-108000000D02*
X130625000Y-108000000D01*
X112800000Y-108050000D02*
X112800000Y-104000000D01*
X124550000Y-108050000D02*
X124550000Y-104000000D01*
X205200000Y-105550000D02*
X207150000Y-107500000D01*
X205200000Y-104000000D02*
X205200000Y-105550000D01*
D34*
%TO.N,/RF_OUT+*%
X138100000Y-108050000D02*
X139150000Y-107000000D01*
X174500000Y-107000000D02*
X139150000Y-107000000D01*
%TO.N,Net-(L5-Pad2)*%
X174750000Y-113000000D02*
X171100000Y-113000000D01*
D32*
%TO.N,/PDBrf*%
X188100000Y-111250000D02*
X188875000Y-112025000D01*
X187500000Y-111250000D02*
X188100000Y-111250000D01*
%TO.N,Net-(R2-Pad2)*%
X199475000Y-116800000D02*
X201025000Y-115250000D01*
X199475000Y-117500000D02*
X199475000Y-116800000D01*
X201025000Y-113850000D02*
X200075000Y-112900000D01*
X201025000Y-115250000D02*
X201025000Y-113850000D01*
%TO.N,/CE*%
X185992198Y-106049980D02*
X187586400Y-106049980D01*
X185250000Y-107500000D02*
X185250000Y-106792178D01*
X185250000Y-106792178D02*
X185992198Y-106049980D01*
D33*
%TO.N,Net-(R5-Pad1)*%
X189799999Y-114149999D02*
X190450000Y-114800000D01*
X185750000Y-113335760D02*
X186064229Y-113649989D01*
X186949989Y-113649989D02*
X187449999Y-114149999D01*
X186064229Y-113649989D02*
X186949989Y-113649989D01*
X185750000Y-112500000D02*
X185750000Y-113335760D01*
X187449999Y-114149999D02*
X189799999Y-114149999D01*
D32*
%TO.N,Net-(R7-Pad2)*%
X184750000Y-107500000D02*
X184750000Y-106655768D01*
X184750000Y-106655768D02*
X185805798Y-105599970D01*
X188099970Y-105599970D02*
X188100000Y-105600000D01*
X185805798Y-105599970D02*
X188099970Y-105599970D01*
X189999970Y-105599970D02*
X190700000Y-106300000D01*
X188099970Y-105599970D02*
X189999970Y-105599970D01*
D34*
%TO.N,Net-(R9-Pad1)*%
X180200000Y-106650000D02*
X180200000Y-108100000D01*
X180200000Y-108897052D02*
X180852940Y-109549990D01*
X180200000Y-108100000D02*
X180200000Y-108897052D01*
X180852940Y-109549990D02*
X181599999Y-109549990D01*
D33*
X181800009Y-109750000D02*
X181599999Y-109549990D01*
X182500000Y-109750000D02*
X181800009Y-109750000D01*
%TO.N,Net-(R10-Pad1)*%
X182500000Y-110250000D02*
X182150000Y-110250000D01*
X182150000Y-110250000D02*
X181950000Y-110450000D01*
D34*
X180200000Y-111900000D02*
X181350000Y-110750000D01*
X180200000Y-113350000D02*
X180200000Y-111900000D01*
X181350000Y-110750000D02*
X181599999Y-110750000D01*
%TO.N,Net-(C28-Pad1)*%
X133535001Y-108049999D02*
X132775000Y-108049999D01*
X136200000Y-108050000D02*
X133535001Y-108049999D01*
%TO.N,Net-(C30-Pad1)*%
X124549999Y-109849999D02*
X124550000Y-109850000D01*
X122200000Y-109849999D02*
X124549999Y-109849999D01*
X124550000Y-109850000D02*
X126500000Y-109850000D01*
%TO.N,Net-(C31-Pad1)*%
X118635001Y-109849999D02*
X117875000Y-109849999D01*
X120300000Y-109849999D02*
X118635001Y-109849999D01*
%TO.N,Net-(C33-Pad1)*%
X110400000Y-110000000D02*
X102000000Y-110000000D01*
D32*
%TO.N,Net-(C6-Pad2)*%
X198999999Y-114124999D02*
X199475000Y-114600000D01*
X195049999Y-114124999D02*
X198999999Y-114124999D01*
X193400000Y-111250000D02*
X193400000Y-112475000D01*
X193400000Y-112475000D02*
X195049999Y-114124999D01*
%TO.N,Net-(C10-Pad2)*%
X191825000Y-109750000D02*
X191850000Y-109750000D01*
X191850000Y-109750000D02*
X193400000Y-109750000D01*
%TO.N,Net-(C18-Pad2)*%
X190700000Y-103000000D02*
X193300000Y-103000000D01*
D33*
X190700000Y-104800000D02*
X190700000Y-103000000D01*
D34*
%TO.N,Net-(C25-Pad2)*%
X176000000Y-116250000D02*
X178000000Y-116250000D01*
X178000000Y-116250000D02*
X180200000Y-116250000D01*
%TO.N,Net-(C30-Pad2)*%
X128400000Y-109850000D02*
X130875001Y-109850000D01*
%TO.N,Net-(C33-Pad2)*%
X115775001Y-111900000D02*
X116025000Y-111650001D01*
X110400000Y-111900000D02*
X112800000Y-111900000D01*
X112800000Y-111900000D02*
X115775001Y-111900000D01*
X112800000Y-109850000D02*
X112800000Y-111900000D01*
%TO.N,Net-(C22-Pad2)*%
X176000000Y-103750000D02*
X178000000Y-103750000D01*
X180200000Y-103750000D02*
X178000000Y-103750000D01*
%TD*%
D35*
%TO.N,GND*%
G36*
X175255820Y-107889502D02*
G01*
X175296364Y-107901801D01*
X175219463Y-107995506D01*
X175160498Y-108105820D01*
X175124188Y-108225518D01*
X175111928Y-108350000D01*
X175115000Y-108714250D01*
X175273750Y-108873000D01*
X175973000Y-108873000D01*
X175973000Y-108853000D01*
X176227000Y-108853000D01*
X176227000Y-108873000D01*
X176247000Y-108873000D01*
X176247000Y-109127000D01*
X176227000Y-109127000D01*
X176227000Y-109147000D01*
X175973000Y-109147000D01*
X175973000Y-109127000D01*
X175273750Y-109127000D01*
X175115000Y-109285750D01*
X175111928Y-109650000D01*
X175124188Y-109774482D01*
X175160498Y-109894180D01*
X175219463Y-110004494D01*
X175298815Y-110101185D01*
X175395506Y-110180537D01*
X175505820Y-110239502D01*
X175625518Y-110275812D01*
X175626487Y-110275907D01*
X175610498Y-110305820D01*
X175574188Y-110425518D01*
X175561928Y-110550000D01*
X175565000Y-110714250D01*
X175723750Y-110873000D01*
X176373000Y-110873000D01*
X176373000Y-110853000D01*
X176627000Y-110853000D01*
X176627000Y-110873000D01*
X176647000Y-110873000D01*
X176647000Y-111127000D01*
X176627000Y-111127000D01*
X176627000Y-111147000D01*
X176373000Y-111147000D01*
X176373000Y-111127000D01*
X175723750Y-111127000D01*
X175565000Y-111285750D01*
X175561928Y-111450000D01*
X175574188Y-111574482D01*
X175610498Y-111694180D01*
X175669463Y-111804494D01*
X175741547Y-111892329D01*
X175563553Y-111946324D01*
X175375000Y-112047107D01*
X175186447Y-111946324D01*
X174972499Y-111881423D01*
X174805752Y-111865000D01*
X174058005Y-111865000D01*
X174055000Y-110285750D01*
X173896250Y-110127000D01*
X173047000Y-110127000D01*
X173047000Y-110147000D01*
X172793000Y-110147000D01*
X172793000Y-110127000D01*
X171943750Y-110127000D01*
X171785000Y-110285750D01*
X171781995Y-111865000D01*
X171044248Y-111865000D01*
X170877501Y-111881423D01*
X170663553Y-111946324D01*
X170466377Y-112051716D01*
X170441729Y-112071944D01*
X170381750Y-112065000D01*
X170223000Y-112223750D01*
X170223000Y-112279517D01*
X170151716Y-112366377D01*
X170046324Y-112563553D01*
X169981423Y-112777501D01*
X169977000Y-112822409D01*
X169977000Y-112223750D01*
X169818250Y-112065000D01*
X169709476Y-112077594D01*
X169590751Y-112116968D01*
X169481988Y-112178748D01*
X169387369Y-112260559D01*
X169310527Y-112359258D01*
X169254418Y-112471051D01*
X169221196Y-112591643D01*
X169215000Y-112714250D01*
X169373750Y-112873000D01*
X169972017Y-112873000D01*
X169959509Y-113000000D01*
X169972017Y-113127000D01*
X169373750Y-113127000D01*
X169215000Y-113285750D01*
X169221196Y-113408357D01*
X169254418Y-113528949D01*
X169310527Y-113640742D01*
X169387369Y-113739441D01*
X169481988Y-113821252D01*
X169590751Y-113883032D01*
X169709476Y-113922406D01*
X169818250Y-113935000D01*
X169977000Y-113776250D01*
X169977000Y-113177591D01*
X169981423Y-113222499D01*
X170046324Y-113436447D01*
X170151716Y-113633623D01*
X170223000Y-113720483D01*
X170223000Y-113776250D01*
X170381750Y-113935000D01*
X170441729Y-113928056D01*
X170466377Y-113948284D01*
X170663553Y-114053676D01*
X170877501Y-114118577D01*
X171044248Y-114135000D01*
X171781971Y-114135000D01*
X171785000Y-116589250D01*
X171943750Y-116748000D01*
X172793000Y-116748000D01*
X172793000Y-116728000D01*
X173047000Y-116728000D01*
X173047000Y-116748000D01*
X173896250Y-116748000D01*
X174055000Y-116589250D01*
X174058029Y-114135000D01*
X174805752Y-114135000D01*
X174865000Y-114129165D01*
X174865000Y-114805752D01*
X174881424Y-114972499D01*
X174915290Y-115084141D01*
X174924188Y-115174482D01*
X174960498Y-115294180D01*
X175019463Y-115404494D01*
X175097842Y-115500000D01*
X175019463Y-115595506D01*
X174960498Y-115705820D01*
X174924188Y-115825518D01*
X174915291Y-115915854D01*
X174881423Y-116027501D01*
X174859509Y-116250000D01*
X174881423Y-116472499D01*
X174915291Y-116584146D01*
X174924188Y-116674482D01*
X174960498Y-116794180D01*
X175019463Y-116904494D01*
X175098815Y-117001185D01*
X175195506Y-117080537D01*
X175274076Y-117122534D01*
X175366377Y-117198284D01*
X175563553Y-117303676D01*
X175777501Y-117368577D01*
X175944248Y-117385000D01*
X180255752Y-117385000D01*
X180422499Y-117368577D01*
X180523060Y-117338072D01*
X181000000Y-117338072D01*
X181038567Y-117334274D01*
X181040000Y-117364250D01*
X181198750Y-117523000D01*
X182198000Y-117523000D01*
X182198000Y-117503000D01*
X182452000Y-117503000D01*
X182452000Y-117523000D01*
X182472000Y-117523000D01*
X182472000Y-117777000D01*
X182452000Y-117777000D01*
X182452000Y-117797000D01*
X182198000Y-117797000D01*
X182198000Y-117777000D01*
X181198750Y-117777000D01*
X181040000Y-117935750D01*
X181036928Y-118000000D01*
X181038372Y-118014665D01*
X179600000Y-118011928D01*
X179475518Y-118024188D01*
X179355820Y-118060498D01*
X179245506Y-118119463D01*
X179148815Y-118198815D01*
X179069463Y-118295506D01*
X179010498Y-118405820D01*
X178974188Y-118525518D01*
X178961928Y-118650000D01*
X178965000Y-118864250D01*
X179123750Y-119023000D01*
X181373000Y-119023000D01*
X181373000Y-119003000D01*
X181627000Y-119003000D01*
X181627000Y-119023000D01*
X183876250Y-119023000D01*
X184035000Y-118864250D01*
X184038072Y-118650000D01*
X184961928Y-118650000D01*
X184965000Y-118864250D01*
X185123750Y-119023000D01*
X187373000Y-119023000D01*
X187373000Y-118173750D01*
X187214250Y-118015000D01*
X185600000Y-118011928D01*
X185475518Y-118024188D01*
X185355820Y-118060498D01*
X185245506Y-118119463D01*
X185148815Y-118198815D01*
X185069463Y-118295506D01*
X185010498Y-118405820D01*
X184974188Y-118525518D01*
X184961928Y-118650000D01*
X184038072Y-118650000D01*
X184025812Y-118525518D01*
X183989502Y-118405820D01*
X183930537Y-118295506D01*
X183851185Y-118198815D01*
X183754494Y-118119463D01*
X183644180Y-118060498D01*
X183608189Y-118049580D01*
X183613072Y-118000000D01*
X183610000Y-117935750D01*
X183451252Y-117777002D01*
X183610000Y-117777002D01*
X183610000Y-117687355D01*
X183889250Y-117685000D01*
X184048000Y-117526250D01*
X184048000Y-116827000D01*
X184028000Y-116827000D01*
X184028000Y-116573000D01*
X184048000Y-116573000D01*
X184048000Y-116553000D01*
X184302000Y-116553000D01*
X184302000Y-116573000D01*
X184322000Y-116573000D01*
X184322000Y-116827000D01*
X184302000Y-116827000D01*
X184302000Y-117526250D01*
X184460750Y-117685000D01*
X184825000Y-117688072D01*
X184949482Y-117675812D01*
X185069180Y-117639502D01*
X185179494Y-117580537D01*
X185276185Y-117501185D01*
X185355537Y-117404494D01*
X185414502Y-117294180D01*
X185431987Y-117236539D01*
X185514250Y-117235000D01*
X185673000Y-117076250D01*
X185673000Y-116427000D01*
X185927000Y-116427000D01*
X185927000Y-117076250D01*
X186085750Y-117235000D01*
X186250000Y-117238072D01*
X186374482Y-117225812D01*
X186494180Y-117189502D01*
X186575000Y-117146302D01*
X186655820Y-117189502D01*
X186775518Y-117225812D01*
X186900000Y-117238072D01*
X187064250Y-117235000D01*
X187223000Y-117076250D01*
X187223000Y-116427000D01*
X185927000Y-116427000D01*
X185673000Y-116427000D01*
X185653000Y-116427000D01*
X185653000Y-116173000D01*
X185673000Y-116173000D01*
X185673000Y-116153000D01*
X185927000Y-116153000D01*
X185927000Y-116173000D01*
X187223000Y-116173000D01*
X187223000Y-116153000D01*
X187477000Y-116153000D01*
X187477000Y-116173000D01*
X187497000Y-116173000D01*
X187497000Y-116427000D01*
X187477000Y-116427000D01*
X187477000Y-117076250D01*
X187635750Y-117235000D01*
X187800000Y-117238072D01*
X187915000Y-117226746D01*
X187915000Y-117297014D01*
X187952853Y-117487314D01*
X188027104Y-117666572D01*
X188134901Y-117827901D01*
X188272099Y-117965099D01*
X188345188Y-118013935D01*
X187785750Y-118015000D01*
X187627000Y-118173750D01*
X187627000Y-119023000D01*
X189876250Y-119023000D01*
X190035000Y-118864250D01*
X190038072Y-118650000D01*
X190961928Y-118650000D01*
X190965000Y-118864250D01*
X191123750Y-119023000D01*
X193373000Y-119023000D01*
X193373000Y-118173750D01*
X193627000Y-118173750D01*
X193627000Y-119023000D01*
X195876250Y-119023000D01*
X196035000Y-118864250D01*
X196038072Y-118650000D01*
X196025812Y-118525518D01*
X195989502Y-118405820D01*
X195930537Y-118295506D01*
X195851185Y-118198815D01*
X195754494Y-118119463D01*
X195644180Y-118060498D01*
X195524482Y-118024188D01*
X195400000Y-118011928D01*
X193785750Y-118015000D01*
X193627000Y-118173750D01*
X193373000Y-118173750D01*
X193214250Y-118015000D01*
X191600000Y-118011928D01*
X191475518Y-118024188D01*
X191355820Y-118060498D01*
X191245506Y-118119463D01*
X191148815Y-118198815D01*
X191069463Y-118295506D01*
X191010498Y-118405820D01*
X190974188Y-118525518D01*
X190961928Y-118650000D01*
X190038072Y-118650000D01*
X190025812Y-118525518D01*
X189989502Y-118405820D01*
X189930537Y-118295506D01*
X189851185Y-118198815D01*
X189754494Y-118119463D01*
X189644180Y-118060498D01*
X189524482Y-118024188D01*
X189450389Y-118016891D01*
X189527901Y-117965099D01*
X189665099Y-117827901D01*
X189772896Y-117666572D01*
X189847147Y-117487314D01*
X189885000Y-117297014D01*
X189885000Y-117226746D01*
X190000000Y-117238072D01*
X190164250Y-117235000D01*
X190323000Y-117076250D01*
X190323000Y-116427000D01*
X190303000Y-116427000D01*
X190303000Y-116173000D01*
X190323000Y-116173000D01*
X190323000Y-116153000D01*
X190577000Y-116153000D01*
X190577000Y-116173000D01*
X190597000Y-116173000D01*
X190597000Y-116427000D01*
X190577000Y-116427000D01*
X190577000Y-117076250D01*
X190735750Y-117235000D01*
X190900000Y-117238072D01*
X190976039Y-117230583D01*
X191010498Y-117344180D01*
X191069463Y-117454494D01*
X191148815Y-117551185D01*
X191245506Y-117630537D01*
X191355820Y-117689502D01*
X191475518Y-117725812D01*
X191600000Y-117738072D01*
X191964250Y-117735000D01*
X192123000Y-117576250D01*
X192123000Y-116877000D01*
X192377000Y-116877000D01*
X192377000Y-117576250D01*
X192535750Y-117735000D01*
X192900000Y-117738072D01*
X193024482Y-117725812D01*
X193144180Y-117689502D01*
X193246771Y-117634665D01*
X193255820Y-117639502D01*
X193375518Y-117675812D01*
X193500000Y-117688072D01*
X193664250Y-117685000D01*
X193823000Y-117526250D01*
X193823000Y-116877000D01*
X194077000Y-116877000D01*
X194077000Y-117526250D01*
X194235750Y-117685000D01*
X194400000Y-117688072D01*
X194524482Y-117675812D01*
X194644180Y-117639502D01*
X194750000Y-117582939D01*
X194855820Y-117639502D01*
X194975518Y-117675812D01*
X195100000Y-117688072D01*
X195264250Y-117685000D01*
X195423000Y-117526250D01*
X195423000Y-116877000D01*
X194077000Y-116877000D01*
X193823000Y-116877000D01*
X192377000Y-116877000D01*
X192123000Y-116877000D01*
X192103000Y-116877000D01*
X192103000Y-116623000D01*
X192123000Y-116623000D01*
X192123000Y-116603000D01*
X192377000Y-116603000D01*
X192377000Y-116623000D01*
X193823000Y-116623000D01*
X193823000Y-116603000D01*
X194077000Y-116603000D01*
X194077000Y-116623000D01*
X195423000Y-116623000D01*
X195423000Y-116603000D01*
X195677000Y-116603000D01*
X195677000Y-116623000D01*
X195697000Y-116623000D01*
X195697000Y-116877000D01*
X195677000Y-116877000D01*
X195677000Y-117526250D01*
X195835750Y-117685000D01*
X196000000Y-117688072D01*
X196017942Y-117686305D01*
X196035498Y-117744180D01*
X196094463Y-117854494D01*
X196173815Y-117951185D01*
X196270506Y-118030537D01*
X196380820Y-118089502D01*
X196500518Y-118125812D01*
X196625000Y-118138072D01*
X196989250Y-118135000D01*
X197147998Y-117976252D01*
X197147998Y-118135000D01*
X197206574Y-118135000D01*
X197128815Y-118198815D01*
X197049463Y-118295506D01*
X196990498Y-118405820D01*
X196954188Y-118525518D01*
X196941928Y-118650000D01*
X196945000Y-118864250D01*
X197103750Y-119023000D01*
X199953000Y-119023000D01*
X199953000Y-119003000D01*
X200207000Y-119003000D01*
X200207000Y-119023000D01*
X200227000Y-119023000D01*
X200227000Y-119277000D01*
X200207000Y-119277000D01*
X200207000Y-120126250D01*
X200365750Y-120285000D01*
X201565712Y-120286665D01*
X201580000Y-120288072D01*
X201668223Y-120286807D01*
X202580000Y-120288072D01*
X202704482Y-120275812D01*
X202824180Y-120239502D01*
X202934494Y-120180537D01*
X203031185Y-120101185D01*
X203110537Y-120004494D01*
X203169502Y-119894180D01*
X203205812Y-119774482D01*
X203218072Y-119650000D01*
X203216936Y-118729249D01*
X203218072Y-118650000D01*
X203216822Y-118637310D01*
X203215000Y-117160750D01*
X203056250Y-117002000D01*
X202207000Y-117002000D01*
X202207000Y-117022000D01*
X201953000Y-117022000D01*
X201953000Y-117002000D01*
X201103750Y-117002000D01*
X200945000Y-117160750D01*
X200943947Y-118014198D01*
X200906744Y-118014249D01*
X200913072Y-117950000D01*
X200913072Y-117050000D01*
X200900812Y-116925518D01*
X200864502Y-116805820D01*
X200805537Y-116695506D01*
X200737364Y-116612437D01*
X200944773Y-116405029D01*
X200945000Y-116589250D01*
X201103750Y-116748000D01*
X201953000Y-116748000D01*
X201953000Y-116728000D01*
X202207000Y-116728000D01*
X202207000Y-116748000D01*
X203056250Y-116748000D01*
X203215000Y-116589250D01*
X203218072Y-114100000D01*
X203205812Y-113975518D01*
X203169502Y-113855820D01*
X203158373Y-113835000D01*
X203161447Y-113835000D01*
X203200000Y-113838797D01*
X203238553Y-113835000D01*
X203238561Y-113835000D01*
X203353887Y-113823641D01*
X203501860Y-113778754D01*
X203638233Y-113705862D01*
X203757764Y-113607764D01*
X203782347Y-113577810D01*
X204560157Y-112800000D01*
X205661928Y-112800000D01*
X205674188Y-112924482D01*
X205710498Y-113044180D01*
X205769463Y-113154494D01*
X205848815Y-113251185D01*
X205945506Y-113330537D01*
X206055820Y-113389502D01*
X206175518Y-113425812D01*
X206300000Y-113438072D01*
X206864250Y-113435000D01*
X207023000Y-113276250D01*
X207023000Y-112627000D01*
X205823750Y-112627000D01*
X205665000Y-112785750D01*
X205661928Y-112800000D01*
X204560157Y-112800000D01*
X205075158Y-112285000D01*
X205735750Y-112285000D01*
X205823750Y-112373000D01*
X206024947Y-112373000D01*
X206055820Y-112389502D01*
X206175518Y-112425812D01*
X206300000Y-112438072D01*
X207297000Y-112438072D01*
X207297000Y-112627000D01*
X207277000Y-112627000D01*
X207277000Y-113276250D01*
X207435750Y-113435000D01*
X208000000Y-113438072D01*
X208124482Y-113425812D01*
X208244180Y-113389502D01*
X208354494Y-113330537D01*
X208451185Y-113251185D01*
X208461928Y-113238095D01*
X208461928Y-113900000D01*
X208474188Y-114024482D01*
X208510498Y-114144180D01*
X208569463Y-114254494D01*
X208648815Y-114351185D01*
X208745506Y-114430537D01*
X208855820Y-114489502D01*
X208975518Y-114525812D01*
X209100000Y-114538072D01*
X211840001Y-114538072D01*
X211840001Y-121840000D01*
X165273381Y-121840000D01*
X162989616Y-119556236D01*
X162968948Y-119531052D01*
X162868450Y-119448575D01*
X162753793Y-119387290D01*
X162629383Y-119349550D01*
X162532419Y-119340000D01*
X162532409Y-119340000D01*
X162500000Y-119336808D01*
X162467591Y-119340000D01*
X100660000Y-119340000D01*
X100660000Y-118650000D01*
X171781928Y-118650000D01*
X171783064Y-118729249D01*
X171781928Y-119650000D01*
X171794188Y-119774482D01*
X171830498Y-119894180D01*
X171889463Y-120004494D01*
X171968815Y-120101185D01*
X172065506Y-120180537D01*
X172175820Y-120239502D01*
X172295518Y-120275812D01*
X172420000Y-120288072D01*
X173331777Y-120286807D01*
X173420000Y-120288072D01*
X173434288Y-120286665D01*
X174634250Y-120285000D01*
X174793000Y-120126250D01*
X174793000Y-119277000D01*
X175047000Y-119277000D01*
X175047000Y-120126250D01*
X175205750Y-120285000D01*
X177420000Y-120288072D01*
X177544482Y-120275812D01*
X177664180Y-120239502D01*
X177774494Y-120180537D01*
X177871185Y-120101185D01*
X177950537Y-120004494D01*
X178009502Y-119894180D01*
X178045812Y-119774482D01*
X178058072Y-119650000D01*
X178961928Y-119650000D01*
X178974188Y-119774482D01*
X179010498Y-119894180D01*
X179069463Y-120004494D01*
X179148815Y-120101185D01*
X179245506Y-120180537D01*
X179355820Y-120239502D01*
X179475518Y-120275812D01*
X179600000Y-120288072D01*
X181214250Y-120285000D01*
X181373000Y-120126250D01*
X181373000Y-119277000D01*
X181627000Y-119277000D01*
X181627000Y-120126250D01*
X181785750Y-120285000D01*
X183400000Y-120288072D01*
X183524482Y-120275812D01*
X183644180Y-120239502D01*
X183754494Y-120180537D01*
X183851185Y-120101185D01*
X183930537Y-120004494D01*
X183989502Y-119894180D01*
X184025812Y-119774482D01*
X184038072Y-119650000D01*
X184961928Y-119650000D01*
X184974188Y-119774482D01*
X185010498Y-119894180D01*
X185069463Y-120004494D01*
X185148815Y-120101185D01*
X185245506Y-120180537D01*
X185355820Y-120239502D01*
X185475518Y-120275812D01*
X185600000Y-120288072D01*
X187214250Y-120285000D01*
X187373000Y-120126250D01*
X187373000Y-119277000D01*
X187627000Y-119277000D01*
X187627000Y-120126250D01*
X187785750Y-120285000D01*
X189400000Y-120288072D01*
X189524482Y-120275812D01*
X189644180Y-120239502D01*
X189754494Y-120180537D01*
X189851185Y-120101185D01*
X189930537Y-120004494D01*
X189989502Y-119894180D01*
X190025812Y-119774482D01*
X190038072Y-119650000D01*
X190961928Y-119650000D01*
X190974188Y-119774482D01*
X191010498Y-119894180D01*
X191069463Y-120004494D01*
X191148815Y-120101185D01*
X191245506Y-120180537D01*
X191355820Y-120239502D01*
X191475518Y-120275812D01*
X191600000Y-120288072D01*
X193214250Y-120285000D01*
X193373000Y-120126250D01*
X193373000Y-119277000D01*
X193627000Y-119277000D01*
X193627000Y-120126250D01*
X193785750Y-120285000D01*
X195400000Y-120288072D01*
X195524482Y-120275812D01*
X195644180Y-120239502D01*
X195754494Y-120180537D01*
X195851185Y-120101185D01*
X195930537Y-120004494D01*
X195989502Y-119894180D01*
X196025812Y-119774482D01*
X196038072Y-119650000D01*
X196941928Y-119650000D01*
X196954188Y-119774482D01*
X196990498Y-119894180D01*
X197049463Y-120004494D01*
X197128815Y-120101185D01*
X197225506Y-120180537D01*
X197335820Y-120239502D01*
X197455518Y-120275812D01*
X197580000Y-120288072D01*
X199794250Y-120285000D01*
X199953000Y-120126250D01*
X199953000Y-119277000D01*
X197103750Y-119277000D01*
X196945000Y-119435750D01*
X196941928Y-119650000D01*
X196038072Y-119650000D01*
X196035000Y-119435750D01*
X195876250Y-119277000D01*
X193627000Y-119277000D01*
X193373000Y-119277000D01*
X191123750Y-119277000D01*
X190965000Y-119435750D01*
X190961928Y-119650000D01*
X190038072Y-119650000D01*
X190035000Y-119435750D01*
X189876250Y-119277000D01*
X187627000Y-119277000D01*
X187373000Y-119277000D01*
X185123750Y-119277000D01*
X184965000Y-119435750D01*
X184961928Y-119650000D01*
X184038072Y-119650000D01*
X184035000Y-119435750D01*
X183876250Y-119277000D01*
X181627000Y-119277000D01*
X181373000Y-119277000D01*
X179123750Y-119277000D01*
X178965000Y-119435750D01*
X178961928Y-119650000D01*
X178058072Y-119650000D01*
X178055000Y-119435750D01*
X177896250Y-119277000D01*
X175047000Y-119277000D01*
X174793000Y-119277000D01*
X174773000Y-119277000D01*
X174773000Y-119023000D01*
X174793000Y-119023000D01*
X174793000Y-118173750D01*
X175047000Y-118173750D01*
X175047000Y-119023000D01*
X177896250Y-119023000D01*
X178055000Y-118864250D01*
X178058072Y-118650000D01*
X178045812Y-118525518D01*
X178009502Y-118405820D01*
X177950537Y-118295506D01*
X177871185Y-118198815D01*
X177774494Y-118119463D01*
X177664180Y-118060498D01*
X177544482Y-118024188D01*
X177420000Y-118011928D01*
X175205750Y-118015000D01*
X175047000Y-118173750D01*
X174793000Y-118173750D01*
X174634250Y-118015000D01*
X174056053Y-118014198D01*
X174055000Y-117160750D01*
X173896250Y-117002000D01*
X173047000Y-117002000D01*
X173047000Y-117022000D01*
X172793000Y-117022000D01*
X172793000Y-117002000D01*
X171943750Y-117002000D01*
X171785000Y-117160750D01*
X171783178Y-118637310D01*
X171781928Y-118650000D01*
X100660000Y-118650000D01*
X100660000Y-115649156D01*
X102214250Y-115647000D01*
X102373000Y-115488250D01*
X102373000Y-114377000D01*
X102627000Y-114377000D01*
X102627000Y-115488250D01*
X102785750Y-115647000D01*
X105000000Y-115650072D01*
X105124482Y-115637812D01*
X105244180Y-115601502D01*
X105354494Y-115542537D01*
X105451185Y-115463185D01*
X105530537Y-115366494D01*
X105589502Y-115256180D01*
X105625812Y-115136482D01*
X105638072Y-115012000D01*
X105635000Y-114535750D01*
X105476250Y-114377000D01*
X102627000Y-114377000D01*
X102373000Y-114377000D01*
X102353000Y-114377000D01*
X102353000Y-114123000D01*
X102373000Y-114123000D01*
X102373000Y-113011750D01*
X102627000Y-113011750D01*
X102627000Y-114123000D01*
X105476250Y-114123000D01*
X105635000Y-113964250D01*
X105638072Y-113488000D01*
X105625812Y-113363518D01*
X105589502Y-113243820D01*
X105530537Y-113133506D01*
X105451185Y-113036815D01*
X105354494Y-112957463D01*
X105244180Y-112898498D01*
X105124482Y-112862188D01*
X105000000Y-112849928D01*
X102785750Y-112853000D01*
X102627000Y-113011750D01*
X102373000Y-113011750D01*
X102214250Y-112853000D01*
X100660000Y-112850844D01*
X100660000Y-111400072D01*
X105000000Y-111400072D01*
X105124482Y-111387812D01*
X105244180Y-111351502D01*
X105354494Y-111292537D01*
X105451185Y-111213185D01*
X105515350Y-111135000D01*
X109269119Y-111135000D01*
X109219463Y-111195506D01*
X109160498Y-111305820D01*
X109124188Y-111425518D01*
X109111928Y-111550000D01*
X109111928Y-112250000D01*
X109124188Y-112374482D01*
X109160498Y-112494180D01*
X109219463Y-112604494D01*
X109298815Y-112701185D01*
X109395506Y-112780537D01*
X109505820Y-112839502D01*
X109625518Y-112875812D01*
X109750000Y-112888072D01*
X109840816Y-112888072D01*
X109963553Y-112953676D01*
X110177501Y-113018577D01*
X110344248Y-113035000D01*
X112744249Y-113035000D01*
X112800000Y-113040491D01*
X112855752Y-113035000D01*
X115719250Y-113035000D01*
X115775001Y-113040491D01*
X115830752Y-113035000D01*
X115830753Y-113035000D01*
X115997500Y-113018577D01*
X116211448Y-112953676D01*
X116408624Y-112848284D01*
X116581450Y-112706449D01*
X116616997Y-112663135D01*
X116866988Y-112413144D01*
X116973283Y-112283623D01*
X117078676Y-112086447D01*
X117127544Y-111925353D01*
X117133843Y-111938060D01*
X117210193Y-112037139D01*
X117304406Y-112119419D01*
X117412860Y-112181737D01*
X117531388Y-112221701D01*
X117643250Y-112235000D01*
X117802000Y-112076250D01*
X117802000Y-111473000D01*
X117755250Y-111473000D01*
X117802000Y-111426250D01*
X117802000Y-111253000D01*
X117948000Y-111253000D01*
X117948000Y-111426250D01*
X117994750Y-111473000D01*
X117948000Y-111473000D01*
X117948000Y-112076250D01*
X118106750Y-112235000D01*
X118218612Y-112221701D01*
X118337140Y-112181737D01*
X118445594Y-112119419D01*
X118539807Y-112037139D01*
X118616157Y-111938060D01*
X118671711Y-111825990D01*
X118704334Y-111705235D01*
X118710000Y-111631750D01*
X118551250Y-111473000D01*
X118439362Y-111473000D01*
X118445594Y-111469419D01*
X118539807Y-111387139D01*
X118616157Y-111288060D01*
X118641682Y-111236568D01*
X118710000Y-111168250D01*
X118704334Y-111094765D01*
X118698994Y-111075000D01*
X118704334Y-111055235D01*
X118709749Y-110984999D01*
X119540018Y-110984999D01*
X119595506Y-111030537D01*
X119705820Y-111089502D01*
X119825518Y-111125812D01*
X119950000Y-111138072D01*
X120650000Y-111138072D01*
X120774482Y-111125812D01*
X120894180Y-111089502D01*
X121004494Y-111030537D01*
X121101185Y-110951185D01*
X121180537Y-110854494D01*
X121239502Y-110744180D01*
X121250000Y-110709573D01*
X121260498Y-110744180D01*
X121319463Y-110854494D01*
X121398815Y-110951185D01*
X121495506Y-111030537D01*
X121605820Y-111089502D01*
X121725518Y-111125812D01*
X121850000Y-111138072D01*
X122550000Y-111138072D01*
X122674482Y-111125812D01*
X122794180Y-111089502D01*
X122904494Y-111030537D01*
X122959982Y-110984999D01*
X123532838Y-110984999D01*
X123535518Y-110985812D01*
X123660000Y-110998072D01*
X125440000Y-110998072D01*
X125564482Y-110985812D01*
X125567159Y-110985000D01*
X125740019Y-110985000D01*
X125795506Y-111030537D01*
X125905820Y-111089502D01*
X126025518Y-111125812D01*
X126150000Y-111138072D01*
X126850000Y-111138072D01*
X126974482Y-111125812D01*
X127094180Y-111089502D01*
X127204494Y-111030537D01*
X127301185Y-110951185D01*
X127380537Y-110854494D01*
X127439502Y-110744180D01*
X127450000Y-110709573D01*
X127460498Y-110744180D01*
X127519463Y-110854494D01*
X127598815Y-110951185D01*
X127695506Y-111030537D01*
X127805820Y-111089502D01*
X127925518Y-111125812D01*
X128050000Y-111138072D01*
X128750000Y-111138072D01*
X128874482Y-111125812D01*
X128994180Y-111089502D01*
X129104494Y-111030537D01*
X129159981Y-110985000D01*
X130930753Y-110985000D01*
X131097500Y-110968577D01*
X131311448Y-110903676D01*
X131508624Y-110798284D01*
X131681450Y-110656449D01*
X131823285Y-110483623D01*
X131928677Y-110286447D01*
X131993578Y-110072499D01*
X131994865Y-110059429D01*
X132033843Y-110138060D01*
X132110193Y-110237139D01*
X132204406Y-110319419D01*
X132312860Y-110381737D01*
X132431388Y-110421701D01*
X132543250Y-110435000D01*
X132702000Y-110276250D01*
X132702000Y-109673000D01*
X132655250Y-109673000D01*
X132702000Y-109626250D01*
X132702000Y-109453000D01*
X132848000Y-109453000D01*
X132848000Y-109626250D01*
X132894750Y-109673000D01*
X132848000Y-109673000D01*
X132848000Y-110276250D01*
X133006750Y-110435000D01*
X133118612Y-110421701D01*
X133237140Y-110381737D01*
X133345594Y-110319419D01*
X133439807Y-110237139D01*
X133516157Y-110138060D01*
X133571711Y-110025990D01*
X133604334Y-109905235D01*
X133610000Y-109831750D01*
X133451250Y-109673000D01*
X133339362Y-109673000D01*
X133345594Y-109669419D01*
X133439807Y-109587139D01*
X133516157Y-109488060D01*
X133541682Y-109436568D01*
X133610000Y-109368250D01*
X133604334Y-109294765D01*
X133598994Y-109275000D01*
X133604334Y-109255235D01*
X133609750Y-109184998D01*
X135440018Y-109184999D01*
X135495506Y-109230537D01*
X135605820Y-109289502D01*
X135725518Y-109325812D01*
X135850000Y-109338072D01*
X136550000Y-109338072D01*
X136674482Y-109325812D01*
X136794180Y-109289502D01*
X136904494Y-109230537D01*
X137001185Y-109151185D01*
X137080537Y-109054494D01*
X137139502Y-108944180D01*
X137150000Y-108909573D01*
X137160498Y-108944180D01*
X137219463Y-109054494D01*
X137298815Y-109151185D01*
X137395506Y-109230537D01*
X137505820Y-109289502D01*
X137625518Y-109325812D01*
X137750000Y-109338072D01*
X138450000Y-109338072D01*
X138574482Y-109325812D01*
X138694180Y-109289502D01*
X138804494Y-109230537D01*
X138901185Y-109151185D01*
X138980537Y-109054494D01*
X139039502Y-108944180D01*
X139075812Y-108824482D01*
X139088072Y-108700000D01*
X139088072Y-108667059D01*
X139620132Y-108135000D01*
X171781995Y-108135000D01*
X171785000Y-109714250D01*
X171943750Y-109873000D01*
X172793000Y-109873000D01*
X172793000Y-109853000D01*
X173047000Y-109853000D01*
X173047000Y-109873000D01*
X173896250Y-109873000D01*
X174055000Y-109714250D01*
X174058005Y-108135000D01*
X174555752Y-108135000D01*
X174722499Y-108118577D01*
X174936447Y-108053676D01*
X175133623Y-107948284D01*
X175182421Y-107908236D01*
X175244180Y-107889502D01*
X175250000Y-107886391D01*
X175255820Y-107889502D01*
G37*
X175255820Y-107889502D02*
X175296364Y-107901801D01*
X175219463Y-107995506D01*
X175160498Y-108105820D01*
X175124188Y-108225518D01*
X175111928Y-108350000D01*
X175115000Y-108714250D01*
X175273750Y-108873000D01*
X175973000Y-108873000D01*
X175973000Y-108853000D01*
X176227000Y-108853000D01*
X176227000Y-108873000D01*
X176247000Y-108873000D01*
X176247000Y-109127000D01*
X176227000Y-109127000D01*
X176227000Y-109147000D01*
X175973000Y-109147000D01*
X175973000Y-109127000D01*
X175273750Y-109127000D01*
X175115000Y-109285750D01*
X175111928Y-109650000D01*
X175124188Y-109774482D01*
X175160498Y-109894180D01*
X175219463Y-110004494D01*
X175298815Y-110101185D01*
X175395506Y-110180537D01*
X175505820Y-110239502D01*
X175625518Y-110275812D01*
X175626487Y-110275907D01*
X175610498Y-110305820D01*
X175574188Y-110425518D01*
X175561928Y-110550000D01*
X175565000Y-110714250D01*
X175723750Y-110873000D01*
X176373000Y-110873000D01*
X176373000Y-110853000D01*
X176627000Y-110853000D01*
X176627000Y-110873000D01*
X176647000Y-110873000D01*
X176647000Y-111127000D01*
X176627000Y-111127000D01*
X176627000Y-111147000D01*
X176373000Y-111147000D01*
X176373000Y-111127000D01*
X175723750Y-111127000D01*
X175565000Y-111285750D01*
X175561928Y-111450000D01*
X175574188Y-111574482D01*
X175610498Y-111694180D01*
X175669463Y-111804494D01*
X175741547Y-111892329D01*
X175563553Y-111946324D01*
X175375000Y-112047107D01*
X175186447Y-111946324D01*
X174972499Y-111881423D01*
X174805752Y-111865000D01*
X174058005Y-111865000D01*
X174055000Y-110285750D01*
X173896250Y-110127000D01*
X173047000Y-110127000D01*
X173047000Y-110147000D01*
X172793000Y-110147000D01*
X172793000Y-110127000D01*
X171943750Y-110127000D01*
X171785000Y-110285750D01*
X171781995Y-111865000D01*
X171044248Y-111865000D01*
X170877501Y-111881423D01*
X170663553Y-111946324D01*
X170466377Y-112051716D01*
X170441729Y-112071944D01*
X170381750Y-112065000D01*
X170223000Y-112223750D01*
X170223000Y-112279517D01*
X170151716Y-112366377D01*
X170046324Y-112563553D01*
X169981423Y-112777501D01*
X169977000Y-112822409D01*
X169977000Y-112223750D01*
X169818250Y-112065000D01*
X169709476Y-112077594D01*
X169590751Y-112116968D01*
X169481988Y-112178748D01*
X169387369Y-112260559D01*
X169310527Y-112359258D01*
X169254418Y-112471051D01*
X169221196Y-112591643D01*
X169215000Y-112714250D01*
X169373750Y-112873000D01*
X169972017Y-112873000D01*
X169959509Y-113000000D01*
X169972017Y-113127000D01*
X169373750Y-113127000D01*
X169215000Y-113285750D01*
X169221196Y-113408357D01*
X169254418Y-113528949D01*
X169310527Y-113640742D01*
X169387369Y-113739441D01*
X169481988Y-113821252D01*
X169590751Y-113883032D01*
X169709476Y-113922406D01*
X169818250Y-113935000D01*
X169977000Y-113776250D01*
X169977000Y-113177591D01*
X169981423Y-113222499D01*
X170046324Y-113436447D01*
X170151716Y-113633623D01*
X170223000Y-113720483D01*
X170223000Y-113776250D01*
X170381750Y-113935000D01*
X170441729Y-113928056D01*
X170466377Y-113948284D01*
X170663553Y-114053676D01*
X170877501Y-114118577D01*
X171044248Y-114135000D01*
X171781971Y-114135000D01*
X171785000Y-116589250D01*
X171943750Y-116748000D01*
X172793000Y-116748000D01*
X172793000Y-116728000D01*
X173047000Y-116728000D01*
X173047000Y-116748000D01*
X173896250Y-116748000D01*
X174055000Y-116589250D01*
X174058029Y-114135000D01*
X174805752Y-114135000D01*
X174865000Y-114129165D01*
X174865000Y-114805752D01*
X174881424Y-114972499D01*
X174915290Y-115084141D01*
X174924188Y-115174482D01*
X174960498Y-115294180D01*
X175019463Y-115404494D01*
X175097842Y-115500000D01*
X175019463Y-115595506D01*
X174960498Y-115705820D01*
X174924188Y-115825518D01*
X174915291Y-115915854D01*
X174881423Y-116027501D01*
X174859509Y-116250000D01*
X174881423Y-116472499D01*
X174915291Y-116584146D01*
X174924188Y-116674482D01*
X174960498Y-116794180D01*
X175019463Y-116904494D01*
X175098815Y-117001185D01*
X175195506Y-117080537D01*
X175274076Y-117122534D01*
X175366377Y-117198284D01*
X175563553Y-117303676D01*
X175777501Y-117368577D01*
X175944248Y-117385000D01*
X180255752Y-117385000D01*
X180422499Y-117368577D01*
X180523060Y-117338072D01*
X181000000Y-117338072D01*
X181038567Y-117334274D01*
X181040000Y-117364250D01*
X181198750Y-117523000D01*
X182198000Y-117523000D01*
X182198000Y-117503000D01*
X182452000Y-117503000D01*
X182452000Y-117523000D01*
X182472000Y-117523000D01*
X182472000Y-117777000D01*
X182452000Y-117777000D01*
X182452000Y-117797000D01*
X182198000Y-117797000D01*
X182198000Y-117777000D01*
X181198750Y-117777000D01*
X181040000Y-117935750D01*
X181036928Y-118000000D01*
X181038372Y-118014665D01*
X179600000Y-118011928D01*
X179475518Y-118024188D01*
X179355820Y-118060498D01*
X179245506Y-118119463D01*
X179148815Y-118198815D01*
X179069463Y-118295506D01*
X179010498Y-118405820D01*
X178974188Y-118525518D01*
X178961928Y-118650000D01*
X178965000Y-118864250D01*
X179123750Y-119023000D01*
X181373000Y-119023000D01*
X181373000Y-119003000D01*
X181627000Y-119003000D01*
X181627000Y-119023000D01*
X183876250Y-119023000D01*
X184035000Y-118864250D01*
X184038072Y-118650000D01*
X184961928Y-118650000D01*
X184965000Y-118864250D01*
X185123750Y-119023000D01*
X187373000Y-119023000D01*
X187373000Y-118173750D01*
X187214250Y-118015000D01*
X185600000Y-118011928D01*
X185475518Y-118024188D01*
X185355820Y-118060498D01*
X185245506Y-118119463D01*
X185148815Y-118198815D01*
X185069463Y-118295506D01*
X185010498Y-118405820D01*
X184974188Y-118525518D01*
X184961928Y-118650000D01*
X184038072Y-118650000D01*
X184025812Y-118525518D01*
X183989502Y-118405820D01*
X183930537Y-118295506D01*
X183851185Y-118198815D01*
X183754494Y-118119463D01*
X183644180Y-118060498D01*
X183608189Y-118049580D01*
X183613072Y-118000000D01*
X183610000Y-117935750D01*
X183451252Y-117777002D01*
X183610000Y-117777002D01*
X183610000Y-117687355D01*
X183889250Y-117685000D01*
X184048000Y-117526250D01*
X184048000Y-116827000D01*
X184028000Y-116827000D01*
X184028000Y-116573000D01*
X184048000Y-116573000D01*
X184048000Y-116553000D01*
X184302000Y-116553000D01*
X184302000Y-116573000D01*
X184322000Y-116573000D01*
X184322000Y-116827000D01*
X184302000Y-116827000D01*
X184302000Y-117526250D01*
X184460750Y-117685000D01*
X184825000Y-117688072D01*
X184949482Y-117675812D01*
X185069180Y-117639502D01*
X185179494Y-117580537D01*
X185276185Y-117501185D01*
X185355537Y-117404494D01*
X185414502Y-117294180D01*
X185431987Y-117236539D01*
X185514250Y-117235000D01*
X185673000Y-117076250D01*
X185673000Y-116427000D01*
X185927000Y-116427000D01*
X185927000Y-117076250D01*
X186085750Y-117235000D01*
X186250000Y-117238072D01*
X186374482Y-117225812D01*
X186494180Y-117189502D01*
X186575000Y-117146302D01*
X186655820Y-117189502D01*
X186775518Y-117225812D01*
X186900000Y-117238072D01*
X187064250Y-117235000D01*
X187223000Y-117076250D01*
X187223000Y-116427000D01*
X185927000Y-116427000D01*
X185673000Y-116427000D01*
X185653000Y-116427000D01*
X185653000Y-116173000D01*
X185673000Y-116173000D01*
X185673000Y-116153000D01*
X185927000Y-116153000D01*
X185927000Y-116173000D01*
X187223000Y-116173000D01*
X187223000Y-116153000D01*
X187477000Y-116153000D01*
X187477000Y-116173000D01*
X187497000Y-116173000D01*
X187497000Y-116427000D01*
X187477000Y-116427000D01*
X187477000Y-117076250D01*
X187635750Y-117235000D01*
X187800000Y-117238072D01*
X187915000Y-117226746D01*
X187915000Y-117297014D01*
X187952853Y-117487314D01*
X188027104Y-117666572D01*
X188134901Y-117827901D01*
X188272099Y-117965099D01*
X188345188Y-118013935D01*
X187785750Y-118015000D01*
X187627000Y-118173750D01*
X187627000Y-119023000D01*
X189876250Y-119023000D01*
X190035000Y-118864250D01*
X190038072Y-118650000D01*
X190961928Y-118650000D01*
X190965000Y-118864250D01*
X191123750Y-119023000D01*
X193373000Y-119023000D01*
X193373000Y-118173750D01*
X193627000Y-118173750D01*
X193627000Y-119023000D01*
X195876250Y-119023000D01*
X196035000Y-118864250D01*
X196038072Y-118650000D01*
X196025812Y-118525518D01*
X195989502Y-118405820D01*
X195930537Y-118295506D01*
X195851185Y-118198815D01*
X195754494Y-118119463D01*
X195644180Y-118060498D01*
X195524482Y-118024188D01*
X195400000Y-118011928D01*
X193785750Y-118015000D01*
X193627000Y-118173750D01*
X193373000Y-118173750D01*
X193214250Y-118015000D01*
X191600000Y-118011928D01*
X191475518Y-118024188D01*
X191355820Y-118060498D01*
X191245506Y-118119463D01*
X191148815Y-118198815D01*
X191069463Y-118295506D01*
X191010498Y-118405820D01*
X190974188Y-118525518D01*
X190961928Y-118650000D01*
X190038072Y-118650000D01*
X190025812Y-118525518D01*
X189989502Y-118405820D01*
X189930537Y-118295506D01*
X189851185Y-118198815D01*
X189754494Y-118119463D01*
X189644180Y-118060498D01*
X189524482Y-118024188D01*
X189450389Y-118016891D01*
X189527901Y-117965099D01*
X189665099Y-117827901D01*
X189772896Y-117666572D01*
X189847147Y-117487314D01*
X189885000Y-117297014D01*
X189885000Y-117226746D01*
X190000000Y-117238072D01*
X190164250Y-117235000D01*
X190323000Y-117076250D01*
X190323000Y-116427000D01*
X190303000Y-116427000D01*
X190303000Y-116173000D01*
X190323000Y-116173000D01*
X190323000Y-116153000D01*
X190577000Y-116153000D01*
X190577000Y-116173000D01*
X190597000Y-116173000D01*
X190597000Y-116427000D01*
X190577000Y-116427000D01*
X190577000Y-117076250D01*
X190735750Y-117235000D01*
X190900000Y-117238072D01*
X190976039Y-117230583D01*
X191010498Y-117344180D01*
X191069463Y-117454494D01*
X191148815Y-117551185D01*
X191245506Y-117630537D01*
X191355820Y-117689502D01*
X191475518Y-117725812D01*
X191600000Y-117738072D01*
X191964250Y-117735000D01*
X192123000Y-117576250D01*
X192123000Y-116877000D01*
X192377000Y-116877000D01*
X192377000Y-117576250D01*
X192535750Y-117735000D01*
X192900000Y-117738072D01*
X193024482Y-117725812D01*
X193144180Y-117689502D01*
X193246771Y-117634665D01*
X193255820Y-117639502D01*
X193375518Y-117675812D01*
X193500000Y-117688072D01*
X193664250Y-117685000D01*
X193823000Y-117526250D01*
X193823000Y-116877000D01*
X194077000Y-116877000D01*
X194077000Y-117526250D01*
X194235750Y-117685000D01*
X194400000Y-117688072D01*
X194524482Y-117675812D01*
X194644180Y-117639502D01*
X194750000Y-117582939D01*
X194855820Y-117639502D01*
X194975518Y-117675812D01*
X195100000Y-117688072D01*
X195264250Y-117685000D01*
X195423000Y-117526250D01*
X195423000Y-116877000D01*
X194077000Y-116877000D01*
X193823000Y-116877000D01*
X192377000Y-116877000D01*
X192123000Y-116877000D01*
X192103000Y-116877000D01*
X192103000Y-116623000D01*
X192123000Y-116623000D01*
X192123000Y-116603000D01*
X192377000Y-116603000D01*
X192377000Y-116623000D01*
X193823000Y-116623000D01*
X193823000Y-116603000D01*
X194077000Y-116603000D01*
X194077000Y-116623000D01*
X195423000Y-116623000D01*
X195423000Y-116603000D01*
X195677000Y-116603000D01*
X195677000Y-116623000D01*
X195697000Y-116623000D01*
X195697000Y-116877000D01*
X195677000Y-116877000D01*
X195677000Y-117526250D01*
X195835750Y-117685000D01*
X196000000Y-117688072D01*
X196017942Y-117686305D01*
X196035498Y-117744180D01*
X196094463Y-117854494D01*
X196173815Y-117951185D01*
X196270506Y-118030537D01*
X196380820Y-118089502D01*
X196500518Y-118125812D01*
X196625000Y-118138072D01*
X196989250Y-118135000D01*
X197147998Y-117976252D01*
X197147998Y-118135000D01*
X197206574Y-118135000D01*
X197128815Y-118198815D01*
X197049463Y-118295506D01*
X196990498Y-118405820D01*
X196954188Y-118525518D01*
X196941928Y-118650000D01*
X196945000Y-118864250D01*
X197103750Y-119023000D01*
X199953000Y-119023000D01*
X199953000Y-119003000D01*
X200207000Y-119003000D01*
X200207000Y-119023000D01*
X200227000Y-119023000D01*
X200227000Y-119277000D01*
X200207000Y-119277000D01*
X200207000Y-120126250D01*
X200365750Y-120285000D01*
X201565712Y-120286665D01*
X201580000Y-120288072D01*
X201668223Y-120286807D01*
X202580000Y-120288072D01*
X202704482Y-120275812D01*
X202824180Y-120239502D01*
X202934494Y-120180537D01*
X203031185Y-120101185D01*
X203110537Y-120004494D01*
X203169502Y-119894180D01*
X203205812Y-119774482D01*
X203218072Y-119650000D01*
X203216936Y-118729249D01*
X203218072Y-118650000D01*
X203216822Y-118637310D01*
X203215000Y-117160750D01*
X203056250Y-117002000D01*
X202207000Y-117002000D01*
X202207000Y-117022000D01*
X201953000Y-117022000D01*
X201953000Y-117002000D01*
X201103750Y-117002000D01*
X200945000Y-117160750D01*
X200943947Y-118014198D01*
X200906744Y-118014249D01*
X200913072Y-117950000D01*
X200913072Y-117050000D01*
X200900812Y-116925518D01*
X200864502Y-116805820D01*
X200805537Y-116695506D01*
X200737364Y-116612437D01*
X200944773Y-116405029D01*
X200945000Y-116589250D01*
X201103750Y-116748000D01*
X201953000Y-116748000D01*
X201953000Y-116728000D01*
X202207000Y-116728000D01*
X202207000Y-116748000D01*
X203056250Y-116748000D01*
X203215000Y-116589250D01*
X203218072Y-114100000D01*
X203205812Y-113975518D01*
X203169502Y-113855820D01*
X203158373Y-113835000D01*
X203161447Y-113835000D01*
X203200000Y-113838797D01*
X203238553Y-113835000D01*
X203238561Y-113835000D01*
X203353887Y-113823641D01*
X203501860Y-113778754D01*
X203638233Y-113705862D01*
X203757764Y-113607764D01*
X203782347Y-113577810D01*
X204560157Y-112800000D01*
X205661928Y-112800000D01*
X205674188Y-112924482D01*
X205710498Y-113044180D01*
X205769463Y-113154494D01*
X205848815Y-113251185D01*
X205945506Y-113330537D01*
X206055820Y-113389502D01*
X206175518Y-113425812D01*
X206300000Y-113438072D01*
X206864250Y-113435000D01*
X207023000Y-113276250D01*
X207023000Y-112627000D01*
X205823750Y-112627000D01*
X205665000Y-112785750D01*
X205661928Y-112800000D01*
X204560157Y-112800000D01*
X205075158Y-112285000D01*
X205735750Y-112285000D01*
X205823750Y-112373000D01*
X206024947Y-112373000D01*
X206055820Y-112389502D01*
X206175518Y-112425812D01*
X206300000Y-112438072D01*
X207297000Y-112438072D01*
X207297000Y-112627000D01*
X207277000Y-112627000D01*
X207277000Y-113276250D01*
X207435750Y-113435000D01*
X208000000Y-113438072D01*
X208124482Y-113425812D01*
X208244180Y-113389502D01*
X208354494Y-113330537D01*
X208451185Y-113251185D01*
X208461928Y-113238095D01*
X208461928Y-113900000D01*
X208474188Y-114024482D01*
X208510498Y-114144180D01*
X208569463Y-114254494D01*
X208648815Y-114351185D01*
X208745506Y-114430537D01*
X208855820Y-114489502D01*
X208975518Y-114525812D01*
X209100000Y-114538072D01*
X211840001Y-114538072D01*
X211840001Y-121840000D01*
X165273381Y-121840000D01*
X162989616Y-119556236D01*
X162968948Y-119531052D01*
X162868450Y-119448575D01*
X162753793Y-119387290D01*
X162629383Y-119349550D01*
X162532419Y-119340000D01*
X162532409Y-119340000D01*
X162500000Y-119336808D01*
X162467591Y-119340000D01*
X100660000Y-119340000D01*
X100660000Y-118650000D01*
X171781928Y-118650000D01*
X171783064Y-118729249D01*
X171781928Y-119650000D01*
X171794188Y-119774482D01*
X171830498Y-119894180D01*
X171889463Y-120004494D01*
X171968815Y-120101185D01*
X172065506Y-120180537D01*
X172175820Y-120239502D01*
X172295518Y-120275812D01*
X172420000Y-120288072D01*
X173331777Y-120286807D01*
X173420000Y-120288072D01*
X173434288Y-120286665D01*
X174634250Y-120285000D01*
X174793000Y-120126250D01*
X174793000Y-119277000D01*
X175047000Y-119277000D01*
X175047000Y-120126250D01*
X175205750Y-120285000D01*
X177420000Y-120288072D01*
X177544482Y-120275812D01*
X177664180Y-120239502D01*
X177774494Y-120180537D01*
X177871185Y-120101185D01*
X177950537Y-120004494D01*
X178009502Y-119894180D01*
X178045812Y-119774482D01*
X178058072Y-119650000D01*
X178961928Y-119650000D01*
X178974188Y-119774482D01*
X179010498Y-119894180D01*
X179069463Y-120004494D01*
X179148815Y-120101185D01*
X179245506Y-120180537D01*
X179355820Y-120239502D01*
X179475518Y-120275812D01*
X179600000Y-120288072D01*
X181214250Y-120285000D01*
X181373000Y-120126250D01*
X181373000Y-119277000D01*
X181627000Y-119277000D01*
X181627000Y-120126250D01*
X181785750Y-120285000D01*
X183400000Y-120288072D01*
X183524482Y-120275812D01*
X183644180Y-120239502D01*
X183754494Y-120180537D01*
X183851185Y-120101185D01*
X183930537Y-120004494D01*
X183989502Y-119894180D01*
X184025812Y-119774482D01*
X184038072Y-119650000D01*
X184961928Y-119650000D01*
X184974188Y-119774482D01*
X185010498Y-119894180D01*
X185069463Y-120004494D01*
X185148815Y-120101185D01*
X185245506Y-120180537D01*
X185355820Y-120239502D01*
X185475518Y-120275812D01*
X185600000Y-120288072D01*
X187214250Y-120285000D01*
X187373000Y-120126250D01*
X187373000Y-119277000D01*
X187627000Y-119277000D01*
X187627000Y-120126250D01*
X187785750Y-120285000D01*
X189400000Y-120288072D01*
X189524482Y-120275812D01*
X189644180Y-120239502D01*
X189754494Y-120180537D01*
X189851185Y-120101185D01*
X189930537Y-120004494D01*
X189989502Y-119894180D01*
X190025812Y-119774482D01*
X190038072Y-119650000D01*
X190961928Y-119650000D01*
X190974188Y-119774482D01*
X191010498Y-119894180D01*
X191069463Y-120004494D01*
X191148815Y-120101185D01*
X191245506Y-120180537D01*
X191355820Y-120239502D01*
X191475518Y-120275812D01*
X191600000Y-120288072D01*
X193214250Y-120285000D01*
X193373000Y-120126250D01*
X193373000Y-119277000D01*
X193627000Y-119277000D01*
X193627000Y-120126250D01*
X193785750Y-120285000D01*
X195400000Y-120288072D01*
X195524482Y-120275812D01*
X195644180Y-120239502D01*
X195754494Y-120180537D01*
X195851185Y-120101185D01*
X195930537Y-120004494D01*
X195989502Y-119894180D01*
X196025812Y-119774482D01*
X196038072Y-119650000D01*
X196941928Y-119650000D01*
X196954188Y-119774482D01*
X196990498Y-119894180D01*
X197049463Y-120004494D01*
X197128815Y-120101185D01*
X197225506Y-120180537D01*
X197335820Y-120239502D01*
X197455518Y-120275812D01*
X197580000Y-120288072D01*
X199794250Y-120285000D01*
X199953000Y-120126250D01*
X199953000Y-119277000D01*
X197103750Y-119277000D01*
X196945000Y-119435750D01*
X196941928Y-119650000D01*
X196038072Y-119650000D01*
X196035000Y-119435750D01*
X195876250Y-119277000D01*
X193627000Y-119277000D01*
X193373000Y-119277000D01*
X191123750Y-119277000D01*
X190965000Y-119435750D01*
X190961928Y-119650000D01*
X190038072Y-119650000D01*
X190035000Y-119435750D01*
X189876250Y-119277000D01*
X187627000Y-119277000D01*
X187373000Y-119277000D01*
X185123750Y-119277000D01*
X184965000Y-119435750D01*
X184961928Y-119650000D01*
X184038072Y-119650000D01*
X184035000Y-119435750D01*
X183876250Y-119277000D01*
X181627000Y-119277000D01*
X181373000Y-119277000D01*
X179123750Y-119277000D01*
X178965000Y-119435750D01*
X178961928Y-119650000D01*
X178058072Y-119650000D01*
X178055000Y-119435750D01*
X177896250Y-119277000D01*
X175047000Y-119277000D01*
X174793000Y-119277000D01*
X174773000Y-119277000D01*
X174773000Y-119023000D01*
X174793000Y-119023000D01*
X174793000Y-118173750D01*
X175047000Y-118173750D01*
X175047000Y-119023000D01*
X177896250Y-119023000D01*
X178055000Y-118864250D01*
X178058072Y-118650000D01*
X178045812Y-118525518D01*
X178009502Y-118405820D01*
X177950537Y-118295506D01*
X177871185Y-118198815D01*
X177774494Y-118119463D01*
X177664180Y-118060498D01*
X177544482Y-118024188D01*
X177420000Y-118011928D01*
X175205750Y-118015000D01*
X175047000Y-118173750D01*
X174793000Y-118173750D01*
X174634250Y-118015000D01*
X174056053Y-118014198D01*
X174055000Y-117160750D01*
X173896250Y-117002000D01*
X173047000Y-117002000D01*
X173047000Y-117022000D01*
X172793000Y-117022000D01*
X172793000Y-117002000D01*
X171943750Y-117002000D01*
X171785000Y-117160750D01*
X171783178Y-118637310D01*
X171781928Y-118650000D01*
X100660000Y-118650000D01*
X100660000Y-115649156D01*
X102214250Y-115647000D01*
X102373000Y-115488250D01*
X102373000Y-114377000D01*
X102627000Y-114377000D01*
X102627000Y-115488250D01*
X102785750Y-115647000D01*
X105000000Y-115650072D01*
X105124482Y-115637812D01*
X105244180Y-115601502D01*
X105354494Y-115542537D01*
X105451185Y-115463185D01*
X105530537Y-115366494D01*
X105589502Y-115256180D01*
X105625812Y-115136482D01*
X105638072Y-115012000D01*
X105635000Y-114535750D01*
X105476250Y-114377000D01*
X102627000Y-114377000D01*
X102373000Y-114377000D01*
X102353000Y-114377000D01*
X102353000Y-114123000D01*
X102373000Y-114123000D01*
X102373000Y-113011750D01*
X102627000Y-113011750D01*
X102627000Y-114123000D01*
X105476250Y-114123000D01*
X105635000Y-113964250D01*
X105638072Y-113488000D01*
X105625812Y-113363518D01*
X105589502Y-113243820D01*
X105530537Y-113133506D01*
X105451185Y-113036815D01*
X105354494Y-112957463D01*
X105244180Y-112898498D01*
X105124482Y-112862188D01*
X105000000Y-112849928D01*
X102785750Y-112853000D01*
X102627000Y-113011750D01*
X102373000Y-113011750D01*
X102214250Y-112853000D01*
X100660000Y-112850844D01*
X100660000Y-111400072D01*
X105000000Y-111400072D01*
X105124482Y-111387812D01*
X105244180Y-111351502D01*
X105354494Y-111292537D01*
X105451185Y-111213185D01*
X105515350Y-111135000D01*
X109269119Y-111135000D01*
X109219463Y-111195506D01*
X109160498Y-111305820D01*
X109124188Y-111425518D01*
X109111928Y-111550000D01*
X109111928Y-112250000D01*
X109124188Y-112374482D01*
X109160498Y-112494180D01*
X109219463Y-112604494D01*
X109298815Y-112701185D01*
X109395506Y-112780537D01*
X109505820Y-112839502D01*
X109625518Y-112875812D01*
X109750000Y-112888072D01*
X109840816Y-112888072D01*
X109963553Y-112953676D01*
X110177501Y-113018577D01*
X110344248Y-113035000D01*
X112744249Y-113035000D01*
X112800000Y-113040491D01*
X112855752Y-113035000D01*
X115719250Y-113035000D01*
X115775001Y-113040491D01*
X115830752Y-113035000D01*
X115830753Y-113035000D01*
X115997500Y-113018577D01*
X116211448Y-112953676D01*
X116408624Y-112848284D01*
X116581450Y-112706449D01*
X116616997Y-112663135D01*
X116866988Y-112413144D01*
X116973283Y-112283623D01*
X117078676Y-112086447D01*
X117127544Y-111925353D01*
X117133843Y-111938060D01*
X117210193Y-112037139D01*
X117304406Y-112119419D01*
X117412860Y-112181737D01*
X117531388Y-112221701D01*
X117643250Y-112235000D01*
X117802000Y-112076250D01*
X117802000Y-111473000D01*
X117755250Y-111473000D01*
X117802000Y-111426250D01*
X117802000Y-111253000D01*
X117948000Y-111253000D01*
X117948000Y-111426250D01*
X117994750Y-111473000D01*
X117948000Y-111473000D01*
X117948000Y-112076250D01*
X118106750Y-112235000D01*
X118218612Y-112221701D01*
X118337140Y-112181737D01*
X118445594Y-112119419D01*
X118539807Y-112037139D01*
X118616157Y-111938060D01*
X118671711Y-111825990D01*
X118704334Y-111705235D01*
X118710000Y-111631750D01*
X118551250Y-111473000D01*
X118439362Y-111473000D01*
X118445594Y-111469419D01*
X118539807Y-111387139D01*
X118616157Y-111288060D01*
X118641682Y-111236568D01*
X118710000Y-111168250D01*
X118704334Y-111094765D01*
X118698994Y-111075000D01*
X118704334Y-111055235D01*
X118709749Y-110984999D01*
X119540018Y-110984999D01*
X119595506Y-111030537D01*
X119705820Y-111089502D01*
X119825518Y-111125812D01*
X119950000Y-111138072D01*
X120650000Y-111138072D01*
X120774482Y-111125812D01*
X120894180Y-111089502D01*
X121004494Y-111030537D01*
X121101185Y-110951185D01*
X121180537Y-110854494D01*
X121239502Y-110744180D01*
X121250000Y-110709573D01*
X121260498Y-110744180D01*
X121319463Y-110854494D01*
X121398815Y-110951185D01*
X121495506Y-111030537D01*
X121605820Y-111089502D01*
X121725518Y-111125812D01*
X121850000Y-111138072D01*
X122550000Y-111138072D01*
X122674482Y-111125812D01*
X122794180Y-111089502D01*
X122904494Y-111030537D01*
X122959982Y-110984999D01*
X123532838Y-110984999D01*
X123535518Y-110985812D01*
X123660000Y-110998072D01*
X125440000Y-110998072D01*
X125564482Y-110985812D01*
X125567159Y-110985000D01*
X125740019Y-110985000D01*
X125795506Y-111030537D01*
X125905820Y-111089502D01*
X126025518Y-111125812D01*
X126150000Y-111138072D01*
X126850000Y-111138072D01*
X126974482Y-111125812D01*
X127094180Y-111089502D01*
X127204494Y-111030537D01*
X127301185Y-110951185D01*
X127380537Y-110854494D01*
X127439502Y-110744180D01*
X127450000Y-110709573D01*
X127460498Y-110744180D01*
X127519463Y-110854494D01*
X127598815Y-110951185D01*
X127695506Y-111030537D01*
X127805820Y-111089502D01*
X127925518Y-111125812D01*
X128050000Y-111138072D01*
X128750000Y-111138072D01*
X128874482Y-111125812D01*
X128994180Y-111089502D01*
X129104494Y-111030537D01*
X129159981Y-110985000D01*
X130930753Y-110985000D01*
X131097500Y-110968577D01*
X131311448Y-110903676D01*
X131508624Y-110798284D01*
X131681450Y-110656449D01*
X131823285Y-110483623D01*
X131928677Y-110286447D01*
X131993578Y-110072499D01*
X131994865Y-110059429D01*
X132033843Y-110138060D01*
X132110193Y-110237139D01*
X132204406Y-110319419D01*
X132312860Y-110381737D01*
X132431388Y-110421701D01*
X132543250Y-110435000D01*
X132702000Y-110276250D01*
X132702000Y-109673000D01*
X132655250Y-109673000D01*
X132702000Y-109626250D01*
X132702000Y-109453000D01*
X132848000Y-109453000D01*
X132848000Y-109626250D01*
X132894750Y-109673000D01*
X132848000Y-109673000D01*
X132848000Y-110276250D01*
X133006750Y-110435000D01*
X133118612Y-110421701D01*
X133237140Y-110381737D01*
X133345594Y-110319419D01*
X133439807Y-110237139D01*
X133516157Y-110138060D01*
X133571711Y-110025990D01*
X133604334Y-109905235D01*
X133610000Y-109831750D01*
X133451250Y-109673000D01*
X133339362Y-109673000D01*
X133345594Y-109669419D01*
X133439807Y-109587139D01*
X133516157Y-109488060D01*
X133541682Y-109436568D01*
X133610000Y-109368250D01*
X133604334Y-109294765D01*
X133598994Y-109275000D01*
X133604334Y-109255235D01*
X133609750Y-109184998D01*
X135440018Y-109184999D01*
X135495506Y-109230537D01*
X135605820Y-109289502D01*
X135725518Y-109325812D01*
X135850000Y-109338072D01*
X136550000Y-109338072D01*
X136674482Y-109325812D01*
X136794180Y-109289502D01*
X136904494Y-109230537D01*
X137001185Y-109151185D01*
X137080537Y-109054494D01*
X137139502Y-108944180D01*
X137150000Y-108909573D01*
X137160498Y-108944180D01*
X137219463Y-109054494D01*
X137298815Y-109151185D01*
X137395506Y-109230537D01*
X137505820Y-109289502D01*
X137625518Y-109325812D01*
X137750000Y-109338072D01*
X138450000Y-109338072D01*
X138574482Y-109325812D01*
X138694180Y-109289502D01*
X138804494Y-109230537D01*
X138901185Y-109151185D01*
X138980537Y-109054494D01*
X139039502Y-108944180D01*
X139075812Y-108824482D01*
X139088072Y-108700000D01*
X139088072Y-108667059D01*
X139620132Y-108135000D01*
X171781995Y-108135000D01*
X171785000Y-109714250D01*
X171943750Y-109873000D01*
X172793000Y-109873000D01*
X172793000Y-109853000D01*
X173047000Y-109853000D01*
X173047000Y-109873000D01*
X173896250Y-109873000D01*
X174055000Y-109714250D01*
X174058005Y-108135000D01*
X174555752Y-108135000D01*
X174722499Y-108118577D01*
X174936447Y-108053676D01*
X175133623Y-107948284D01*
X175182421Y-107908236D01*
X175244180Y-107889502D01*
X175250000Y-107886391D01*
X175255820Y-107889502D01*
G36*
X197402000Y-117023000D02*
G01*
X197422000Y-117023000D01*
X197422000Y-117277000D01*
X197402000Y-117277000D01*
X197402000Y-117297000D01*
X197148000Y-117297000D01*
X197148000Y-117277000D01*
X197128000Y-117277000D01*
X197128000Y-117023000D01*
X197148000Y-117023000D01*
X197148000Y-117003000D01*
X197402000Y-117003000D01*
X197402000Y-117023000D01*
G37*
X197402000Y-117023000D02*
X197422000Y-117023000D01*
X197422000Y-117277000D01*
X197402000Y-117277000D01*
X197402000Y-117297000D01*
X197148000Y-117297000D01*
X197148000Y-117277000D01*
X197128000Y-117277000D01*
X197128000Y-117023000D01*
X197148000Y-117023000D01*
X197148000Y-117003000D01*
X197402000Y-117003000D01*
X197402000Y-117023000D01*
G36*
X176785750Y-112085000D02*
G01*
X176800000Y-112088072D01*
X176924482Y-112075812D01*
X177044180Y-112039502D01*
X177154494Y-111980537D01*
X177215000Y-111930881D01*
X177215001Y-113909043D01*
X177195506Y-113919463D01*
X177135000Y-113969119D01*
X177135000Y-112944248D01*
X177118577Y-112777501D01*
X177053676Y-112563553D01*
X176948284Y-112366377D01*
X176806449Y-112193551D01*
X176633623Y-112051716D01*
X176627002Y-112048177D01*
X176627002Y-111926252D01*
X176785750Y-112085000D01*
G37*
X176785750Y-112085000D02*
X176800000Y-112088072D01*
X176924482Y-112075812D01*
X177044180Y-112039502D01*
X177154494Y-111980537D01*
X177215000Y-111930881D01*
X177215001Y-113909043D01*
X177195506Y-113919463D01*
X177135000Y-113969119D01*
X177135000Y-112944248D01*
X177118577Y-112777501D01*
X177053676Y-112563553D01*
X176948284Y-112366377D01*
X176806449Y-112193551D01*
X176633623Y-112051716D01*
X176627002Y-112048177D01*
X176627002Y-111926252D01*
X176785750Y-112085000D01*
G36*
X182177000Y-112923000D02*
G01*
X182197000Y-112923000D01*
X182197000Y-113177000D01*
X182177000Y-113177000D01*
X182177000Y-113197000D01*
X181923000Y-113197000D01*
X181923000Y-113177000D01*
X181903000Y-113177000D01*
X181903000Y-112923000D01*
X181923000Y-112923000D01*
X181923000Y-112903000D01*
X182177000Y-112903000D01*
X182177000Y-112923000D01*
G37*
X182177000Y-112923000D02*
X182197000Y-112923000D01*
X182197000Y-113177000D01*
X182177000Y-113177000D01*
X182177000Y-113197000D01*
X181923000Y-113197000D01*
X181923000Y-113177000D01*
X181903000Y-113177000D01*
X181903000Y-112923000D01*
X181923000Y-112923000D01*
X181923000Y-112903000D01*
X182177000Y-112903000D01*
X182177000Y-112923000D01*
G36*
X198552000Y-112773000D02*
G01*
X198572000Y-112773000D01*
X198572000Y-113027000D01*
X198552000Y-113027000D01*
X198552000Y-113047000D01*
X198298000Y-113047000D01*
X198298000Y-113027000D01*
X198278000Y-113027000D01*
X198278000Y-112773000D01*
X198298000Y-112773000D01*
X198298000Y-112753000D01*
X198552000Y-112753000D01*
X198552000Y-112773000D01*
G37*
X198552000Y-112773000D02*
X198572000Y-112773000D01*
X198572000Y-113027000D01*
X198552000Y-113027000D01*
X198552000Y-113047000D01*
X198298000Y-113047000D01*
X198298000Y-113027000D01*
X198278000Y-113027000D01*
X198278000Y-112773000D01*
X198298000Y-112773000D01*
X198298000Y-112753000D01*
X198552000Y-112753000D01*
X198552000Y-112773000D01*
G36*
X196752000Y-112573000D02*
G01*
X196772000Y-112573000D01*
X196772000Y-112827000D01*
X196752000Y-112827000D01*
X196752000Y-112847000D01*
X196498000Y-112847000D01*
X196498000Y-112827000D01*
X196478000Y-112827000D01*
X196478000Y-112573000D01*
X196498000Y-112573000D01*
X196498000Y-112553000D01*
X196752000Y-112553000D01*
X196752000Y-112573000D01*
G37*
X196752000Y-112573000D02*
X196772000Y-112573000D01*
X196772000Y-112827000D01*
X196752000Y-112827000D01*
X196752000Y-112847000D01*
X196498000Y-112847000D01*
X196498000Y-112827000D01*
X196478000Y-112827000D01*
X196478000Y-112573000D01*
X196498000Y-112573000D01*
X196498000Y-112553000D01*
X196752000Y-112553000D01*
X196752000Y-112573000D01*
G36*
X178810498Y-107344180D02*
G01*
X178869463Y-107454494D01*
X178948815Y-107551185D01*
X179045506Y-107630537D01*
X179065000Y-107640957D01*
X179065000Y-108841302D01*
X179059509Y-108897053D01*
X179065000Y-108952802D01*
X179065000Y-108952804D01*
X179081423Y-109119551D01*
X179146324Y-109333499D01*
X179251717Y-109530675D01*
X179393552Y-109703501D01*
X179436861Y-109739044D01*
X180010945Y-110313126D01*
X180046491Y-110356439D01*
X180096987Y-110397880D01*
X179436860Y-111058009D01*
X179393552Y-111093551D01*
X179251717Y-111266377D01*
X179146324Y-111463553D01*
X179081423Y-111677501D01*
X179074725Y-111745506D01*
X179059509Y-111900000D01*
X179065000Y-111955751D01*
X179065000Y-112359043D01*
X179045506Y-112369463D01*
X178948815Y-112448815D01*
X178869463Y-112545506D01*
X178810498Y-112655820D01*
X178785000Y-112739876D01*
X178785000Y-111859981D01*
X178830537Y-111804494D01*
X178889502Y-111694180D01*
X178925812Y-111574482D01*
X178938072Y-111450000D01*
X178938072Y-110550000D01*
X178925812Y-110425518D01*
X178889502Y-110305820D01*
X178830537Y-110195506D01*
X178785000Y-110140019D01*
X178785000Y-110114468D01*
X178801185Y-110101185D01*
X178880537Y-110004494D01*
X178939502Y-109894180D01*
X178975812Y-109774482D01*
X178988072Y-109650000D01*
X178988072Y-108350000D01*
X178975812Y-108225518D01*
X178939502Y-108105820D01*
X178880537Y-107995506D01*
X178801185Y-107898815D01*
X178785000Y-107885532D01*
X178785000Y-107260124D01*
X178810498Y-107344180D01*
G37*
X178810498Y-107344180D02*
X178869463Y-107454494D01*
X178948815Y-107551185D01*
X179045506Y-107630537D01*
X179065000Y-107640957D01*
X179065000Y-108841302D01*
X179059509Y-108897053D01*
X179065000Y-108952802D01*
X179065000Y-108952804D01*
X179081423Y-109119551D01*
X179146324Y-109333499D01*
X179251717Y-109530675D01*
X179393552Y-109703501D01*
X179436861Y-109739044D01*
X180010945Y-110313126D01*
X180046491Y-110356439D01*
X180096987Y-110397880D01*
X179436860Y-111058009D01*
X179393552Y-111093551D01*
X179251717Y-111266377D01*
X179146324Y-111463553D01*
X179081423Y-111677501D01*
X179074725Y-111745506D01*
X179059509Y-111900000D01*
X179065000Y-111955751D01*
X179065000Y-112359043D01*
X179045506Y-112369463D01*
X178948815Y-112448815D01*
X178869463Y-112545506D01*
X178810498Y-112655820D01*
X178785000Y-112739876D01*
X178785000Y-111859981D01*
X178830537Y-111804494D01*
X178889502Y-111694180D01*
X178925812Y-111574482D01*
X178938072Y-111450000D01*
X178938072Y-110550000D01*
X178925812Y-110425518D01*
X178889502Y-110305820D01*
X178830537Y-110195506D01*
X178785000Y-110140019D01*
X178785000Y-110114468D01*
X178801185Y-110101185D01*
X178880537Y-110004494D01*
X178939502Y-109894180D01*
X178975812Y-109774482D01*
X178988072Y-109650000D01*
X178988072Y-108350000D01*
X178975812Y-108225518D01*
X178939502Y-108105820D01*
X178880537Y-107995506D01*
X178801185Y-107898815D01*
X178785000Y-107885532D01*
X178785000Y-107260124D01*
X178810498Y-107344180D01*
G36*
X195002000Y-112173000D02*
G01*
X195022000Y-112173000D01*
X195022000Y-112427000D01*
X195002000Y-112427000D01*
X195002000Y-112447000D01*
X194748000Y-112447000D01*
X194748000Y-112427000D01*
X194728000Y-112427000D01*
X194728000Y-112173000D01*
X194748000Y-112173000D01*
X194748000Y-112153000D01*
X195002000Y-112153000D01*
X195002000Y-112173000D01*
G37*
X195002000Y-112173000D02*
X195022000Y-112173000D01*
X195022000Y-112427000D01*
X195002000Y-112427000D01*
X195002000Y-112447000D01*
X194748000Y-112447000D01*
X194748000Y-112427000D01*
X194728000Y-112427000D01*
X194728000Y-112173000D01*
X194748000Y-112173000D01*
X194748000Y-112153000D01*
X195002000Y-112153000D01*
X195002000Y-112173000D01*
G36*
X204705760Y-110715559D02*
G01*
X204596113Y-110726359D01*
X204448140Y-110771246D01*
X204311767Y-110844138D01*
X204251559Y-110893550D01*
X204222187Y-110917655D01*
X204222184Y-110917658D01*
X204192236Y-110942236D01*
X204167658Y-110972184D01*
X203215694Y-111924149D01*
X203218072Y-111900000D01*
X203215000Y-110285750D01*
X203056250Y-110127000D01*
X202207000Y-110127000D01*
X202207000Y-110147000D01*
X201953000Y-110147000D01*
X201953000Y-110127000D01*
X201933000Y-110127000D01*
X201933000Y-109873000D01*
X201953000Y-109873000D01*
X201953000Y-109853000D01*
X202207000Y-109853000D01*
X202207000Y-109873000D01*
X203056250Y-109873000D01*
X203215000Y-109714250D01*
X203215930Y-109225729D01*
X204705760Y-110715559D01*
G37*
X204705760Y-110715559D02*
X204596113Y-110726359D01*
X204448140Y-110771246D01*
X204311767Y-110844138D01*
X204251559Y-110893550D01*
X204222187Y-110917655D01*
X204222184Y-110917658D01*
X204192236Y-110942236D01*
X204167658Y-110972184D01*
X203215694Y-111924149D01*
X203218072Y-111900000D01*
X203215000Y-110285750D01*
X203056250Y-110127000D01*
X202207000Y-110127000D01*
X202207000Y-110147000D01*
X201953000Y-110147000D01*
X201953000Y-110127000D01*
X201933000Y-110127000D01*
X201933000Y-109873000D01*
X201953000Y-109873000D01*
X201953000Y-109853000D01*
X202207000Y-109853000D01*
X202207000Y-109873000D01*
X203056250Y-109873000D01*
X203215000Y-109714250D01*
X203215930Y-109225729D01*
X204705760Y-110715559D01*
G36*
X191952000Y-111123000D02*
G01*
X191972000Y-111123000D01*
X191972000Y-111348721D01*
X191917247Y-111319454D01*
X191773986Y-111275997D01*
X191678000Y-111266543D01*
X191678000Y-111123000D01*
X191698000Y-111123000D01*
X191698000Y-111103000D01*
X191952000Y-111103000D01*
X191952000Y-111123000D01*
G37*
X191952000Y-111123000D02*
X191972000Y-111123000D01*
X191972000Y-111348721D01*
X191917247Y-111319454D01*
X191773986Y-111275997D01*
X191678000Y-111266543D01*
X191678000Y-111123000D01*
X191698000Y-111123000D01*
X191698000Y-111103000D01*
X191952000Y-111103000D01*
X191952000Y-111123000D01*
G36*
X177060498Y-109894180D02*
G01*
X177116652Y-109999236D01*
X177044180Y-109960498D01*
X177009652Y-109950024D01*
X177039502Y-109894180D01*
X177050000Y-109859573D01*
X177060498Y-109894180D01*
G37*
X177060498Y-109894180D02*
X177116652Y-109999236D01*
X177044180Y-109960498D01*
X177009652Y-109950024D01*
X177039502Y-109894180D01*
X177050000Y-109859573D01*
X177060498Y-109894180D01*
G36*
X211840000Y-105461928D02*
G01*
X209100000Y-105461928D01*
X208975518Y-105474188D01*
X208855820Y-105510498D01*
X208745506Y-105569463D01*
X208648815Y-105648815D01*
X208569463Y-105745506D01*
X208510498Y-105855820D01*
X208474188Y-105975518D01*
X208461928Y-106100000D01*
X208461928Y-106761905D01*
X208451185Y-106748815D01*
X208354494Y-106669463D01*
X208244180Y-106610498D01*
X208124482Y-106574188D01*
X208000000Y-106561928D01*
X207322086Y-106561928D01*
X205985000Y-105224843D01*
X205985000Y-104678711D01*
X206003937Y-104659774D01*
X206117205Y-104490256D01*
X206195226Y-104301898D01*
X206235000Y-104101939D01*
X206235000Y-103898061D01*
X206195226Y-103698102D01*
X206117205Y-103509744D01*
X206003937Y-103340226D01*
X205859774Y-103196063D01*
X205690256Y-103082795D01*
X205501898Y-103004774D01*
X205301939Y-102965000D01*
X205098061Y-102965000D01*
X204898102Y-103004774D01*
X204709744Y-103082795D01*
X204540226Y-103196063D01*
X204396063Y-103340226D01*
X204282795Y-103509744D01*
X204204774Y-103698102D01*
X204165000Y-103898061D01*
X204165000Y-104101939D01*
X204204774Y-104301898D01*
X204282795Y-104490256D01*
X204396063Y-104659774D01*
X204415000Y-104678711D01*
X204415001Y-105511438D01*
X204411203Y-105550000D01*
X204426359Y-105703886D01*
X204471246Y-105851859D01*
X204494576Y-105895506D01*
X204544139Y-105988233D01*
X204579090Y-106030820D01*
X204617655Y-106077812D01*
X204617659Y-106077816D01*
X204642237Y-106107764D01*
X204672185Y-106132342D01*
X205668914Y-107129071D01*
X205661928Y-107200000D01*
X205661928Y-107740000D01*
X205201212Y-107740000D01*
X203825187Y-106363976D01*
X203801391Y-106334980D01*
X203772392Y-106311181D01*
X203685666Y-106240006D01*
X203553636Y-106169434D01*
X203444077Y-106136201D01*
X203410376Y-106125978D01*
X203298723Y-106114981D01*
X203261390Y-106111304D01*
X203224059Y-106114981D01*
X203178359Y-106114981D01*
X203205812Y-106024482D01*
X203218072Y-105900000D01*
X203215000Y-103410750D01*
X203056250Y-103252000D01*
X202207000Y-103252000D01*
X202207000Y-103272000D01*
X201953000Y-103272000D01*
X201953000Y-103252000D01*
X201933000Y-103252000D01*
X201933000Y-102998000D01*
X201953000Y-102998000D01*
X201953000Y-102978000D01*
X202207000Y-102978000D01*
X202207000Y-102998000D01*
X203056250Y-102998000D01*
X203215000Y-102839250D01*
X203216822Y-101362690D01*
X203218072Y-101350000D01*
X203216936Y-101270751D01*
X203218072Y-100350000D01*
X203205812Y-100225518D01*
X203169502Y-100105820D01*
X203110537Y-99995506D01*
X203031185Y-99898815D01*
X202934494Y-99819463D01*
X202824180Y-99760498D01*
X202704482Y-99724188D01*
X202580000Y-99711928D01*
X201668223Y-99713193D01*
X201580000Y-99711928D01*
X201565712Y-99713335D01*
X200365750Y-99715000D01*
X200207000Y-99873750D01*
X200207000Y-100723000D01*
X200227000Y-100723000D01*
X200227000Y-100977000D01*
X200207000Y-100977000D01*
X200207000Y-100997000D01*
X199953000Y-100997000D01*
X199953000Y-100977000D01*
X197103750Y-100977000D01*
X196945000Y-101135750D01*
X196942449Y-101313657D01*
X196850000Y-101311928D01*
X196725518Y-101324188D01*
X196605820Y-101360498D01*
X196495506Y-101419463D01*
X196398815Y-101498815D01*
X196319463Y-101595506D01*
X196260498Y-101705820D01*
X196224188Y-101825518D01*
X196211928Y-101950000D01*
X196215000Y-101964250D01*
X196373748Y-102122998D01*
X196258801Y-102122998D01*
X196254494Y-102119463D01*
X196144180Y-102060498D01*
X196024482Y-102024188D01*
X195900000Y-102011928D01*
X195535750Y-102015000D01*
X195377000Y-102173750D01*
X195377000Y-102873000D01*
X195397000Y-102873000D01*
X195397000Y-103127000D01*
X195377000Y-103127000D01*
X195377000Y-103147000D01*
X195123000Y-103147000D01*
X195123000Y-103127000D01*
X195103000Y-103127000D01*
X195103000Y-102873000D01*
X195123000Y-102873000D01*
X195123000Y-102173750D01*
X194964250Y-102015000D01*
X194600000Y-102011928D01*
X194475518Y-102024188D01*
X194355820Y-102060498D01*
X194275000Y-102103698D01*
X194194180Y-102060498D01*
X194074482Y-102024188D01*
X193950000Y-102011928D01*
X192650000Y-102011928D01*
X192525518Y-102024188D01*
X192405820Y-102060498D01*
X192295506Y-102119463D01*
X192198815Y-102198815D01*
X192165015Y-102240000D01*
X191554320Y-102240000D01*
X191530537Y-102195506D01*
X191451185Y-102098815D01*
X191354494Y-102019463D01*
X191244180Y-101960498D01*
X191124482Y-101924188D01*
X191000000Y-101911928D01*
X190400000Y-101911928D01*
X190275518Y-101924188D01*
X190155820Y-101960498D01*
X190045506Y-102019463D01*
X189950000Y-102097842D01*
X189854494Y-102019463D01*
X189744180Y-101960498D01*
X189655326Y-101933544D01*
X189754494Y-101880537D01*
X189851185Y-101801185D01*
X189930537Y-101704494D01*
X189989502Y-101594180D01*
X190025812Y-101474482D01*
X190038072Y-101350000D01*
X190961928Y-101350000D01*
X190974188Y-101474482D01*
X191010498Y-101594180D01*
X191069463Y-101704494D01*
X191148815Y-101801185D01*
X191245506Y-101880537D01*
X191355820Y-101939502D01*
X191475518Y-101975812D01*
X191600000Y-101988072D01*
X193214250Y-101985000D01*
X193373000Y-101826250D01*
X193373000Y-100977000D01*
X193627000Y-100977000D01*
X193627000Y-101826250D01*
X193785750Y-101985000D01*
X195400000Y-101988072D01*
X195524482Y-101975812D01*
X195644180Y-101939502D01*
X195754494Y-101880537D01*
X195851185Y-101801185D01*
X195930537Y-101704494D01*
X195989502Y-101594180D01*
X196025812Y-101474482D01*
X196038072Y-101350000D01*
X196035000Y-101135750D01*
X195876250Y-100977000D01*
X193627000Y-100977000D01*
X193373000Y-100977000D01*
X191123750Y-100977000D01*
X190965000Y-101135750D01*
X190961928Y-101350000D01*
X190038072Y-101350000D01*
X190035000Y-101135750D01*
X189876250Y-100977000D01*
X187627000Y-100977000D01*
X187627000Y-101826250D01*
X187785750Y-101985000D01*
X188607057Y-101986563D01*
X188545506Y-102019463D01*
X188448815Y-102098815D01*
X188369463Y-102195506D01*
X188310498Y-102305820D01*
X188274188Y-102425518D01*
X188261928Y-102550000D01*
X188262156Y-102562183D01*
X188251185Y-102548815D01*
X188154494Y-102469463D01*
X188044180Y-102410498D01*
X187924482Y-102374188D01*
X187800000Y-102361928D01*
X187635750Y-102365000D01*
X187477000Y-102523750D01*
X187477000Y-103173000D01*
X187497000Y-103173000D01*
X187497000Y-103427000D01*
X187477000Y-103427000D01*
X187477000Y-103447000D01*
X187223000Y-103447000D01*
X187223000Y-103427000D01*
X185977000Y-103427000D01*
X185977000Y-103447000D01*
X185723000Y-103447000D01*
X185723000Y-103427000D01*
X184277000Y-103427000D01*
X184277000Y-103447000D01*
X184023000Y-103447000D01*
X184023000Y-103427000D01*
X182377000Y-103427000D01*
X182377000Y-103447000D01*
X182123000Y-103447000D01*
X182123000Y-103427000D01*
X182103000Y-103427000D01*
X182103000Y-103173000D01*
X182123000Y-103173000D01*
X182123000Y-102473750D01*
X182377000Y-102473750D01*
X182377000Y-103173000D01*
X184023000Y-103173000D01*
X184023000Y-102473750D01*
X184277000Y-102473750D01*
X184277000Y-103173000D01*
X185723000Y-103173000D01*
X185723000Y-102523750D01*
X185977000Y-102523750D01*
X185977000Y-103173000D01*
X187223000Y-103173000D01*
X187223000Y-102523750D01*
X187064250Y-102365000D01*
X186900000Y-102361928D01*
X186775518Y-102374188D01*
X186655820Y-102410498D01*
X186600000Y-102440335D01*
X186544180Y-102410498D01*
X186424482Y-102374188D01*
X186300000Y-102361928D01*
X186135750Y-102365000D01*
X185977000Y-102523750D01*
X185723000Y-102523750D01*
X185564250Y-102365000D01*
X185400000Y-102361928D01*
X185275518Y-102374188D01*
X185155820Y-102410498D01*
X185146771Y-102415335D01*
X185044180Y-102360498D01*
X184924482Y-102324188D01*
X184800000Y-102311928D01*
X184435750Y-102315000D01*
X184277000Y-102473750D01*
X184023000Y-102473750D01*
X183864250Y-102315000D01*
X183500000Y-102311928D01*
X183375518Y-102324188D01*
X183255820Y-102360498D01*
X183200000Y-102390335D01*
X183144180Y-102360498D01*
X183024482Y-102324188D01*
X182900000Y-102311928D01*
X182535750Y-102315000D01*
X182377000Y-102473750D01*
X182123000Y-102473750D01*
X181964250Y-102315000D01*
X181600000Y-102311928D01*
X181475518Y-102324188D01*
X181355820Y-102360498D01*
X181245506Y-102419463D01*
X181148815Y-102498815D01*
X181069463Y-102595506D01*
X181032261Y-102665105D01*
X181000000Y-102661928D01*
X180523060Y-102661928D01*
X180422499Y-102631423D01*
X180255752Y-102615000D01*
X175944248Y-102615000D01*
X175777501Y-102631423D01*
X175563553Y-102696324D01*
X175366377Y-102801716D01*
X175274076Y-102877466D01*
X175195506Y-102919463D01*
X175098815Y-102998815D01*
X175019463Y-103095506D01*
X174960498Y-103205820D01*
X174924188Y-103325518D01*
X174915291Y-103415854D01*
X174881423Y-103527501D01*
X174859509Y-103750000D01*
X174881423Y-103972499D01*
X174915291Y-104084146D01*
X174924188Y-104174482D01*
X174960498Y-104294180D01*
X175019463Y-104404494D01*
X175097842Y-104500000D01*
X175019463Y-104595506D01*
X174960498Y-104705820D01*
X174924188Y-104825518D01*
X174915291Y-104915856D01*
X174881423Y-105027502D01*
X174865000Y-105194249D01*
X174865000Y-105924651D01*
X174722499Y-105881423D01*
X174555752Y-105865000D01*
X174058029Y-105865000D01*
X174055000Y-103410750D01*
X173896250Y-103252000D01*
X173047000Y-103252000D01*
X173047000Y-103272000D01*
X172793000Y-103272000D01*
X172793000Y-103252000D01*
X171943750Y-103252000D01*
X171785000Y-103410750D01*
X171781971Y-105865000D01*
X139205741Y-105865000D01*
X139149999Y-105859510D01*
X139094257Y-105865000D01*
X139094248Y-105865000D01*
X138927501Y-105881423D01*
X138713553Y-105946324D01*
X138516377Y-106051716D01*
X138343551Y-106193551D01*
X138308008Y-106236860D01*
X137782941Y-106761928D01*
X137750000Y-106761928D01*
X137625518Y-106774188D01*
X137505820Y-106810498D01*
X137395506Y-106869463D01*
X137298815Y-106948815D01*
X137219463Y-107045506D01*
X137160498Y-107155820D01*
X137150000Y-107190427D01*
X137139502Y-107155820D01*
X137080537Y-107045506D01*
X137001185Y-106948815D01*
X136904494Y-106869463D01*
X136794180Y-106810498D01*
X136674482Y-106774188D01*
X136550000Y-106761928D01*
X135850000Y-106761928D01*
X135725518Y-106774188D01*
X135605820Y-106810498D01*
X135495506Y-106869463D01*
X135440018Y-106915000D01*
X133590754Y-106914999D01*
X132719248Y-106914999D01*
X132552501Y-106931422D01*
X132338553Y-106996323D01*
X132141377Y-107101715D01*
X131968551Y-107243550D01*
X131826716Y-107416376D01*
X131721324Y-107613552D01*
X131671970Y-107776249D01*
X131655537Y-107745506D01*
X131576185Y-107648815D01*
X131479494Y-107569463D01*
X131369180Y-107510498D01*
X131249482Y-107474188D01*
X131205426Y-107469849D01*
X131182764Y-107442236D01*
X131063233Y-107344138D01*
X130926860Y-107271246D01*
X130778887Y-107226359D01*
X130663561Y-107215000D01*
X130663553Y-107215000D01*
X130625000Y-107211203D01*
X130586447Y-107215000D01*
X130130881Y-107215000D01*
X130180537Y-107154494D01*
X130239502Y-107044180D01*
X130275812Y-106924482D01*
X130288072Y-106800000D01*
X130285000Y-106785750D01*
X130126250Y-106627000D01*
X129327000Y-106627000D01*
X129327000Y-106647000D01*
X129073000Y-106647000D01*
X129073000Y-106627000D01*
X128273750Y-106627000D01*
X128115000Y-106785750D01*
X128111928Y-106800000D01*
X128124188Y-106924482D01*
X128160498Y-107044180D01*
X128219463Y-107154494D01*
X128297842Y-107250000D01*
X128285532Y-107265000D01*
X126013028Y-107265000D01*
X125970537Y-107185506D01*
X125891185Y-107088815D01*
X125794494Y-107009463D01*
X125684180Y-106950498D01*
X125564482Y-106914188D01*
X125440000Y-106901928D01*
X125335000Y-106901928D01*
X125335000Y-106200000D01*
X128111928Y-106200000D01*
X128115000Y-106214250D01*
X128273750Y-106373000D01*
X129073000Y-106373000D01*
X129073000Y-105723750D01*
X129327000Y-105723750D01*
X129327000Y-106373000D01*
X130126250Y-106373000D01*
X130285000Y-106214250D01*
X130288072Y-106200000D01*
X130275812Y-106075518D01*
X130239502Y-105955820D01*
X130180537Y-105845506D01*
X130101185Y-105748815D01*
X130004494Y-105669463D01*
X129894180Y-105610498D01*
X129774482Y-105574188D01*
X129650000Y-105561928D01*
X129485750Y-105565000D01*
X129327000Y-105723750D01*
X129073000Y-105723750D01*
X128914250Y-105565000D01*
X128750000Y-105561928D01*
X128625518Y-105574188D01*
X128505820Y-105610498D01*
X128395506Y-105669463D01*
X128298815Y-105748815D01*
X128219463Y-105845506D01*
X128160498Y-105955820D01*
X128124188Y-106075518D01*
X128111928Y-106200000D01*
X125335000Y-106200000D01*
X125335000Y-104598117D01*
X125422896Y-104466572D01*
X125497147Y-104287314D01*
X125535000Y-104097014D01*
X125535000Y-103902986D01*
X125497147Y-103712686D01*
X125422896Y-103533428D01*
X125315099Y-103372099D01*
X125177901Y-103234901D01*
X125016572Y-103127104D01*
X124837314Y-103052853D01*
X124647014Y-103015000D01*
X124452986Y-103015000D01*
X124262686Y-103052853D01*
X124083428Y-103127104D01*
X123922099Y-103234901D01*
X123784901Y-103372099D01*
X123677104Y-103533428D01*
X123602853Y-103712686D01*
X123565000Y-103902986D01*
X123565000Y-104097014D01*
X123602853Y-104287314D01*
X123677104Y-104466572D01*
X123765001Y-104598118D01*
X123765000Y-106901928D01*
X123660000Y-106901928D01*
X123535518Y-106914188D01*
X123415820Y-106950498D01*
X123305506Y-107009463D01*
X123208815Y-107088815D01*
X123129463Y-107185506D01*
X123086972Y-107265000D01*
X116980881Y-107265000D01*
X117030537Y-107204494D01*
X117089502Y-107094180D01*
X117125812Y-106974482D01*
X117138072Y-106850000D01*
X117135000Y-106835750D01*
X116976250Y-106677000D01*
X116177000Y-106677000D01*
X116177000Y-106697000D01*
X115923000Y-106697000D01*
X115923000Y-106677000D01*
X115123750Y-106677000D01*
X114965000Y-106835750D01*
X114961928Y-106850000D01*
X114974188Y-106974482D01*
X115010498Y-107094180D01*
X115069463Y-107204494D01*
X115119119Y-107265000D01*
X114263028Y-107265000D01*
X114220537Y-107185506D01*
X114141185Y-107088815D01*
X114044494Y-107009463D01*
X113934180Y-106950498D01*
X113814482Y-106914188D01*
X113690000Y-106901928D01*
X113585000Y-106901928D01*
X113585000Y-106250000D01*
X114961928Y-106250000D01*
X114965000Y-106264250D01*
X115123750Y-106423000D01*
X115923000Y-106423000D01*
X115923000Y-105773750D01*
X116177000Y-105773750D01*
X116177000Y-106423000D01*
X116976250Y-106423000D01*
X117135000Y-106264250D01*
X117138072Y-106250000D01*
X117125812Y-106125518D01*
X117089502Y-106005820D01*
X117030537Y-105895506D01*
X116951185Y-105798815D01*
X116854494Y-105719463D01*
X116744180Y-105660498D01*
X116624482Y-105624188D01*
X116500000Y-105611928D01*
X116335750Y-105615000D01*
X116177000Y-105773750D01*
X115923000Y-105773750D01*
X115764250Y-105615000D01*
X115600000Y-105611928D01*
X115475518Y-105624188D01*
X115355820Y-105660498D01*
X115245506Y-105719463D01*
X115148815Y-105798815D01*
X115069463Y-105895506D01*
X115010498Y-106005820D01*
X114974188Y-106125518D01*
X114961928Y-106250000D01*
X113585000Y-106250000D01*
X113585000Y-104598117D01*
X113672896Y-104466572D01*
X113747147Y-104287314D01*
X113785000Y-104097014D01*
X113785000Y-103902986D01*
X113747147Y-103712686D01*
X113672896Y-103533428D01*
X113565099Y-103372099D01*
X113427901Y-103234901D01*
X113266572Y-103127104D01*
X113087314Y-103052853D01*
X112897014Y-103015000D01*
X112702986Y-103015000D01*
X112512686Y-103052853D01*
X112333428Y-103127104D01*
X112172099Y-103234901D01*
X112034901Y-103372099D01*
X111927104Y-103533428D01*
X111852853Y-103712686D01*
X111815000Y-103902986D01*
X111815000Y-104097014D01*
X111852853Y-104287314D01*
X111927104Y-104466572D01*
X112015001Y-104598118D01*
X112015000Y-106901928D01*
X111910000Y-106901928D01*
X111785518Y-106914188D01*
X111665820Y-106950498D01*
X111555506Y-107009463D01*
X111458815Y-107088815D01*
X111379463Y-107185506D01*
X111320498Y-107295820D01*
X111284188Y-107415518D01*
X111271928Y-107540000D01*
X111271928Y-108560000D01*
X111284188Y-108684482D01*
X111320498Y-108804180D01*
X111379463Y-108914494D01*
X111408602Y-108950000D01*
X111379463Y-108985506D01*
X111329334Y-109079289D01*
X111294180Y-109060498D01*
X111174482Y-109024188D01*
X111050000Y-109011928D01*
X110959184Y-109011928D01*
X110836447Y-108946324D01*
X110622499Y-108881423D01*
X110455752Y-108865000D01*
X105515350Y-108865000D01*
X105451185Y-108786815D01*
X105354494Y-108707463D01*
X105244180Y-108648498D01*
X105124482Y-108612188D01*
X105000000Y-108599928D01*
X100660000Y-108599928D01*
X100660000Y-107149156D01*
X102214250Y-107147000D01*
X102373000Y-106988250D01*
X102373000Y-105877000D01*
X102627000Y-105877000D01*
X102627000Y-106988250D01*
X102785750Y-107147000D01*
X105000000Y-107150072D01*
X105124482Y-107137812D01*
X105244180Y-107101502D01*
X105354494Y-107042537D01*
X105451185Y-106963185D01*
X105530537Y-106866494D01*
X105589502Y-106756180D01*
X105625812Y-106636482D01*
X105638072Y-106512000D01*
X105635000Y-106035750D01*
X105476250Y-105877000D01*
X102627000Y-105877000D01*
X102373000Y-105877000D01*
X102353000Y-105877000D01*
X102353000Y-105623000D01*
X102373000Y-105623000D01*
X102373000Y-104511750D01*
X102627000Y-104511750D01*
X102627000Y-105623000D01*
X105476250Y-105623000D01*
X105635000Y-105464250D01*
X105638072Y-104988000D01*
X105625812Y-104863518D01*
X105589502Y-104743820D01*
X105530537Y-104633506D01*
X105451185Y-104536815D01*
X105354494Y-104457463D01*
X105244180Y-104398498D01*
X105124482Y-104362188D01*
X105000000Y-104349928D01*
X102785750Y-104353000D01*
X102627000Y-104511750D01*
X102373000Y-104511750D01*
X102214250Y-104353000D01*
X100660000Y-104350844D01*
X100660000Y-100660000D01*
X162467591Y-100660000D01*
X162500000Y-100663192D01*
X162532409Y-100660000D01*
X162532419Y-100660000D01*
X162629383Y-100650450D01*
X162753793Y-100612710D01*
X162868450Y-100551425D01*
X162968948Y-100468948D01*
X162989616Y-100443764D01*
X163083380Y-100350000D01*
X171781928Y-100350000D01*
X171783064Y-101270751D01*
X171781928Y-101350000D01*
X171783178Y-101362690D01*
X171785000Y-102839250D01*
X171943750Y-102998000D01*
X172793000Y-102998000D01*
X172793000Y-102978000D01*
X173047000Y-102978000D01*
X173047000Y-102998000D01*
X173896250Y-102998000D01*
X174055000Y-102839250D01*
X174056053Y-101985802D01*
X174634250Y-101985000D01*
X174793000Y-101826250D01*
X174793000Y-100977000D01*
X175047000Y-100977000D01*
X175047000Y-101826250D01*
X175205750Y-101985000D01*
X177420000Y-101988072D01*
X177544482Y-101975812D01*
X177664180Y-101939502D01*
X177774494Y-101880537D01*
X177871185Y-101801185D01*
X177950537Y-101704494D01*
X178009502Y-101594180D01*
X178045812Y-101474482D01*
X178058072Y-101350000D01*
X178961928Y-101350000D01*
X178974188Y-101474482D01*
X179010498Y-101594180D01*
X179069463Y-101704494D01*
X179148815Y-101801185D01*
X179245506Y-101880537D01*
X179355820Y-101939502D01*
X179475518Y-101975812D01*
X179600000Y-101988072D01*
X181214250Y-101985000D01*
X181373000Y-101826250D01*
X181373000Y-100977000D01*
X181627000Y-100977000D01*
X181627000Y-101826250D01*
X181785750Y-101985000D01*
X183400000Y-101988072D01*
X183524482Y-101975812D01*
X183644180Y-101939502D01*
X183754494Y-101880537D01*
X183851185Y-101801185D01*
X183930537Y-101704494D01*
X183989502Y-101594180D01*
X184025812Y-101474482D01*
X184038072Y-101350000D01*
X184961928Y-101350000D01*
X184974188Y-101474482D01*
X185010498Y-101594180D01*
X185069463Y-101704494D01*
X185148815Y-101801185D01*
X185245506Y-101880537D01*
X185355820Y-101939502D01*
X185475518Y-101975812D01*
X185600000Y-101988072D01*
X187214250Y-101985000D01*
X187373000Y-101826250D01*
X187373000Y-100977000D01*
X185123750Y-100977000D01*
X184965000Y-101135750D01*
X184961928Y-101350000D01*
X184038072Y-101350000D01*
X184035000Y-101135750D01*
X183876250Y-100977000D01*
X181627000Y-100977000D01*
X181373000Y-100977000D01*
X179123750Y-100977000D01*
X178965000Y-101135750D01*
X178961928Y-101350000D01*
X178058072Y-101350000D01*
X178055000Y-101135750D01*
X177896250Y-100977000D01*
X175047000Y-100977000D01*
X174793000Y-100977000D01*
X174773000Y-100977000D01*
X174773000Y-100723000D01*
X174793000Y-100723000D01*
X174793000Y-99873750D01*
X175047000Y-99873750D01*
X175047000Y-100723000D01*
X177896250Y-100723000D01*
X178055000Y-100564250D01*
X178058072Y-100350000D01*
X178961928Y-100350000D01*
X178965000Y-100564250D01*
X179123750Y-100723000D01*
X181373000Y-100723000D01*
X181373000Y-99873750D01*
X181627000Y-99873750D01*
X181627000Y-100723000D01*
X183876250Y-100723000D01*
X184035000Y-100564250D01*
X184038072Y-100350000D01*
X184961928Y-100350000D01*
X184965000Y-100564250D01*
X185123750Y-100723000D01*
X187373000Y-100723000D01*
X187373000Y-99873750D01*
X187627000Y-99873750D01*
X187627000Y-100723000D01*
X189876250Y-100723000D01*
X190035000Y-100564250D01*
X190038072Y-100350000D01*
X190961928Y-100350000D01*
X190965000Y-100564250D01*
X191123750Y-100723000D01*
X193373000Y-100723000D01*
X193373000Y-99873750D01*
X193627000Y-99873750D01*
X193627000Y-100723000D01*
X195876250Y-100723000D01*
X196035000Y-100564250D01*
X196038072Y-100350000D01*
X196941928Y-100350000D01*
X196945000Y-100564250D01*
X197103750Y-100723000D01*
X199953000Y-100723000D01*
X199953000Y-99873750D01*
X199794250Y-99715000D01*
X197580000Y-99711928D01*
X197455518Y-99724188D01*
X197335820Y-99760498D01*
X197225506Y-99819463D01*
X197128815Y-99898815D01*
X197049463Y-99995506D01*
X196990498Y-100105820D01*
X196954188Y-100225518D01*
X196941928Y-100350000D01*
X196038072Y-100350000D01*
X196025812Y-100225518D01*
X195989502Y-100105820D01*
X195930537Y-99995506D01*
X195851185Y-99898815D01*
X195754494Y-99819463D01*
X195644180Y-99760498D01*
X195524482Y-99724188D01*
X195400000Y-99711928D01*
X193785750Y-99715000D01*
X193627000Y-99873750D01*
X193373000Y-99873750D01*
X193214250Y-99715000D01*
X191600000Y-99711928D01*
X191475518Y-99724188D01*
X191355820Y-99760498D01*
X191245506Y-99819463D01*
X191148815Y-99898815D01*
X191069463Y-99995506D01*
X191010498Y-100105820D01*
X190974188Y-100225518D01*
X190961928Y-100350000D01*
X190038072Y-100350000D01*
X190025812Y-100225518D01*
X189989502Y-100105820D01*
X189930537Y-99995506D01*
X189851185Y-99898815D01*
X189754494Y-99819463D01*
X189644180Y-99760498D01*
X189524482Y-99724188D01*
X189400000Y-99711928D01*
X187785750Y-99715000D01*
X187627000Y-99873750D01*
X187373000Y-99873750D01*
X187214250Y-99715000D01*
X185600000Y-99711928D01*
X185475518Y-99724188D01*
X185355820Y-99760498D01*
X185245506Y-99819463D01*
X185148815Y-99898815D01*
X185069463Y-99995506D01*
X185010498Y-100105820D01*
X184974188Y-100225518D01*
X184961928Y-100350000D01*
X184038072Y-100350000D01*
X184025812Y-100225518D01*
X183989502Y-100105820D01*
X183930537Y-99995506D01*
X183851185Y-99898815D01*
X183754494Y-99819463D01*
X183644180Y-99760498D01*
X183524482Y-99724188D01*
X183400000Y-99711928D01*
X181785750Y-99715000D01*
X181627000Y-99873750D01*
X181373000Y-99873750D01*
X181214250Y-99715000D01*
X179600000Y-99711928D01*
X179475518Y-99724188D01*
X179355820Y-99760498D01*
X179245506Y-99819463D01*
X179148815Y-99898815D01*
X179069463Y-99995506D01*
X179010498Y-100105820D01*
X178974188Y-100225518D01*
X178961928Y-100350000D01*
X178058072Y-100350000D01*
X178045812Y-100225518D01*
X178009502Y-100105820D01*
X177950537Y-99995506D01*
X177871185Y-99898815D01*
X177774494Y-99819463D01*
X177664180Y-99760498D01*
X177544482Y-99724188D01*
X177420000Y-99711928D01*
X175205750Y-99715000D01*
X175047000Y-99873750D01*
X174793000Y-99873750D01*
X174634250Y-99715000D01*
X173434288Y-99713335D01*
X173420000Y-99711928D01*
X173331777Y-99713193D01*
X172420000Y-99711928D01*
X172295518Y-99724188D01*
X172175820Y-99760498D01*
X172065506Y-99819463D01*
X171968815Y-99898815D01*
X171889463Y-99995506D01*
X171830498Y-100105820D01*
X171794188Y-100225518D01*
X171781928Y-100350000D01*
X163083380Y-100350000D01*
X165273381Y-98160000D01*
X211840000Y-98160000D01*
X211840000Y-105461928D01*
G37*
X211840000Y-105461928D02*
X209100000Y-105461928D01*
X208975518Y-105474188D01*
X208855820Y-105510498D01*
X208745506Y-105569463D01*
X208648815Y-105648815D01*
X208569463Y-105745506D01*
X208510498Y-105855820D01*
X208474188Y-105975518D01*
X208461928Y-106100000D01*
X208461928Y-106761905D01*
X208451185Y-106748815D01*
X208354494Y-106669463D01*
X208244180Y-106610498D01*
X208124482Y-106574188D01*
X208000000Y-106561928D01*
X207322086Y-106561928D01*
X205985000Y-105224843D01*
X205985000Y-104678711D01*
X206003937Y-104659774D01*
X206117205Y-104490256D01*
X206195226Y-104301898D01*
X206235000Y-104101939D01*
X206235000Y-103898061D01*
X206195226Y-103698102D01*
X206117205Y-103509744D01*
X206003937Y-103340226D01*
X205859774Y-103196063D01*
X205690256Y-103082795D01*
X205501898Y-103004774D01*
X205301939Y-102965000D01*
X205098061Y-102965000D01*
X204898102Y-103004774D01*
X204709744Y-103082795D01*
X204540226Y-103196063D01*
X204396063Y-103340226D01*
X204282795Y-103509744D01*
X204204774Y-103698102D01*
X204165000Y-103898061D01*
X204165000Y-104101939D01*
X204204774Y-104301898D01*
X204282795Y-104490256D01*
X204396063Y-104659774D01*
X204415000Y-104678711D01*
X204415001Y-105511438D01*
X204411203Y-105550000D01*
X204426359Y-105703886D01*
X204471246Y-105851859D01*
X204494576Y-105895506D01*
X204544139Y-105988233D01*
X204579090Y-106030820D01*
X204617655Y-106077812D01*
X204617659Y-106077816D01*
X204642237Y-106107764D01*
X204672185Y-106132342D01*
X205668914Y-107129071D01*
X205661928Y-107200000D01*
X205661928Y-107740000D01*
X205201212Y-107740000D01*
X203825187Y-106363976D01*
X203801391Y-106334980D01*
X203772392Y-106311181D01*
X203685666Y-106240006D01*
X203553636Y-106169434D01*
X203444077Y-106136201D01*
X203410376Y-106125978D01*
X203298723Y-106114981D01*
X203261390Y-106111304D01*
X203224059Y-106114981D01*
X203178359Y-106114981D01*
X203205812Y-106024482D01*
X203218072Y-105900000D01*
X203215000Y-103410750D01*
X203056250Y-103252000D01*
X202207000Y-103252000D01*
X202207000Y-103272000D01*
X201953000Y-103272000D01*
X201953000Y-103252000D01*
X201933000Y-103252000D01*
X201933000Y-102998000D01*
X201953000Y-102998000D01*
X201953000Y-102978000D01*
X202207000Y-102978000D01*
X202207000Y-102998000D01*
X203056250Y-102998000D01*
X203215000Y-102839250D01*
X203216822Y-101362690D01*
X203218072Y-101350000D01*
X203216936Y-101270751D01*
X203218072Y-100350000D01*
X203205812Y-100225518D01*
X203169502Y-100105820D01*
X203110537Y-99995506D01*
X203031185Y-99898815D01*
X202934494Y-99819463D01*
X202824180Y-99760498D01*
X202704482Y-99724188D01*
X202580000Y-99711928D01*
X201668223Y-99713193D01*
X201580000Y-99711928D01*
X201565712Y-99713335D01*
X200365750Y-99715000D01*
X200207000Y-99873750D01*
X200207000Y-100723000D01*
X200227000Y-100723000D01*
X200227000Y-100977000D01*
X200207000Y-100977000D01*
X200207000Y-100997000D01*
X199953000Y-100997000D01*
X199953000Y-100977000D01*
X197103750Y-100977000D01*
X196945000Y-101135750D01*
X196942449Y-101313657D01*
X196850000Y-101311928D01*
X196725518Y-101324188D01*
X196605820Y-101360498D01*
X196495506Y-101419463D01*
X196398815Y-101498815D01*
X196319463Y-101595506D01*
X196260498Y-101705820D01*
X196224188Y-101825518D01*
X196211928Y-101950000D01*
X196215000Y-101964250D01*
X196373748Y-102122998D01*
X196258801Y-102122998D01*
X196254494Y-102119463D01*
X196144180Y-102060498D01*
X196024482Y-102024188D01*
X195900000Y-102011928D01*
X195535750Y-102015000D01*
X195377000Y-102173750D01*
X195377000Y-102873000D01*
X195397000Y-102873000D01*
X195397000Y-103127000D01*
X195377000Y-103127000D01*
X195377000Y-103147000D01*
X195123000Y-103147000D01*
X195123000Y-103127000D01*
X195103000Y-103127000D01*
X195103000Y-102873000D01*
X195123000Y-102873000D01*
X195123000Y-102173750D01*
X194964250Y-102015000D01*
X194600000Y-102011928D01*
X194475518Y-102024188D01*
X194355820Y-102060498D01*
X194275000Y-102103698D01*
X194194180Y-102060498D01*
X194074482Y-102024188D01*
X193950000Y-102011928D01*
X192650000Y-102011928D01*
X192525518Y-102024188D01*
X192405820Y-102060498D01*
X192295506Y-102119463D01*
X192198815Y-102198815D01*
X192165015Y-102240000D01*
X191554320Y-102240000D01*
X191530537Y-102195506D01*
X191451185Y-102098815D01*
X191354494Y-102019463D01*
X191244180Y-101960498D01*
X191124482Y-101924188D01*
X191000000Y-101911928D01*
X190400000Y-101911928D01*
X190275518Y-101924188D01*
X190155820Y-101960498D01*
X190045506Y-102019463D01*
X189950000Y-102097842D01*
X189854494Y-102019463D01*
X189744180Y-101960498D01*
X189655326Y-101933544D01*
X189754494Y-101880537D01*
X189851185Y-101801185D01*
X189930537Y-101704494D01*
X189989502Y-101594180D01*
X190025812Y-101474482D01*
X190038072Y-101350000D01*
X190961928Y-101350000D01*
X190974188Y-101474482D01*
X191010498Y-101594180D01*
X191069463Y-101704494D01*
X191148815Y-101801185D01*
X191245506Y-101880537D01*
X191355820Y-101939502D01*
X191475518Y-101975812D01*
X191600000Y-101988072D01*
X193214250Y-101985000D01*
X193373000Y-101826250D01*
X193373000Y-100977000D01*
X193627000Y-100977000D01*
X193627000Y-101826250D01*
X193785750Y-101985000D01*
X195400000Y-101988072D01*
X195524482Y-101975812D01*
X195644180Y-101939502D01*
X195754494Y-101880537D01*
X195851185Y-101801185D01*
X195930537Y-101704494D01*
X195989502Y-101594180D01*
X196025812Y-101474482D01*
X196038072Y-101350000D01*
X196035000Y-101135750D01*
X195876250Y-100977000D01*
X193627000Y-100977000D01*
X193373000Y-100977000D01*
X191123750Y-100977000D01*
X190965000Y-101135750D01*
X190961928Y-101350000D01*
X190038072Y-101350000D01*
X190035000Y-101135750D01*
X189876250Y-100977000D01*
X187627000Y-100977000D01*
X187627000Y-101826250D01*
X187785750Y-101985000D01*
X188607057Y-101986563D01*
X188545506Y-102019463D01*
X188448815Y-102098815D01*
X188369463Y-102195506D01*
X188310498Y-102305820D01*
X188274188Y-102425518D01*
X188261928Y-102550000D01*
X188262156Y-102562183D01*
X188251185Y-102548815D01*
X188154494Y-102469463D01*
X188044180Y-102410498D01*
X187924482Y-102374188D01*
X187800000Y-102361928D01*
X187635750Y-102365000D01*
X187477000Y-102523750D01*
X187477000Y-103173000D01*
X187497000Y-103173000D01*
X187497000Y-103427000D01*
X187477000Y-103427000D01*
X187477000Y-103447000D01*
X187223000Y-103447000D01*
X187223000Y-103427000D01*
X185977000Y-103427000D01*
X185977000Y-103447000D01*
X185723000Y-103447000D01*
X185723000Y-103427000D01*
X184277000Y-103427000D01*
X184277000Y-103447000D01*
X184023000Y-103447000D01*
X184023000Y-103427000D01*
X182377000Y-103427000D01*
X182377000Y-103447000D01*
X182123000Y-103447000D01*
X182123000Y-103427000D01*
X182103000Y-103427000D01*
X182103000Y-103173000D01*
X182123000Y-103173000D01*
X182123000Y-102473750D01*
X182377000Y-102473750D01*
X182377000Y-103173000D01*
X184023000Y-103173000D01*
X184023000Y-102473750D01*
X184277000Y-102473750D01*
X184277000Y-103173000D01*
X185723000Y-103173000D01*
X185723000Y-102523750D01*
X185977000Y-102523750D01*
X185977000Y-103173000D01*
X187223000Y-103173000D01*
X187223000Y-102523750D01*
X187064250Y-102365000D01*
X186900000Y-102361928D01*
X186775518Y-102374188D01*
X186655820Y-102410498D01*
X186600000Y-102440335D01*
X186544180Y-102410498D01*
X186424482Y-102374188D01*
X186300000Y-102361928D01*
X186135750Y-102365000D01*
X185977000Y-102523750D01*
X185723000Y-102523750D01*
X185564250Y-102365000D01*
X185400000Y-102361928D01*
X185275518Y-102374188D01*
X185155820Y-102410498D01*
X185146771Y-102415335D01*
X185044180Y-102360498D01*
X184924482Y-102324188D01*
X184800000Y-102311928D01*
X184435750Y-102315000D01*
X184277000Y-102473750D01*
X184023000Y-102473750D01*
X183864250Y-102315000D01*
X183500000Y-102311928D01*
X183375518Y-102324188D01*
X183255820Y-102360498D01*
X183200000Y-102390335D01*
X183144180Y-102360498D01*
X183024482Y-102324188D01*
X182900000Y-102311928D01*
X182535750Y-102315000D01*
X182377000Y-102473750D01*
X182123000Y-102473750D01*
X181964250Y-102315000D01*
X181600000Y-102311928D01*
X181475518Y-102324188D01*
X181355820Y-102360498D01*
X181245506Y-102419463D01*
X181148815Y-102498815D01*
X181069463Y-102595506D01*
X181032261Y-102665105D01*
X181000000Y-102661928D01*
X180523060Y-102661928D01*
X180422499Y-102631423D01*
X180255752Y-102615000D01*
X175944248Y-102615000D01*
X175777501Y-102631423D01*
X175563553Y-102696324D01*
X175366377Y-102801716D01*
X175274076Y-102877466D01*
X175195506Y-102919463D01*
X175098815Y-102998815D01*
X175019463Y-103095506D01*
X174960498Y-103205820D01*
X174924188Y-103325518D01*
X174915291Y-103415854D01*
X174881423Y-103527501D01*
X174859509Y-103750000D01*
X174881423Y-103972499D01*
X174915291Y-104084146D01*
X174924188Y-104174482D01*
X174960498Y-104294180D01*
X175019463Y-104404494D01*
X175097842Y-104500000D01*
X175019463Y-104595506D01*
X174960498Y-104705820D01*
X174924188Y-104825518D01*
X174915291Y-104915856D01*
X174881423Y-105027502D01*
X174865000Y-105194249D01*
X174865000Y-105924651D01*
X174722499Y-105881423D01*
X174555752Y-105865000D01*
X174058029Y-105865000D01*
X174055000Y-103410750D01*
X173896250Y-103252000D01*
X173047000Y-103252000D01*
X173047000Y-103272000D01*
X172793000Y-103272000D01*
X172793000Y-103252000D01*
X171943750Y-103252000D01*
X171785000Y-103410750D01*
X171781971Y-105865000D01*
X139205741Y-105865000D01*
X139149999Y-105859510D01*
X139094257Y-105865000D01*
X139094248Y-105865000D01*
X138927501Y-105881423D01*
X138713553Y-105946324D01*
X138516377Y-106051716D01*
X138343551Y-106193551D01*
X138308008Y-106236860D01*
X137782941Y-106761928D01*
X137750000Y-106761928D01*
X137625518Y-106774188D01*
X137505820Y-106810498D01*
X137395506Y-106869463D01*
X137298815Y-106948815D01*
X137219463Y-107045506D01*
X137160498Y-107155820D01*
X137150000Y-107190427D01*
X137139502Y-107155820D01*
X137080537Y-107045506D01*
X137001185Y-106948815D01*
X136904494Y-106869463D01*
X136794180Y-106810498D01*
X136674482Y-106774188D01*
X136550000Y-106761928D01*
X135850000Y-106761928D01*
X135725518Y-106774188D01*
X135605820Y-106810498D01*
X135495506Y-106869463D01*
X135440018Y-106915000D01*
X133590754Y-106914999D01*
X132719248Y-106914999D01*
X132552501Y-106931422D01*
X132338553Y-106996323D01*
X132141377Y-107101715D01*
X131968551Y-107243550D01*
X131826716Y-107416376D01*
X131721324Y-107613552D01*
X131671970Y-107776249D01*
X131655537Y-107745506D01*
X131576185Y-107648815D01*
X131479494Y-107569463D01*
X131369180Y-107510498D01*
X131249482Y-107474188D01*
X131205426Y-107469849D01*
X131182764Y-107442236D01*
X131063233Y-107344138D01*
X130926860Y-107271246D01*
X130778887Y-107226359D01*
X130663561Y-107215000D01*
X130663553Y-107215000D01*
X130625000Y-107211203D01*
X130586447Y-107215000D01*
X130130881Y-107215000D01*
X130180537Y-107154494D01*
X130239502Y-107044180D01*
X130275812Y-106924482D01*
X130288072Y-106800000D01*
X130285000Y-106785750D01*
X130126250Y-106627000D01*
X129327000Y-106627000D01*
X129327000Y-106647000D01*
X129073000Y-106647000D01*
X129073000Y-106627000D01*
X128273750Y-106627000D01*
X128115000Y-106785750D01*
X128111928Y-106800000D01*
X128124188Y-106924482D01*
X128160498Y-107044180D01*
X128219463Y-107154494D01*
X128297842Y-107250000D01*
X128285532Y-107265000D01*
X126013028Y-107265000D01*
X125970537Y-107185506D01*
X125891185Y-107088815D01*
X125794494Y-107009463D01*
X125684180Y-106950498D01*
X125564482Y-106914188D01*
X125440000Y-106901928D01*
X125335000Y-106901928D01*
X125335000Y-106200000D01*
X128111928Y-106200000D01*
X128115000Y-106214250D01*
X128273750Y-106373000D01*
X129073000Y-106373000D01*
X129073000Y-105723750D01*
X129327000Y-105723750D01*
X129327000Y-106373000D01*
X130126250Y-106373000D01*
X130285000Y-106214250D01*
X130288072Y-106200000D01*
X130275812Y-106075518D01*
X130239502Y-105955820D01*
X130180537Y-105845506D01*
X130101185Y-105748815D01*
X130004494Y-105669463D01*
X129894180Y-105610498D01*
X129774482Y-105574188D01*
X129650000Y-105561928D01*
X129485750Y-105565000D01*
X129327000Y-105723750D01*
X129073000Y-105723750D01*
X128914250Y-105565000D01*
X128750000Y-105561928D01*
X128625518Y-105574188D01*
X128505820Y-105610498D01*
X128395506Y-105669463D01*
X128298815Y-105748815D01*
X128219463Y-105845506D01*
X128160498Y-105955820D01*
X128124188Y-106075518D01*
X128111928Y-106200000D01*
X125335000Y-106200000D01*
X125335000Y-104598117D01*
X125422896Y-104466572D01*
X125497147Y-104287314D01*
X125535000Y-104097014D01*
X125535000Y-103902986D01*
X125497147Y-103712686D01*
X125422896Y-103533428D01*
X125315099Y-103372099D01*
X125177901Y-103234901D01*
X125016572Y-103127104D01*
X124837314Y-103052853D01*
X124647014Y-103015000D01*
X124452986Y-103015000D01*
X124262686Y-103052853D01*
X124083428Y-103127104D01*
X123922099Y-103234901D01*
X123784901Y-103372099D01*
X123677104Y-103533428D01*
X123602853Y-103712686D01*
X123565000Y-103902986D01*
X123565000Y-104097014D01*
X123602853Y-104287314D01*
X123677104Y-104466572D01*
X123765001Y-104598118D01*
X123765000Y-106901928D01*
X123660000Y-106901928D01*
X123535518Y-106914188D01*
X123415820Y-106950498D01*
X123305506Y-107009463D01*
X123208815Y-107088815D01*
X123129463Y-107185506D01*
X123086972Y-107265000D01*
X116980881Y-107265000D01*
X117030537Y-107204494D01*
X117089502Y-107094180D01*
X117125812Y-106974482D01*
X117138072Y-106850000D01*
X117135000Y-106835750D01*
X116976250Y-106677000D01*
X116177000Y-106677000D01*
X116177000Y-106697000D01*
X115923000Y-106697000D01*
X115923000Y-106677000D01*
X115123750Y-106677000D01*
X114965000Y-106835750D01*
X114961928Y-106850000D01*
X114974188Y-106974482D01*
X115010498Y-107094180D01*
X115069463Y-107204494D01*
X115119119Y-107265000D01*
X114263028Y-107265000D01*
X114220537Y-107185506D01*
X114141185Y-107088815D01*
X114044494Y-107009463D01*
X113934180Y-106950498D01*
X113814482Y-106914188D01*
X113690000Y-106901928D01*
X113585000Y-106901928D01*
X113585000Y-106250000D01*
X114961928Y-106250000D01*
X114965000Y-106264250D01*
X115123750Y-106423000D01*
X115923000Y-106423000D01*
X115923000Y-105773750D01*
X116177000Y-105773750D01*
X116177000Y-106423000D01*
X116976250Y-106423000D01*
X117135000Y-106264250D01*
X117138072Y-106250000D01*
X117125812Y-106125518D01*
X117089502Y-106005820D01*
X117030537Y-105895506D01*
X116951185Y-105798815D01*
X116854494Y-105719463D01*
X116744180Y-105660498D01*
X116624482Y-105624188D01*
X116500000Y-105611928D01*
X116335750Y-105615000D01*
X116177000Y-105773750D01*
X115923000Y-105773750D01*
X115764250Y-105615000D01*
X115600000Y-105611928D01*
X115475518Y-105624188D01*
X115355820Y-105660498D01*
X115245506Y-105719463D01*
X115148815Y-105798815D01*
X115069463Y-105895506D01*
X115010498Y-106005820D01*
X114974188Y-106125518D01*
X114961928Y-106250000D01*
X113585000Y-106250000D01*
X113585000Y-104598117D01*
X113672896Y-104466572D01*
X113747147Y-104287314D01*
X113785000Y-104097014D01*
X113785000Y-103902986D01*
X113747147Y-103712686D01*
X113672896Y-103533428D01*
X113565099Y-103372099D01*
X113427901Y-103234901D01*
X113266572Y-103127104D01*
X113087314Y-103052853D01*
X112897014Y-103015000D01*
X112702986Y-103015000D01*
X112512686Y-103052853D01*
X112333428Y-103127104D01*
X112172099Y-103234901D01*
X112034901Y-103372099D01*
X111927104Y-103533428D01*
X111852853Y-103712686D01*
X111815000Y-103902986D01*
X111815000Y-104097014D01*
X111852853Y-104287314D01*
X111927104Y-104466572D01*
X112015001Y-104598118D01*
X112015000Y-106901928D01*
X111910000Y-106901928D01*
X111785518Y-106914188D01*
X111665820Y-106950498D01*
X111555506Y-107009463D01*
X111458815Y-107088815D01*
X111379463Y-107185506D01*
X111320498Y-107295820D01*
X111284188Y-107415518D01*
X111271928Y-107540000D01*
X111271928Y-108560000D01*
X111284188Y-108684482D01*
X111320498Y-108804180D01*
X111379463Y-108914494D01*
X111408602Y-108950000D01*
X111379463Y-108985506D01*
X111329334Y-109079289D01*
X111294180Y-109060498D01*
X111174482Y-109024188D01*
X111050000Y-109011928D01*
X110959184Y-109011928D01*
X110836447Y-108946324D01*
X110622499Y-108881423D01*
X110455752Y-108865000D01*
X105515350Y-108865000D01*
X105451185Y-108786815D01*
X105354494Y-108707463D01*
X105244180Y-108648498D01*
X105124482Y-108612188D01*
X105000000Y-108599928D01*
X100660000Y-108599928D01*
X100660000Y-107149156D01*
X102214250Y-107147000D01*
X102373000Y-106988250D01*
X102373000Y-105877000D01*
X102627000Y-105877000D01*
X102627000Y-106988250D01*
X102785750Y-107147000D01*
X105000000Y-107150072D01*
X105124482Y-107137812D01*
X105244180Y-107101502D01*
X105354494Y-107042537D01*
X105451185Y-106963185D01*
X105530537Y-106866494D01*
X105589502Y-106756180D01*
X105625812Y-106636482D01*
X105638072Y-106512000D01*
X105635000Y-106035750D01*
X105476250Y-105877000D01*
X102627000Y-105877000D01*
X102373000Y-105877000D01*
X102353000Y-105877000D01*
X102353000Y-105623000D01*
X102373000Y-105623000D01*
X102373000Y-104511750D01*
X102627000Y-104511750D01*
X102627000Y-105623000D01*
X105476250Y-105623000D01*
X105635000Y-105464250D01*
X105638072Y-104988000D01*
X105625812Y-104863518D01*
X105589502Y-104743820D01*
X105530537Y-104633506D01*
X105451185Y-104536815D01*
X105354494Y-104457463D01*
X105244180Y-104398498D01*
X105124482Y-104362188D01*
X105000000Y-104349928D01*
X102785750Y-104353000D01*
X102627000Y-104511750D01*
X102373000Y-104511750D01*
X102214250Y-104353000D01*
X100660000Y-104350844D01*
X100660000Y-100660000D01*
X162467591Y-100660000D01*
X162500000Y-100663192D01*
X162532409Y-100660000D01*
X162532419Y-100660000D01*
X162629383Y-100650450D01*
X162753793Y-100612710D01*
X162868450Y-100551425D01*
X162968948Y-100468948D01*
X162989616Y-100443764D01*
X163083380Y-100350000D01*
X171781928Y-100350000D01*
X171783064Y-101270751D01*
X171781928Y-101350000D01*
X171783178Y-101362690D01*
X171785000Y-102839250D01*
X171943750Y-102998000D01*
X172793000Y-102998000D01*
X172793000Y-102978000D01*
X173047000Y-102978000D01*
X173047000Y-102998000D01*
X173896250Y-102998000D01*
X174055000Y-102839250D01*
X174056053Y-101985802D01*
X174634250Y-101985000D01*
X174793000Y-101826250D01*
X174793000Y-100977000D01*
X175047000Y-100977000D01*
X175047000Y-101826250D01*
X175205750Y-101985000D01*
X177420000Y-101988072D01*
X177544482Y-101975812D01*
X177664180Y-101939502D01*
X177774494Y-101880537D01*
X177871185Y-101801185D01*
X177950537Y-101704494D01*
X178009502Y-101594180D01*
X178045812Y-101474482D01*
X178058072Y-101350000D01*
X178961928Y-101350000D01*
X178974188Y-101474482D01*
X179010498Y-101594180D01*
X179069463Y-101704494D01*
X179148815Y-101801185D01*
X179245506Y-101880537D01*
X179355820Y-101939502D01*
X179475518Y-101975812D01*
X179600000Y-101988072D01*
X181214250Y-101985000D01*
X181373000Y-101826250D01*
X181373000Y-100977000D01*
X181627000Y-100977000D01*
X181627000Y-101826250D01*
X181785750Y-101985000D01*
X183400000Y-101988072D01*
X183524482Y-101975812D01*
X183644180Y-101939502D01*
X183754494Y-101880537D01*
X183851185Y-101801185D01*
X183930537Y-101704494D01*
X183989502Y-101594180D01*
X184025812Y-101474482D01*
X184038072Y-101350000D01*
X184961928Y-101350000D01*
X184974188Y-101474482D01*
X185010498Y-101594180D01*
X185069463Y-101704494D01*
X185148815Y-101801185D01*
X185245506Y-101880537D01*
X185355820Y-101939502D01*
X185475518Y-101975812D01*
X185600000Y-101988072D01*
X187214250Y-101985000D01*
X187373000Y-101826250D01*
X187373000Y-100977000D01*
X185123750Y-100977000D01*
X184965000Y-101135750D01*
X184961928Y-101350000D01*
X184038072Y-101350000D01*
X184035000Y-101135750D01*
X183876250Y-100977000D01*
X181627000Y-100977000D01*
X181373000Y-100977000D01*
X179123750Y-100977000D01*
X178965000Y-101135750D01*
X178961928Y-101350000D01*
X178058072Y-101350000D01*
X178055000Y-101135750D01*
X177896250Y-100977000D01*
X175047000Y-100977000D01*
X174793000Y-100977000D01*
X174773000Y-100977000D01*
X174773000Y-100723000D01*
X174793000Y-100723000D01*
X174793000Y-99873750D01*
X175047000Y-99873750D01*
X175047000Y-100723000D01*
X177896250Y-100723000D01*
X178055000Y-100564250D01*
X178058072Y-100350000D01*
X178961928Y-100350000D01*
X178965000Y-100564250D01*
X179123750Y-100723000D01*
X181373000Y-100723000D01*
X181373000Y-99873750D01*
X181627000Y-99873750D01*
X181627000Y-100723000D01*
X183876250Y-100723000D01*
X184035000Y-100564250D01*
X184038072Y-100350000D01*
X184961928Y-100350000D01*
X184965000Y-100564250D01*
X185123750Y-100723000D01*
X187373000Y-100723000D01*
X187373000Y-99873750D01*
X187627000Y-99873750D01*
X187627000Y-100723000D01*
X189876250Y-100723000D01*
X190035000Y-100564250D01*
X190038072Y-100350000D01*
X190961928Y-100350000D01*
X190965000Y-100564250D01*
X191123750Y-100723000D01*
X193373000Y-100723000D01*
X193373000Y-99873750D01*
X193627000Y-99873750D01*
X193627000Y-100723000D01*
X195876250Y-100723000D01*
X196035000Y-100564250D01*
X196038072Y-100350000D01*
X196941928Y-100350000D01*
X196945000Y-100564250D01*
X197103750Y-100723000D01*
X199953000Y-100723000D01*
X199953000Y-99873750D01*
X199794250Y-99715000D01*
X197580000Y-99711928D01*
X197455518Y-99724188D01*
X197335820Y-99760498D01*
X197225506Y-99819463D01*
X197128815Y-99898815D01*
X197049463Y-99995506D01*
X196990498Y-100105820D01*
X196954188Y-100225518D01*
X196941928Y-100350000D01*
X196038072Y-100350000D01*
X196025812Y-100225518D01*
X195989502Y-100105820D01*
X195930537Y-99995506D01*
X195851185Y-99898815D01*
X195754494Y-99819463D01*
X195644180Y-99760498D01*
X195524482Y-99724188D01*
X195400000Y-99711928D01*
X193785750Y-99715000D01*
X193627000Y-99873750D01*
X193373000Y-99873750D01*
X193214250Y-99715000D01*
X191600000Y-99711928D01*
X191475518Y-99724188D01*
X191355820Y-99760498D01*
X191245506Y-99819463D01*
X191148815Y-99898815D01*
X191069463Y-99995506D01*
X191010498Y-100105820D01*
X190974188Y-100225518D01*
X190961928Y-100350000D01*
X190038072Y-100350000D01*
X190025812Y-100225518D01*
X189989502Y-100105820D01*
X189930537Y-99995506D01*
X189851185Y-99898815D01*
X189754494Y-99819463D01*
X189644180Y-99760498D01*
X189524482Y-99724188D01*
X189400000Y-99711928D01*
X187785750Y-99715000D01*
X187627000Y-99873750D01*
X187373000Y-99873750D01*
X187214250Y-99715000D01*
X185600000Y-99711928D01*
X185475518Y-99724188D01*
X185355820Y-99760498D01*
X185245506Y-99819463D01*
X185148815Y-99898815D01*
X185069463Y-99995506D01*
X185010498Y-100105820D01*
X184974188Y-100225518D01*
X184961928Y-100350000D01*
X184038072Y-100350000D01*
X184025812Y-100225518D01*
X183989502Y-100105820D01*
X183930537Y-99995506D01*
X183851185Y-99898815D01*
X183754494Y-99819463D01*
X183644180Y-99760498D01*
X183524482Y-99724188D01*
X183400000Y-99711928D01*
X181785750Y-99715000D01*
X181627000Y-99873750D01*
X181373000Y-99873750D01*
X181214250Y-99715000D01*
X179600000Y-99711928D01*
X179475518Y-99724188D01*
X179355820Y-99760498D01*
X179245506Y-99819463D01*
X179148815Y-99898815D01*
X179069463Y-99995506D01*
X179010498Y-100105820D01*
X178974188Y-100225518D01*
X178961928Y-100350000D01*
X178058072Y-100350000D01*
X178045812Y-100225518D01*
X178009502Y-100105820D01*
X177950537Y-99995506D01*
X177871185Y-99898815D01*
X177774494Y-99819463D01*
X177664180Y-99760498D01*
X177544482Y-99724188D01*
X177420000Y-99711928D01*
X175205750Y-99715000D01*
X175047000Y-99873750D01*
X174793000Y-99873750D01*
X174634250Y-99715000D01*
X173434288Y-99713335D01*
X173420000Y-99711928D01*
X173331777Y-99713193D01*
X172420000Y-99711928D01*
X172295518Y-99724188D01*
X172175820Y-99760498D01*
X172065506Y-99819463D01*
X171968815Y-99898815D01*
X171889463Y-99995506D01*
X171830498Y-100105820D01*
X171794188Y-100225518D01*
X171781928Y-100350000D01*
X163083380Y-100350000D01*
X165273381Y-98160000D01*
X211840000Y-98160000D01*
X211840000Y-105461928D01*
G36*
X190402000Y-108223000D02*
G01*
X190422000Y-108223000D01*
X190422000Y-108477000D01*
X190402000Y-108477000D01*
X190402000Y-108497000D01*
X190148000Y-108497000D01*
X190148000Y-108477000D01*
X190128000Y-108477000D01*
X190128000Y-108304250D01*
X190169939Y-108203000D01*
X190402000Y-108203000D01*
X190402000Y-108223000D01*
G37*
X190402000Y-108223000D02*
X190422000Y-108223000D01*
X190422000Y-108477000D01*
X190402000Y-108477000D01*
X190402000Y-108497000D01*
X190148000Y-108497000D01*
X190148000Y-108477000D01*
X190128000Y-108477000D01*
X190128000Y-108304250D01*
X190169939Y-108203000D01*
X190402000Y-108203000D01*
X190402000Y-108223000D01*
G36*
X177195506Y-106080537D02*
G01*
X177215001Y-106090957D01*
X177215000Y-107885532D01*
X177198815Y-107898815D01*
X177119463Y-107995506D01*
X177060498Y-108105820D01*
X177050000Y-108140427D01*
X177039502Y-108105820D01*
X176980537Y-107995506D01*
X176901185Y-107898815D01*
X176804494Y-107819463D01*
X176796075Y-107814963D01*
X176806449Y-107806449D01*
X176948284Y-107633623D01*
X177053676Y-107436447D01*
X177118577Y-107222499D01*
X177135000Y-107055752D01*
X177135000Y-106030881D01*
X177195506Y-106080537D01*
G37*
X177195506Y-106080537D02*
X177215001Y-106090957D01*
X177215000Y-107885532D01*
X177198815Y-107898815D01*
X177119463Y-107995506D01*
X177060498Y-108105820D01*
X177050000Y-108140427D01*
X177039502Y-108105820D01*
X176980537Y-107995506D01*
X176901185Y-107898815D01*
X176804494Y-107819463D01*
X176796075Y-107814963D01*
X176806449Y-107806449D01*
X176948284Y-107633623D01*
X177053676Y-107436447D01*
X177118577Y-107222499D01*
X177135000Y-107055752D01*
X177135000Y-106030881D01*
X177195506Y-106080537D01*
G36*
X196672099Y-105365099D02*
G01*
X196833428Y-105472896D01*
X197012686Y-105547147D01*
X197202986Y-105585000D01*
X197397014Y-105585000D01*
X197587314Y-105547147D01*
X197654513Y-105519312D01*
X198500874Y-106365674D01*
X198472099Y-106384901D01*
X198334901Y-106522099D01*
X198227104Y-106683428D01*
X198152853Y-106862686D01*
X198115000Y-107052986D01*
X198115000Y-107060199D01*
X198063998Y-107111201D01*
X198035000Y-107134999D01*
X198011202Y-107163997D01*
X198011201Y-107163998D01*
X197966958Y-107217907D01*
X197910780Y-107247936D01*
X197913072Y-107200000D01*
X197900812Y-107075518D01*
X197864502Y-106955820D01*
X197805537Y-106845506D01*
X197726185Y-106748815D01*
X197629494Y-106669463D01*
X197519180Y-106610498D01*
X197399482Y-106574188D01*
X197275000Y-106561928D01*
X196910750Y-106565000D01*
X196752000Y-106723750D01*
X196752000Y-107423000D01*
X196772000Y-107423000D01*
X196772000Y-107677000D01*
X196752000Y-107677000D01*
X196752000Y-107697000D01*
X196498000Y-107697000D01*
X196498000Y-107677000D01*
X196478000Y-107677000D01*
X196478000Y-107423000D01*
X196498000Y-107423000D01*
X196498000Y-106723750D01*
X196339250Y-106565000D01*
X195975000Y-106561928D01*
X195850518Y-106574188D01*
X195730820Y-106610498D01*
X195620506Y-106669463D01*
X195523815Y-106748815D01*
X195444463Y-106845506D01*
X195385498Y-106955820D01*
X195367942Y-107013695D01*
X195350000Y-107011928D01*
X195185750Y-107015000D01*
X195027000Y-107173750D01*
X195027000Y-107823000D01*
X195047000Y-107823000D01*
X195047000Y-108077000D01*
X195027000Y-108077000D01*
X195027000Y-108097000D01*
X194773000Y-108097000D01*
X194773000Y-108077000D01*
X194753000Y-108077000D01*
X194753000Y-107823000D01*
X194773000Y-107823000D01*
X194773000Y-107173750D01*
X194614250Y-107015000D01*
X194509326Y-107013038D01*
X194513072Y-106975000D01*
X194510000Y-106910750D01*
X194351250Y-106752000D01*
X193352000Y-106752000D01*
X193352000Y-106772000D01*
X193098000Y-106772000D01*
X193098000Y-106752000D01*
X192098750Y-106752000D01*
X191940000Y-106910750D01*
X191936928Y-106975000D01*
X191949188Y-107099482D01*
X191985498Y-107219180D01*
X192008348Y-107261928D01*
X191475000Y-107261928D01*
X191350518Y-107274188D01*
X191230820Y-107310498D01*
X191120506Y-107369463D01*
X191025000Y-107447842D01*
X190929494Y-107369463D01*
X190885000Y-107345680D01*
X190885000Y-107238072D01*
X191150000Y-107238072D01*
X191274482Y-107225812D01*
X191394180Y-107189502D01*
X191504494Y-107130537D01*
X191601185Y-107051185D01*
X191680537Y-106954494D01*
X191739502Y-106844180D01*
X191775812Y-106724482D01*
X191788072Y-106600000D01*
X191788072Y-106000000D01*
X191776222Y-105879676D01*
X191802986Y-105885000D01*
X191997014Y-105885000D01*
X192088543Y-105866794D01*
X192044463Y-105920506D01*
X191985498Y-106030820D01*
X191949188Y-106150518D01*
X191936928Y-106275000D01*
X191940000Y-106339250D01*
X192098750Y-106498000D01*
X193098000Y-106498000D01*
X193098000Y-106478000D01*
X193352000Y-106478000D01*
X193352000Y-106498000D01*
X194351250Y-106498000D01*
X194510000Y-106339250D01*
X194513072Y-106275000D01*
X194500812Y-106150518D01*
X194464502Y-106030820D01*
X194405537Y-105920506D01*
X194326185Y-105823815D01*
X194325649Y-105823375D01*
X194355820Y-105839502D01*
X194475518Y-105875812D01*
X194600000Y-105888072D01*
X195900000Y-105888072D01*
X196024482Y-105875812D01*
X196144180Y-105839502D01*
X196254494Y-105780537D01*
X196351185Y-105701185D01*
X196430537Y-105604494D01*
X196489502Y-105494180D01*
X196525812Y-105374482D01*
X196538072Y-105250000D01*
X196538072Y-105231072D01*
X196672099Y-105365099D01*
G37*
X196672099Y-105365099D02*
X196833428Y-105472896D01*
X197012686Y-105547147D01*
X197202986Y-105585000D01*
X197397014Y-105585000D01*
X197587314Y-105547147D01*
X197654513Y-105519312D01*
X198500874Y-106365674D01*
X198472099Y-106384901D01*
X198334901Y-106522099D01*
X198227104Y-106683428D01*
X198152853Y-106862686D01*
X198115000Y-107052986D01*
X198115000Y-107060199D01*
X198063998Y-107111201D01*
X198035000Y-107134999D01*
X198011202Y-107163997D01*
X198011201Y-107163998D01*
X197966958Y-107217907D01*
X197910780Y-107247936D01*
X197913072Y-107200000D01*
X197900812Y-107075518D01*
X197864502Y-106955820D01*
X197805537Y-106845506D01*
X197726185Y-106748815D01*
X197629494Y-106669463D01*
X197519180Y-106610498D01*
X197399482Y-106574188D01*
X197275000Y-106561928D01*
X196910750Y-106565000D01*
X196752000Y-106723750D01*
X196752000Y-107423000D01*
X196772000Y-107423000D01*
X196772000Y-107677000D01*
X196752000Y-107677000D01*
X196752000Y-107697000D01*
X196498000Y-107697000D01*
X196498000Y-107677000D01*
X196478000Y-107677000D01*
X196478000Y-107423000D01*
X196498000Y-107423000D01*
X196498000Y-106723750D01*
X196339250Y-106565000D01*
X195975000Y-106561928D01*
X195850518Y-106574188D01*
X195730820Y-106610498D01*
X195620506Y-106669463D01*
X195523815Y-106748815D01*
X195444463Y-106845506D01*
X195385498Y-106955820D01*
X195367942Y-107013695D01*
X195350000Y-107011928D01*
X195185750Y-107015000D01*
X195027000Y-107173750D01*
X195027000Y-107823000D01*
X195047000Y-107823000D01*
X195047000Y-108077000D01*
X195027000Y-108077000D01*
X195027000Y-108097000D01*
X194773000Y-108097000D01*
X194773000Y-108077000D01*
X194753000Y-108077000D01*
X194753000Y-107823000D01*
X194773000Y-107823000D01*
X194773000Y-107173750D01*
X194614250Y-107015000D01*
X194509326Y-107013038D01*
X194513072Y-106975000D01*
X194510000Y-106910750D01*
X194351250Y-106752000D01*
X193352000Y-106752000D01*
X193352000Y-106772000D01*
X193098000Y-106772000D01*
X193098000Y-106752000D01*
X192098750Y-106752000D01*
X191940000Y-106910750D01*
X191936928Y-106975000D01*
X191949188Y-107099482D01*
X191985498Y-107219180D01*
X192008348Y-107261928D01*
X191475000Y-107261928D01*
X191350518Y-107274188D01*
X191230820Y-107310498D01*
X191120506Y-107369463D01*
X191025000Y-107447842D01*
X190929494Y-107369463D01*
X190885000Y-107345680D01*
X190885000Y-107238072D01*
X191150000Y-107238072D01*
X191274482Y-107225812D01*
X191394180Y-107189502D01*
X191504494Y-107130537D01*
X191601185Y-107051185D01*
X191680537Y-106954494D01*
X191739502Y-106844180D01*
X191775812Y-106724482D01*
X191788072Y-106600000D01*
X191788072Y-106000000D01*
X191776222Y-105879676D01*
X191802986Y-105885000D01*
X191997014Y-105885000D01*
X192088543Y-105866794D01*
X192044463Y-105920506D01*
X191985498Y-106030820D01*
X191949188Y-106150518D01*
X191936928Y-106275000D01*
X191940000Y-106339250D01*
X192098750Y-106498000D01*
X193098000Y-106498000D01*
X193098000Y-106478000D01*
X193352000Y-106478000D01*
X193352000Y-106498000D01*
X194351250Y-106498000D01*
X194510000Y-106339250D01*
X194513072Y-106275000D01*
X194500812Y-106150518D01*
X194464502Y-106030820D01*
X194405537Y-105920506D01*
X194326185Y-105823815D01*
X194325649Y-105823375D01*
X194355820Y-105839502D01*
X194475518Y-105875812D01*
X194600000Y-105888072D01*
X195900000Y-105888072D01*
X196024482Y-105875812D01*
X196144180Y-105839502D01*
X196254494Y-105780537D01*
X196351185Y-105701185D01*
X196430537Y-105604494D01*
X196489502Y-105494180D01*
X196525812Y-105374482D01*
X196538072Y-105250000D01*
X196538072Y-105231072D01*
X196672099Y-105365099D01*
G36*
X196211928Y-103996711D02*
G01*
X196144180Y-103960498D01*
X196109573Y-103950000D01*
X196144180Y-103939502D01*
X196211928Y-103903289D01*
X196211928Y-103996711D01*
G37*
X196211928Y-103996711D02*
X196144180Y-103960498D01*
X196109573Y-103950000D01*
X196144180Y-103939502D01*
X196211928Y-103903289D01*
X196211928Y-103996711D01*
G36*
X189327000Y-102873000D02*
G01*
X189347000Y-102873000D01*
X189347000Y-103127000D01*
X189327000Y-103127000D01*
X189327000Y-103147000D01*
X189073000Y-103147000D01*
X189073000Y-103127000D01*
X189053000Y-103127000D01*
X189053000Y-102873000D01*
X189073000Y-102873000D01*
X189073000Y-102853000D01*
X189327000Y-102853000D01*
X189327000Y-102873000D01*
G37*
X189327000Y-102873000D02*
X189347000Y-102873000D01*
X189347000Y-103127000D01*
X189327000Y-103127000D01*
X189327000Y-103147000D01*
X189073000Y-103147000D01*
X189073000Y-103127000D01*
X189053000Y-103127000D01*
X189053000Y-102873000D01*
X189073000Y-102873000D01*
X189073000Y-102853000D01*
X189327000Y-102853000D01*
X189327000Y-102873000D01*
G36*
X197427000Y-102123000D02*
G01*
X198773000Y-102123000D01*
X198773000Y-102103000D01*
X199027000Y-102103000D01*
X199027000Y-102123000D01*
X200373000Y-102123000D01*
X200373000Y-102103000D01*
X200627000Y-102103000D01*
X200627000Y-102123000D01*
X200647000Y-102123000D01*
X200647000Y-102377000D01*
X200627000Y-102377000D01*
X200627000Y-102397000D01*
X200373000Y-102397000D01*
X200373000Y-102377000D01*
X199027000Y-102377000D01*
X199027000Y-102397000D01*
X198773000Y-102397000D01*
X198773000Y-102377000D01*
X197427000Y-102377000D01*
X197427000Y-102397000D01*
X197173000Y-102397000D01*
X197173000Y-102377000D01*
X197153000Y-102377000D01*
X197153000Y-102123000D01*
X197173000Y-102123000D01*
X197173000Y-102103000D01*
X197427000Y-102103000D01*
X197427000Y-102123000D01*
G37*
X197427000Y-102123000D02*
X198773000Y-102123000D01*
X198773000Y-102103000D01*
X199027000Y-102103000D01*
X199027000Y-102123000D01*
X200373000Y-102123000D01*
X200373000Y-102103000D01*
X200627000Y-102103000D01*
X200627000Y-102123000D01*
X200647000Y-102123000D01*
X200647000Y-102377000D01*
X200627000Y-102377000D01*
X200627000Y-102397000D01*
X200373000Y-102397000D01*
X200373000Y-102377000D01*
X199027000Y-102377000D01*
X199027000Y-102397000D01*
X198773000Y-102397000D01*
X198773000Y-102377000D01*
X197427000Y-102377000D01*
X197427000Y-102397000D01*
X197173000Y-102397000D01*
X197173000Y-102377000D01*
X197153000Y-102377000D01*
X197153000Y-102123000D01*
X197173000Y-102123000D01*
X197173000Y-102103000D01*
X197427000Y-102103000D01*
X197427000Y-102123000D01*
%TD*%
M02*
