%TF.GenerationSoftware,KiCad,Pcbnew,(5.1.6)-1*%
%TF.CreationDate,2022-03-29T15:59:44+02:00*%
%TF.ProjectId,MW_generator,4d575f67-656e-4657-9261-746f722e6b69,rev?*%
%TF.SameCoordinates,Original*%
%TF.FileFunction,Legend,Top*%
%TF.FilePolarity,Positive*%
%FSLAX46Y46*%
G04 Gerber Fmt 4.6, Leading zero omitted, Abs format (unit mm)*
G04 Created by KiCad (PCBNEW (5.1.6)-1) date 2022-03-29 15:59:44*
%MOMM*%
%LPD*%
G01*
G04 APERTURE LIST*
%ADD10C,0.120000*%
%ADD11C,0.100000*%
%ADD12C,0.150000*%
G04 APERTURE END LIST*
D10*
%TO.C,J1*%
X207150000Y-106000000D02*
X207150000Y-107100000D01*
X207150000Y-106000000D02*
X211600000Y-106000000D01*
X211600000Y-112800000D02*
X211600000Y-107200000D01*
X207150000Y-112900000D02*
X207150000Y-114000000D01*
X207150000Y-114000000D02*
X211600000Y-114000000D01*
%TO.C,X1*%
X198700000Y-109800000D02*
G75*
G03*
X198700000Y-109800000I-250000J0D01*
G01*
D11*
%TO.C,U3*%
X116150000Y-109700000D02*
X117750000Y-109700000D01*
X116150000Y-111800000D02*
X117750000Y-111800000D01*
X116150000Y-111800000D02*
X116150000Y-111650000D01*
X116150000Y-111150000D02*
X116150000Y-111000000D01*
X116150000Y-110500000D02*
X116150000Y-110350000D01*
X116150000Y-109850000D02*
X116150000Y-109700000D01*
X117750000Y-109850000D02*
X117750000Y-109700000D01*
X117750000Y-110500000D02*
X117750000Y-110350000D01*
X117750000Y-111150000D02*
X117750000Y-111000000D01*
X117750000Y-111800000D02*
X117750000Y-111650000D01*
X116591421Y-110000000D02*
G75*
G03*
X116591421Y-110000000I-141421J0D01*
G01*
%TO.C,U2*%
X131050000Y-107900000D02*
X132650000Y-107900000D01*
X131050000Y-110000000D02*
X132650000Y-110000000D01*
X131050000Y-110000000D02*
X131050000Y-109850000D01*
X131050000Y-109350000D02*
X131050000Y-109200000D01*
X131050000Y-108700000D02*
X131050000Y-108550000D01*
X131050000Y-108050000D02*
X131050000Y-107900000D01*
X132650000Y-108050000D02*
X132650000Y-107900000D01*
X132650000Y-108700000D02*
X132650000Y-108550000D01*
X132650000Y-109350000D02*
X132650000Y-109200000D01*
X132650000Y-110000000D02*
X132650000Y-109850000D01*
X131491421Y-108200000D02*
G75*
G03*
X131491421Y-108200000I-141421J0D01*
G01*
D10*
%TO.C,J2*%
X100000000Y-104900000D02*
X105100000Y-104900000D01*
X105100000Y-104900000D02*
X105100000Y-115100000D01*
X105100000Y-115100000D02*
X100000000Y-115100000D01*
%TO.C,R11*%
D11*
X170278571Y-112526190D02*
X170111904Y-112288095D01*
X169992857Y-112526190D02*
X169992857Y-112026190D01*
X170183333Y-112026190D01*
X170230952Y-112050000D01*
X170254761Y-112073809D01*
X170278571Y-112121428D01*
X170278571Y-112192857D01*
X170254761Y-112240476D01*
X170230952Y-112264285D01*
X170183333Y-112288095D01*
X169992857Y-112288095D01*
X170754761Y-112526190D02*
X170469047Y-112526190D01*
X170611904Y-112526190D02*
X170611904Y-112026190D01*
X170564285Y-112097619D01*
X170516666Y-112145238D01*
X170469047Y-112169047D01*
X171230952Y-112526190D02*
X170945238Y-112526190D01*
X171088095Y-112526190D02*
X171088095Y-112026190D01*
X171040476Y-112097619D01*
X170992857Y-112145238D01*
X170945238Y-112169047D01*
%TO.C,L5*%
X175166666Y-112526190D02*
X174928571Y-112526190D01*
X174928571Y-112026190D01*
X175571428Y-112026190D02*
X175333333Y-112026190D01*
X175309523Y-112264285D01*
X175333333Y-112240476D01*
X175380952Y-112216666D01*
X175500000Y-112216666D01*
X175547619Y-112240476D01*
X175571428Y-112264285D01*
X175595238Y-112311904D01*
X175595238Y-112430952D01*
X175571428Y-112478571D01*
X175547619Y-112502380D01*
X175500000Y-112526190D01*
X175380952Y-112526190D01*
X175333333Y-112502380D01*
X175309523Y-112478571D01*
%TO.C,L4*%
X175166666Y-106526190D02*
X174928571Y-106526190D01*
X174928571Y-106026190D01*
X175547619Y-106192857D02*
X175547619Y-106526190D01*
X175428571Y-106002380D02*
X175309523Y-106359523D01*
X175619047Y-106359523D01*
%TO.C,L2*%
X177376190Y-104583333D02*
X177376190Y-104821428D01*
X176876190Y-104821428D01*
X176923809Y-104440476D02*
X176900000Y-104416666D01*
X176876190Y-104369047D01*
X176876190Y-104250000D01*
X176900000Y-104202380D01*
X176923809Y-104178571D01*
X176971428Y-104154761D01*
X177019047Y-104154761D01*
X177090476Y-104178571D01*
X177376190Y-104464285D01*
X177376190Y-104154761D01*
%TO.C,L3*%
X177376190Y-115583333D02*
X177376190Y-115821428D01*
X176876190Y-115821428D01*
X176876190Y-115464285D02*
X176876190Y-115154761D01*
X177066666Y-115321428D01*
X177066666Y-115250000D01*
X177090476Y-115202380D01*
X177114285Y-115178571D01*
X177161904Y-115154761D01*
X177280952Y-115154761D01*
X177328571Y-115178571D01*
X177352380Y-115202380D01*
X177376190Y-115250000D01*
X177376190Y-115392857D01*
X177352380Y-115440476D01*
X177328571Y-115464285D01*
%TO.C,J1*%
D12*
X209352380Y-110333333D02*
X210066666Y-110333333D01*
X210209523Y-110380952D01*
X210304761Y-110476190D01*
X210352380Y-110619047D01*
X210352380Y-110714285D01*
X210352380Y-109333333D02*
X210352380Y-109904761D01*
X210352380Y-109619047D02*
X209352380Y-109619047D01*
X209495238Y-109714285D01*
X209590476Y-109809523D01*
X209638095Y-109904761D01*
%TO.C,X1*%
D11*
X198845238Y-111576190D02*
X199178571Y-112076190D01*
X199178571Y-111576190D02*
X198845238Y-112076190D01*
X199630952Y-112076190D02*
X199345238Y-112076190D01*
X199488095Y-112076190D02*
X199488095Y-111576190D01*
X199440476Y-111647619D01*
X199392857Y-111695238D01*
X199345238Y-111719047D01*
%TO.C,C24*%
X177228571Y-109321428D02*
X177252380Y-109345238D01*
X177276190Y-109416666D01*
X177276190Y-109464285D01*
X177252380Y-109535714D01*
X177204761Y-109583333D01*
X177157142Y-109607142D01*
X177061904Y-109630952D01*
X176990476Y-109630952D01*
X176895238Y-109607142D01*
X176847619Y-109583333D01*
X176800000Y-109535714D01*
X176776190Y-109464285D01*
X176776190Y-109416666D01*
X176800000Y-109345238D01*
X176823809Y-109321428D01*
X176823809Y-109130952D02*
X176800000Y-109107142D01*
X176776190Y-109059523D01*
X176776190Y-108940476D01*
X176800000Y-108892857D01*
X176823809Y-108869047D01*
X176871428Y-108845238D01*
X176919047Y-108845238D01*
X176990476Y-108869047D01*
X177276190Y-109154761D01*
X177276190Y-108845238D01*
X176942857Y-108416666D02*
X177276190Y-108416666D01*
X176752380Y-108535714D02*
X177109523Y-108654761D01*
X177109523Y-108345238D01*
%TO.C,C23*%
X177428571Y-111321428D02*
X177452380Y-111345238D01*
X177476190Y-111416666D01*
X177476190Y-111464285D01*
X177452380Y-111535714D01*
X177404761Y-111583333D01*
X177357142Y-111607142D01*
X177261904Y-111630952D01*
X177190476Y-111630952D01*
X177095238Y-111607142D01*
X177047619Y-111583333D01*
X177000000Y-111535714D01*
X176976190Y-111464285D01*
X176976190Y-111416666D01*
X177000000Y-111345238D01*
X177023809Y-111321428D01*
X177023809Y-111130952D02*
X177000000Y-111107142D01*
X176976190Y-111059523D01*
X176976190Y-110940476D01*
X177000000Y-110892857D01*
X177023809Y-110869047D01*
X177071428Y-110845238D01*
X177119047Y-110845238D01*
X177190476Y-110869047D01*
X177476190Y-111154761D01*
X177476190Y-110845238D01*
X176976190Y-110678571D02*
X176976190Y-110369047D01*
X177166666Y-110535714D01*
X177166666Y-110464285D01*
X177190476Y-110416666D01*
X177214285Y-110392857D01*
X177261904Y-110369047D01*
X177380952Y-110369047D01*
X177428571Y-110392857D01*
X177452380Y-110416666D01*
X177476190Y-110464285D01*
X177476190Y-110607142D01*
X177452380Y-110654761D01*
X177428571Y-110678571D01*
%TO.C,J3*%
D12*
X173916666Y-98877380D02*
X173916666Y-99591666D01*
X173869047Y-99734523D01*
X173773809Y-99829761D01*
X173630952Y-99877380D01*
X173535714Y-99877380D01*
X174297619Y-98877380D02*
X174916666Y-98877380D01*
X174583333Y-99258333D01*
X174726190Y-99258333D01*
X174821428Y-99305952D01*
X174869047Y-99353571D01*
X174916666Y-99448809D01*
X174916666Y-99686904D01*
X174869047Y-99782142D01*
X174821428Y-99829761D01*
X174726190Y-99877380D01*
X174440476Y-99877380D01*
X174345238Y-99829761D01*
X174297619Y-99782142D01*
%TO.C,C32*%
D11*
X128878571Y-107428571D02*
X128854761Y-107452380D01*
X128783333Y-107476190D01*
X128735714Y-107476190D01*
X128664285Y-107452380D01*
X128616666Y-107404761D01*
X128592857Y-107357142D01*
X128569047Y-107261904D01*
X128569047Y-107190476D01*
X128592857Y-107095238D01*
X128616666Y-107047619D01*
X128664285Y-107000000D01*
X128735714Y-106976190D01*
X128783333Y-106976190D01*
X128854761Y-107000000D01*
X128878571Y-107023809D01*
X129045238Y-106976190D02*
X129354761Y-106976190D01*
X129188095Y-107166666D01*
X129259523Y-107166666D01*
X129307142Y-107190476D01*
X129330952Y-107214285D01*
X129354761Y-107261904D01*
X129354761Y-107380952D01*
X129330952Y-107428571D01*
X129307142Y-107452380D01*
X129259523Y-107476190D01*
X129116666Y-107476190D01*
X129069047Y-107452380D01*
X129045238Y-107428571D01*
X129545238Y-107023809D02*
X129569047Y-107000000D01*
X129616666Y-106976190D01*
X129735714Y-106976190D01*
X129783333Y-107000000D01*
X129807142Y-107023809D01*
X129830952Y-107071428D01*
X129830952Y-107119047D01*
X129807142Y-107190476D01*
X129521428Y-107476190D01*
X129830952Y-107476190D01*
%TO.C,C29*%
X115728571Y-107478571D02*
X115704761Y-107502380D01*
X115633333Y-107526190D01*
X115585714Y-107526190D01*
X115514285Y-107502380D01*
X115466666Y-107454761D01*
X115442857Y-107407142D01*
X115419047Y-107311904D01*
X115419047Y-107240476D01*
X115442857Y-107145238D01*
X115466666Y-107097619D01*
X115514285Y-107050000D01*
X115585714Y-107026190D01*
X115633333Y-107026190D01*
X115704761Y-107050000D01*
X115728571Y-107073809D01*
X115919047Y-107073809D02*
X115942857Y-107050000D01*
X115990476Y-107026190D01*
X116109523Y-107026190D01*
X116157142Y-107050000D01*
X116180952Y-107073809D01*
X116204761Y-107121428D01*
X116204761Y-107169047D01*
X116180952Y-107240476D01*
X115895238Y-107526190D01*
X116204761Y-107526190D01*
X116442857Y-107526190D02*
X116538095Y-107526190D01*
X116585714Y-107502380D01*
X116609523Y-107478571D01*
X116657142Y-107407142D01*
X116680952Y-107311904D01*
X116680952Y-107121428D01*
X116657142Y-107073809D01*
X116633333Y-107050000D01*
X116585714Y-107026190D01*
X116490476Y-107026190D01*
X116442857Y-107050000D01*
X116419047Y-107073809D01*
X116395238Y-107121428D01*
X116395238Y-107240476D01*
X116419047Y-107288095D01*
X116442857Y-107311904D01*
X116490476Y-107335714D01*
X116585714Y-107335714D01*
X116633333Y-107311904D01*
X116657142Y-107288095D01*
X116680952Y-107240476D01*
%TO.C,C27*%
X181728571Y-113978571D02*
X181704761Y-114002380D01*
X181633333Y-114026190D01*
X181585714Y-114026190D01*
X181514285Y-114002380D01*
X181466666Y-113954761D01*
X181442857Y-113907142D01*
X181419047Y-113811904D01*
X181419047Y-113740476D01*
X181442857Y-113645238D01*
X181466666Y-113597619D01*
X181514285Y-113550000D01*
X181585714Y-113526190D01*
X181633333Y-113526190D01*
X181704761Y-113550000D01*
X181728571Y-113573809D01*
X181919047Y-113573809D02*
X181942857Y-113550000D01*
X181990476Y-113526190D01*
X182109523Y-113526190D01*
X182157142Y-113550000D01*
X182180952Y-113573809D01*
X182204761Y-113621428D01*
X182204761Y-113669047D01*
X182180952Y-113740476D01*
X181895238Y-114026190D01*
X182204761Y-114026190D01*
X182371428Y-113526190D02*
X182704761Y-113526190D01*
X182490476Y-114026190D01*
%TO.C,C25*%
X175678571Y-115678571D02*
X175654761Y-115702380D01*
X175583333Y-115726190D01*
X175535714Y-115726190D01*
X175464285Y-115702380D01*
X175416666Y-115654761D01*
X175392857Y-115607142D01*
X175369047Y-115511904D01*
X175369047Y-115440476D01*
X175392857Y-115345238D01*
X175416666Y-115297619D01*
X175464285Y-115250000D01*
X175535714Y-115226190D01*
X175583333Y-115226190D01*
X175654761Y-115250000D01*
X175678571Y-115273809D01*
X175869047Y-115273809D02*
X175892857Y-115250000D01*
X175940476Y-115226190D01*
X176059523Y-115226190D01*
X176107142Y-115250000D01*
X176130952Y-115273809D01*
X176154761Y-115321428D01*
X176154761Y-115369047D01*
X176130952Y-115440476D01*
X175845238Y-115726190D01*
X176154761Y-115726190D01*
X176607142Y-115226190D02*
X176369047Y-115226190D01*
X176345238Y-115464285D01*
X176369047Y-115440476D01*
X176416666Y-115416666D01*
X176535714Y-115416666D01*
X176583333Y-115440476D01*
X176607142Y-115464285D01*
X176630952Y-115511904D01*
X176630952Y-115630952D01*
X176607142Y-115678571D01*
X176583333Y-115702380D01*
X176535714Y-115726190D01*
X176416666Y-115726190D01*
X176369047Y-115702380D01*
X176345238Y-115678571D01*
%TO.C,C22*%
X175678571Y-104678571D02*
X175654761Y-104702380D01*
X175583333Y-104726190D01*
X175535714Y-104726190D01*
X175464285Y-104702380D01*
X175416666Y-104654761D01*
X175392857Y-104607142D01*
X175369047Y-104511904D01*
X175369047Y-104440476D01*
X175392857Y-104345238D01*
X175416666Y-104297619D01*
X175464285Y-104250000D01*
X175535714Y-104226190D01*
X175583333Y-104226190D01*
X175654761Y-104250000D01*
X175678571Y-104273809D01*
X175869047Y-104273809D02*
X175892857Y-104250000D01*
X175940476Y-104226190D01*
X176059523Y-104226190D01*
X176107142Y-104250000D01*
X176130952Y-104273809D01*
X176154761Y-104321428D01*
X176154761Y-104369047D01*
X176130952Y-104440476D01*
X175845238Y-104726190D01*
X176154761Y-104726190D01*
X176345238Y-104273809D02*
X176369047Y-104250000D01*
X176416666Y-104226190D01*
X176535714Y-104226190D01*
X176583333Y-104250000D01*
X176607142Y-104273809D01*
X176630952Y-104321428D01*
X176630952Y-104369047D01*
X176607142Y-104440476D01*
X176321428Y-104726190D01*
X176630952Y-104726190D01*
%TO.C,C21*%
X187028571Y-104228571D02*
X187004761Y-104252380D01*
X186933333Y-104276190D01*
X186885714Y-104276190D01*
X186814285Y-104252380D01*
X186766666Y-104204761D01*
X186742857Y-104157142D01*
X186719047Y-104061904D01*
X186719047Y-103990476D01*
X186742857Y-103895238D01*
X186766666Y-103847619D01*
X186814285Y-103800000D01*
X186885714Y-103776190D01*
X186933333Y-103776190D01*
X187004761Y-103800000D01*
X187028571Y-103823809D01*
X187219047Y-103823809D02*
X187242857Y-103800000D01*
X187290476Y-103776190D01*
X187409523Y-103776190D01*
X187457142Y-103800000D01*
X187480952Y-103823809D01*
X187504761Y-103871428D01*
X187504761Y-103919047D01*
X187480952Y-103990476D01*
X187195238Y-104276190D01*
X187504761Y-104276190D01*
X187980952Y-104276190D02*
X187695238Y-104276190D01*
X187838095Y-104276190D02*
X187838095Y-103776190D01*
X187790476Y-103847619D01*
X187742857Y-103895238D01*
X187695238Y-103919047D01*
%TO.C,C19*%
X185528571Y-104228571D02*
X185504761Y-104252380D01*
X185433333Y-104276190D01*
X185385714Y-104276190D01*
X185314285Y-104252380D01*
X185266666Y-104204761D01*
X185242857Y-104157142D01*
X185219047Y-104061904D01*
X185219047Y-103990476D01*
X185242857Y-103895238D01*
X185266666Y-103847619D01*
X185314285Y-103800000D01*
X185385714Y-103776190D01*
X185433333Y-103776190D01*
X185504761Y-103800000D01*
X185528571Y-103823809D01*
X186004761Y-104276190D02*
X185719047Y-104276190D01*
X185861904Y-104276190D02*
X185861904Y-103776190D01*
X185814285Y-103847619D01*
X185766666Y-103895238D01*
X185719047Y-103919047D01*
X186242857Y-104276190D02*
X186338095Y-104276190D01*
X186385714Y-104252380D01*
X186409523Y-104228571D01*
X186457142Y-104157142D01*
X186480952Y-104061904D01*
X186480952Y-103871428D01*
X186457142Y-103823809D01*
X186433333Y-103800000D01*
X186385714Y-103776190D01*
X186290476Y-103776190D01*
X186242857Y-103800000D01*
X186219047Y-103823809D01*
X186195238Y-103871428D01*
X186195238Y-103990476D01*
X186219047Y-104038095D01*
X186242857Y-104061904D01*
X186290476Y-104085714D01*
X186385714Y-104085714D01*
X186433333Y-104061904D01*
X186457142Y-104038095D01*
X186480952Y-103990476D01*
%TO.C,C16*%
X187028571Y-115728571D02*
X187004761Y-115752380D01*
X186933333Y-115776190D01*
X186885714Y-115776190D01*
X186814285Y-115752380D01*
X186766666Y-115704761D01*
X186742857Y-115657142D01*
X186719047Y-115561904D01*
X186719047Y-115490476D01*
X186742857Y-115395238D01*
X186766666Y-115347619D01*
X186814285Y-115300000D01*
X186885714Y-115276190D01*
X186933333Y-115276190D01*
X187004761Y-115300000D01*
X187028571Y-115323809D01*
X187504761Y-115776190D02*
X187219047Y-115776190D01*
X187361904Y-115776190D02*
X187361904Y-115276190D01*
X187314285Y-115347619D01*
X187266666Y-115395238D01*
X187219047Y-115419047D01*
X187933333Y-115276190D02*
X187838095Y-115276190D01*
X187790476Y-115300000D01*
X187766666Y-115323809D01*
X187719047Y-115395238D01*
X187695238Y-115490476D01*
X187695238Y-115680952D01*
X187719047Y-115728571D01*
X187742857Y-115752380D01*
X187790476Y-115776190D01*
X187885714Y-115776190D01*
X187933333Y-115752380D01*
X187957142Y-115728571D01*
X187980952Y-115680952D01*
X187980952Y-115561904D01*
X187957142Y-115514285D01*
X187933333Y-115490476D01*
X187885714Y-115466666D01*
X187790476Y-115466666D01*
X187742857Y-115490476D01*
X187719047Y-115514285D01*
X187695238Y-115561904D01*
%TO.C,C14*%
X191203571Y-108671428D02*
X191227380Y-108695238D01*
X191251190Y-108766666D01*
X191251190Y-108814285D01*
X191227380Y-108885714D01*
X191179761Y-108933333D01*
X191132142Y-108957142D01*
X191036904Y-108980952D01*
X190965476Y-108980952D01*
X190870238Y-108957142D01*
X190822619Y-108933333D01*
X190775000Y-108885714D01*
X190751190Y-108814285D01*
X190751190Y-108766666D01*
X190775000Y-108695238D01*
X190798809Y-108671428D01*
X191251190Y-108195238D02*
X191251190Y-108480952D01*
X191251190Y-108338095D02*
X190751190Y-108338095D01*
X190822619Y-108385714D01*
X190870238Y-108433333D01*
X190894047Y-108480952D01*
X190917857Y-107766666D02*
X191251190Y-107766666D01*
X190727380Y-107885714D02*
X191084523Y-108004761D01*
X191084523Y-107695238D01*
%TO.C,C13*%
X194578571Y-108878571D02*
X194554761Y-108902380D01*
X194483333Y-108926190D01*
X194435714Y-108926190D01*
X194364285Y-108902380D01*
X194316666Y-108854761D01*
X194292857Y-108807142D01*
X194269047Y-108711904D01*
X194269047Y-108640476D01*
X194292857Y-108545238D01*
X194316666Y-108497619D01*
X194364285Y-108450000D01*
X194435714Y-108426190D01*
X194483333Y-108426190D01*
X194554761Y-108450000D01*
X194578571Y-108473809D01*
X195054761Y-108926190D02*
X194769047Y-108926190D01*
X194911904Y-108926190D02*
X194911904Y-108426190D01*
X194864285Y-108497619D01*
X194816666Y-108545238D01*
X194769047Y-108569047D01*
X195221428Y-108426190D02*
X195530952Y-108426190D01*
X195364285Y-108616666D01*
X195435714Y-108616666D01*
X195483333Y-108640476D01*
X195507142Y-108664285D01*
X195530952Y-108711904D01*
X195530952Y-108830952D01*
X195507142Y-108878571D01*
X195483333Y-108902380D01*
X195435714Y-108926190D01*
X195292857Y-108926190D01*
X195245238Y-108902380D01*
X195221428Y-108878571D01*
%TO.C,C10*%
X189678571Y-110071428D02*
X189702380Y-110095238D01*
X189726190Y-110166666D01*
X189726190Y-110214285D01*
X189702380Y-110285714D01*
X189654761Y-110333333D01*
X189607142Y-110357142D01*
X189511904Y-110380952D01*
X189440476Y-110380952D01*
X189345238Y-110357142D01*
X189297619Y-110333333D01*
X189250000Y-110285714D01*
X189226190Y-110214285D01*
X189226190Y-110166666D01*
X189250000Y-110095238D01*
X189273809Y-110071428D01*
X189726190Y-109595238D02*
X189726190Y-109880952D01*
X189726190Y-109738095D02*
X189226190Y-109738095D01*
X189297619Y-109785714D01*
X189345238Y-109833333D01*
X189369047Y-109880952D01*
X189226190Y-109285714D02*
X189226190Y-109238095D01*
X189250000Y-109190476D01*
X189273809Y-109166666D01*
X189321428Y-109142857D01*
X189416666Y-109119047D01*
X189535714Y-109119047D01*
X189630952Y-109142857D01*
X189678571Y-109166666D01*
X189702380Y-109190476D01*
X189726190Y-109238095D01*
X189726190Y-109285714D01*
X189702380Y-109333333D01*
X189678571Y-109357142D01*
X189630952Y-109380952D01*
X189535714Y-109404761D01*
X189416666Y-109404761D01*
X189321428Y-109380952D01*
X189273809Y-109357142D01*
X189250000Y-109333333D01*
X189226190Y-109285714D01*
%TO.C,C9*%
X193866666Y-116178571D02*
X193842857Y-116202380D01*
X193771428Y-116226190D01*
X193723809Y-116226190D01*
X193652380Y-116202380D01*
X193604761Y-116154761D01*
X193580952Y-116107142D01*
X193557142Y-116011904D01*
X193557142Y-115940476D01*
X193580952Y-115845238D01*
X193604761Y-115797619D01*
X193652380Y-115750000D01*
X193723809Y-115726190D01*
X193771428Y-115726190D01*
X193842857Y-115750000D01*
X193866666Y-115773809D01*
X194104761Y-116226190D02*
X194200000Y-116226190D01*
X194247619Y-116202380D01*
X194271428Y-116178571D01*
X194319047Y-116107142D01*
X194342857Y-116011904D01*
X194342857Y-115821428D01*
X194319047Y-115773809D01*
X194295238Y-115750000D01*
X194247619Y-115726190D01*
X194152380Y-115726190D01*
X194104761Y-115750000D01*
X194080952Y-115773809D01*
X194057142Y-115821428D01*
X194057142Y-115940476D01*
X194080952Y-115988095D01*
X194104761Y-116011904D01*
X194152380Y-116035714D01*
X194247619Y-116035714D01*
X194295238Y-116011904D01*
X194319047Y-115988095D01*
X194342857Y-115940476D01*
%TO.C,C6*%
X193316666Y-110678571D02*
X193292857Y-110702380D01*
X193221428Y-110726190D01*
X193173809Y-110726190D01*
X193102380Y-110702380D01*
X193054761Y-110654761D01*
X193030952Y-110607142D01*
X193007142Y-110511904D01*
X193007142Y-110440476D01*
X193030952Y-110345238D01*
X193054761Y-110297619D01*
X193102380Y-110250000D01*
X193173809Y-110226190D01*
X193221428Y-110226190D01*
X193292857Y-110250000D01*
X193316666Y-110273809D01*
X193745238Y-110226190D02*
X193650000Y-110226190D01*
X193602380Y-110250000D01*
X193578571Y-110273809D01*
X193530952Y-110345238D01*
X193507142Y-110440476D01*
X193507142Y-110630952D01*
X193530952Y-110678571D01*
X193554761Y-110702380D01*
X193602380Y-110726190D01*
X193697619Y-110726190D01*
X193745238Y-110702380D01*
X193769047Y-110678571D01*
X193792857Y-110630952D01*
X193792857Y-110511904D01*
X193769047Y-110464285D01*
X193745238Y-110440476D01*
X193697619Y-110416666D01*
X193602380Y-110416666D01*
X193554761Y-110440476D01*
X193530952Y-110464285D01*
X193507142Y-110511904D01*
%TO.C,C5*%
X195466666Y-116178571D02*
X195442857Y-116202380D01*
X195371428Y-116226190D01*
X195323809Y-116226190D01*
X195252380Y-116202380D01*
X195204761Y-116154761D01*
X195180952Y-116107142D01*
X195157142Y-116011904D01*
X195157142Y-115940476D01*
X195180952Y-115845238D01*
X195204761Y-115797619D01*
X195252380Y-115750000D01*
X195323809Y-115726190D01*
X195371428Y-115726190D01*
X195442857Y-115750000D01*
X195466666Y-115773809D01*
X195919047Y-115726190D02*
X195680952Y-115726190D01*
X195657142Y-115964285D01*
X195680952Y-115940476D01*
X195728571Y-115916666D01*
X195847619Y-115916666D01*
X195895238Y-115940476D01*
X195919047Y-115964285D01*
X195942857Y-116011904D01*
X195942857Y-116130952D01*
X195919047Y-116178571D01*
X195895238Y-116202380D01*
X195847619Y-116226190D01*
X195728571Y-116226190D01*
X195680952Y-116202380D01*
X195657142Y-116178571D01*
%TO.C,C3*%
X194791666Y-111728571D02*
X194767857Y-111752380D01*
X194696428Y-111776190D01*
X194648809Y-111776190D01*
X194577380Y-111752380D01*
X194529761Y-111704761D01*
X194505952Y-111657142D01*
X194482142Y-111561904D01*
X194482142Y-111490476D01*
X194505952Y-111395238D01*
X194529761Y-111347619D01*
X194577380Y-111300000D01*
X194648809Y-111276190D01*
X194696428Y-111276190D01*
X194767857Y-111300000D01*
X194791666Y-111323809D01*
X194958333Y-111276190D02*
X195267857Y-111276190D01*
X195101190Y-111466666D01*
X195172619Y-111466666D01*
X195220238Y-111490476D01*
X195244047Y-111514285D01*
X195267857Y-111561904D01*
X195267857Y-111680952D01*
X195244047Y-111728571D01*
X195220238Y-111752380D01*
X195172619Y-111776190D01*
X195029761Y-111776190D01*
X194982142Y-111752380D01*
X194958333Y-111728571D01*
%TO.C,C2*%
X185716666Y-115728571D02*
X185692857Y-115752380D01*
X185621428Y-115776190D01*
X185573809Y-115776190D01*
X185502380Y-115752380D01*
X185454761Y-115704761D01*
X185430952Y-115657142D01*
X185407142Y-115561904D01*
X185407142Y-115490476D01*
X185430952Y-115395238D01*
X185454761Y-115347619D01*
X185502380Y-115300000D01*
X185573809Y-115276190D01*
X185621428Y-115276190D01*
X185692857Y-115300000D01*
X185716666Y-115323809D01*
X185907142Y-115323809D02*
X185930952Y-115300000D01*
X185978571Y-115276190D01*
X186097619Y-115276190D01*
X186145238Y-115300000D01*
X186169047Y-115323809D01*
X186192857Y-115371428D01*
X186192857Y-115419047D01*
X186169047Y-115490476D01*
X185883333Y-115776190D01*
X186192857Y-115776190D01*
%TO.C,U3*%
X116569047Y-109026190D02*
X116569047Y-109430952D01*
X116592857Y-109478571D01*
X116616666Y-109502380D01*
X116664285Y-109526190D01*
X116759523Y-109526190D01*
X116807142Y-109502380D01*
X116830952Y-109478571D01*
X116854761Y-109430952D01*
X116854761Y-109026190D01*
X117045238Y-109026190D02*
X117354761Y-109026190D01*
X117188095Y-109216666D01*
X117259523Y-109216666D01*
X117307142Y-109240476D01*
X117330952Y-109264285D01*
X117354761Y-109311904D01*
X117354761Y-109430952D01*
X117330952Y-109478571D01*
X117307142Y-109502380D01*
X117259523Y-109526190D01*
X117116666Y-109526190D01*
X117069047Y-109502380D01*
X117045238Y-109478571D01*
%TO.C,U2*%
X131469047Y-107226190D02*
X131469047Y-107630952D01*
X131492857Y-107678571D01*
X131516666Y-107702380D01*
X131564285Y-107726190D01*
X131659523Y-107726190D01*
X131707142Y-107702380D01*
X131730952Y-107678571D01*
X131754761Y-107630952D01*
X131754761Y-107226190D01*
X131969047Y-107273809D02*
X131992857Y-107250000D01*
X132040476Y-107226190D01*
X132159523Y-107226190D01*
X132207142Y-107250000D01*
X132230952Y-107273809D01*
X132254761Y-107321428D01*
X132254761Y-107369047D01*
X132230952Y-107440476D01*
X131945238Y-107726190D01*
X132254761Y-107726190D01*
%TO.C,L6*%
X124466666Y-109176190D02*
X124228571Y-109176190D01*
X124228571Y-108676190D01*
X124847619Y-108676190D02*
X124752380Y-108676190D01*
X124704761Y-108700000D01*
X124680952Y-108723809D01*
X124633333Y-108795238D01*
X124609523Y-108890476D01*
X124609523Y-109080952D01*
X124633333Y-109128571D01*
X124657142Y-109152380D01*
X124704761Y-109176190D01*
X124800000Y-109176190D01*
X124847619Y-109152380D01*
X124871428Y-109128571D01*
X124895238Y-109080952D01*
X124895238Y-108961904D01*
X124871428Y-108914285D01*
X124847619Y-108890476D01*
X124800000Y-108866666D01*
X124704761Y-108866666D01*
X124657142Y-108890476D01*
X124633333Y-108914285D01*
X124609523Y-108961904D01*
%TO.C,L7*%
X112716666Y-109176190D02*
X112478571Y-109176190D01*
X112478571Y-108676190D01*
X112835714Y-108676190D02*
X113169047Y-108676190D01*
X112954761Y-109176190D01*
%TO.C,C33*%
X110078571Y-111128571D02*
X110054761Y-111152380D01*
X109983333Y-111176190D01*
X109935714Y-111176190D01*
X109864285Y-111152380D01*
X109816666Y-111104761D01*
X109792857Y-111057142D01*
X109769047Y-110961904D01*
X109769047Y-110890476D01*
X109792857Y-110795238D01*
X109816666Y-110747619D01*
X109864285Y-110700000D01*
X109935714Y-110676190D01*
X109983333Y-110676190D01*
X110054761Y-110700000D01*
X110078571Y-110723809D01*
X110245238Y-110676190D02*
X110554761Y-110676190D01*
X110388095Y-110866666D01*
X110459523Y-110866666D01*
X110507142Y-110890476D01*
X110530952Y-110914285D01*
X110554761Y-110961904D01*
X110554761Y-111080952D01*
X110530952Y-111128571D01*
X110507142Y-111152380D01*
X110459523Y-111176190D01*
X110316666Y-111176190D01*
X110269047Y-111152380D01*
X110245238Y-111128571D01*
X110721428Y-110676190D02*
X111030952Y-110676190D01*
X110864285Y-110866666D01*
X110935714Y-110866666D01*
X110983333Y-110890476D01*
X111007142Y-110914285D01*
X111030952Y-110961904D01*
X111030952Y-111080952D01*
X111007142Y-111128571D01*
X110983333Y-111152380D01*
X110935714Y-111176190D01*
X110792857Y-111176190D01*
X110745238Y-111152380D01*
X110721428Y-111128571D01*
%TO.C,C31*%
X121428571Y-110171428D02*
X121452380Y-110195238D01*
X121476190Y-110266666D01*
X121476190Y-110314285D01*
X121452380Y-110385714D01*
X121404761Y-110433333D01*
X121357142Y-110457142D01*
X121261904Y-110480952D01*
X121190476Y-110480952D01*
X121095238Y-110457142D01*
X121047619Y-110433333D01*
X121000000Y-110385714D01*
X120976190Y-110314285D01*
X120976190Y-110266666D01*
X121000000Y-110195238D01*
X121023809Y-110171428D01*
X120976190Y-110004761D02*
X120976190Y-109695238D01*
X121166666Y-109861904D01*
X121166666Y-109790476D01*
X121190476Y-109742857D01*
X121214285Y-109719047D01*
X121261904Y-109695238D01*
X121380952Y-109695238D01*
X121428571Y-109719047D01*
X121452380Y-109742857D01*
X121476190Y-109790476D01*
X121476190Y-109933333D01*
X121452380Y-109980952D01*
X121428571Y-110004761D01*
X121476190Y-109219047D02*
X121476190Y-109504761D01*
X121476190Y-109361904D02*
X120976190Y-109361904D01*
X121047619Y-109409523D01*
X121095238Y-109457142D01*
X121119047Y-109504761D01*
%TO.C,C30*%
X127628571Y-110171428D02*
X127652380Y-110195238D01*
X127676190Y-110266666D01*
X127676190Y-110314285D01*
X127652380Y-110385714D01*
X127604761Y-110433333D01*
X127557142Y-110457142D01*
X127461904Y-110480952D01*
X127390476Y-110480952D01*
X127295238Y-110457142D01*
X127247619Y-110433333D01*
X127200000Y-110385714D01*
X127176190Y-110314285D01*
X127176190Y-110266666D01*
X127200000Y-110195238D01*
X127223809Y-110171428D01*
X127176190Y-110004761D02*
X127176190Y-109695238D01*
X127366666Y-109861904D01*
X127366666Y-109790476D01*
X127390476Y-109742857D01*
X127414285Y-109719047D01*
X127461904Y-109695238D01*
X127580952Y-109695238D01*
X127628571Y-109719047D01*
X127652380Y-109742857D01*
X127676190Y-109790476D01*
X127676190Y-109933333D01*
X127652380Y-109980952D01*
X127628571Y-110004761D01*
X127176190Y-109385714D02*
X127176190Y-109338095D01*
X127200000Y-109290476D01*
X127223809Y-109266666D01*
X127271428Y-109242857D01*
X127366666Y-109219047D01*
X127485714Y-109219047D01*
X127580952Y-109242857D01*
X127628571Y-109266666D01*
X127652380Y-109290476D01*
X127676190Y-109338095D01*
X127676190Y-109385714D01*
X127652380Y-109433333D01*
X127628571Y-109457142D01*
X127580952Y-109480952D01*
X127485714Y-109504761D01*
X127366666Y-109504761D01*
X127271428Y-109480952D01*
X127223809Y-109457142D01*
X127200000Y-109433333D01*
X127176190Y-109385714D01*
%TO.C,C28*%
X137328571Y-108371428D02*
X137352380Y-108395238D01*
X137376190Y-108466666D01*
X137376190Y-108514285D01*
X137352380Y-108585714D01*
X137304761Y-108633333D01*
X137257142Y-108657142D01*
X137161904Y-108680952D01*
X137090476Y-108680952D01*
X136995238Y-108657142D01*
X136947619Y-108633333D01*
X136900000Y-108585714D01*
X136876190Y-108514285D01*
X136876190Y-108466666D01*
X136900000Y-108395238D01*
X136923809Y-108371428D01*
X136923809Y-108180952D02*
X136900000Y-108157142D01*
X136876190Y-108109523D01*
X136876190Y-107990476D01*
X136900000Y-107942857D01*
X136923809Y-107919047D01*
X136971428Y-107895238D01*
X137019047Y-107895238D01*
X137090476Y-107919047D01*
X137376190Y-108204761D01*
X137376190Y-107895238D01*
X137090476Y-107609523D02*
X137066666Y-107657142D01*
X137042857Y-107680952D01*
X136995238Y-107704761D01*
X136971428Y-107704761D01*
X136923809Y-107680952D01*
X136900000Y-107657142D01*
X136876190Y-107609523D01*
X136876190Y-107514285D01*
X136900000Y-107466666D01*
X136923809Y-107442857D01*
X136971428Y-107419047D01*
X136995238Y-107419047D01*
X137042857Y-107442857D01*
X137066666Y-107466666D01*
X137090476Y-107514285D01*
X137090476Y-107609523D01*
X137114285Y-107657142D01*
X137138095Y-107680952D01*
X137185714Y-107704761D01*
X137280952Y-107704761D01*
X137328571Y-107680952D01*
X137352380Y-107657142D01*
X137376190Y-107609523D01*
X137376190Y-107514285D01*
X137352380Y-107466666D01*
X137328571Y-107442857D01*
X137280952Y-107419047D01*
X137185714Y-107419047D01*
X137138095Y-107442857D01*
X137114285Y-107466666D01*
X137090476Y-107514285D01*
%TO.C,U1*%
D12*
X184988095Y-105952380D02*
X184988095Y-106761904D01*
X185035714Y-106857142D01*
X185083333Y-106904761D01*
X185178571Y-106952380D01*
X185369047Y-106952380D01*
X185464285Y-106904761D01*
X185511904Y-106857142D01*
X185559523Y-106761904D01*
X185559523Y-105952380D01*
X186559523Y-106952380D02*
X185988095Y-106952380D01*
X186273809Y-106952380D02*
X186273809Y-105952380D01*
X186178571Y-106095238D01*
X186083333Y-106190476D01*
X185988095Y-106238095D01*
%TO.C,R14*%
D11*
X196978571Y-103226190D02*
X196811904Y-102988095D01*
X196692857Y-103226190D02*
X196692857Y-102726190D01*
X196883333Y-102726190D01*
X196930952Y-102750000D01*
X196954761Y-102773809D01*
X196978571Y-102821428D01*
X196978571Y-102892857D01*
X196954761Y-102940476D01*
X196930952Y-102964285D01*
X196883333Y-102988095D01*
X196692857Y-102988095D01*
X197454761Y-103226190D02*
X197169047Y-103226190D01*
X197311904Y-103226190D02*
X197311904Y-102726190D01*
X197264285Y-102797619D01*
X197216666Y-102845238D01*
X197169047Y-102869047D01*
X197883333Y-102892857D02*
X197883333Y-103226190D01*
X197764285Y-102702380D02*
X197645238Y-103059523D01*
X197954761Y-103059523D01*
%TO.C,R13*%
X200178571Y-103226190D02*
X200011904Y-102988095D01*
X199892857Y-103226190D02*
X199892857Y-102726190D01*
X200083333Y-102726190D01*
X200130952Y-102750000D01*
X200154761Y-102773809D01*
X200178571Y-102821428D01*
X200178571Y-102892857D01*
X200154761Y-102940476D01*
X200130952Y-102964285D01*
X200083333Y-102988095D01*
X199892857Y-102988095D01*
X200654761Y-103226190D02*
X200369047Y-103226190D01*
X200511904Y-103226190D02*
X200511904Y-102726190D01*
X200464285Y-102797619D01*
X200416666Y-102845238D01*
X200369047Y-102869047D01*
X200821428Y-102726190D02*
X201130952Y-102726190D01*
X200964285Y-102916666D01*
X201035714Y-102916666D01*
X201083333Y-102940476D01*
X201107142Y-102964285D01*
X201130952Y-103011904D01*
X201130952Y-103130952D01*
X201107142Y-103178571D01*
X201083333Y-103202380D01*
X201035714Y-103226190D01*
X200892857Y-103226190D01*
X200845238Y-103202380D01*
X200821428Y-103178571D01*
%TO.C,R12*%
X198578571Y-103226190D02*
X198411904Y-102988095D01*
X198292857Y-103226190D02*
X198292857Y-102726190D01*
X198483333Y-102726190D01*
X198530952Y-102750000D01*
X198554761Y-102773809D01*
X198578571Y-102821428D01*
X198578571Y-102892857D01*
X198554761Y-102940476D01*
X198530952Y-102964285D01*
X198483333Y-102988095D01*
X198292857Y-102988095D01*
X199054761Y-103226190D02*
X198769047Y-103226190D01*
X198911904Y-103226190D02*
X198911904Y-102726190D01*
X198864285Y-102797619D01*
X198816666Y-102845238D01*
X198769047Y-102869047D01*
X199245238Y-102773809D02*
X199269047Y-102750000D01*
X199316666Y-102726190D01*
X199435714Y-102726190D01*
X199483333Y-102750000D01*
X199507142Y-102773809D01*
X199530952Y-102821428D01*
X199530952Y-102869047D01*
X199507142Y-102940476D01*
X199221428Y-103226190D01*
X199530952Y-103226190D01*
%TO.C,R10*%
X179878571Y-115026190D02*
X179711904Y-114788095D01*
X179592857Y-115026190D02*
X179592857Y-114526190D01*
X179783333Y-114526190D01*
X179830952Y-114550000D01*
X179854761Y-114573809D01*
X179878571Y-114621428D01*
X179878571Y-114692857D01*
X179854761Y-114740476D01*
X179830952Y-114764285D01*
X179783333Y-114788095D01*
X179592857Y-114788095D01*
X180354761Y-115026190D02*
X180069047Y-115026190D01*
X180211904Y-115026190D02*
X180211904Y-114526190D01*
X180164285Y-114597619D01*
X180116666Y-114645238D01*
X180069047Y-114669047D01*
X180664285Y-114526190D02*
X180711904Y-114526190D01*
X180759523Y-114550000D01*
X180783333Y-114573809D01*
X180807142Y-114621428D01*
X180830952Y-114716666D01*
X180830952Y-114835714D01*
X180807142Y-114930952D01*
X180783333Y-114978571D01*
X180759523Y-115002380D01*
X180711904Y-115026190D01*
X180664285Y-115026190D01*
X180616666Y-115002380D01*
X180592857Y-114978571D01*
X180569047Y-114930952D01*
X180545238Y-114835714D01*
X180545238Y-114716666D01*
X180569047Y-114621428D01*
X180592857Y-114573809D01*
X180616666Y-114550000D01*
X180664285Y-114526190D01*
%TO.C,R9*%
X180116666Y-105426190D02*
X179950000Y-105188095D01*
X179830952Y-105426190D02*
X179830952Y-104926190D01*
X180021428Y-104926190D01*
X180069047Y-104950000D01*
X180092857Y-104973809D01*
X180116666Y-105021428D01*
X180116666Y-105092857D01*
X180092857Y-105140476D01*
X180069047Y-105164285D01*
X180021428Y-105188095D01*
X179830952Y-105188095D01*
X180354761Y-105426190D02*
X180450000Y-105426190D01*
X180497619Y-105402380D01*
X180521428Y-105378571D01*
X180569047Y-105307142D01*
X180592857Y-105211904D01*
X180592857Y-105021428D01*
X180569047Y-104973809D01*
X180545238Y-104950000D01*
X180497619Y-104926190D01*
X180402380Y-104926190D01*
X180354761Y-104950000D01*
X180330952Y-104973809D01*
X180307142Y-105021428D01*
X180307142Y-105140476D01*
X180330952Y-105188095D01*
X180354761Y-105211904D01*
X180402380Y-105235714D01*
X180497619Y-105235714D01*
X180545238Y-105211904D01*
X180569047Y-105188095D01*
X180592857Y-105140476D01*
%TO.C,R8*%
X190176190Y-103083333D02*
X189938095Y-103250000D01*
X190176190Y-103369047D02*
X189676190Y-103369047D01*
X189676190Y-103178571D01*
X189700000Y-103130952D01*
X189723809Y-103107142D01*
X189771428Y-103083333D01*
X189842857Y-103083333D01*
X189890476Y-103107142D01*
X189914285Y-103130952D01*
X189938095Y-103178571D01*
X189938095Y-103369047D01*
X189890476Y-102797619D02*
X189866666Y-102845238D01*
X189842857Y-102869047D01*
X189795238Y-102892857D01*
X189771428Y-102892857D01*
X189723809Y-102869047D01*
X189700000Y-102845238D01*
X189676190Y-102797619D01*
X189676190Y-102702380D01*
X189700000Y-102654761D01*
X189723809Y-102630952D01*
X189771428Y-102607142D01*
X189795238Y-102607142D01*
X189842857Y-102630952D01*
X189866666Y-102654761D01*
X189890476Y-102702380D01*
X189890476Y-102797619D01*
X189914285Y-102845238D01*
X189938095Y-102869047D01*
X189985714Y-102892857D01*
X190080952Y-102892857D01*
X190128571Y-102869047D01*
X190152380Y-102845238D01*
X190176190Y-102797619D01*
X190176190Y-102702380D01*
X190152380Y-102654761D01*
X190128571Y-102630952D01*
X190080952Y-102607142D01*
X189985714Y-102607142D01*
X189938095Y-102630952D01*
X189914285Y-102654761D01*
X189890476Y-102702380D01*
%TO.C,R7*%
X190616666Y-105776190D02*
X190450000Y-105538095D01*
X190330952Y-105776190D02*
X190330952Y-105276190D01*
X190521428Y-105276190D01*
X190569047Y-105300000D01*
X190592857Y-105323809D01*
X190616666Y-105371428D01*
X190616666Y-105442857D01*
X190592857Y-105490476D01*
X190569047Y-105514285D01*
X190521428Y-105538095D01*
X190330952Y-105538095D01*
X190783333Y-105276190D02*
X191116666Y-105276190D01*
X190902380Y-105776190D01*
%TO.C,R6*%
X188816666Y-115776190D02*
X188650000Y-115538095D01*
X188530952Y-115776190D02*
X188530952Y-115276190D01*
X188721428Y-115276190D01*
X188769047Y-115300000D01*
X188792857Y-115323809D01*
X188816666Y-115371428D01*
X188816666Y-115442857D01*
X188792857Y-115490476D01*
X188769047Y-115514285D01*
X188721428Y-115538095D01*
X188530952Y-115538095D01*
X189245238Y-115276190D02*
X189150000Y-115276190D01*
X189102380Y-115300000D01*
X189078571Y-115323809D01*
X189030952Y-115395238D01*
X189007142Y-115490476D01*
X189007142Y-115680952D01*
X189030952Y-115728571D01*
X189054761Y-115752380D01*
X189102380Y-115776190D01*
X189197619Y-115776190D01*
X189245238Y-115752380D01*
X189269047Y-115728571D01*
X189292857Y-115680952D01*
X189292857Y-115561904D01*
X189269047Y-115514285D01*
X189245238Y-115490476D01*
X189197619Y-115466666D01*
X189102380Y-115466666D01*
X189054761Y-115490476D01*
X189030952Y-115514285D01*
X189007142Y-115561904D01*
%TO.C,R5*%
X190366666Y-115776190D02*
X190200000Y-115538095D01*
X190080952Y-115776190D02*
X190080952Y-115276190D01*
X190271428Y-115276190D01*
X190319047Y-115300000D01*
X190342857Y-115323809D01*
X190366666Y-115371428D01*
X190366666Y-115442857D01*
X190342857Y-115490476D01*
X190319047Y-115514285D01*
X190271428Y-115538095D01*
X190080952Y-115538095D01*
X190819047Y-115276190D02*
X190580952Y-115276190D01*
X190557142Y-115514285D01*
X190580952Y-115490476D01*
X190628571Y-115466666D01*
X190747619Y-115466666D01*
X190795238Y-115490476D01*
X190819047Y-115514285D01*
X190842857Y-115561904D01*
X190842857Y-115680952D01*
X190819047Y-115728571D01*
X190795238Y-115752380D01*
X190747619Y-115776190D01*
X190628571Y-115776190D01*
X190580952Y-115752380D01*
X190557142Y-115728571D01*
%TO.C,R4*%
X189066666Y-105776190D02*
X188900000Y-105538095D01*
X188780952Y-105776190D02*
X188780952Y-105276190D01*
X188971428Y-105276190D01*
X189019047Y-105300000D01*
X189042857Y-105323809D01*
X189066666Y-105371428D01*
X189066666Y-105442857D01*
X189042857Y-105490476D01*
X189019047Y-105514285D01*
X188971428Y-105538095D01*
X188780952Y-105538095D01*
X189495238Y-105442857D02*
X189495238Y-105776190D01*
X189376190Y-105252380D02*
X189257142Y-105609523D01*
X189566666Y-105609523D01*
%TO.C,R3*%
X191741666Y-110726190D02*
X191575000Y-110488095D01*
X191455952Y-110726190D02*
X191455952Y-110226190D01*
X191646428Y-110226190D01*
X191694047Y-110250000D01*
X191717857Y-110273809D01*
X191741666Y-110321428D01*
X191741666Y-110392857D01*
X191717857Y-110440476D01*
X191694047Y-110464285D01*
X191646428Y-110488095D01*
X191455952Y-110488095D01*
X191908333Y-110226190D02*
X192217857Y-110226190D01*
X192051190Y-110416666D01*
X192122619Y-110416666D01*
X192170238Y-110440476D01*
X192194047Y-110464285D01*
X192217857Y-110511904D01*
X192217857Y-110630952D01*
X192194047Y-110678571D01*
X192170238Y-110702380D01*
X192122619Y-110726190D01*
X191979761Y-110726190D01*
X191932142Y-110702380D01*
X191908333Y-110678571D01*
%TO.C,R2*%
X199391666Y-116276190D02*
X199225000Y-116038095D01*
X199105952Y-116276190D02*
X199105952Y-115776190D01*
X199296428Y-115776190D01*
X199344047Y-115800000D01*
X199367857Y-115823809D01*
X199391666Y-115871428D01*
X199391666Y-115942857D01*
X199367857Y-115990476D01*
X199344047Y-116014285D01*
X199296428Y-116038095D01*
X199105952Y-116038095D01*
X199582142Y-115823809D02*
X199605952Y-115800000D01*
X199653571Y-115776190D01*
X199772619Y-115776190D01*
X199820238Y-115800000D01*
X199844047Y-115823809D01*
X199867857Y-115871428D01*
X199867857Y-115919047D01*
X199844047Y-115990476D01*
X199558333Y-116276190D01*
X199867857Y-116276190D01*
%TO.C,R1*%
X189851190Y-112108333D02*
X189613095Y-112275000D01*
X189851190Y-112394047D02*
X189351190Y-112394047D01*
X189351190Y-112203571D01*
X189375000Y-112155952D01*
X189398809Y-112132142D01*
X189446428Y-112108333D01*
X189517857Y-112108333D01*
X189565476Y-112132142D01*
X189589285Y-112155952D01*
X189613095Y-112203571D01*
X189613095Y-112394047D01*
X189851190Y-111632142D02*
X189851190Y-111917857D01*
X189851190Y-111775000D02*
X189351190Y-111775000D01*
X189422619Y-111822619D01*
X189470238Y-111870238D01*
X189494047Y-111917857D01*
%TO.C,L1*%
X199551190Y-108608333D02*
X199551190Y-108846428D01*
X199051190Y-108846428D01*
X199551190Y-108179761D02*
X199551190Y-108465476D01*
X199551190Y-108322619D02*
X199051190Y-108322619D01*
X199122619Y-108370238D01*
X199170238Y-108417857D01*
X199194047Y-108465476D01*
%TO.C,J2*%
D12*
X101366666Y-111602380D02*
X101366666Y-112316666D01*
X101319047Y-112459523D01*
X101223809Y-112554761D01*
X101080952Y-112602380D01*
X100985714Y-112602380D01*
X101795238Y-111697619D02*
X101842857Y-111650000D01*
X101938095Y-111602380D01*
X102176190Y-111602380D01*
X102271428Y-111650000D01*
X102319047Y-111697619D01*
X102366666Y-111792857D01*
X102366666Y-111888095D01*
X102319047Y-112030952D01*
X101747619Y-112602380D01*
X102366666Y-112602380D01*
%TO.C,C26*%
D11*
X182003571Y-116878571D02*
X181979761Y-116902380D01*
X181908333Y-116926190D01*
X181860714Y-116926190D01*
X181789285Y-116902380D01*
X181741666Y-116854761D01*
X181717857Y-116807142D01*
X181694047Y-116711904D01*
X181694047Y-116640476D01*
X181717857Y-116545238D01*
X181741666Y-116497619D01*
X181789285Y-116450000D01*
X181860714Y-116426190D01*
X181908333Y-116426190D01*
X181979761Y-116450000D01*
X182003571Y-116473809D01*
X182194047Y-116473809D02*
X182217857Y-116450000D01*
X182265476Y-116426190D01*
X182384523Y-116426190D01*
X182432142Y-116450000D01*
X182455952Y-116473809D01*
X182479761Y-116521428D01*
X182479761Y-116569047D01*
X182455952Y-116640476D01*
X182170238Y-116926190D01*
X182479761Y-116926190D01*
X182908333Y-116426190D02*
X182813095Y-116426190D01*
X182765476Y-116450000D01*
X182741666Y-116473809D01*
X182694047Y-116545238D01*
X182670238Y-116640476D01*
X182670238Y-116830952D01*
X182694047Y-116878571D01*
X182717857Y-116902380D01*
X182765476Y-116926190D01*
X182860714Y-116926190D01*
X182908333Y-116902380D01*
X182932142Y-116878571D01*
X182955952Y-116830952D01*
X182955952Y-116711904D01*
X182932142Y-116664285D01*
X182908333Y-116640476D01*
X182860714Y-116616666D01*
X182765476Y-116616666D01*
X182717857Y-116640476D01*
X182694047Y-116664285D01*
X182670238Y-116711904D01*
%TO.C,C20*%
X194928571Y-104128571D02*
X194904761Y-104152380D01*
X194833333Y-104176190D01*
X194785714Y-104176190D01*
X194714285Y-104152380D01*
X194666666Y-104104761D01*
X194642857Y-104057142D01*
X194619047Y-103961904D01*
X194619047Y-103890476D01*
X194642857Y-103795238D01*
X194666666Y-103747619D01*
X194714285Y-103700000D01*
X194785714Y-103676190D01*
X194833333Y-103676190D01*
X194904761Y-103700000D01*
X194928571Y-103723809D01*
X195119047Y-103723809D02*
X195142857Y-103700000D01*
X195190476Y-103676190D01*
X195309523Y-103676190D01*
X195357142Y-103700000D01*
X195380952Y-103723809D01*
X195404761Y-103771428D01*
X195404761Y-103819047D01*
X195380952Y-103890476D01*
X195095238Y-104176190D01*
X195404761Y-104176190D01*
X195714285Y-103676190D02*
X195761904Y-103676190D01*
X195809523Y-103700000D01*
X195833333Y-103723809D01*
X195857142Y-103771428D01*
X195880952Y-103866666D01*
X195880952Y-103985714D01*
X195857142Y-104080952D01*
X195833333Y-104128571D01*
X195809523Y-104152380D01*
X195761904Y-104176190D01*
X195714285Y-104176190D01*
X195666666Y-104152380D01*
X195642857Y-104128571D01*
X195619047Y-104080952D01*
X195595238Y-103985714D01*
X195595238Y-103866666D01*
X195619047Y-103771428D01*
X195642857Y-103723809D01*
X195666666Y-103700000D01*
X195714285Y-103676190D01*
%TO.C,C18*%
X192978571Y-104128571D02*
X192954761Y-104152380D01*
X192883333Y-104176190D01*
X192835714Y-104176190D01*
X192764285Y-104152380D01*
X192716666Y-104104761D01*
X192692857Y-104057142D01*
X192669047Y-103961904D01*
X192669047Y-103890476D01*
X192692857Y-103795238D01*
X192716666Y-103747619D01*
X192764285Y-103700000D01*
X192835714Y-103676190D01*
X192883333Y-103676190D01*
X192954761Y-103700000D01*
X192978571Y-103723809D01*
X193454761Y-104176190D02*
X193169047Y-104176190D01*
X193311904Y-104176190D02*
X193311904Y-103676190D01*
X193264285Y-103747619D01*
X193216666Y-103795238D01*
X193169047Y-103819047D01*
X193740476Y-103890476D02*
X193692857Y-103866666D01*
X193669047Y-103842857D01*
X193645238Y-103795238D01*
X193645238Y-103771428D01*
X193669047Y-103723809D01*
X193692857Y-103700000D01*
X193740476Y-103676190D01*
X193835714Y-103676190D01*
X193883333Y-103700000D01*
X193907142Y-103723809D01*
X193930952Y-103771428D01*
X193930952Y-103795238D01*
X193907142Y-103842857D01*
X193883333Y-103866666D01*
X193835714Y-103890476D01*
X193740476Y-103890476D01*
X193692857Y-103914285D01*
X193669047Y-103938095D01*
X193645238Y-103985714D01*
X193645238Y-104080952D01*
X193669047Y-104128571D01*
X193692857Y-104152380D01*
X193740476Y-104176190D01*
X193835714Y-104176190D01*
X193883333Y-104152380D01*
X193907142Y-104128571D01*
X193930952Y-104080952D01*
X193930952Y-103985714D01*
X193907142Y-103938095D01*
X193883333Y-103914285D01*
X193835714Y-103890476D01*
%TO.C,C17*%
X183828571Y-104428571D02*
X183804761Y-104452380D01*
X183733333Y-104476190D01*
X183685714Y-104476190D01*
X183614285Y-104452380D01*
X183566666Y-104404761D01*
X183542857Y-104357142D01*
X183519047Y-104261904D01*
X183519047Y-104190476D01*
X183542857Y-104095238D01*
X183566666Y-104047619D01*
X183614285Y-104000000D01*
X183685714Y-103976190D01*
X183733333Y-103976190D01*
X183804761Y-104000000D01*
X183828571Y-104023809D01*
X184304761Y-104476190D02*
X184019047Y-104476190D01*
X184161904Y-104476190D02*
X184161904Y-103976190D01*
X184114285Y-104047619D01*
X184066666Y-104095238D01*
X184019047Y-104119047D01*
X184471428Y-103976190D02*
X184804761Y-103976190D01*
X184590476Y-104476190D01*
%TO.C,C15*%
X181928571Y-104428571D02*
X181904761Y-104452380D01*
X181833333Y-104476190D01*
X181785714Y-104476190D01*
X181714285Y-104452380D01*
X181666666Y-104404761D01*
X181642857Y-104357142D01*
X181619047Y-104261904D01*
X181619047Y-104190476D01*
X181642857Y-104095238D01*
X181666666Y-104047619D01*
X181714285Y-104000000D01*
X181785714Y-103976190D01*
X181833333Y-103976190D01*
X181904761Y-104000000D01*
X181928571Y-104023809D01*
X182404761Y-104476190D02*
X182119047Y-104476190D01*
X182261904Y-104476190D02*
X182261904Y-103976190D01*
X182214285Y-104047619D01*
X182166666Y-104095238D01*
X182119047Y-104119047D01*
X182857142Y-103976190D02*
X182619047Y-103976190D01*
X182595238Y-104214285D01*
X182619047Y-104190476D01*
X182666666Y-104166666D01*
X182785714Y-104166666D01*
X182833333Y-104190476D01*
X182857142Y-104214285D01*
X182880952Y-104261904D01*
X182880952Y-104380952D01*
X182857142Y-104428571D01*
X182833333Y-104452380D01*
X182785714Y-104476190D01*
X182666666Y-104476190D01*
X182619047Y-104452380D01*
X182595238Y-104428571D01*
%TO.C,C12*%
X192903571Y-107753571D02*
X192879761Y-107777380D01*
X192808333Y-107801190D01*
X192760714Y-107801190D01*
X192689285Y-107777380D01*
X192641666Y-107729761D01*
X192617857Y-107682142D01*
X192594047Y-107586904D01*
X192594047Y-107515476D01*
X192617857Y-107420238D01*
X192641666Y-107372619D01*
X192689285Y-107325000D01*
X192760714Y-107301190D01*
X192808333Y-107301190D01*
X192879761Y-107325000D01*
X192903571Y-107348809D01*
X193379761Y-107801190D02*
X193094047Y-107801190D01*
X193236904Y-107801190D02*
X193236904Y-107301190D01*
X193189285Y-107372619D01*
X193141666Y-107420238D01*
X193094047Y-107444047D01*
X193570238Y-107348809D02*
X193594047Y-107325000D01*
X193641666Y-107301190D01*
X193760714Y-107301190D01*
X193808333Y-107325000D01*
X193832142Y-107348809D01*
X193855952Y-107396428D01*
X193855952Y-107444047D01*
X193832142Y-107515476D01*
X193546428Y-107801190D01*
X193855952Y-107801190D01*
%TO.C,C11*%
X191928571Y-115978571D02*
X191904761Y-116002380D01*
X191833333Y-116026190D01*
X191785714Y-116026190D01*
X191714285Y-116002380D01*
X191666666Y-115954761D01*
X191642857Y-115907142D01*
X191619047Y-115811904D01*
X191619047Y-115740476D01*
X191642857Y-115645238D01*
X191666666Y-115597619D01*
X191714285Y-115550000D01*
X191785714Y-115526190D01*
X191833333Y-115526190D01*
X191904761Y-115550000D01*
X191928571Y-115573809D01*
X192404761Y-116026190D02*
X192119047Y-116026190D01*
X192261904Y-116026190D02*
X192261904Y-115526190D01*
X192214285Y-115597619D01*
X192166666Y-115645238D01*
X192119047Y-115669047D01*
X192880952Y-116026190D02*
X192595238Y-116026190D01*
X192738095Y-116026190D02*
X192738095Y-115526190D01*
X192690476Y-115597619D01*
X192642857Y-115645238D01*
X192595238Y-115669047D01*
%TO.C,C8*%
X196541666Y-108678571D02*
X196517857Y-108702380D01*
X196446428Y-108726190D01*
X196398809Y-108726190D01*
X196327380Y-108702380D01*
X196279761Y-108654761D01*
X196255952Y-108607142D01*
X196232142Y-108511904D01*
X196232142Y-108440476D01*
X196255952Y-108345238D01*
X196279761Y-108297619D01*
X196327380Y-108250000D01*
X196398809Y-108226190D01*
X196446428Y-108226190D01*
X196517857Y-108250000D01*
X196541666Y-108273809D01*
X196827380Y-108440476D02*
X196779761Y-108416666D01*
X196755952Y-108392857D01*
X196732142Y-108345238D01*
X196732142Y-108321428D01*
X196755952Y-108273809D01*
X196779761Y-108250000D01*
X196827380Y-108226190D01*
X196922619Y-108226190D01*
X196970238Y-108250000D01*
X196994047Y-108273809D01*
X197017857Y-108321428D01*
X197017857Y-108345238D01*
X196994047Y-108392857D01*
X196970238Y-108416666D01*
X196922619Y-108440476D01*
X196827380Y-108440476D01*
X196779761Y-108464285D01*
X196755952Y-108488095D01*
X196732142Y-108535714D01*
X196732142Y-108630952D01*
X196755952Y-108678571D01*
X196779761Y-108702380D01*
X196827380Y-108726190D01*
X196922619Y-108726190D01*
X196970238Y-108702380D01*
X196994047Y-108678571D01*
X197017857Y-108630952D01*
X197017857Y-108535714D01*
X196994047Y-108488095D01*
X196970238Y-108464285D01*
X196922619Y-108440476D01*
%TO.C,C7*%
X197191666Y-116378571D02*
X197167857Y-116402380D01*
X197096428Y-116426190D01*
X197048809Y-116426190D01*
X196977380Y-116402380D01*
X196929761Y-116354761D01*
X196905952Y-116307142D01*
X196882142Y-116211904D01*
X196882142Y-116140476D01*
X196905952Y-116045238D01*
X196929761Y-115997619D01*
X196977380Y-115950000D01*
X197048809Y-115926190D01*
X197096428Y-115926190D01*
X197167857Y-115950000D01*
X197191666Y-115973809D01*
X197358333Y-115926190D02*
X197691666Y-115926190D01*
X197477380Y-116426190D01*
%TO.C,C4*%
X184091666Y-115928571D02*
X184067857Y-115952380D01*
X183996428Y-115976190D01*
X183948809Y-115976190D01*
X183877380Y-115952380D01*
X183829761Y-115904761D01*
X183805952Y-115857142D01*
X183782142Y-115761904D01*
X183782142Y-115690476D01*
X183805952Y-115595238D01*
X183829761Y-115547619D01*
X183877380Y-115500000D01*
X183948809Y-115476190D01*
X183996428Y-115476190D01*
X184067857Y-115500000D01*
X184091666Y-115523809D01*
X184520238Y-115642857D02*
X184520238Y-115976190D01*
X184401190Y-115452380D02*
X184282142Y-115809523D01*
X184591666Y-115809523D01*
%TO.C,C1*%
X196541666Y-111928571D02*
X196517857Y-111952380D01*
X196446428Y-111976190D01*
X196398809Y-111976190D01*
X196327380Y-111952380D01*
X196279761Y-111904761D01*
X196255952Y-111857142D01*
X196232142Y-111761904D01*
X196232142Y-111690476D01*
X196255952Y-111595238D01*
X196279761Y-111547619D01*
X196327380Y-111500000D01*
X196398809Y-111476190D01*
X196446428Y-111476190D01*
X196517857Y-111500000D01*
X196541666Y-111523809D01*
X197017857Y-111976190D02*
X196732142Y-111976190D01*
X196875000Y-111976190D02*
X196875000Y-111476190D01*
X196827380Y-111547619D01*
X196779761Y-111595238D01*
X196732142Y-111619047D01*
%TD*%
M02*
