%TF.GenerationSoftware,KiCad,Pcbnew,(5.1.6)-1*%
%TF.CreationDate,2022-03-29T15:59:44+02:00*%
%TF.ProjectId,MW_generator,4d575f67-656e-4657-9261-746f722e6b69,rev?*%
%TF.SameCoordinates,Original*%
%TF.FileFunction,Copper,L2,Bot*%
%TF.FilePolarity,Positive*%
%FSLAX46Y46*%
G04 Gerber Fmt 4.6, Leading zero omitted, Abs format (unit mm)*
G04 Created by KiCad (PCBNEW (5.1.6)-1) date 2022-03-29 15:59:44*
%MOMM*%
%LPD*%
G01*
G04 APERTURE LIST*
%TA.AperFunction,ViaPad*%
%ADD10C,0.700000*%
%TD*%
%TA.AperFunction,ViaPad*%
%ADD11C,0.800000*%
%TD*%
%TA.AperFunction,Conductor*%
%ADD12C,0.300000*%
%TD*%
%TA.AperFunction,Conductor*%
%ADD13C,0.250000*%
%TD*%
%TA.AperFunction,Conductor*%
%ADD14C,0.254000*%
%TD*%
G04 APERTURE END LIST*
D10*
%TO.N,+3V3*%
X192000000Y-112400000D03*
X199100000Y-107150000D03*
X202100000Y-113050000D03*
X182325000Y-115750000D03*
X182250000Y-105200000D03*
%TO.N,Net-(C18-Pad1)*%
X191900000Y-104900000D03*
X188900000Y-117200000D03*
X183500000Y-106700000D03*
%TO.N,GND*%
X202100000Y-116900000D03*
X202100000Y-110000000D03*
X202100000Y-103150000D03*
X200100000Y-100850000D03*
X193500000Y-100850000D03*
X187500000Y-100850000D03*
X181500000Y-100850000D03*
X174950000Y-100850000D03*
X172950000Y-103150000D03*
X172950000Y-110000000D03*
X197300000Y-117150000D03*
X186000000Y-109000000D03*
X174900000Y-119150000D03*
X187450000Y-119150000D03*
X200100000Y-119150000D03*
X193500000Y-119150000D03*
X181500000Y-119150000D03*
X172950000Y-116900000D03*
X104700000Y-105750000D03*
X104650000Y-114250000D03*
X105600000Y-108650000D03*
X106600000Y-108650000D03*
X107600000Y-108650000D03*
X108600000Y-108650000D03*
X109600000Y-108650000D03*
X110600000Y-108650000D03*
X105600000Y-111350000D03*
X106600000Y-111350000D03*
X107600000Y-111350000D03*
X108600000Y-111350000D03*
X108600000Y-112350000D03*
X109300000Y-113050000D03*
X118000000Y-112350000D03*
X104600000Y-108350000D03*
X103600000Y-108350000D03*
X102600000Y-108350000D03*
X101600000Y-108350000D03*
X104600000Y-111650000D03*
X103600000Y-111650000D03*
X102600000Y-111650000D03*
X101600000Y-111650000D03*
X119000000Y-111350000D03*
X110300000Y-113050000D03*
X111300000Y-113050000D03*
X112300000Y-113050000D03*
X113300000Y-113050000D03*
X114300000Y-113050000D03*
X115300000Y-113050000D03*
X116300000Y-113050000D03*
X117300000Y-113050000D03*
X119000000Y-112350000D03*
X120000000Y-111350000D03*
X121000000Y-111350000D03*
X122000000Y-111350000D03*
X123000000Y-111350000D03*
X124000000Y-111350000D03*
X125000000Y-111350000D03*
X126000000Y-111350000D03*
X127000000Y-111350000D03*
X128000000Y-111350000D03*
X129000000Y-111350000D03*
X130000000Y-111350000D03*
X131000000Y-111350000D03*
X132000000Y-111350000D03*
X132700000Y-110650000D03*
X133700000Y-110650000D03*
X133700000Y-109650000D03*
X134700000Y-109650000D03*
X135700000Y-109650000D03*
X136700000Y-109650000D03*
X137700000Y-109650000D03*
X138700000Y-109650000D03*
X139400000Y-108950000D03*
X140100000Y-108250000D03*
X110600000Y-107650000D03*
X111300000Y-106950000D03*
X141100000Y-108250000D03*
X142100000Y-108250000D03*
X143100000Y-108250000D03*
X144100000Y-108250000D03*
X145100000Y-108250000D03*
X146100000Y-108250000D03*
X147100000Y-108250000D03*
X148100000Y-108250000D03*
X149100000Y-108250000D03*
X150100000Y-108250000D03*
X151100000Y-108250000D03*
X152100000Y-108250000D03*
X153100000Y-108250000D03*
X154100000Y-108250000D03*
X155100000Y-108250000D03*
X156100000Y-108250000D03*
X157100000Y-108250000D03*
X158100000Y-108250000D03*
X159100000Y-108250000D03*
X160100000Y-108250000D03*
X161100000Y-108250000D03*
X162100000Y-108250000D03*
X163100000Y-108250000D03*
X164100000Y-108250000D03*
X165100000Y-108250000D03*
X166100000Y-108250000D03*
X167100000Y-108250000D03*
X168100000Y-108250000D03*
X169100000Y-108250000D03*
X170100000Y-108250000D03*
X171100000Y-108250000D03*
X140100000Y-105750000D03*
X141100000Y-105750000D03*
X142100000Y-105750000D03*
X143100000Y-105750000D03*
X144100000Y-105750000D03*
X145100000Y-105750000D03*
X146100000Y-105750000D03*
X147100000Y-105750000D03*
X148100000Y-105750000D03*
X149100000Y-105750000D03*
X150100000Y-105750000D03*
X151100000Y-105750000D03*
X152100000Y-105750000D03*
X153100000Y-105750000D03*
X154100000Y-105750000D03*
X155100000Y-105750000D03*
X156100000Y-105750000D03*
X157100000Y-105750000D03*
X158100000Y-105750000D03*
X159100000Y-105750000D03*
X160100000Y-105750000D03*
X161100000Y-105750000D03*
X162100000Y-105750000D03*
X163100000Y-105750000D03*
X164100000Y-105750000D03*
X165100000Y-105750000D03*
X166100000Y-105750000D03*
X167100000Y-105750000D03*
X168100000Y-105750000D03*
X169100000Y-105750000D03*
X170100000Y-105750000D03*
X171100000Y-105750000D03*
X139100000Y-105750000D03*
X138100000Y-105750000D03*
X137400000Y-106450000D03*
X136400000Y-106450000D03*
X135400000Y-106450000D03*
X134400000Y-106450000D03*
X133400000Y-106450000D03*
X132400000Y-106450000D03*
X131700000Y-107150000D03*
X127950000Y-107050000D03*
X126950000Y-107050000D03*
X125950000Y-107050000D03*
X123150000Y-107050000D03*
X122150000Y-107050000D03*
X121150000Y-107050000D03*
X120150000Y-107050000D03*
X119150000Y-107050000D03*
X118150000Y-107050000D03*
X117150000Y-107050000D03*
X114550000Y-107050000D03*
X113850000Y-106350000D03*
X112000000Y-106250000D03*
X171100000Y-109250000D03*
X171100000Y-110250000D03*
X171100000Y-111250000D03*
X170100000Y-111250000D03*
X169100000Y-111250000D03*
X169100000Y-112250000D03*
X169100000Y-113250000D03*
X171100000Y-114250000D03*
X170100000Y-114250000D03*
X169100000Y-114250000D03*
X174450000Y-114650000D03*
X174450000Y-115650000D03*
X174450000Y-116650000D03*
X174450000Y-117650000D03*
X175450000Y-117650000D03*
X176450000Y-117650000D03*
X177450000Y-117650000D03*
X178450000Y-117650000D03*
X179450000Y-117650000D03*
X180450000Y-117650000D03*
X181450000Y-117650000D03*
X177100000Y-115000000D03*
X177100000Y-114000000D03*
X177100000Y-113000000D03*
X177100000Y-112000000D03*
X177100000Y-111000000D03*
X177100000Y-110000000D03*
X177100000Y-109000000D03*
X177100000Y-108000000D03*
X177100000Y-107000000D03*
X177100000Y-106000000D03*
X177100000Y-105000000D03*
X174450000Y-105350000D03*
X174450000Y-104350000D03*
X174450000Y-103350000D03*
X174450000Y-102350000D03*
X175450000Y-102350000D03*
X176450000Y-102350000D03*
X177450000Y-102350000D03*
X178450000Y-102350000D03*
X179450000Y-102350000D03*
X180450000Y-102350000D03*
X181450000Y-102350000D03*
X185000000Y-109000000D03*
X184000000Y-109000000D03*
X186000000Y-110000000D03*
X185000000Y-110000000D03*
X184000000Y-110000000D03*
X186000000Y-111000000D03*
X185000000Y-111000000D03*
X184000000Y-111000000D03*
X196500000Y-118350000D03*
X178700000Y-113900000D03*
X178700000Y-112900000D03*
X178700000Y-111900000D03*
X178650000Y-105800000D03*
X178650000Y-106800000D03*
X178650000Y-107800000D03*
X179050000Y-110850000D03*
X179050000Y-108850000D03*
X179050000Y-109850000D03*
X180250000Y-110350000D03*
X181200000Y-108450000D03*
X181450000Y-112150000D03*
X197400000Y-113350000D03*
%TO.N,/LE*%
X197300000Y-104600000D03*
X189900000Y-107250000D03*
%TO.N,/CLK*%
X200500000Y-104600000D03*
X188625000Y-108450000D03*
%TO.N,/DATA*%
X198900000Y-104600000D03*
X189250000Y-107850000D03*
D11*
%TO.N,+5V*%
X205200000Y-104000000D03*
D10*
X112800000Y-104000000D03*
X124550000Y-104000000D03*
%TO.N,Net-(C10-Pad2)*%
X190250000Y-109750000D03*
X191850000Y-109750000D03*
%TD*%
D12*
%TO.N,+3V3*%
X201450000Y-112400000D02*
X202100000Y-113050000D01*
X192000000Y-112400000D02*
X201450000Y-112400000D01*
X199100000Y-110050000D02*
X201450000Y-112400000D01*
X199100000Y-107150000D02*
X199100000Y-110050000D01*
X182250000Y-115675000D02*
X182325000Y-115750000D01*
X182250000Y-105200000D02*
X182250000Y-115675000D01*
X189236001Y-117900001D02*
X192000000Y-115136002D01*
X192000000Y-115136002D02*
X192000000Y-112400000D01*
X184475001Y-117900001D02*
X189236001Y-117900001D01*
X182325000Y-115750000D02*
X184475001Y-117900001D01*
D13*
%TO.N,Net-(C18-Pad1)*%
X183500000Y-106700000D02*
X183500000Y-106100000D01*
X184700000Y-104900000D02*
X191900000Y-104900000D01*
X183500000Y-106100000D02*
X184700000Y-104900000D01*
X189725000Y-104900000D02*
X191900000Y-104900000D01*
X187250000Y-107375000D02*
X189725000Y-104900000D01*
X187250000Y-112250000D02*
X187250000Y-107375000D01*
X188900000Y-117200000D02*
X188900000Y-113900000D01*
X188900000Y-113900000D02*
X187250000Y-112250000D01*
%TO.N,/LE*%
X194650000Y-107250000D02*
X197300000Y-104600000D01*
X189900000Y-107250000D02*
X194650000Y-107250000D01*
%TO.N,/CLK*%
X196574999Y-108525001D02*
X200500000Y-104600000D01*
X188925999Y-108525001D02*
X196574999Y-108525001D01*
X188850998Y-108450000D02*
X188925999Y-108525001D01*
X188625000Y-108450000D02*
X188850998Y-108450000D01*
%TO.N,/DATA*%
X195574999Y-107925001D02*
X198900000Y-104600000D01*
X189575999Y-107925001D02*
X195574999Y-107925001D01*
X189500998Y-107850000D02*
X189575999Y-107925001D01*
X189250000Y-107850000D02*
X189500998Y-107850000D01*
D12*
%TO.N,+5V*%
X112800000Y-104000000D02*
X124550000Y-104000000D01*
X205200000Y-101750000D02*
X205200000Y-104000000D01*
X172000000Y-99300000D02*
X202750000Y-99300000D01*
X202750000Y-99300000D02*
X205200000Y-101750000D01*
X124550000Y-104000000D02*
X167300000Y-104000000D01*
X167300000Y-104000000D02*
X172000000Y-99300000D01*
D13*
%TO.N,Net-(C10-Pad2)*%
X190250000Y-109750000D02*
X191850000Y-109750000D01*
%TD*%
D14*
%TO.N,GND*%
G36*
X211840001Y-121840000D02*
G01*
X165273381Y-121840000D01*
X162989616Y-119556236D01*
X162968948Y-119531052D01*
X162868450Y-119448575D01*
X162753793Y-119387290D01*
X162629383Y-119349550D01*
X162532419Y-119340000D01*
X162532409Y-119340000D01*
X162500000Y-119336808D01*
X162467591Y-119340000D01*
X100660000Y-119340000D01*
X100660000Y-105102986D01*
X181265000Y-105102986D01*
X181265000Y-105297014D01*
X181302853Y-105487314D01*
X181377104Y-105666572D01*
X181465000Y-105798117D01*
X181465001Y-115264126D01*
X181452104Y-115283428D01*
X181377853Y-115462686D01*
X181340000Y-115652986D01*
X181340000Y-115847014D01*
X181377853Y-116037314D01*
X181452104Y-116216572D01*
X181559901Y-116377901D01*
X181697099Y-116515099D01*
X181858428Y-116622896D01*
X182037686Y-116697147D01*
X182192855Y-116728012D01*
X183892654Y-118427811D01*
X183917237Y-118457765D01*
X184036768Y-118555863D01*
X184173141Y-118628755D01*
X184321114Y-118673643D01*
X184396027Y-118681021D01*
X184436440Y-118685001D01*
X184436445Y-118685001D01*
X184475001Y-118688798D01*
X184513557Y-118685001D01*
X189197448Y-118685001D01*
X189236001Y-118688798D01*
X189274554Y-118685001D01*
X189274562Y-118685001D01*
X189389888Y-118673642D01*
X189537861Y-118628755D01*
X189674234Y-118555863D01*
X189793765Y-118457765D01*
X189818348Y-118427811D01*
X192527811Y-115718348D01*
X192557764Y-115693766D01*
X192655862Y-115574235D01*
X192728754Y-115437862D01*
X192748387Y-115373141D01*
X192773642Y-115289889D01*
X192783259Y-115192236D01*
X192785000Y-115174563D01*
X192785000Y-115174558D01*
X192788797Y-115136002D01*
X192785000Y-115097446D01*
X192785000Y-113185000D01*
X201122556Y-113185000D01*
X201152853Y-113337314D01*
X201227104Y-113516572D01*
X201334901Y-113677901D01*
X201472099Y-113815099D01*
X201633428Y-113922896D01*
X201812686Y-113997147D01*
X202002986Y-114035000D01*
X202197014Y-114035000D01*
X202387314Y-113997147D01*
X202566572Y-113922896D01*
X202727901Y-113815099D01*
X202865099Y-113677901D01*
X202972896Y-113516572D01*
X203047147Y-113337314D01*
X203085000Y-113147014D01*
X203085000Y-112952986D01*
X203047147Y-112762686D01*
X202972896Y-112583428D01*
X202865099Y-112422099D01*
X202727901Y-112284901D01*
X202566572Y-112177104D01*
X202387314Y-112102853D01*
X202232145Y-112071988D01*
X202032345Y-111872188D01*
X202007764Y-111842236D01*
X201977810Y-111817653D01*
X199885000Y-109724843D01*
X199885000Y-107748117D01*
X199972896Y-107616572D01*
X200047147Y-107437314D01*
X200085000Y-107247014D01*
X200085000Y-107052986D01*
X200047147Y-106862686D01*
X199972896Y-106683428D01*
X199865099Y-106522099D01*
X199758901Y-106415901D01*
X200589802Y-105585000D01*
X200597014Y-105585000D01*
X200787314Y-105547147D01*
X200966572Y-105472896D01*
X201127901Y-105365099D01*
X201265099Y-105227901D01*
X201372896Y-105066572D01*
X201447147Y-104887314D01*
X201485000Y-104697014D01*
X201485000Y-104502986D01*
X201447147Y-104312686D01*
X201372896Y-104133428D01*
X201265099Y-103972099D01*
X201127901Y-103834901D01*
X200966572Y-103727104D01*
X200787314Y-103652853D01*
X200597014Y-103615000D01*
X200402986Y-103615000D01*
X200212686Y-103652853D01*
X200033428Y-103727104D01*
X199872099Y-103834901D01*
X199734901Y-103972099D01*
X199700000Y-104024332D01*
X199665099Y-103972099D01*
X199527901Y-103834901D01*
X199366572Y-103727104D01*
X199187314Y-103652853D01*
X198997014Y-103615000D01*
X198802986Y-103615000D01*
X198612686Y-103652853D01*
X198433428Y-103727104D01*
X198272099Y-103834901D01*
X198134901Y-103972099D01*
X198100000Y-104024332D01*
X198065099Y-103972099D01*
X197927901Y-103834901D01*
X197766572Y-103727104D01*
X197587314Y-103652853D01*
X197397014Y-103615000D01*
X197202986Y-103615000D01*
X197012686Y-103652853D01*
X196833428Y-103727104D01*
X196672099Y-103834901D01*
X196534901Y-103972099D01*
X196427104Y-104133428D01*
X196352853Y-104312686D01*
X196315000Y-104502986D01*
X196315000Y-104510198D01*
X194335199Y-106490000D01*
X190533000Y-106490000D01*
X190527901Y-106484901D01*
X190366572Y-106377104D01*
X190187314Y-106302853D01*
X189997014Y-106265000D01*
X189802986Y-106265000D01*
X189612686Y-106302853D01*
X189433428Y-106377104D01*
X189272099Y-106484901D01*
X189134901Y-106622099D01*
X189027104Y-106783428D01*
X188978979Y-106899612D01*
X188962686Y-106902853D01*
X188783428Y-106977104D01*
X188622099Y-107084901D01*
X188484901Y-107222099D01*
X188377104Y-107383428D01*
X188325555Y-107507878D01*
X188158428Y-107577104D01*
X188050746Y-107649055D01*
X190039802Y-105660000D01*
X191267000Y-105660000D01*
X191272099Y-105665099D01*
X191433428Y-105772896D01*
X191612686Y-105847147D01*
X191802986Y-105885000D01*
X191997014Y-105885000D01*
X192187314Y-105847147D01*
X192366572Y-105772896D01*
X192527901Y-105665099D01*
X192665099Y-105527901D01*
X192772896Y-105366572D01*
X192847147Y-105187314D01*
X192885000Y-104997014D01*
X192885000Y-104802986D01*
X192847147Y-104612686D01*
X192772896Y-104433428D01*
X192665099Y-104272099D01*
X192527901Y-104134901D01*
X192366572Y-104027104D01*
X192187314Y-103952853D01*
X191997014Y-103915000D01*
X191802986Y-103915000D01*
X191612686Y-103952853D01*
X191433428Y-104027104D01*
X191272099Y-104134901D01*
X191267000Y-104140000D01*
X189762333Y-104140000D01*
X189725000Y-104136323D01*
X189687667Y-104140000D01*
X184737322Y-104140000D01*
X184699999Y-104136324D01*
X184662676Y-104140000D01*
X184662667Y-104140000D01*
X184551014Y-104150997D01*
X184407753Y-104194454D01*
X184275724Y-104265026D01*
X184159999Y-104359999D01*
X184136201Y-104388997D01*
X183235000Y-105290199D01*
X183235000Y-105102986D01*
X183197147Y-104912686D01*
X183122896Y-104733428D01*
X183015099Y-104572099D01*
X182877901Y-104434901D01*
X182716572Y-104327104D01*
X182537314Y-104252853D01*
X182347014Y-104215000D01*
X182152986Y-104215000D01*
X181962686Y-104252853D01*
X181783428Y-104327104D01*
X181622099Y-104434901D01*
X181484901Y-104572099D01*
X181377104Y-104733428D01*
X181302853Y-104912686D01*
X181265000Y-105102986D01*
X100660000Y-105102986D01*
X100660000Y-103902986D01*
X111815000Y-103902986D01*
X111815000Y-104097014D01*
X111852853Y-104287314D01*
X111927104Y-104466572D01*
X112034901Y-104627901D01*
X112172099Y-104765099D01*
X112333428Y-104872896D01*
X112512686Y-104947147D01*
X112702986Y-104985000D01*
X112897014Y-104985000D01*
X113087314Y-104947147D01*
X113266572Y-104872896D01*
X113398117Y-104785000D01*
X123951883Y-104785000D01*
X124083428Y-104872896D01*
X124262686Y-104947147D01*
X124452986Y-104985000D01*
X124647014Y-104985000D01*
X124837314Y-104947147D01*
X125016572Y-104872896D01*
X125148117Y-104785000D01*
X167261447Y-104785000D01*
X167300000Y-104788797D01*
X167338553Y-104785000D01*
X167338561Y-104785000D01*
X167453887Y-104773641D01*
X167601860Y-104728754D01*
X167738233Y-104655862D01*
X167857764Y-104557764D01*
X167882347Y-104527810D01*
X172325157Y-100085000D01*
X202424843Y-100085000D01*
X204415000Y-102075158D01*
X204415001Y-103321288D01*
X204396063Y-103340226D01*
X204282795Y-103509744D01*
X204204774Y-103698102D01*
X204165000Y-103898061D01*
X204165000Y-104101939D01*
X204204774Y-104301898D01*
X204282795Y-104490256D01*
X204396063Y-104659774D01*
X204540226Y-104803937D01*
X204709744Y-104917205D01*
X204898102Y-104995226D01*
X205098061Y-105035000D01*
X205301939Y-105035000D01*
X205501898Y-104995226D01*
X205690256Y-104917205D01*
X205859774Y-104803937D01*
X206003937Y-104659774D01*
X206117205Y-104490256D01*
X206195226Y-104301898D01*
X206235000Y-104101939D01*
X206235000Y-103898061D01*
X206195226Y-103698102D01*
X206117205Y-103509744D01*
X206003937Y-103340226D01*
X205985000Y-103321289D01*
X205985000Y-101788552D01*
X205988797Y-101749999D01*
X205985000Y-101711446D01*
X205985000Y-101711439D01*
X205973641Y-101596113D01*
X205928754Y-101448140D01*
X205855862Y-101311767D01*
X205757764Y-101192236D01*
X205727817Y-101167659D01*
X203332347Y-98772190D01*
X203307764Y-98742236D01*
X203188233Y-98644138D01*
X203051860Y-98571246D01*
X202903887Y-98526359D01*
X202788561Y-98515000D01*
X202788553Y-98515000D01*
X202750000Y-98511203D01*
X202711447Y-98515000D01*
X172038556Y-98515000D01*
X172000000Y-98511203D01*
X171961444Y-98515000D01*
X171961439Y-98515000D01*
X171921026Y-98518980D01*
X171846113Y-98526358D01*
X171698140Y-98571246D01*
X171561767Y-98644138D01*
X171442236Y-98742236D01*
X171417653Y-98772190D01*
X166974843Y-103215000D01*
X125148117Y-103215000D01*
X125016572Y-103127104D01*
X124837314Y-103052853D01*
X124647014Y-103015000D01*
X124452986Y-103015000D01*
X124262686Y-103052853D01*
X124083428Y-103127104D01*
X123951883Y-103215000D01*
X113398117Y-103215000D01*
X113266572Y-103127104D01*
X113087314Y-103052853D01*
X112897014Y-103015000D01*
X112702986Y-103015000D01*
X112512686Y-103052853D01*
X112333428Y-103127104D01*
X112172099Y-103234901D01*
X112034901Y-103372099D01*
X111927104Y-103533428D01*
X111852853Y-103712686D01*
X111815000Y-103902986D01*
X100660000Y-103902986D01*
X100660000Y-100660000D01*
X162467591Y-100660000D01*
X162500000Y-100663192D01*
X162532409Y-100660000D01*
X162532419Y-100660000D01*
X162629383Y-100650450D01*
X162753793Y-100612710D01*
X162868450Y-100551425D01*
X162968948Y-100468948D01*
X162989616Y-100443764D01*
X165273381Y-98160000D01*
X211840000Y-98160000D01*
X211840001Y-121840000D01*
G37*
X211840001Y-121840000D02*
X165273381Y-121840000D01*
X162989616Y-119556236D01*
X162968948Y-119531052D01*
X162868450Y-119448575D01*
X162753793Y-119387290D01*
X162629383Y-119349550D01*
X162532419Y-119340000D01*
X162532409Y-119340000D01*
X162500000Y-119336808D01*
X162467591Y-119340000D01*
X100660000Y-119340000D01*
X100660000Y-105102986D01*
X181265000Y-105102986D01*
X181265000Y-105297014D01*
X181302853Y-105487314D01*
X181377104Y-105666572D01*
X181465000Y-105798117D01*
X181465001Y-115264126D01*
X181452104Y-115283428D01*
X181377853Y-115462686D01*
X181340000Y-115652986D01*
X181340000Y-115847014D01*
X181377853Y-116037314D01*
X181452104Y-116216572D01*
X181559901Y-116377901D01*
X181697099Y-116515099D01*
X181858428Y-116622896D01*
X182037686Y-116697147D01*
X182192855Y-116728012D01*
X183892654Y-118427811D01*
X183917237Y-118457765D01*
X184036768Y-118555863D01*
X184173141Y-118628755D01*
X184321114Y-118673643D01*
X184396027Y-118681021D01*
X184436440Y-118685001D01*
X184436445Y-118685001D01*
X184475001Y-118688798D01*
X184513557Y-118685001D01*
X189197448Y-118685001D01*
X189236001Y-118688798D01*
X189274554Y-118685001D01*
X189274562Y-118685001D01*
X189389888Y-118673642D01*
X189537861Y-118628755D01*
X189674234Y-118555863D01*
X189793765Y-118457765D01*
X189818348Y-118427811D01*
X192527811Y-115718348D01*
X192557764Y-115693766D01*
X192655862Y-115574235D01*
X192728754Y-115437862D01*
X192748387Y-115373141D01*
X192773642Y-115289889D01*
X192783259Y-115192236D01*
X192785000Y-115174563D01*
X192785000Y-115174558D01*
X192788797Y-115136002D01*
X192785000Y-115097446D01*
X192785000Y-113185000D01*
X201122556Y-113185000D01*
X201152853Y-113337314D01*
X201227104Y-113516572D01*
X201334901Y-113677901D01*
X201472099Y-113815099D01*
X201633428Y-113922896D01*
X201812686Y-113997147D01*
X202002986Y-114035000D01*
X202197014Y-114035000D01*
X202387314Y-113997147D01*
X202566572Y-113922896D01*
X202727901Y-113815099D01*
X202865099Y-113677901D01*
X202972896Y-113516572D01*
X203047147Y-113337314D01*
X203085000Y-113147014D01*
X203085000Y-112952986D01*
X203047147Y-112762686D01*
X202972896Y-112583428D01*
X202865099Y-112422099D01*
X202727901Y-112284901D01*
X202566572Y-112177104D01*
X202387314Y-112102853D01*
X202232145Y-112071988D01*
X202032345Y-111872188D01*
X202007764Y-111842236D01*
X201977810Y-111817653D01*
X199885000Y-109724843D01*
X199885000Y-107748117D01*
X199972896Y-107616572D01*
X200047147Y-107437314D01*
X200085000Y-107247014D01*
X200085000Y-107052986D01*
X200047147Y-106862686D01*
X199972896Y-106683428D01*
X199865099Y-106522099D01*
X199758901Y-106415901D01*
X200589802Y-105585000D01*
X200597014Y-105585000D01*
X200787314Y-105547147D01*
X200966572Y-105472896D01*
X201127901Y-105365099D01*
X201265099Y-105227901D01*
X201372896Y-105066572D01*
X201447147Y-104887314D01*
X201485000Y-104697014D01*
X201485000Y-104502986D01*
X201447147Y-104312686D01*
X201372896Y-104133428D01*
X201265099Y-103972099D01*
X201127901Y-103834901D01*
X200966572Y-103727104D01*
X200787314Y-103652853D01*
X200597014Y-103615000D01*
X200402986Y-103615000D01*
X200212686Y-103652853D01*
X200033428Y-103727104D01*
X199872099Y-103834901D01*
X199734901Y-103972099D01*
X199700000Y-104024332D01*
X199665099Y-103972099D01*
X199527901Y-103834901D01*
X199366572Y-103727104D01*
X199187314Y-103652853D01*
X198997014Y-103615000D01*
X198802986Y-103615000D01*
X198612686Y-103652853D01*
X198433428Y-103727104D01*
X198272099Y-103834901D01*
X198134901Y-103972099D01*
X198100000Y-104024332D01*
X198065099Y-103972099D01*
X197927901Y-103834901D01*
X197766572Y-103727104D01*
X197587314Y-103652853D01*
X197397014Y-103615000D01*
X197202986Y-103615000D01*
X197012686Y-103652853D01*
X196833428Y-103727104D01*
X196672099Y-103834901D01*
X196534901Y-103972099D01*
X196427104Y-104133428D01*
X196352853Y-104312686D01*
X196315000Y-104502986D01*
X196315000Y-104510198D01*
X194335199Y-106490000D01*
X190533000Y-106490000D01*
X190527901Y-106484901D01*
X190366572Y-106377104D01*
X190187314Y-106302853D01*
X189997014Y-106265000D01*
X189802986Y-106265000D01*
X189612686Y-106302853D01*
X189433428Y-106377104D01*
X189272099Y-106484901D01*
X189134901Y-106622099D01*
X189027104Y-106783428D01*
X188978979Y-106899612D01*
X188962686Y-106902853D01*
X188783428Y-106977104D01*
X188622099Y-107084901D01*
X188484901Y-107222099D01*
X188377104Y-107383428D01*
X188325555Y-107507878D01*
X188158428Y-107577104D01*
X188050746Y-107649055D01*
X190039802Y-105660000D01*
X191267000Y-105660000D01*
X191272099Y-105665099D01*
X191433428Y-105772896D01*
X191612686Y-105847147D01*
X191802986Y-105885000D01*
X191997014Y-105885000D01*
X192187314Y-105847147D01*
X192366572Y-105772896D01*
X192527901Y-105665099D01*
X192665099Y-105527901D01*
X192772896Y-105366572D01*
X192847147Y-105187314D01*
X192885000Y-104997014D01*
X192885000Y-104802986D01*
X192847147Y-104612686D01*
X192772896Y-104433428D01*
X192665099Y-104272099D01*
X192527901Y-104134901D01*
X192366572Y-104027104D01*
X192187314Y-103952853D01*
X191997014Y-103915000D01*
X191802986Y-103915000D01*
X191612686Y-103952853D01*
X191433428Y-104027104D01*
X191272099Y-104134901D01*
X191267000Y-104140000D01*
X189762333Y-104140000D01*
X189725000Y-104136323D01*
X189687667Y-104140000D01*
X184737322Y-104140000D01*
X184699999Y-104136324D01*
X184662676Y-104140000D01*
X184662667Y-104140000D01*
X184551014Y-104150997D01*
X184407753Y-104194454D01*
X184275724Y-104265026D01*
X184159999Y-104359999D01*
X184136201Y-104388997D01*
X183235000Y-105290199D01*
X183235000Y-105102986D01*
X183197147Y-104912686D01*
X183122896Y-104733428D01*
X183015099Y-104572099D01*
X182877901Y-104434901D01*
X182716572Y-104327104D01*
X182537314Y-104252853D01*
X182347014Y-104215000D01*
X182152986Y-104215000D01*
X181962686Y-104252853D01*
X181783428Y-104327104D01*
X181622099Y-104434901D01*
X181484901Y-104572099D01*
X181377104Y-104733428D01*
X181302853Y-104912686D01*
X181265000Y-105102986D01*
X100660000Y-105102986D01*
X100660000Y-103902986D01*
X111815000Y-103902986D01*
X111815000Y-104097014D01*
X111852853Y-104287314D01*
X111927104Y-104466572D01*
X112034901Y-104627901D01*
X112172099Y-104765099D01*
X112333428Y-104872896D01*
X112512686Y-104947147D01*
X112702986Y-104985000D01*
X112897014Y-104985000D01*
X113087314Y-104947147D01*
X113266572Y-104872896D01*
X113398117Y-104785000D01*
X123951883Y-104785000D01*
X124083428Y-104872896D01*
X124262686Y-104947147D01*
X124452986Y-104985000D01*
X124647014Y-104985000D01*
X124837314Y-104947147D01*
X125016572Y-104872896D01*
X125148117Y-104785000D01*
X167261447Y-104785000D01*
X167300000Y-104788797D01*
X167338553Y-104785000D01*
X167338561Y-104785000D01*
X167453887Y-104773641D01*
X167601860Y-104728754D01*
X167738233Y-104655862D01*
X167857764Y-104557764D01*
X167882347Y-104527810D01*
X172325157Y-100085000D01*
X202424843Y-100085000D01*
X204415000Y-102075158D01*
X204415001Y-103321288D01*
X204396063Y-103340226D01*
X204282795Y-103509744D01*
X204204774Y-103698102D01*
X204165000Y-103898061D01*
X204165000Y-104101939D01*
X204204774Y-104301898D01*
X204282795Y-104490256D01*
X204396063Y-104659774D01*
X204540226Y-104803937D01*
X204709744Y-104917205D01*
X204898102Y-104995226D01*
X205098061Y-105035000D01*
X205301939Y-105035000D01*
X205501898Y-104995226D01*
X205690256Y-104917205D01*
X205859774Y-104803937D01*
X206003937Y-104659774D01*
X206117205Y-104490256D01*
X206195226Y-104301898D01*
X206235000Y-104101939D01*
X206235000Y-103898061D01*
X206195226Y-103698102D01*
X206117205Y-103509744D01*
X206003937Y-103340226D01*
X205985000Y-103321289D01*
X205985000Y-101788552D01*
X205988797Y-101749999D01*
X205985000Y-101711446D01*
X205985000Y-101711439D01*
X205973641Y-101596113D01*
X205928754Y-101448140D01*
X205855862Y-101311767D01*
X205757764Y-101192236D01*
X205727817Y-101167659D01*
X203332347Y-98772190D01*
X203307764Y-98742236D01*
X203188233Y-98644138D01*
X203051860Y-98571246D01*
X202903887Y-98526359D01*
X202788561Y-98515000D01*
X202788553Y-98515000D01*
X202750000Y-98511203D01*
X202711447Y-98515000D01*
X172038556Y-98515000D01*
X172000000Y-98511203D01*
X171961444Y-98515000D01*
X171961439Y-98515000D01*
X171921026Y-98518980D01*
X171846113Y-98526358D01*
X171698140Y-98571246D01*
X171561767Y-98644138D01*
X171442236Y-98742236D01*
X171417653Y-98772190D01*
X166974843Y-103215000D01*
X125148117Y-103215000D01*
X125016572Y-103127104D01*
X124837314Y-103052853D01*
X124647014Y-103015000D01*
X124452986Y-103015000D01*
X124262686Y-103052853D01*
X124083428Y-103127104D01*
X123951883Y-103215000D01*
X113398117Y-103215000D01*
X113266572Y-103127104D01*
X113087314Y-103052853D01*
X112897014Y-103015000D01*
X112702986Y-103015000D01*
X112512686Y-103052853D01*
X112333428Y-103127104D01*
X112172099Y-103234901D01*
X112034901Y-103372099D01*
X111927104Y-103533428D01*
X111852853Y-103712686D01*
X111815000Y-103902986D01*
X100660000Y-103902986D01*
X100660000Y-100660000D01*
X162467591Y-100660000D01*
X162500000Y-100663192D01*
X162532409Y-100660000D01*
X162532419Y-100660000D01*
X162629383Y-100650450D01*
X162753793Y-100612710D01*
X162868450Y-100551425D01*
X162968948Y-100468948D01*
X162989616Y-100443764D01*
X165273381Y-98160000D01*
X211840000Y-98160000D01*
X211840001Y-121840000D01*
G36*
X186738998Y-106811201D02*
G01*
X186710000Y-106834999D01*
X186686202Y-106863997D01*
X186686201Y-106863998D01*
X186615026Y-106950724D01*
X186544454Y-107082754D01*
X186500998Y-107226015D01*
X186486324Y-107375000D01*
X186490001Y-107412332D01*
X186490000Y-112212677D01*
X186486324Y-112250000D01*
X186490000Y-112287322D01*
X186490000Y-112287332D01*
X186500997Y-112398985D01*
X186538370Y-112522188D01*
X186544454Y-112542246D01*
X186615026Y-112674276D01*
X186637663Y-112701859D01*
X186709999Y-112790001D01*
X186739002Y-112813803D01*
X188140001Y-114214804D01*
X188140000Y-116567000D01*
X188134901Y-116572099D01*
X188027104Y-116733428D01*
X187952853Y-116912686D01*
X187915000Y-117102986D01*
X187915000Y-117115001D01*
X184800158Y-117115001D01*
X183303012Y-115617855D01*
X183272147Y-115462686D01*
X183197896Y-115283428D01*
X183090099Y-115122099D01*
X183035000Y-115067000D01*
X183035000Y-107573547D01*
X183212686Y-107647147D01*
X183402986Y-107685000D01*
X183597014Y-107685000D01*
X183787314Y-107647147D01*
X183966572Y-107572896D01*
X184127901Y-107465099D01*
X184265099Y-107327901D01*
X184372896Y-107166572D01*
X184447147Y-106987314D01*
X184485000Y-106797014D01*
X184485000Y-106602986D01*
X184447147Y-106412686D01*
X184392953Y-106281849D01*
X185014802Y-105660000D01*
X187890199Y-105660000D01*
X186738998Y-106811201D01*
G37*
X186738998Y-106811201D02*
X186710000Y-106834999D01*
X186686202Y-106863997D01*
X186686201Y-106863998D01*
X186615026Y-106950724D01*
X186544454Y-107082754D01*
X186500998Y-107226015D01*
X186486324Y-107375000D01*
X186490001Y-107412332D01*
X186490000Y-112212677D01*
X186486324Y-112250000D01*
X186490000Y-112287322D01*
X186490000Y-112287332D01*
X186500997Y-112398985D01*
X186538370Y-112522188D01*
X186544454Y-112542246D01*
X186615026Y-112674276D01*
X186637663Y-112701859D01*
X186709999Y-112790001D01*
X186739002Y-112813803D01*
X188140001Y-114214804D01*
X188140000Y-116567000D01*
X188134901Y-116572099D01*
X188027104Y-116733428D01*
X187952853Y-116912686D01*
X187915000Y-117102986D01*
X187915000Y-117115001D01*
X184800158Y-117115001D01*
X183303012Y-115617855D01*
X183272147Y-115462686D01*
X183197896Y-115283428D01*
X183090099Y-115122099D01*
X183035000Y-115067000D01*
X183035000Y-107573547D01*
X183212686Y-107647147D01*
X183402986Y-107685000D01*
X183597014Y-107685000D01*
X183787314Y-107647147D01*
X183966572Y-107572896D01*
X184127901Y-107465099D01*
X184265099Y-107327901D01*
X184372896Y-107166572D01*
X184447147Y-106987314D01*
X184485000Y-106797014D01*
X184485000Y-106602986D01*
X184447147Y-106412686D01*
X184392953Y-106281849D01*
X185014802Y-105660000D01*
X187890199Y-105660000D01*
X186738998Y-106811201D01*
%TD*%
M02*
