M48
; DRILL file {KiCad (5.1.6)-1} date 03/29/22 15:59:40
; FORMAT={-:-/ absolute / inch / decimal}
; #@! TF.CreationDate,2022-03-29T15:59:40+02:00
; #@! TF.GenerationSoftware,Kicad,Pcbnew,(5.1.6)-1
FMAT,2
INCH
T1C0.0118
T2C0.0157
%
G90
G05
T1
X4.0Y-4.2657
X4.0Y-4.3957
X4.0394Y-4.2657
X4.0394Y-4.3957
X4.0787Y-4.2657
X4.0787Y-4.3957
X4.1181Y-4.2657
X4.1181Y-4.3957
X4.1201Y-4.498
X4.122Y-4.1634
X4.1575Y-4.2776
X4.1575Y-4.3839
X4.1969Y-4.2776
X4.1969Y-4.3839
X4.2362Y-4.2776
X4.2362Y-4.3839
X4.2756Y-4.2776
X4.2756Y-4.3839
X4.2756Y-4.4232
X4.3031Y-4.4508
X4.315Y-4.2776
X4.3425Y-4.4508
X4.3543Y-4.2382
X4.3543Y-4.2776
X4.3819Y-4.2106
X4.3819Y-4.4508
X4.4094Y-4.1831
X4.4213Y-4.4508
X4.4409Y-4.0945
X4.4606Y-4.4508
X4.4823Y-4.187
X4.5Y-4.4508
X4.5098Y-4.2146
X4.5394Y-4.4508
X4.5787Y-4.4508
X4.6122Y-4.2146
X4.6181Y-4.4508
X4.6457Y-4.4232
X4.6516Y-4.2146
X4.685Y-4.3839
X4.685Y-4.4232
X4.6909Y-4.2146
X4.7244Y-4.3839
X4.7303Y-4.2146
X4.7638Y-4.3839
X4.7697Y-4.2146
X4.8031Y-4.3839
X4.8091Y-4.2146
X4.8425Y-4.3839
X4.8484Y-4.2146
X4.8819Y-4.3839
X4.9035Y-4.0945
X4.9213Y-4.3839
X4.9587Y-4.2146
X4.9606Y-4.3839
X4.998Y-4.2146
X5.0Y-4.3839
X5.0374Y-4.2146
X5.0394Y-4.3839
X5.0787Y-4.3839
X5.1181Y-4.3839
X5.1575Y-4.3839
X5.185Y-4.2185
X5.1969Y-4.3839
X5.2126Y-4.1909
X5.2244Y-4.3563
X5.252Y-4.1909
X5.2638Y-4.3169
X5.2638Y-4.3563
X5.2913Y-4.1909
X5.3031Y-4.3169
X5.3307Y-4.1909
X5.3425Y-4.3169
X5.3701Y-4.1909
X5.3819Y-4.3169
X5.4094Y-4.1909
X5.4213Y-4.3169
X5.437Y-4.1634
X5.4606Y-4.3169
X5.4764Y-4.1634
X5.4882Y-4.2894
X5.5157Y-4.1634
X5.5157Y-4.2618
X5.5551Y-4.1634
X5.5551Y-4.2618
X5.5945Y-4.1634
X5.5945Y-4.2618
X5.6339Y-4.1634
X5.6339Y-4.2618
X5.6732Y-4.1634
X5.6732Y-4.2618
X5.7126Y-4.1634
X5.7126Y-4.2618
X5.752Y-4.1634
X5.752Y-4.2618
X5.7913Y-4.1634
X5.7913Y-4.2618
X5.8307Y-4.1634
X5.8307Y-4.2618
X5.8701Y-4.1634
X5.8701Y-4.2618
X5.9094Y-4.1634
X5.9094Y-4.2618
X5.9488Y-4.1634
X5.9488Y-4.2618
X5.9882Y-4.1634
X5.9882Y-4.2618
X6.0276Y-4.1634
X6.0276Y-4.2618
X6.0669Y-4.1634
X6.0669Y-4.2618
X6.1063Y-4.1634
X6.1063Y-4.2618
X6.1457Y-4.1634
X6.1457Y-4.2618
X6.185Y-4.1634
X6.185Y-4.2618
X6.2244Y-4.1634
X6.2244Y-4.2618
X6.2638Y-4.1634
X6.2638Y-4.2618
X6.3031Y-4.1634
X6.3031Y-4.2618
X6.3425Y-4.1634
X6.3425Y-4.2618
X6.3819Y-4.1634
X6.3819Y-4.2618
X6.4213Y-4.1634
X6.4213Y-4.2618
X6.4606Y-4.1634
X6.4606Y-4.2618
X6.5Y-4.1634
X6.5Y-4.2618
X6.5394Y-4.1634
X6.5394Y-4.2618
X6.5787Y-4.1634
X6.5787Y-4.2618
X6.6181Y-4.1634
X6.6181Y-4.2618
X6.6575Y-4.1634
X6.6575Y-4.2618
X6.6575Y-4.3799
X6.6575Y-4.4193
X6.6575Y-4.4587
X6.6575Y-4.498
X6.6969Y-4.1634
X6.6969Y-4.2618
X6.6969Y-4.3799
X6.6969Y-4.498
X6.7362Y-4.1634
X6.7362Y-4.2618
X6.7362Y-4.3012
X6.7362Y-4.3406
X6.7362Y-4.3799
X6.7362Y-4.498
X6.8091Y-4.061
X6.8091Y-4.3307
X6.8091Y-4.6024
X6.8681Y-4.0295
X6.8681Y-4.0689
X6.8681Y-4.1083
X6.8681Y-4.1476
X6.8681Y-4.5138
X6.8681Y-4.5531
X6.8681Y-4.5925
X6.8681Y-4.6319
X6.8858Y-4.6909
X6.8878Y-3.9705
X6.9075Y-4.0295
X6.9075Y-4.6319
X6.9469Y-4.0295
X6.9469Y-4.6319
X6.9724Y-4.1339
X6.9724Y-4.1732
X6.9724Y-4.2126
X6.9724Y-4.252
X6.9724Y-4.2913
X6.9724Y-4.3307
X6.9724Y-4.3701
X6.9724Y-4.4094
X6.9724Y-4.4488
X6.9724Y-4.4882
X6.9724Y-4.5276
X6.9862Y-4.0295
X6.9862Y-4.6319
X7.0256Y-4.0295
X7.0256Y-4.6319
X7.0335Y-4.1654
X7.0335Y-4.2047
X7.0335Y-4.2441
X7.0354Y-4.4055
X7.0354Y-4.4449
X7.0354Y-4.4843
X7.0492Y-4.2854
X7.0492Y-4.3248
X7.0492Y-4.3642
X7.065Y-4.0295
X7.065Y-4.6319
X7.0965Y-4.3445
X7.1043Y-4.0295
X7.1043Y-4.6319
X7.1339Y-4.2697
X7.1437Y-4.0295
X7.1437Y-4.4154
X7.1437Y-4.6319
X7.1457Y-3.9705
X7.1457Y-4.6909
X7.1752Y-4.1417
X7.1781Y-4.5571
X7.2244Y-4.2008
X7.2441Y-4.2913
X7.2441Y-4.3307
X7.2441Y-4.3701
X7.2835Y-4.2913
X7.2835Y-4.3307
X7.2835Y-4.3701
X7.3228Y-4.2913
X7.3228Y-4.3307
X7.3228Y-4.3701
X7.3799Y-4.6909
X7.3819Y-3.9705
X7.4262Y-4.2697
X7.437Y-4.6142
X7.4508Y-4.2461
X7.4764Y-4.2224
X7.4902Y-4.3209
X7.5531Y-4.3209
X7.5551Y-4.1299
X7.5591Y-4.4252
X7.6181Y-3.9705
X7.6181Y-4.6909
X7.7362Y-4.6594
X7.7677Y-4.1181
X7.7677Y-4.6122
X7.7717Y-4.4626
X7.8307Y-4.1181
X7.8386Y-4.2185
X7.878Y-3.9705
X7.878Y-4.6909
X7.8937Y-4.1181
X7.9567Y-4.061
X7.9567Y-4.3307
X7.9567Y-4.4508
X7.9567Y-4.6024
T2
X8.0787Y-4.0945
T0
M30
