%TF.GenerationSoftware,KiCad,Pcbnew,(5.1.6)-1*%
%TF.CreationDate,2022-03-29T15:59:44+02:00*%
%TF.ProjectId,MW_generator,4d575f67-656e-4657-9261-746f722e6b69,rev?*%
%TF.SameCoordinates,Original*%
%TF.FileFunction,Paste,Top*%
%TF.FilePolarity,Positive*%
%FSLAX46Y46*%
G04 Gerber Fmt 4.6, Leading zero omitted, Abs format (unit mm)*
G04 Created by KiCad (PCBNEW (5.1.6)-1) date 2022-03-29 15:59:44*
%MOMM*%
%LPD*%
G01*
G04 APERTURE LIST*
%ADD10R,0.500000X0.600000*%
%ADD11R,0.900000X0.600000*%
%ADD12R,2.800000X1.000000*%
%ADD13R,1.700000X0.600000*%
%ADD14R,1.100000X1.300000*%
%ADD15R,0.700000X1.300000*%
%ADD16R,0.600000X0.900000*%
%ADD17R,3.800000X1.000000*%
%ADD18R,5.000000X1.000000*%
%ADD19R,1.000000X3.800000*%
%ADD20R,1.000000X5.550000*%
%ADD21R,0.400000X0.400000*%
%ADD22R,1.780000X1.020000*%
%ADD23R,1.300000X0.700000*%
%ADD24R,0.600000X0.300000*%
%ADD25R,0.300000X0.600000*%
%ADD26R,3.100000X3.100000*%
%ADD27R,1.600000X0.900000*%
%ADD28R,0.700000X1.450000*%
%ADD29R,5.000000X1.524000*%
G04 APERTURE END LIST*
D10*
%TO.C,R11*%
X170100000Y-113000000D03*
X171100000Y-113000000D03*
%TD*%
%TO.C,L5*%
X174750000Y-113000000D03*
X175750000Y-113000000D03*
%TD*%
%TO.C,L4*%
X174750000Y-107000000D03*
X175750000Y-107000000D03*
%TD*%
D11*
%TO.C,L2*%
X178000000Y-105250000D03*
X178000000Y-103750000D03*
%TD*%
%TO.C,L3*%
X178000000Y-116250000D03*
X178000000Y-114750000D03*
%TD*%
D12*
%TO.C,J1*%
X210500000Y-106600000D03*
X210500000Y-113400000D03*
D13*
X207150000Y-112500000D03*
X207150000Y-111500000D03*
X207150000Y-110500000D03*
X207150000Y-109500000D03*
X207150000Y-108500000D03*
X207150000Y-107500000D03*
%TD*%
D14*
%TO.C,X1*%
X200075000Y-110800000D03*
X200075000Y-112900000D03*
X198425000Y-112900000D03*
X198425000Y-110800000D03*
%TD*%
D15*
%TO.C,C24*%
X178000000Y-109000000D03*
X176100000Y-109000000D03*
%TD*%
D16*
%TO.C,C23*%
X178000000Y-111000000D03*
X176500000Y-111000000D03*
%TD*%
D17*
%TO.C,J3*%
X193500000Y-119150000D03*
X181500000Y-119150000D03*
X193500000Y-100850000D03*
X181500000Y-100850000D03*
D18*
X200080000Y-100850000D03*
X200080000Y-119150000D03*
X174920000Y-119150000D03*
X174920000Y-100850000D03*
D17*
X187500000Y-100850000D03*
X187500000Y-119150000D03*
D19*
X202080000Y-110000000D03*
D20*
X202080000Y-116875000D03*
X202080000Y-103125000D03*
X172920000Y-116875000D03*
D19*
X172920000Y-110000000D03*
D20*
X172920000Y-103125000D03*
%TD*%
D11*
%TO.C,C32*%
X129200000Y-108000000D03*
X129200000Y-106500000D03*
%TD*%
%TO.C,C29*%
X116050000Y-108050000D03*
X116050000Y-106550000D03*
%TD*%
%TO.C,C27*%
X182050000Y-113050000D03*
X182050000Y-114550000D03*
%TD*%
%TO.C,C25*%
X176000000Y-116250000D03*
X176000000Y-114750000D03*
%TD*%
%TO.C,C22*%
X176000000Y-103750000D03*
X176000000Y-105250000D03*
%TD*%
%TO.C,C21*%
X187350000Y-103300000D03*
X187350000Y-104800000D03*
%TD*%
%TO.C,C19*%
X185850000Y-103300000D03*
X185850000Y-104800000D03*
%TD*%
%TO.C,C16*%
X187350000Y-116300000D03*
X187350000Y-114800000D03*
%TD*%
D16*
%TO.C,C14*%
X190275000Y-108350000D03*
X191775000Y-108350000D03*
%TD*%
D11*
%TO.C,C13*%
X194900000Y-107950000D03*
X194900000Y-109450000D03*
%TD*%
D16*
%TO.C,C10*%
X190250000Y-109750000D03*
X188750000Y-109750000D03*
%TD*%
D11*
%TO.C,C9*%
X193950000Y-116750000D03*
X193950000Y-115250000D03*
%TD*%
%TO.C,C6*%
X193400000Y-111250000D03*
X193400000Y-109750000D03*
%TD*%
%TO.C,C5*%
X195550000Y-116750000D03*
X195550000Y-115250000D03*
%TD*%
%TO.C,C3*%
X194875000Y-112300000D03*
X194875000Y-110800000D03*
%TD*%
%TO.C,C2*%
X185800000Y-116300000D03*
X185800000Y-114800000D03*
%TD*%
D21*
%TO.C,U3*%
X117875000Y-110100000D03*
X117875000Y-110750000D03*
X117875000Y-111400000D03*
X116025000Y-111400000D03*
X116025000Y-110750000D03*
X116025000Y-110100000D03*
%TD*%
%TO.C,U2*%
X132775000Y-108300000D03*
X132775000Y-108950000D03*
X132775000Y-109600000D03*
X130925000Y-109600000D03*
X130925000Y-108950000D03*
X130925000Y-108300000D03*
%TD*%
D22*
%TO.C,L6*%
X124550000Y-108050000D03*
X124550000Y-109850000D03*
%TD*%
%TO.C,L7*%
X112800000Y-108050000D03*
X112800000Y-109850000D03*
%TD*%
D23*
%TO.C,C33*%
X110400000Y-111900000D03*
X110400000Y-110000000D03*
%TD*%
D15*
%TO.C,C31*%
X122200000Y-109850000D03*
X120300000Y-109850000D03*
%TD*%
%TO.C,C30*%
X128400000Y-109850000D03*
X126500000Y-109850000D03*
%TD*%
%TO.C,C28*%
X138100000Y-108050000D03*
X136200000Y-108050000D03*
%TD*%
D24*
%TO.C,U1*%
X187400000Y-108250000D03*
X187400000Y-108750000D03*
X187400000Y-109250000D03*
X187400000Y-109750000D03*
X187400000Y-110250000D03*
X187400000Y-110750000D03*
X187400000Y-111250000D03*
X187400000Y-111750000D03*
D25*
X186750000Y-112400000D03*
X186250000Y-112400000D03*
X185750000Y-112400000D03*
X185250000Y-112400000D03*
X184750000Y-112400000D03*
X184250000Y-112400000D03*
X183750000Y-112400000D03*
X183250000Y-112400000D03*
D24*
X182600000Y-111750000D03*
X182600000Y-111250000D03*
X182600000Y-110750000D03*
X182600000Y-110250000D03*
X182600000Y-109750000D03*
X182600000Y-109250000D03*
X182600000Y-108750000D03*
X182600000Y-108250000D03*
D25*
X183250000Y-107600000D03*
X183750000Y-107600000D03*
X184250000Y-107600000D03*
X184750000Y-107600000D03*
X185250000Y-107600000D03*
X185750000Y-107600000D03*
X186250000Y-107600000D03*
X186750000Y-107600000D03*
D26*
X185000000Y-110000000D03*
%TD*%
D11*
%TO.C,R14*%
X197300000Y-102250000D03*
X197300000Y-103750000D03*
%TD*%
%TO.C,R13*%
X200500000Y-102250000D03*
X200500000Y-103750000D03*
%TD*%
%TO.C,R12*%
X198900000Y-102250000D03*
X198900000Y-103750000D03*
%TD*%
D27*
%TO.C,R10*%
X180200000Y-116250000D03*
X180200000Y-113350000D03*
%TD*%
%TO.C,R9*%
X180200000Y-103750000D03*
X180200000Y-106650000D03*
%TD*%
D16*
%TO.C,R8*%
X189200000Y-103000000D03*
X190700000Y-103000000D03*
%TD*%
D11*
%TO.C,R7*%
X190700000Y-106300000D03*
X190700000Y-104800000D03*
%TD*%
%TO.C,R6*%
X188900000Y-114800000D03*
X188900000Y-116300000D03*
%TD*%
%TO.C,R5*%
X190450000Y-116300000D03*
X190450000Y-114800000D03*
%TD*%
%TO.C,R4*%
X189150000Y-104800000D03*
X189150000Y-106300000D03*
%TD*%
%TO.C,R3*%
X191825000Y-111250000D03*
X191825000Y-109750000D03*
%TD*%
D27*
%TO.C,R2*%
X199475000Y-117500000D03*
X199475000Y-114600000D03*
%TD*%
D16*
%TO.C,R1*%
X190375000Y-112025000D03*
X188875000Y-112025000D03*
%TD*%
D28*
%TO.C,L1*%
X198575000Y-108525000D03*
X200075000Y-108525000D03*
%TD*%
D29*
%TO.C,J2*%
X102500000Y-114250000D03*
X102500000Y-105750000D03*
X102500000Y-110000000D03*
%TD*%
D23*
%TO.C,C26*%
X182325000Y-117650000D03*
X182325000Y-115750000D03*
%TD*%
%TO.C,C20*%
X195250000Y-103000000D03*
X195250000Y-104900000D03*
%TD*%
%TO.C,C18*%
X193300000Y-103000000D03*
X193300000Y-104900000D03*
%TD*%
%TO.C,C17*%
X184150000Y-103300000D03*
X184150000Y-105200000D03*
%TD*%
%TO.C,C15*%
X182250000Y-103300000D03*
X182250000Y-105200000D03*
%TD*%
%TO.C,C12*%
X193225000Y-106625000D03*
X193225000Y-108525000D03*
%TD*%
%TO.C,C11*%
X192250000Y-116750000D03*
X192250000Y-114850000D03*
%TD*%
%TO.C,C8*%
X196625000Y-107550000D03*
X196625000Y-109450000D03*
%TD*%
%TO.C,C7*%
X197275000Y-117150000D03*
X197275000Y-115250000D03*
%TD*%
%TO.C,C4*%
X184175000Y-116700000D03*
X184175000Y-114800000D03*
%TD*%
%TO.C,C1*%
X196625000Y-112700000D03*
X196625000Y-110800000D03*
%TD*%
M02*
