%TF.GenerationSoftware,KiCad,Pcbnew,(5.1.6)-1*%
%TF.CreationDate,2020-10-24T11:52:24+02:00*%
%TF.ProjectId,MW_amplifier,4d575f61-6d70-46c6-9966-6965722e6b69,rev?*%
%TF.SameCoordinates,Original*%
%TF.FileFunction,Copper,L2,Bot*%
%TF.FilePolarity,Positive*%
%FSLAX46Y46*%
G04 Gerber Fmt 4.6, Leading zero omitted, Abs format (unit mm)*
G04 Created by KiCad (PCBNEW (5.1.6)-1) date 2020-10-24 11:52:24*
%MOMM*%
%LPD*%
G01*
G04 APERTURE LIST*
%TA.AperFunction,ComponentPad*%
%ADD10R,1.524000X2.540000*%
%TD*%
%TA.AperFunction,SMDPad,CuDef*%
%ADD11R,5.000000X1.500000*%
%TD*%
%TA.AperFunction,ViaPad*%
%ADD12C,0.800000*%
%TD*%
%TA.AperFunction,Conductor*%
%ADD13C,0.254000*%
%TD*%
G04 APERTURE END LIST*
D10*
%TO.P,T1,2*%
%TO.N,GND*%
X148730000Y-108500000D03*
%TO.P,T1,1*%
%TO.N,+5V*%
X151270000Y-108500000D03*
%TD*%
D11*
%TO.P,J2,2*%
%TO.N,GND*%
X172500000Y-95750000D03*
X172500000Y-104260000D03*
%TD*%
%TO.P,J1,2*%
%TO.N,GND*%
X127500000Y-104250000D03*
X127500000Y-95740000D03*
%TD*%
D12*
%TO.N,GND*%
X148750000Y-107600000D03*
X131000000Y-102100000D03*
X149987000Y-100050600D03*
X132000000Y-102100000D03*
X133000000Y-102100000D03*
X134000000Y-102100000D03*
X135000000Y-102100000D03*
X136000000Y-102100000D03*
X137000000Y-102100000D03*
X138000000Y-102100000D03*
X139000000Y-102100000D03*
X140000000Y-102100000D03*
X141000000Y-102100000D03*
X142000000Y-102100000D03*
X143000000Y-102100000D03*
X144000000Y-102100000D03*
X145000000Y-102100000D03*
X130000000Y-102100000D03*
X129100000Y-101900000D03*
X128350000Y-101350000D03*
X128350000Y-98650000D03*
X129100000Y-98100000D03*
X130000000Y-97900000D03*
X131000000Y-97900000D03*
X132000000Y-97900000D03*
X133000000Y-97900000D03*
X134000000Y-97900000D03*
X135000000Y-97900000D03*
X136000000Y-97900000D03*
X137000000Y-97900000D03*
X138000000Y-97900000D03*
X139000000Y-97900000D03*
X140000000Y-97900000D03*
X141000000Y-97900000D03*
X142000000Y-97900000D03*
X143000000Y-97900000D03*
X144000000Y-97900000D03*
X145000000Y-97900000D03*
X145900000Y-98400000D03*
X146500000Y-99200000D03*
X145900000Y-101600000D03*
X146500000Y-100800000D03*
X147400000Y-100800000D03*
X147400000Y-99200000D03*
X147400000Y-101800000D03*
X147400000Y-98200000D03*
X148200000Y-97400000D03*
X148200000Y-102600000D03*
X149200000Y-102600000D03*
X150200000Y-102600000D03*
X151200000Y-102600000D03*
X152200000Y-102600000D03*
X149200000Y-97400000D03*
X150200000Y-97400000D03*
X151200000Y-97400000D03*
X152200000Y-97400000D03*
X152700000Y-98200000D03*
X152900000Y-99200000D03*
X153900000Y-99200000D03*
X154600000Y-98500000D03*
X155500000Y-97900000D03*
X156500000Y-97900000D03*
X153900000Y-100800000D03*
X161500000Y-97900000D03*
X157500000Y-97900000D03*
X158500000Y-97900000D03*
X164500000Y-97900000D03*
X159500000Y-97900000D03*
X160500000Y-97900000D03*
X165500000Y-97900000D03*
X162500000Y-97900000D03*
X163500000Y-97900000D03*
X169500000Y-97900000D03*
X170500000Y-97900000D03*
X166500000Y-97900000D03*
X167500000Y-97900000D03*
X168500000Y-97900000D03*
X166500000Y-102100000D03*
X169500000Y-102100000D03*
X167500000Y-102100000D03*
X165500000Y-102100000D03*
X162500000Y-102100000D03*
X163500000Y-102100000D03*
X168500000Y-102100000D03*
X170500000Y-102100000D03*
X164500000Y-102100000D03*
X159500000Y-102100000D03*
X160500000Y-102100000D03*
X161500000Y-102100000D03*
X157500000Y-102100000D03*
X158500000Y-102100000D03*
X156500000Y-102100000D03*
X155500000Y-102100000D03*
X154600000Y-101500000D03*
X171300000Y-98500000D03*
X171300000Y-101500000D03*
X151900000Y-103500000D03*
X151500000Y-104400000D03*
X150700000Y-105200000D03*
X150500000Y-106400000D03*
X152050000Y-106400000D03*
X152600000Y-105550000D03*
X153450000Y-105050000D03*
X154700000Y-102700000D03*
X154600000Y-105200000D03*
X155800000Y-105000000D03*
X155850000Y-104000000D03*
X155850000Y-103000000D03*
X127500000Y-95740000D03*
X127500000Y-104260000D03*
X172450000Y-104260000D03*
X172500000Y-95740000D03*
%TD*%
D13*
%TO.N,GND*%
G36*
X174848000Y-94362139D02*
G01*
X172785750Y-94365000D01*
X172627000Y-94523750D01*
X172627000Y-95623000D01*
X172647000Y-95623000D01*
X172647000Y-95877000D01*
X172627000Y-95877000D01*
X172627000Y-96976250D01*
X172785750Y-97135000D01*
X174848000Y-97137861D01*
X174848001Y-102872139D01*
X172785750Y-102875000D01*
X172627000Y-103033750D01*
X172627000Y-104133000D01*
X172647000Y-104133000D01*
X172647000Y-104387000D01*
X172627000Y-104387000D01*
X172627000Y-105486250D01*
X172785750Y-105645000D01*
X174848001Y-105647861D01*
X174848001Y-109848000D01*
X152350052Y-109848000D01*
X152354268Y-109834103D01*
X152360582Y-109770000D01*
X152360582Y-107360620D01*
X171084847Y-107360620D01*
X171084847Y-107639380D01*
X171139231Y-107912785D01*
X171245908Y-108170326D01*
X171400779Y-108402107D01*
X171597893Y-108599221D01*
X171829674Y-108754092D01*
X172087215Y-108860769D01*
X172360620Y-108915153D01*
X172639380Y-108915153D01*
X172912785Y-108860769D01*
X173170326Y-108754092D01*
X173402107Y-108599221D01*
X173599221Y-108402107D01*
X173754092Y-108170326D01*
X173860769Y-107912785D01*
X173915153Y-107639380D01*
X173915153Y-107360620D01*
X173860769Y-107087215D01*
X173754092Y-106829674D01*
X173599221Y-106597893D01*
X173402107Y-106400779D01*
X173170326Y-106245908D01*
X172912785Y-106139231D01*
X172639380Y-106084847D01*
X172360620Y-106084847D01*
X172087215Y-106139231D01*
X171829674Y-106245908D01*
X171597893Y-106400779D01*
X171400779Y-106597893D01*
X171245908Y-106829674D01*
X171139231Y-107087215D01*
X171084847Y-107360620D01*
X152360582Y-107360620D01*
X152360582Y-107230000D01*
X152354268Y-107165897D01*
X152335570Y-107104257D01*
X152305206Y-107047450D01*
X152264343Y-106997657D01*
X152214550Y-106956794D01*
X152157743Y-106926430D01*
X152096103Y-106907732D01*
X152032000Y-106901418D01*
X150508000Y-106901418D01*
X150443897Y-106907732D01*
X150382257Y-106926430D01*
X150325450Y-106956794D01*
X150275657Y-106997657D01*
X150234794Y-107047450D01*
X150204430Y-107104257D01*
X150185732Y-107165897D01*
X150179418Y-107230000D01*
X150179418Y-109770000D01*
X150185732Y-109834103D01*
X150189948Y-109848000D01*
X150122390Y-109848000D01*
X150130072Y-109770000D01*
X150127000Y-108785750D01*
X149968250Y-108627000D01*
X148857000Y-108627000D01*
X148857000Y-108647000D01*
X148603000Y-108647000D01*
X148603000Y-108627000D01*
X147491750Y-108627000D01*
X147333000Y-108785750D01*
X147329928Y-109770000D01*
X147337610Y-109848000D01*
X125152000Y-109848000D01*
X125152000Y-107360620D01*
X126084847Y-107360620D01*
X126084847Y-107639380D01*
X126139231Y-107912785D01*
X126245908Y-108170326D01*
X126400779Y-108402107D01*
X126597893Y-108599221D01*
X126829674Y-108754092D01*
X127087215Y-108860769D01*
X127360620Y-108915153D01*
X127639380Y-108915153D01*
X127912785Y-108860769D01*
X128170326Y-108754092D01*
X128402107Y-108599221D01*
X128599221Y-108402107D01*
X128754092Y-108170326D01*
X128860769Y-107912785D01*
X128915153Y-107639380D01*
X128915153Y-107360620D01*
X128889171Y-107230000D01*
X147329928Y-107230000D01*
X147333000Y-108214250D01*
X147491750Y-108373000D01*
X148603000Y-108373000D01*
X148603000Y-106753750D01*
X148857000Y-106753750D01*
X148857000Y-108373000D01*
X149968250Y-108373000D01*
X150127000Y-108214250D01*
X150130072Y-107230000D01*
X150117812Y-107105518D01*
X150081502Y-106985820D01*
X150022537Y-106875506D01*
X149943185Y-106778815D01*
X149846494Y-106699463D01*
X149736180Y-106640498D01*
X149616482Y-106604188D01*
X149492000Y-106591928D01*
X149015750Y-106595000D01*
X148857000Y-106753750D01*
X148603000Y-106753750D01*
X148444250Y-106595000D01*
X147968000Y-106591928D01*
X147843518Y-106604188D01*
X147723820Y-106640498D01*
X147613506Y-106699463D01*
X147516815Y-106778815D01*
X147437463Y-106875506D01*
X147378498Y-106985820D01*
X147342188Y-107105518D01*
X147329928Y-107230000D01*
X128889171Y-107230000D01*
X128860769Y-107087215D01*
X128754092Y-106829674D01*
X128599221Y-106597893D01*
X128402107Y-106400779D01*
X128170326Y-106245908D01*
X127912785Y-106139231D01*
X127639380Y-106084847D01*
X127360620Y-106084847D01*
X127087215Y-106139231D01*
X126829674Y-106245908D01*
X126597893Y-106400779D01*
X126400779Y-106597893D01*
X126245908Y-106829674D01*
X126139231Y-107087215D01*
X126084847Y-107360620D01*
X125152000Y-107360620D01*
X125152000Y-105637861D01*
X127214250Y-105635000D01*
X127373000Y-105476250D01*
X127373000Y-104377000D01*
X127627000Y-104377000D01*
X127627000Y-105476250D01*
X127785750Y-105635000D01*
X130000000Y-105638072D01*
X130124482Y-105625812D01*
X130244180Y-105589502D01*
X130354494Y-105530537D01*
X130451185Y-105451185D01*
X130530537Y-105354494D01*
X130589502Y-105244180D01*
X130625812Y-105124482D01*
X130637087Y-105010000D01*
X169361928Y-105010000D01*
X169374188Y-105134482D01*
X169410498Y-105254180D01*
X169469463Y-105364494D01*
X169548815Y-105461185D01*
X169645506Y-105540537D01*
X169755820Y-105599502D01*
X169875518Y-105635812D01*
X170000000Y-105648072D01*
X172214250Y-105645000D01*
X172373000Y-105486250D01*
X172373000Y-104387000D01*
X169523750Y-104387000D01*
X169365000Y-104545750D01*
X169361928Y-105010000D01*
X130637087Y-105010000D01*
X130638072Y-105000000D01*
X130635000Y-104535750D01*
X130476250Y-104377000D01*
X127627000Y-104377000D01*
X127373000Y-104377000D01*
X127353000Y-104377000D01*
X127353000Y-104123000D01*
X127373000Y-104123000D01*
X127373000Y-103023750D01*
X127627000Y-103023750D01*
X127627000Y-104123000D01*
X130476250Y-104123000D01*
X130635000Y-103964250D01*
X130638005Y-103510000D01*
X169361928Y-103510000D01*
X169365000Y-103974250D01*
X169523750Y-104133000D01*
X172373000Y-104133000D01*
X172373000Y-103033750D01*
X172214250Y-102875000D01*
X170000000Y-102871928D01*
X169875518Y-102884188D01*
X169755820Y-102920498D01*
X169645506Y-102979463D01*
X169548815Y-103058815D01*
X169469463Y-103155506D01*
X169410498Y-103265820D01*
X169374188Y-103385518D01*
X169361928Y-103510000D01*
X130638005Y-103510000D01*
X130638072Y-103500000D01*
X130625812Y-103375518D01*
X130589502Y-103255820D01*
X130530537Y-103145506D01*
X130451185Y-103048815D01*
X130354494Y-102969463D01*
X130244180Y-102910498D01*
X130124482Y-102874188D01*
X130000000Y-102861928D01*
X127785750Y-102865000D01*
X127627000Y-103023750D01*
X127373000Y-103023750D01*
X127214250Y-102865000D01*
X125152000Y-102862139D01*
X125152000Y-97127861D01*
X127214250Y-97125000D01*
X127373000Y-96966250D01*
X127373000Y-95867000D01*
X127627000Y-95867000D01*
X127627000Y-96966250D01*
X127785750Y-97125000D01*
X130000000Y-97128072D01*
X130124482Y-97115812D01*
X130244180Y-97079502D01*
X130354494Y-97020537D01*
X130451185Y-96941185D01*
X130530537Y-96844494D01*
X130589502Y-96734180D01*
X130625812Y-96614482D01*
X130637087Y-96500000D01*
X169361928Y-96500000D01*
X169374188Y-96624482D01*
X169410498Y-96744180D01*
X169469463Y-96854494D01*
X169548815Y-96951185D01*
X169645506Y-97030537D01*
X169755820Y-97089502D01*
X169875518Y-97125812D01*
X170000000Y-97138072D01*
X172214250Y-97135000D01*
X172373000Y-96976250D01*
X172373000Y-95877000D01*
X169523750Y-95877000D01*
X169365000Y-96035750D01*
X169361928Y-96500000D01*
X130637087Y-96500000D01*
X130638072Y-96490000D01*
X130635000Y-96025750D01*
X130476250Y-95867000D01*
X127627000Y-95867000D01*
X127373000Y-95867000D01*
X127353000Y-95867000D01*
X127353000Y-95613000D01*
X127373000Y-95613000D01*
X127373000Y-94513750D01*
X127627000Y-94513750D01*
X127627000Y-95613000D01*
X130476250Y-95613000D01*
X130635000Y-95454250D01*
X130638005Y-95000000D01*
X169361928Y-95000000D01*
X169365000Y-95464250D01*
X169523750Y-95623000D01*
X172373000Y-95623000D01*
X172373000Y-94523750D01*
X172214250Y-94365000D01*
X170000000Y-94361928D01*
X169875518Y-94374188D01*
X169755820Y-94410498D01*
X169645506Y-94469463D01*
X169548815Y-94548815D01*
X169469463Y-94645506D01*
X169410498Y-94755820D01*
X169374188Y-94875518D01*
X169361928Y-95000000D01*
X130638005Y-95000000D01*
X130638072Y-94990000D01*
X130625812Y-94865518D01*
X130589502Y-94745820D01*
X130530537Y-94635506D01*
X130451185Y-94538815D01*
X130354494Y-94459463D01*
X130244180Y-94400498D01*
X130124482Y-94364188D01*
X130000000Y-94351928D01*
X127785750Y-94355000D01*
X127627000Y-94513750D01*
X127373000Y-94513750D01*
X127214250Y-94355000D01*
X125152000Y-94352139D01*
X125152000Y-92360620D01*
X126084847Y-92360620D01*
X126084847Y-92639380D01*
X126139231Y-92912785D01*
X126245908Y-93170326D01*
X126400779Y-93402107D01*
X126597893Y-93599221D01*
X126829674Y-93754092D01*
X127087215Y-93860769D01*
X127360620Y-93915153D01*
X127639380Y-93915153D01*
X127912785Y-93860769D01*
X128170326Y-93754092D01*
X128402107Y-93599221D01*
X128599221Y-93402107D01*
X128754092Y-93170326D01*
X128860769Y-92912785D01*
X128915153Y-92639380D01*
X128915153Y-92360620D01*
X171084847Y-92360620D01*
X171084847Y-92639380D01*
X171139231Y-92912785D01*
X171245908Y-93170326D01*
X171400779Y-93402107D01*
X171597893Y-93599221D01*
X171829674Y-93754092D01*
X172087215Y-93860769D01*
X172360620Y-93915153D01*
X172639380Y-93915153D01*
X172912785Y-93860769D01*
X173170326Y-93754092D01*
X173402107Y-93599221D01*
X173599221Y-93402107D01*
X173754092Y-93170326D01*
X173860769Y-92912785D01*
X173915153Y-92639380D01*
X173915153Y-92360620D01*
X173860769Y-92087215D01*
X173754092Y-91829674D01*
X173599221Y-91597893D01*
X173402107Y-91400779D01*
X173170326Y-91245908D01*
X172912785Y-91139231D01*
X172639380Y-91084847D01*
X172360620Y-91084847D01*
X172087215Y-91139231D01*
X171829674Y-91245908D01*
X171597893Y-91400779D01*
X171400779Y-91597893D01*
X171245908Y-91829674D01*
X171139231Y-92087215D01*
X171084847Y-92360620D01*
X128915153Y-92360620D01*
X128860769Y-92087215D01*
X128754092Y-91829674D01*
X128599221Y-91597893D01*
X128402107Y-91400779D01*
X128170326Y-91245908D01*
X127912785Y-91139231D01*
X127639380Y-91084847D01*
X127360620Y-91084847D01*
X127087215Y-91139231D01*
X126829674Y-91245908D01*
X126597893Y-91400779D01*
X126400779Y-91597893D01*
X126245908Y-91829674D01*
X126139231Y-92087215D01*
X126084847Y-92360620D01*
X125152000Y-92360620D01*
X125152000Y-90152000D01*
X174848000Y-90152000D01*
X174848000Y-94362139D01*
G37*
X174848000Y-94362139D02*
X172785750Y-94365000D01*
X172627000Y-94523750D01*
X172627000Y-95623000D01*
X172647000Y-95623000D01*
X172647000Y-95877000D01*
X172627000Y-95877000D01*
X172627000Y-96976250D01*
X172785750Y-97135000D01*
X174848000Y-97137861D01*
X174848001Y-102872139D01*
X172785750Y-102875000D01*
X172627000Y-103033750D01*
X172627000Y-104133000D01*
X172647000Y-104133000D01*
X172647000Y-104387000D01*
X172627000Y-104387000D01*
X172627000Y-105486250D01*
X172785750Y-105645000D01*
X174848001Y-105647861D01*
X174848001Y-109848000D01*
X152350052Y-109848000D01*
X152354268Y-109834103D01*
X152360582Y-109770000D01*
X152360582Y-107360620D01*
X171084847Y-107360620D01*
X171084847Y-107639380D01*
X171139231Y-107912785D01*
X171245908Y-108170326D01*
X171400779Y-108402107D01*
X171597893Y-108599221D01*
X171829674Y-108754092D01*
X172087215Y-108860769D01*
X172360620Y-108915153D01*
X172639380Y-108915153D01*
X172912785Y-108860769D01*
X173170326Y-108754092D01*
X173402107Y-108599221D01*
X173599221Y-108402107D01*
X173754092Y-108170326D01*
X173860769Y-107912785D01*
X173915153Y-107639380D01*
X173915153Y-107360620D01*
X173860769Y-107087215D01*
X173754092Y-106829674D01*
X173599221Y-106597893D01*
X173402107Y-106400779D01*
X173170326Y-106245908D01*
X172912785Y-106139231D01*
X172639380Y-106084847D01*
X172360620Y-106084847D01*
X172087215Y-106139231D01*
X171829674Y-106245908D01*
X171597893Y-106400779D01*
X171400779Y-106597893D01*
X171245908Y-106829674D01*
X171139231Y-107087215D01*
X171084847Y-107360620D01*
X152360582Y-107360620D01*
X152360582Y-107230000D01*
X152354268Y-107165897D01*
X152335570Y-107104257D01*
X152305206Y-107047450D01*
X152264343Y-106997657D01*
X152214550Y-106956794D01*
X152157743Y-106926430D01*
X152096103Y-106907732D01*
X152032000Y-106901418D01*
X150508000Y-106901418D01*
X150443897Y-106907732D01*
X150382257Y-106926430D01*
X150325450Y-106956794D01*
X150275657Y-106997657D01*
X150234794Y-107047450D01*
X150204430Y-107104257D01*
X150185732Y-107165897D01*
X150179418Y-107230000D01*
X150179418Y-109770000D01*
X150185732Y-109834103D01*
X150189948Y-109848000D01*
X150122390Y-109848000D01*
X150130072Y-109770000D01*
X150127000Y-108785750D01*
X149968250Y-108627000D01*
X148857000Y-108627000D01*
X148857000Y-108647000D01*
X148603000Y-108647000D01*
X148603000Y-108627000D01*
X147491750Y-108627000D01*
X147333000Y-108785750D01*
X147329928Y-109770000D01*
X147337610Y-109848000D01*
X125152000Y-109848000D01*
X125152000Y-107360620D01*
X126084847Y-107360620D01*
X126084847Y-107639380D01*
X126139231Y-107912785D01*
X126245908Y-108170326D01*
X126400779Y-108402107D01*
X126597893Y-108599221D01*
X126829674Y-108754092D01*
X127087215Y-108860769D01*
X127360620Y-108915153D01*
X127639380Y-108915153D01*
X127912785Y-108860769D01*
X128170326Y-108754092D01*
X128402107Y-108599221D01*
X128599221Y-108402107D01*
X128754092Y-108170326D01*
X128860769Y-107912785D01*
X128915153Y-107639380D01*
X128915153Y-107360620D01*
X128889171Y-107230000D01*
X147329928Y-107230000D01*
X147333000Y-108214250D01*
X147491750Y-108373000D01*
X148603000Y-108373000D01*
X148603000Y-106753750D01*
X148857000Y-106753750D01*
X148857000Y-108373000D01*
X149968250Y-108373000D01*
X150127000Y-108214250D01*
X150130072Y-107230000D01*
X150117812Y-107105518D01*
X150081502Y-106985820D01*
X150022537Y-106875506D01*
X149943185Y-106778815D01*
X149846494Y-106699463D01*
X149736180Y-106640498D01*
X149616482Y-106604188D01*
X149492000Y-106591928D01*
X149015750Y-106595000D01*
X148857000Y-106753750D01*
X148603000Y-106753750D01*
X148444250Y-106595000D01*
X147968000Y-106591928D01*
X147843518Y-106604188D01*
X147723820Y-106640498D01*
X147613506Y-106699463D01*
X147516815Y-106778815D01*
X147437463Y-106875506D01*
X147378498Y-106985820D01*
X147342188Y-107105518D01*
X147329928Y-107230000D01*
X128889171Y-107230000D01*
X128860769Y-107087215D01*
X128754092Y-106829674D01*
X128599221Y-106597893D01*
X128402107Y-106400779D01*
X128170326Y-106245908D01*
X127912785Y-106139231D01*
X127639380Y-106084847D01*
X127360620Y-106084847D01*
X127087215Y-106139231D01*
X126829674Y-106245908D01*
X126597893Y-106400779D01*
X126400779Y-106597893D01*
X126245908Y-106829674D01*
X126139231Y-107087215D01*
X126084847Y-107360620D01*
X125152000Y-107360620D01*
X125152000Y-105637861D01*
X127214250Y-105635000D01*
X127373000Y-105476250D01*
X127373000Y-104377000D01*
X127627000Y-104377000D01*
X127627000Y-105476250D01*
X127785750Y-105635000D01*
X130000000Y-105638072D01*
X130124482Y-105625812D01*
X130244180Y-105589502D01*
X130354494Y-105530537D01*
X130451185Y-105451185D01*
X130530537Y-105354494D01*
X130589502Y-105244180D01*
X130625812Y-105124482D01*
X130637087Y-105010000D01*
X169361928Y-105010000D01*
X169374188Y-105134482D01*
X169410498Y-105254180D01*
X169469463Y-105364494D01*
X169548815Y-105461185D01*
X169645506Y-105540537D01*
X169755820Y-105599502D01*
X169875518Y-105635812D01*
X170000000Y-105648072D01*
X172214250Y-105645000D01*
X172373000Y-105486250D01*
X172373000Y-104387000D01*
X169523750Y-104387000D01*
X169365000Y-104545750D01*
X169361928Y-105010000D01*
X130637087Y-105010000D01*
X130638072Y-105000000D01*
X130635000Y-104535750D01*
X130476250Y-104377000D01*
X127627000Y-104377000D01*
X127373000Y-104377000D01*
X127353000Y-104377000D01*
X127353000Y-104123000D01*
X127373000Y-104123000D01*
X127373000Y-103023750D01*
X127627000Y-103023750D01*
X127627000Y-104123000D01*
X130476250Y-104123000D01*
X130635000Y-103964250D01*
X130638005Y-103510000D01*
X169361928Y-103510000D01*
X169365000Y-103974250D01*
X169523750Y-104133000D01*
X172373000Y-104133000D01*
X172373000Y-103033750D01*
X172214250Y-102875000D01*
X170000000Y-102871928D01*
X169875518Y-102884188D01*
X169755820Y-102920498D01*
X169645506Y-102979463D01*
X169548815Y-103058815D01*
X169469463Y-103155506D01*
X169410498Y-103265820D01*
X169374188Y-103385518D01*
X169361928Y-103510000D01*
X130638005Y-103510000D01*
X130638072Y-103500000D01*
X130625812Y-103375518D01*
X130589502Y-103255820D01*
X130530537Y-103145506D01*
X130451185Y-103048815D01*
X130354494Y-102969463D01*
X130244180Y-102910498D01*
X130124482Y-102874188D01*
X130000000Y-102861928D01*
X127785750Y-102865000D01*
X127627000Y-103023750D01*
X127373000Y-103023750D01*
X127214250Y-102865000D01*
X125152000Y-102862139D01*
X125152000Y-97127861D01*
X127214250Y-97125000D01*
X127373000Y-96966250D01*
X127373000Y-95867000D01*
X127627000Y-95867000D01*
X127627000Y-96966250D01*
X127785750Y-97125000D01*
X130000000Y-97128072D01*
X130124482Y-97115812D01*
X130244180Y-97079502D01*
X130354494Y-97020537D01*
X130451185Y-96941185D01*
X130530537Y-96844494D01*
X130589502Y-96734180D01*
X130625812Y-96614482D01*
X130637087Y-96500000D01*
X169361928Y-96500000D01*
X169374188Y-96624482D01*
X169410498Y-96744180D01*
X169469463Y-96854494D01*
X169548815Y-96951185D01*
X169645506Y-97030537D01*
X169755820Y-97089502D01*
X169875518Y-97125812D01*
X170000000Y-97138072D01*
X172214250Y-97135000D01*
X172373000Y-96976250D01*
X172373000Y-95877000D01*
X169523750Y-95877000D01*
X169365000Y-96035750D01*
X169361928Y-96500000D01*
X130637087Y-96500000D01*
X130638072Y-96490000D01*
X130635000Y-96025750D01*
X130476250Y-95867000D01*
X127627000Y-95867000D01*
X127373000Y-95867000D01*
X127353000Y-95867000D01*
X127353000Y-95613000D01*
X127373000Y-95613000D01*
X127373000Y-94513750D01*
X127627000Y-94513750D01*
X127627000Y-95613000D01*
X130476250Y-95613000D01*
X130635000Y-95454250D01*
X130638005Y-95000000D01*
X169361928Y-95000000D01*
X169365000Y-95464250D01*
X169523750Y-95623000D01*
X172373000Y-95623000D01*
X172373000Y-94523750D01*
X172214250Y-94365000D01*
X170000000Y-94361928D01*
X169875518Y-94374188D01*
X169755820Y-94410498D01*
X169645506Y-94469463D01*
X169548815Y-94548815D01*
X169469463Y-94645506D01*
X169410498Y-94755820D01*
X169374188Y-94875518D01*
X169361928Y-95000000D01*
X130638005Y-95000000D01*
X130638072Y-94990000D01*
X130625812Y-94865518D01*
X130589502Y-94745820D01*
X130530537Y-94635506D01*
X130451185Y-94538815D01*
X130354494Y-94459463D01*
X130244180Y-94400498D01*
X130124482Y-94364188D01*
X130000000Y-94351928D01*
X127785750Y-94355000D01*
X127627000Y-94513750D01*
X127373000Y-94513750D01*
X127214250Y-94355000D01*
X125152000Y-94352139D01*
X125152000Y-92360620D01*
X126084847Y-92360620D01*
X126084847Y-92639380D01*
X126139231Y-92912785D01*
X126245908Y-93170326D01*
X126400779Y-93402107D01*
X126597893Y-93599221D01*
X126829674Y-93754092D01*
X127087215Y-93860769D01*
X127360620Y-93915153D01*
X127639380Y-93915153D01*
X127912785Y-93860769D01*
X128170326Y-93754092D01*
X128402107Y-93599221D01*
X128599221Y-93402107D01*
X128754092Y-93170326D01*
X128860769Y-92912785D01*
X128915153Y-92639380D01*
X128915153Y-92360620D01*
X171084847Y-92360620D01*
X171084847Y-92639380D01*
X171139231Y-92912785D01*
X171245908Y-93170326D01*
X171400779Y-93402107D01*
X171597893Y-93599221D01*
X171829674Y-93754092D01*
X172087215Y-93860769D01*
X172360620Y-93915153D01*
X172639380Y-93915153D01*
X172912785Y-93860769D01*
X173170326Y-93754092D01*
X173402107Y-93599221D01*
X173599221Y-93402107D01*
X173754092Y-93170326D01*
X173860769Y-92912785D01*
X173915153Y-92639380D01*
X173915153Y-92360620D01*
X173860769Y-92087215D01*
X173754092Y-91829674D01*
X173599221Y-91597893D01*
X173402107Y-91400779D01*
X173170326Y-91245908D01*
X172912785Y-91139231D01*
X172639380Y-91084847D01*
X172360620Y-91084847D01*
X172087215Y-91139231D01*
X171829674Y-91245908D01*
X171597893Y-91400779D01*
X171400779Y-91597893D01*
X171245908Y-91829674D01*
X171139231Y-92087215D01*
X171084847Y-92360620D01*
X128915153Y-92360620D01*
X128860769Y-92087215D01*
X128754092Y-91829674D01*
X128599221Y-91597893D01*
X128402107Y-91400779D01*
X128170326Y-91245908D01*
X127912785Y-91139231D01*
X127639380Y-91084847D01*
X127360620Y-91084847D01*
X127087215Y-91139231D01*
X126829674Y-91245908D01*
X126597893Y-91400779D01*
X126400779Y-91597893D01*
X126245908Y-91829674D01*
X126139231Y-92087215D01*
X126084847Y-92360620D01*
X125152000Y-92360620D01*
X125152000Y-90152000D01*
X174848000Y-90152000D01*
X174848000Y-94362139D01*
%TD*%
M02*
