M48
; DRILL file {KiCad (5.1.6)-1} date 10/24/20 11:52:26
; FORMAT={-:-/ absolute / inch / decimal}
; #@! TF.CreationDate,2020-10-24T11:52:26+02:00
; #@! TF.GenerationSoftware,Kicad,Pcbnew,(5.1.6)-1
FMAT,2
INCH
T1C0.0157
T2C0.0394
%
G90
G05
T1
X5.0197Y-3.7693
X5.0197Y-4.1047
X5.0531Y-3.8839
X5.0531Y-3.9902
X5.0827Y-3.8622
X5.0827Y-4.0118
X5.1181Y-3.8543
X5.1181Y-4.0197
X5.1575Y-3.8543
X5.1575Y-4.0197
X5.1969Y-3.8543
X5.1969Y-4.0197
X5.2362Y-3.8543
X5.2362Y-4.0197
X5.2756Y-3.8543
X5.2756Y-4.0197
X5.315Y-3.8543
X5.315Y-4.0197
X5.3543Y-3.8543
X5.3543Y-4.0197
X5.3937Y-3.8543
X5.3937Y-4.0197
X5.4331Y-3.8543
X5.4331Y-4.0197
X5.4724Y-3.8543
X5.4724Y-4.0197
X5.5118Y-3.8543
X5.5118Y-4.0197
X5.5512Y-3.8543
X5.5512Y-4.0197
X5.5906Y-3.8543
X5.5906Y-4.0197
X5.6299Y-3.8543
X5.6299Y-4.0197
X5.6693Y-3.8543
X5.6693Y-4.0197
X5.7087Y-3.8543
X5.7087Y-4.0197
X5.7441Y-3.874
X5.7441Y-4.0
X5.7677Y-3.9055
X5.7677Y-3.9685
X5.8031Y-3.8661
X5.8031Y-3.9055
X5.8031Y-3.9685
X5.8031Y-4.0079
X5.8346Y-3.8346
X5.8346Y-4.0394
X5.8563Y-4.2362
X5.874Y-3.8346
X5.874Y-4.0394
X5.905Y-3.939
X5.9134Y-3.8346
X5.9134Y-4.0394
X5.9252Y-4.189
X5.9331Y-4.1417
X5.9528Y-3.8346
X5.9528Y-4.0394
X5.9646Y-4.1102
X5.9803Y-4.0748
X5.9862Y-4.189
X5.9921Y-3.8346
X5.9921Y-4.0394
X6.0079Y-4.1555
X6.0118Y-3.8661
X6.0197Y-3.9055
X6.0413Y-4.1358
X6.0591Y-3.9055
X6.0591Y-3.9685
X6.0866Y-3.878
X6.0866Y-3.9961
X6.0866Y-4.1417
X6.0906Y-4.0433
X6.122Y-3.8543
X6.122Y-4.0197
X6.1339Y-4.1339
X6.1358Y-4.0551
X6.1358Y-4.0945
X6.1614Y-3.8543
X6.1614Y-4.0197
X6.2008Y-3.8543
X6.2008Y-4.0197
X6.2402Y-3.8543
X6.2402Y-4.0197
X6.2795Y-3.8543
X6.2795Y-4.0197
X6.3189Y-3.8543
X6.3189Y-4.0197
X6.3583Y-3.8543
X6.3583Y-4.0197
X6.3976Y-3.8543
X6.3976Y-4.0197
X6.437Y-3.8543
X6.437Y-4.0197
X6.4764Y-3.8543
X6.4764Y-4.0197
X6.5157Y-3.8543
X6.5157Y-4.0197
X6.5551Y-3.8543
X6.5551Y-4.0197
X6.5945Y-3.8543
X6.5945Y-4.0197
X6.6339Y-3.8543
X6.6339Y-4.0197
X6.6732Y-3.8543
X6.6732Y-4.0197
X6.7126Y-3.8543
X6.7126Y-4.0197
X6.7441Y-3.878
X6.7441Y-3.9961
X6.7894Y-4.1047
X6.7913Y-3.7693
T2
X5.8555Y-4.2717
X5.9555Y-4.2717
T0
M30
