%TF.GenerationSoftware,KiCad,Pcbnew,(5.1.6)-1*%
%TF.CreationDate,2020-10-24T11:52:24+02:00*%
%TF.ProjectId,MW_amplifier,4d575f61-6d70-46c6-9966-6965722e6b69,rev?*%
%TF.SameCoordinates,Original*%
%TF.FileFunction,Legend,Top*%
%TF.FilePolarity,Positive*%
%FSLAX46Y46*%
G04 Gerber Fmt 4.6, Leading zero omitted, Abs format (unit mm)*
G04 Created by KiCad (PCBNEW (5.1.6)-1) date 2020-10-24 11:52:24*
%MOMM*%
%LPD*%
G01*
G04 APERTURE LIST*
%ADD10C,0.120000*%
%ADD11C,0.060000*%
%ADD12C,0.255000*%
%ADD13C,0.080000*%
%ADD14C,0.150000*%
%ADD15C,0.100000*%
G04 APERTURE END LIST*
D10*
X163654761Y-108511904D02*
X163654761Y-109083333D01*
X163616666Y-109197619D01*
X163540476Y-109273809D01*
X163426190Y-109311904D01*
X163350000Y-109311904D01*
X164416666Y-109311904D02*
X164035714Y-109311904D01*
X164035714Y-108511904D01*
X165140476Y-109235714D02*
X165102380Y-109273809D01*
X164988095Y-109311904D01*
X164911904Y-109311904D01*
X164797619Y-109273809D01*
X164721428Y-109197619D01*
X164683333Y-109121428D01*
X164645238Y-108969047D01*
X164645238Y-108854761D01*
X164683333Y-108702380D01*
X164721428Y-108626190D01*
X164797619Y-108550000D01*
X164911904Y-108511904D01*
X164988095Y-108511904D01*
X165102380Y-108550000D01*
X165140476Y-108588095D01*
X165711904Y-108511904D02*
X165711904Y-109083333D01*
X165673809Y-109197619D01*
X165597619Y-109273809D01*
X165483333Y-109311904D01*
X165407142Y-109311904D01*
X166473809Y-109311904D02*
X166092857Y-109311904D01*
X166092857Y-108511904D01*
X167197619Y-109235714D02*
X167159523Y-109273809D01*
X167045238Y-109311904D01*
X166969047Y-109311904D01*
X166854761Y-109273809D01*
X166778571Y-109197619D01*
X166740476Y-109121428D01*
X166702380Y-108969047D01*
X166702380Y-108854761D01*
X166740476Y-108702380D01*
X166778571Y-108626190D01*
X166854761Y-108550000D01*
X166969047Y-108511904D01*
X167045238Y-108511904D01*
X167159523Y-108550000D01*
X167197619Y-108588095D01*
X167769047Y-108511904D02*
X167769047Y-109083333D01*
X167730952Y-109197619D01*
X167654761Y-109273809D01*
X167540476Y-109311904D01*
X167464285Y-109311904D01*
X168530952Y-109311904D02*
X168150000Y-109311904D01*
X168150000Y-108511904D01*
X169254761Y-109235714D02*
X169216666Y-109273809D01*
X169102380Y-109311904D01*
X169026190Y-109311904D01*
X168911904Y-109273809D01*
X168835714Y-109197619D01*
X168797619Y-109121428D01*
X168759523Y-108969047D01*
X168759523Y-108854761D01*
X168797619Y-108702380D01*
X168835714Y-108626190D01*
X168911904Y-108550000D01*
X169026190Y-108511904D01*
X169102380Y-108511904D01*
X169216666Y-108550000D01*
X169254761Y-108588095D01*
X169826190Y-108511904D02*
X169826190Y-109083333D01*
X169788095Y-109197619D01*
X169711904Y-109273809D01*
X169597619Y-109311904D01*
X169521428Y-109311904D01*
X170588095Y-109311904D02*
X170207142Y-109311904D01*
X170207142Y-108511904D01*
X171311904Y-109235714D02*
X171273809Y-109273809D01*
X171159523Y-109311904D01*
X171083333Y-109311904D01*
X170969047Y-109273809D01*
X170892857Y-109197619D01*
X170854761Y-109121428D01*
X170816666Y-108969047D01*
X170816666Y-108854761D01*
X170854761Y-108702380D01*
X170892857Y-108626190D01*
X170969047Y-108550000D01*
X171083333Y-108511904D01*
X171159523Y-108511904D01*
X171273809Y-108550000D01*
X171311904Y-108588095D01*
D11*
%TO.C,L1*%
X153200000Y-102000000D02*
X152800000Y-102000000D01*
X153200000Y-101000000D02*
X153200000Y-102000000D01*
X152800000Y-101000000D02*
X153200000Y-101000000D01*
X152800000Y-102000000D02*
X152800000Y-101000000D01*
D12*
%TO.C,PMA3*%
X148252000Y-98725000D02*
G75*
G03*
X148252000Y-98725000I-127500J0D01*
G01*
D11*
%TO.C,C4*%
X153500000Y-100200000D02*
X153500000Y-99800000D01*
X154500000Y-100200000D02*
X153500000Y-100200000D01*
X154500000Y-99800000D02*
X154500000Y-100200000D01*
X153500000Y-99800000D02*
X154500000Y-99800000D01*
%TO.C,C3*%
X152800000Y-102943000D02*
X152800000Y-102543000D01*
X153800000Y-102943000D02*
X152800000Y-102943000D01*
X153800000Y-102543000D02*
X153800000Y-102943000D01*
X152800000Y-102543000D02*
X153800000Y-102543000D01*
D13*
%TO.C,C2*%
X152447000Y-103513000D02*
X155147000Y-103513000D01*
X155147000Y-103513000D02*
X155147000Y-104513000D01*
X155147000Y-104513000D02*
X152447000Y-104513000D01*
X152447000Y-104513000D02*
X152447000Y-103513000D01*
D11*
%TO.C,C1*%
X146108800Y-100199800D02*
X146108800Y-99799800D01*
X147108800Y-100199800D02*
X146108800Y-100199800D01*
X147108800Y-99799800D02*
X147108800Y-100199800D01*
X146108800Y-99799800D02*
X147108800Y-99799800D01*
%TO.C,T1*%
D14*
X149238095Y-105852380D02*
X149809523Y-105852380D01*
X149523809Y-106852380D02*
X149523809Y-105852380D01*
X150666666Y-106852380D02*
X150095238Y-106852380D01*
X150380952Y-106852380D02*
X150380952Y-105852380D01*
X150285714Y-105995238D01*
X150190476Y-106090476D01*
X150095238Y-106138095D01*
X145638095Y-108000000D02*
X145542857Y-107952380D01*
X145400000Y-107952380D01*
X145257142Y-108000000D01*
X145161904Y-108095238D01*
X145114285Y-108190476D01*
X145066666Y-108380952D01*
X145066666Y-108523809D01*
X145114285Y-108714285D01*
X145161904Y-108809523D01*
X145257142Y-108904761D01*
X145400000Y-108952380D01*
X145495238Y-108952380D01*
X145638095Y-108904761D01*
X145685714Y-108857142D01*
X145685714Y-108523809D01*
X145495238Y-108523809D01*
X146114285Y-108952380D02*
X146114285Y-107952380D01*
X146685714Y-108952380D01*
X146685714Y-107952380D01*
X147161904Y-108952380D02*
X147161904Y-107952380D01*
X147400000Y-107952380D01*
X147542857Y-108000000D01*
X147638095Y-108095238D01*
X147685714Y-108190476D01*
X147733333Y-108380952D01*
X147733333Y-108523809D01*
X147685714Y-108714285D01*
X147638095Y-108809523D01*
X147542857Y-108904761D01*
X147400000Y-108952380D01*
X147161904Y-108952380D01*
X152409523Y-107952380D02*
X152742857Y-108952380D01*
X153076190Y-107952380D01*
X153838095Y-108904761D02*
X153742857Y-108952380D01*
X153552380Y-108952380D01*
X153457142Y-108904761D01*
X153409523Y-108857142D01*
X153361904Y-108761904D01*
X153361904Y-108476190D01*
X153409523Y-108380952D01*
X153457142Y-108333333D01*
X153552380Y-108285714D01*
X153742857Y-108285714D01*
X153838095Y-108333333D01*
X154695238Y-108904761D02*
X154600000Y-108952380D01*
X154409523Y-108952380D01*
X154314285Y-108904761D01*
X154266666Y-108857142D01*
X154219047Y-108761904D01*
X154219047Y-108476190D01*
X154266666Y-108380952D01*
X154314285Y-108333333D01*
X154409523Y-108285714D01*
X154600000Y-108285714D01*
X154695238Y-108333333D01*
%TO.C,L1*%
D11*
X152710714Y-101550000D02*
X152710714Y-101692857D01*
X152410714Y-101692857D01*
X152710714Y-101292857D02*
X152710714Y-101464285D01*
X152710714Y-101378571D02*
X152410714Y-101378571D01*
X152453571Y-101407142D01*
X152482142Y-101435714D01*
X152496428Y-101464285D01*
%TO.C,J2*%
D14*
X172158066Y-97343980D02*
X172158066Y-98058266D01*
X172110447Y-98201123D01*
X172015209Y-98296361D01*
X171872352Y-98343980D01*
X171777114Y-98343980D01*
X172586638Y-97439219D02*
X172634257Y-97391600D01*
X172729495Y-97343980D01*
X172967590Y-97343980D01*
X173062828Y-97391600D01*
X173110447Y-97439219D01*
X173158066Y-97534457D01*
X173158066Y-97629695D01*
X173110447Y-97772552D01*
X172539019Y-98343980D01*
X173158066Y-98343980D01*
%TO.C,J1*%
X127200066Y-97394780D02*
X127200066Y-98109066D01*
X127152447Y-98251923D01*
X127057209Y-98347161D01*
X126914352Y-98394780D01*
X126819114Y-98394780D01*
X128200066Y-98394780D02*
X127628638Y-98394780D01*
X127914352Y-98394780D02*
X127914352Y-97394780D01*
X127819114Y-97537638D01*
X127723876Y-97632876D01*
X127628638Y-97680495D01*
%TO.C,PMA3*%
D15*
X148261904Y-96902380D02*
X148261904Y-95902380D01*
X148642857Y-95902380D01*
X148738095Y-95950000D01*
X148785714Y-95997619D01*
X148833333Y-96092857D01*
X148833333Y-96235714D01*
X148785714Y-96330952D01*
X148738095Y-96378571D01*
X148642857Y-96426190D01*
X148261904Y-96426190D01*
X149261904Y-96902380D02*
X149261904Y-95902380D01*
X149595238Y-96616666D01*
X149928571Y-95902380D01*
X149928571Y-96902380D01*
X150357142Y-96616666D02*
X150833333Y-96616666D01*
X150261904Y-96902380D02*
X150595238Y-95902380D01*
X150928571Y-96902380D01*
X151166666Y-95902380D02*
X151785714Y-95902380D01*
X151452380Y-96283333D01*
X151595238Y-96283333D01*
X151690476Y-96330952D01*
X151738095Y-96378571D01*
X151785714Y-96473809D01*
X151785714Y-96711904D01*
X151738095Y-96807142D01*
X151690476Y-96854761D01*
X151595238Y-96902380D01*
X151309523Y-96902380D01*
X151214285Y-96854761D01*
X151166666Y-96807142D01*
%TO.C,C4*%
D11*
X153950000Y-99682142D02*
X153935714Y-99696428D01*
X153892857Y-99710714D01*
X153864285Y-99710714D01*
X153821428Y-99696428D01*
X153792857Y-99667857D01*
X153778571Y-99639285D01*
X153764285Y-99582142D01*
X153764285Y-99539285D01*
X153778571Y-99482142D01*
X153792857Y-99453571D01*
X153821428Y-99425000D01*
X153864285Y-99410714D01*
X153892857Y-99410714D01*
X153935714Y-99425000D01*
X153950000Y-99439285D01*
X154207142Y-99510714D02*
X154207142Y-99710714D01*
X154135714Y-99396428D02*
X154064285Y-99610714D01*
X154250000Y-99610714D01*
%TO.C,C3*%
X153250000Y-102425142D02*
X153235714Y-102439428D01*
X153192857Y-102453714D01*
X153164285Y-102453714D01*
X153121428Y-102439428D01*
X153092857Y-102410857D01*
X153078571Y-102382285D01*
X153064285Y-102325142D01*
X153064285Y-102282285D01*
X153078571Y-102225142D01*
X153092857Y-102196571D01*
X153121428Y-102168000D01*
X153164285Y-102153714D01*
X153192857Y-102153714D01*
X153235714Y-102168000D01*
X153250000Y-102182285D01*
X153350000Y-102153714D02*
X153535714Y-102153714D01*
X153435714Y-102268000D01*
X153478571Y-102268000D01*
X153507142Y-102282285D01*
X153521428Y-102296571D01*
X153535714Y-102325142D01*
X153535714Y-102396571D01*
X153521428Y-102425142D01*
X153507142Y-102439428D01*
X153478571Y-102453714D01*
X153392857Y-102453714D01*
X153364285Y-102439428D01*
X153350000Y-102425142D01*
%TO.C,C2*%
X153747000Y-104932942D02*
X153732714Y-104947228D01*
X153689857Y-104961514D01*
X153661285Y-104961514D01*
X153618428Y-104947228D01*
X153589857Y-104918657D01*
X153575571Y-104890085D01*
X153561285Y-104832942D01*
X153561285Y-104790085D01*
X153575571Y-104732942D01*
X153589857Y-104704371D01*
X153618428Y-104675800D01*
X153661285Y-104661514D01*
X153689857Y-104661514D01*
X153732714Y-104675800D01*
X153747000Y-104690085D01*
X153861285Y-104690085D02*
X153875571Y-104675800D01*
X153904142Y-104661514D01*
X153975571Y-104661514D01*
X154004142Y-104675800D01*
X154018428Y-104690085D01*
X154032714Y-104718657D01*
X154032714Y-104747228D01*
X154018428Y-104790085D01*
X153847000Y-104961514D01*
X154032714Y-104961514D01*
%TO.C,C1*%
X146558800Y-99681942D02*
X146544514Y-99696228D01*
X146501657Y-99710514D01*
X146473085Y-99710514D01*
X146430228Y-99696228D01*
X146401657Y-99667657D01*
X146387371Y-99639085D01*
X146373085Y-99581942D01*
X146373085Y-99539085D01*
X146387371Y-99481942D01*
X146401657Y-99453371D01*
X146430228Y-99424800D01*
X146473085Y-99410514D01*
X146501657Y-99410514D01*
X146544514Y-99424800D01*
X146558800Y-99439085D01*
X146844514Y-99710514D02*
X146673085Y-99710514D01*
X146758800Y-99710514D02*
X146758800Y-99410514D01*
X146730228Y-99453371D01*
X146701657Y-99481942D01*
X146673085Y-99496228D01*
%TD*%
M02*
