%TF.GenerationSoftware,KiCad,Pcbnew,(5.1.6)-1*%
%TF.CreationDate,2020-10-24T11:46:20+02:00*%
%TF.ProjectId,DiaSense,44696153-656e-4736-952e-6b696361645f,rev?*%
%TF.SameCoordinates,Original*%
%TF.FileFunction,Legend,Top*%
%TF.FilePolarity,Positive*%
%FSLAX46Y46*%
G04 Gerber Fmt 4.6, Leading zero omitted, Abs format (unit mm)*
G04 Created by KiCad (PCBNEW (5.1.6)-1) date 2020-10-24 11:46:20*
%MOMM*%
%LPD*%
G01*
G04 APERTURE LIST*
%ADD10C,0.150000*%
%ADD11C,0.100000*%
%ADD12C,0.500000*%
%ADD13C,0.120000*%
%ADD14C,0.010000*%
G04 APERTURE END LIST*
D10*
X135452380Y-90627380D02*
X135452380Y-89627380D01*
X135785714Y-90341666D01*
X136119047Y-89627380D01*
X136119047Y-90627380D01*
X136595238Y-90627380D02*
X136595238Y-89960714D01*
X136595238Y-89627380D02*
X136547619Y-89675000D01*
X136595238Y-89722619D01*
X136642857Y-89675000D01*
X136595238Y-89627380D01*
X136595238Y-89722619D01*
X137500000Y-90579761D02*
X137404761Y-90627380D01*
X137214285Y-90627380D01*
X137119047Y-90579761D01*
X137071428Y-90532142D01*
X137023809Y-90436904D01*
X137023809Y-90151190D01*
X137071428Y-90055952D01*
X137119047Y-90008333D01*
X137214285Y-89960714D01*
X137404761Y-89960714D01*
X137500000Y-90008333D01*
X137928571Y-90627380D02*
X137928571Y-89960714D01*
X137928571Y-90151190D02*
X137976190Y-90055952D01*
X138023809Y-90008333D01*
X138119047Y-89960714D01*
X138214285Y-89960714D01*
X138690476Y-90627380D02*
X138595238Y-90579761D01*
X138547619Y-90532142D01*
X138500000Y-90436904D01*
X138500000Y-90151190D01*
X138547619Y-90055952D01*
X138595238Y-90008333D01*
X138690476Y-89960714D01*
X138833333Y-89960714D01*
X138928571Y-90008333D01*
X138976190Y-90055952D01*
X139023809Y-90151190D01*
X139023809Y-90436904D01*
X138976190Y-90532142D01*
X138928571Y-90579761D01*
X138833333Y-90627380D01*
X138690476Y-90627380D01*
X139357142Y-89960714D02*
X139547619Y-90627380D01*
X139738095Y-90151190D01*
X139928571Y-90627380D01*
X140119047Y-89960714D01*
X140928571Y-90627380D02*
X140928571Y-90103571D01*
X140880952Y-90008333D01*
X140785714Y-89960714D01*
X140595238Y-89960714D01*
X140500000Y-90008333D01*
X140928571Y-90579761D02*
X140833333Y-90627380D01*
X140595238Y-90627380D01*
X140500000Y-90579761D01*
X140452380Y-90484523D01*
X140452380Y-90389285D01*
X140500000Y-90294047D01*
X140595238Y-90246428D01*
X140833333Y-90246428D01*
X140928571Y-90198809D01*
X141309523Y-89960714D02*
X141547619Y-90627380D01*
X141785714Y-89960714D01*
X142547619Y-90579761D02*
X142452380Y-90627380D01*
X142261904Y-90627380D01*
X142166666Y-90579761D01*
X142119047Y-90484523D01*
X142119047Y-90103571D01*
X142166666Y-90008333D01*
X142261904Y-89960714D01*
X142452380Y-89960714D01*
X142547619Y-90008333D01*
X142595238Y-90103571D01*
X142595238Y-90198809D01*
X142119047Y-90294047D01*
X135880952Y-91991666D02*
X136357142Y-91991666D01*
X135785714Y-92277380D02*
X136119047Y-91277380D01*
X136452380Y-92277380D01*
X136785714Y-92277380D02*
X136785714Y-91610714D01*
X136785714Y-91705952D02*
X136833333Y-91658333D01*
X136928571Y-91610714D01*
X137071428Y-91610714D01*
X137166666Y-91658333D01*
X137214285Y-91753571D01*
X137214285Y-92277380D01*
X137214285Y-91753571D02*
X137261904Y-91658333D01*
X137357142Y-91610714D01*
X137500000Y-91610714D01*
X137595238Y-91658333D01*
X137642857Y-91753571D01*
X137642857Y-92277380D01*
X138119047Y-91610714D02*
X138119047Y-92610714D01*
X138119047Y-91658333D02*
X138214285Y-91610714D01*
X138404761Y-91610714D01*
X138500000Y-91658333D01*
X138547619Y-91705952D01*
X138595238Y-91801190D01*
X138595238Y-92086904D01*
X138547619Y-92182142D01*
X138500000Y-92229761D01*
X138404761Y-92277380D01*
X138214285Y-92277380D01*
X138119047Y-92229761D01*
X139166666Y-92277380D02*
X139071428Y-92229761D01*
X139023809Y-92134523D01*
X139023809Y-91277380D01*
X139547619Y-92277380D02*
X139547619Y-91610714D01*
X139547619Y-91277380D02*
X139500000Y-91325000D01*
X139547619Y-91372619D01*
X139595238Y-91325000D01*
X139547619Y-91277380D01*
X139547619Y-91372619D01*
X139880952Y-91610714D02*
X140261904Y-91610714D01*
X140023809Y-92277380D02*
X140023809Y-91420238D01*
X140071428Y-91325000D01*
X140166666Y-91277380D01*
X140261904Y-91277380D01*
X140595238Y-92277380D02*
X140595238Y-91610714D01*
X140595238Y-91277380D02*
X140547619Y-91325000D01*
X140595238Y-91372619D01*
X140642857Y-91325000D01*
X140595238Y-91277380D01*
X140595238Y-91372619D01*
X141452380Y-92229761D02*
X141357142Y-92277380D01*
X141166666Y-92277380D01*
X141071428Y-92229761D01*
X141023809Y-92134523D01*
X141023809Y-91753571D01*
X141071428Y-91658333D01*
X141166666Y-91610714D01*
X141357142Y-91610714D01*
X141452380Y-91658333D01*
X141500000Y-91753571D01*
X141500000Y-91848809D01*
X141023809Y-91944047D01*
X141928571Y-92277380D02*
X141928571Y-91610714D01*
X141928571Y-91801190D02*
X141976190Y-91705952D01*
X142023809Y-91658333D01*
X142119047Y-91610714D01*
X142214285Y-91610714D01*
X124452380Y-90627380D02*
X124452380Y-89627380D01*
X124785714Y-90341666D01*
X125119047Y-89627380D01*
X125119047Y-90627380D01*
X125595238Y-90627380D02*
X125595238Y-89960714D01*
X125595238Y-89627380D02*
X125547619Y-89675000D01*
X125595238Y-89722619D01*
X125642857Y-89675000D01*
X125595238Y-89627380D01*
X125595238Y-89722619D01*
X126500000Y-90579761D02*
X126404761Y-90627380D01*
X126214285Y-90627380D01*
X126119047Y-90579761D01*
X126071428Y-90532142D01*
X126023809Y-90436904D01*
X126023809Y-90151190D01*
X126071428Y-90055952D01*
X126119047Y-90008333D01*
X126214285Y-89960714D01*
X126404761Y-89960714D01*
X126500000Y-90008333D01*
X126928571Y-90627380D02*
X126928571Y-89960714D01*
X126928571Y-90151190D02*
X126976190Y-90055952D01*
X127023809Y-90008333D01*
X127119047Y-89960714D01*
X127214285Y-89960714D01*
X127690476Y-90627380D02*
X127595238Y-90579761D01*
X127547619Y-90532142D01*
X127500000Y-90436904D01*
X127500000Y-90151190D01*
X127547619Y-90055952D01*
X127595238Y-90008333D01*
X127690476Y-89960714D01*
X127833333Y-89960714D01*
X127928571Y-90008333D01*
X127976190Y-90055952D01*
X128023809Y-90151190D01*
X128023809Y-90436904D01*
X127976190Y-90532142D01*
X127928571Y-90579761D01*
X127833333Y-90627380D01*
X127690476Y-90627380D01*
X128357142Y-89960714D02*
X128547619Y-90627380D01*
X128738095Y-90151190D01*
X128928571Y-90627380D01*
X129119047Y-89960714D01*
X129928571Y-90627380D02*
X129928571Y-90103571D01*
X129880952Y-90008333D01*
X129785714Y-89960714D01*
X129595238Y-89960714D01*
X129500000Y-90008333D01*
X129928571Y-90579761D02*
X129833333Y-90627380D01*
X129595238Y-90627380D01*
X129500000Y-90579761D01*
X129452380Y-90484523D01*
X129452380Y-90389285D01*
X129500000Y-90294047D01*
X129595238Y-90246428D01*
X129833333Y-90246428D01*
X129928571Y-90198809D01*
X130309523Y-89960714D02*
X130547619Y-90627380D01*
X130785714Y-89960714D01*
X131547619Y-90579761D02*
X131452380Y-90627380D01*
X131261904Y-90627380D01*
X131166666Y-90579761D01*
X131119047Y-90484523D01*
X131119047Y-90103571D01*
X131166666Y-90008333D01*
X131261904Y-89960714D01*
X131452380Y-89960714D01*
X131547619Y-90008333D01*
X131595238Y-90103571D01*
X131595238Y-90198809D01*
X131119047Y-90294047D01*
X125142857Y-91325000D02*
X125047619Y-91277380D01*
X124904761Y-91277380D01*
X124761904Y-91325000D01*
X124666666Y-91420238D01*
X124619047Y-91515476D01*
X124571428Y-91705952D01*
X124571428Y-91848809D01*
X124619047Y-92039285D01*
X124666666Y-92134523D01*
X124761904Y-92229761D01*
X124904761Y-92277380D01*
X125000000Y-92277380D01*
X125142857Y-92229761D01*
X125190476Y-92182142D01*
X125190476Y-91848809D01*
X125000000Y-91848809D01*
X126000000Y-92229761D02*
X125904761Y-92277380D01*
X125714285Y-92277380D01*
X125619047Y-92229761D01*
X125571428Y-92134523D01*
X125571428Y-91753571D01*
X125619047Y-91658333D01*
X125714285Y-91610714D01*
X125904761Y-91610714D01*
X126000000Y-91658333D01*
X126047619Y-91753571D01*
X126047619Y-91848809D01*
X125571428Y-91944047D01*
X126476190Y-91610714D02*
X126476190Y-92277380D01*
X126476190Y-91705952D02*
X126523809Y-91658333D01*
X126619047Y-91610714D01*
X126761904Y-91610714D01*
X126857142Y-91658333D01*
X126904761Y-91753571D01*
X126904761Y-92277380D01*
X127761904Y-92229761D02*
X127666666Y-92277380D01*
X127476190Y-92277380D01*
X127380952Y-92229761D01*
X127333333Y-92134523D01*
X127333333Y-91753571D01*
X127380952Y-91658333D01*
X127476190Y-91610714D01*
X127666666Y-91610714D01*
X127761904Y-91658333D01*
X127809523Y-91753571D01*
X127809523Y-91848809D01*
X127333333Y-91944047D01*
X128238095Y-92277380D02*
X128238095Y-91610714D01*
X128238095Y-91801190D02*
X128285714Y-91705952D01*
X128333333Y-91658333D01*
X128428571Y-91610714D01*
X128523809Y-91610714D01*
X129285714Y-92277380D02*
X129285714Y-91753571D01*
X129238095Y-91658333D01*
X129142857Y-91610714D01*
X128952380Y-91610714D01*
X128857142Y-91658333D01*
X129285714Y-92229761D02*
X129190476Y-92277380D01*
X128952380Y-92277380D01*
X128857142Y-92229761D01*
X128809523Y-92134523D01*
X128809523Y-92039285D01*
X128857142Y-91944047D01*
X128952380Y-91896428D01*
X129190476Y-91896428D01*
X129285714Y-91848809D01*
X129619047Y-91610714D02*
X130000000Y-91610714D01*
X129761904Y-91277380D02*
X129761904Y-92134523D01*
X129809523Y-92229761D01*
X129904761Y-92277380D01*
X130000000Y-92277380D01*
X130476190Y-92277380D02*
X130380952Y-92229761D01*
X130333333Y-92182142D01*
X130285714Y-92086904D01*
X130285714Y-91801190D01*
X130333333Y-91705952D01*
X130380952Y-91658333D01*
X130476190Y-91610714D01*
X130619047Y-91610714D01*
X130714285Y-91658333D01*
X130761904Y-91705952D01*
X130809523Y-91801190D01*
X130809523Y-92086904D01*
X130761904Y-92182142D01*
X130714285Y-92229761D01*
X130619047Y-92277380D01*
X130476190Y-92277380D01*
X131238095Y-92277380D02*
X131238095Y-91610714D01*
X131238095Y-91801190D02*
X131285714Y-91705952D01*
X131333333Y-91658333D01*
X131428571Y-91610714D01*
X131523809Y-91610714D01*
D11*
X100811904Y-94395238D02*
X101383333Y-94395238D01*
X101497619Y-94433333D01*
X101573809Y-94509523D01*
X101611904Y-94623809D01*
X101611904Y-94700000D01*
X101611904Y-93633333D02*
X101611904Y-94014285D01*
X100811904Y-94014285D01*
X101535714Y-92909523D02*
X101573809Y-92947619D01*
X101611904Y-93061904D01*
X101611904Y-93138095D01*
X101573809Y-93252380D01*
X101497619Y-93328571D01*
X101421428Y-93366666D01*
X101269047Y-93404761D01*
X101154761Y-93404761D01*
X101002380Y-93366666D01*
X100926190Y-93328571D01*
X100850000Y-93252380D01*
X100811904Y-93138095D01*
X100811904Y-93061904D01*
X100850000Y-92947619D01*
X100888095Y-92909523D01*
X100811904Y-92338095D02*
X101383333Y-92338095D01*
X101497619Y-92376190D01*
X101573809Y-92452380D01*
X101611904Y-92566666D01*
X101611904Y-92642857D01*
X101611904Y-91576190D02*
X101611904Y-91957142D01*
X100811904Y-91957142D01*
X101535714Y-90852380D02*
X101573809Y-90890476D01*
X101611904Y-91004761D01*
X101611904Y-91080952D01*
X101573809Y-91195238D01*
X101497619Y-91271428D01*
X101421428Y-91309523D01*
X101269047Y-91347619D01*
X101154761Y-91347619D01*
X101002380Y-91309523D01*
X100926190Y-91271428D01*
X100850000Y-91195238D01*
X100811904Y-91080952D01*
X100811904Y-91004761D01*
X100850000Y-90890476D01*
X100888095Y-90852380D01*
X100811904Y-90280952D02*
X101383333Y-90280952D01*
X101497619Y-90319047D01*
X101573809Y-90395238D01*
X101611904Y-90509523D01*
X101611904Y-90585714D01*
X101611904Y-89519047D02*
X101611904Y-89900000D01*
X100811904Y-89900000D01*
X101535714Y-88795238D02*
X101573809Y-88833333D01*
X101611904Y-88947619D01*
X101611904Y-89023809D01*
X101573809Y-89138095D01*
X101497619Y-89214285D01*
X101421428Y-89252380D01*
X101269047Y-89290476D01*
X101154761Y-89290476D01*
X101002380Y-89252380D01*
X100926190Y-89214285D01*
X100850000Y-89138095D01*
X100811904Y-89023809D01*
X100811904Y-88947619D01*
X100850000Y-88833333D01*
X100888095Y-88795238D01*
X100811904Y-88223809D02*
X101383333Y-88223809D01*
X101497619Y-88261904D01*
X101573809Y-88338095D01*
X101611904Y-88452380D01*
X101611904Y-88528571D01*
X101611904Y-87461904D02*
X101611904Y-87842857D01*
X100811904Y-87842857D01*
X101535714Y-86738095D02*
X101573809Y-86776190D01*
X101611904Y-86890476D01*
X101611904Y-86966666D01*
X101573809Y-87080952D01*
X101497619Y-87157142D01*
X101421428Y-87195238D01*
X101269047Y-87233333D01*
X101154761Y-87233333D01*
X101002380Y-87195238D01*
X100926190Y-87157142D01*
X100850000Y-87080952D01*
X100811904Y-86966666D01*
X100811904Y-86890476D01*
X100850000Y-86776190D01*
X100888095Y-86738095D01*
D12*
X161809523Y-91904761D02*
X157809523Y-91904761D01*
X157809523Y-90952380D01*
X158000000Y-90380952D01*
X158380952Y-90000000D01*
X158761904Y-89809523D01*
X159523809Y-89619047D01*
X160095238Y-89619047D01*
X160857142Y-89809523D01*
X161238095Y-90000000D01*
X161619047Y-90380952D01*
X161809523Y-90952380D01*
X161809523Y-91904761D01*
X161809523Y-87904761D02*
X159142857Y-87904761D01*
X157809523Y-87904761D02*
X158000000Y-88095238D01*
X158190476Y-87904761D01*
X158000000Y-87714285D01*
X157809523Y-87904761D01*
X158190476Y-87904761D01*
X161809523Y-84285714D02*
X159714285Y-84285714D01*
X159333333Y-84476190D01*
X159142857Y-84857142D01*
X159142857Y-85619047D01*
X159333333Y-86000000D01*
X161619047Y-84285714D02*
X161809523Y-84666666D01*
X161809523Y-85619047D01*
X161619047Y-86000000D01*
X161238095Y-86190476D01*
X160857142Y-86190476D01*
X160476190Y-86000000D01*
X160285714Y-85619047D01*
X160285714Y-84666666D01*
X160095238Y-84285714D01*
X161619047Y-82571428D02*
X161809523Y-82000000D01*
X161809523Y-81047619D01*
X161619047Y-80666666D01*
X161428571Y-80476190D01*
X161047619Y-80285714D01*
X160666666Y-80285714D01*
X160285714Y-80476190D01*
X160095238Y-80666666D01*
X159904761Y-81047619D01*
X159714285Y-81809523D01*
X159523809Y-82190476D01*
X159333333Y-82380952D01*
X158952380Y-82571428D01*
X158571428Y-82571428D01*
X158190476Y-82380952D01*
X158000000Y-82190476D01*
X157809523Y-81809523D01*
X157809523Y-80857142D01*
X158000000Y-80285714D01*
X161619047Y-77047619D02*
X161809523Y-77428571D01*
X161809523Y-78190476D01*
X161619047Y-78571428D01*
X161238095Y-78761904D01*
X159714285Y-78761904D01*
X159333333Y-78571428D01*
X159142857Y-78190476D01*
X159142857Y-77428571D01*
X159333333Y-77047619D01*
X159714285Y-76857142D01*
X160095238Y-76857142D01*
X160476190Y-78761904D01*
X159142857Y-75142857D02*
X161809523Y-75142857D01*
X159523809Y-75142857D02*
X159333333Y-74952380D01*
X159142857Y-74571428D01*
X159142857Y-74000000D01*
X159333333Y-73619047D01*
X159714285Y-73428571D01*
X161809523Y-73428571D01*
X161619047Y-71714285D02*
X161809523Y-71333333D01*
X161809523Y-70571428D01*
X161619047Y-70190476D01*
X161238095Y-70000000D01*
X161047619Y-70000000D01*
X160666666Y-70190476D01*
X160476190Y-70571428D01*
X160476190Y-71142857D01*
X160285714Y-71523809D01*
X159904761Y-71714285D01*
X159714285Y-71714285D01*
X159333333Y-71523809D01*
X159142857Y-71142857D01*
X159142857Y-70571428D01*
X159333333Y-70190476D01*
X161619047Y-66761904D02*
X161809523Y-67142857D01*
X161809523Y-67904761D01*
X161619047Y-68285714D01*
X161238095Y-68476190D01*
X159714285Y-68476190D01*
X159333333Y-68285714D01*
X159142857Y-67904761D01*
X159142857Y-67142857D01*
X159333333Y-66761904D01*
X159714285Y-66571428D01*
X160095238Y-66571428D01*
X160476190Y-68476190D01*
X161809523Y-61809523D02*
X157809523Y-61809523D01*
X160666666Y-60476190D01*
X157809523Y-59142857D01*
X161809523Y-59142857D01*
X161809523Y-57238095D02*
X157809523Y-57238095D01*
X160285714Y-56857142D02*
X161809523Y-55714285D01*
X159142857Y-55714285D02*
X160666666Y-57238095D01*
X158190476Y-54190476D02*
X158000000Y-54000000D01*
X157809523Y-53619047D01*
X157809523Y-52666666D01*
X158000000Y-52285714D01*
X158190476Y-52095238D01*
X158571428Y-51904761D01*
X158952380Y-51904761D01*
X159523809Y-52095238D01*
X161809523Y-54380952D01*
X161809523Y-51904761D01*
D13*
%TO.C,T1*%
X123000000Y-92750000D02*
X133000000Y-92750000D01*
X123000000Y-99500000D02*
X133000000Y-99500000D01*
X123000000Y-99500000D02*
X123000000Y-92750000D01*
X133000000Y-92750000D02*
X133000000Y-99500000D01*
%TO.C,T2*%
X134000000Y-92750000D02*
X144000000Y-92750000D01*
X134000000Y-99500000D02*
X144000000Y-99500000D01*
X134000000Y-99500000D02*
X134000000Y-92750000D01*
X144000000Y-92750000D02*
X144000000Y-99500000D01*
%TO.C,R1*%
X155230000Y-80750000D02*
X153230000Y-80750000D01*
X155230000Y-92750000D02*
X155230000Y-80750000D01*
X153230000Y-92750000D02*
X155230000Y-92750000D01*
X153230000Y-80750000D02*
X153230000Y-92750000D01*
%TO.C,D1*%
X153500000Y-95300000D02*
X153500000Y-97300000D01*
X153500000Y-97300000D02*
X157500000Y-97300000D01*
X157500000Y-97300000D02*
X157500000Y-95300000D01*
X157500000Y-95300000D02*
X153500000Y-95300000D01*
%TO.C,J1*%
X108400000Y-99950000D02*
X118650000Y-99950000D01*
X108400000Y-103150000D02*
X118650000Y-103150000D01*
X108400000Y-88650000D02*
X118650000Y-88650000D01*
X108400000Y-88650000D02*
X108400000Y-103150000D01*
X118650000Y-88650000D02*
X118650000Y-103150000D01*
D14*
%TO.C,G\u002A\u002A\u002A*%
G36*
X145126905Y-58925407D02*
G01*
X145159893Y-58888038D01*
X145250428Y-58858142D01*
X145339651Y-58894233D01*
X145424529Y-58994583D01*
X145459935Y-59059094D01*
X145523045Y-59213957D01*
X145543813Y-59330821D01*
X145520785Y-59401056D01*
X145518030Y-59403555D01*
X145460749Y-59421509D01*
X145400087Y-59426133D01*
X145334170Y-59410059D01*
X145276355Y-59352820D01*
X145224414Y-59265266D01*
X145150106Y-59108680D01*
X145118167Y-58998693D01*
X145126905Y-58925407D01*
G37*
X145126905Y-58925407D02*
X145159893Y-58888038D01*
X145250428Y-58858142D01*
X145339651Y-58894233D01*
X145424529Y-58994583D01*
X145459935Y-59059094D01*
X145523045Y-59213957D01*
X145543813Y-59330821D01*
X145520785Y-59401056D01*
X145518030Y-59403555D01*
X145460749Y-59421509D01*
X145400087Y-59426133D01*
X145334170Y-59410059D01*
X145276355Y-59352820D01*
X145224414Y-59265266D01*
X145150106Y-59108680D01*
X145118167Y-58998693D01*
X145126905Y-58925407D01*
G36*
X147519324Y-60715387D02*
G01*
X147588767Y-60627743D01*
X147696146Y-60531070D01*
X147839723Y-60428131D01*
X147955984Y-60379664D01*
X148039948Y-60386362D01*
X148086637Y-60448918D01*
X148092279Y-60476000D01*
X148081409Y-60540777D01*
X148024922Y-60617681D01*
X147913000Y-60720021D01*
X147911191Y-60721533D01*
X147779917Y-60822070D01*
X147682896Y-60871761D01*
X147607713Y-60874735D01*
X147549497Y-60841760D01*
X147507773Y-60783464D01*
X147519324Y-60715387D01*
G37*
X147519324Y-60715387D02*
X147588767Y-60627743D01*
X147696146Y-60531070D01*
X147839723Y-60428131D01*
X147955984Y-60379664D01*
X148039948Y-60386362D01*
X148086637Y-60448918D01*
X148092279Y-60476000D01*
X148081409Y-60540777D01*
X148024922Y-60617681D01*
X147913000Y-60720021D01*
X147911191Y-60721533D01*
X147779917Y-60822070D01*
X147682896Y-60871761D01*
X147607713Y-60874735D01*
X147549497Y-60841760D01*
X147507773Y-60783464D01*
X147519324Y-60715387D01*
G36*
X143964741Y-66350879D02*
G01*
X144012660Y-66256145D01*
X144097194Y-66184057D01*
X144210844Y-66149045D01*
X144346108Y-66165540D01*
X144354002Y-66168221D01*
X144474991Y-66242640D01*
X144533420Y-66351835D01*
X144523890Y-66483271D01*
X144507395Y-66524280D01*
X144447662Y-66587213D01*
X144354279Y-66637015D01*
X144252160Y-66661099D01*
X144160096Y-66644625D01*
X144115699Y-66626650D01*
X144008759Y-66550563D01*
X143960941Y-66453829D01*
X143964741Y-66350879D01*
G37*
X143964741Y-66350879D02*
X144012660Y-66256145D01*
X144097194Y-66184057D01*
X144210844Y-66149045D01*
X144346108Y-66165540D01*
X144354002Y-66168221D01*
X144474991Y-66242640D01*
X144533420Y-66351835D01*
X144523890Y-66483271D01*
X144507395Y-66524280D01*
X144447662Y-66587213D01*
X144354279Y-66637015D01*
X144252160Y-66661099D01*
X144160096Y-66644625D01*
X144115699Y-66626650D01*
X144008759Y-66550563D01*
X143960941Y-66453829D01*
X143964741Y-66350879D01*
G36*
X144444635Y-65377312D02*
G01*
X144526404Y-65291808D01*
X144639172Y-65242966D01*
X144763699Y-65234914D01*
X144880746Y-65271781D01*
X144971074Y-65357696D01*
X144980354Y-65373616D01*
X145020138Y-65473777D01*
X145006139Y-65553613D01*
X144942699Y-65636099D01*
X144835578Y-65706386D01*
X144708483Y-65726854D01*
X144582671Y-65703153D01*
X144479399Y-65640933D01*
X144419922Y-65545843D01*
X144413103Y-65495349D01*
X144444635Y-65377312D01*
G37*
X144444635Y-65377312D02*
X144526404Y-65291808D01*
X144639172Y-65242966D01*
X144763699Y-65234914D01*
X144880746Y-65271781D01*
X144971074Y-65357696D01*
X144980354Y-65373616D01*
X145020138Y-65473777D01*
X145006139Y-65553613D01*
X144942699Y-65636099D01*
X144835578Y-65706386D01*
X144708483Y-65726854D01*
X144582671Y-65703153D01*
X144479399Y-65640933D01*
X144419922Y-65545843D01*
X144413103Y-65495349D01*
X144444635Y-65377312D01*
G36*
X146423130Y-63960972D02*
G01*
X146429053Y-63775607D01*
X146438173Y-63618433D01*
X146450490Y-63501433D01*
X146466004Y-63436591D01*
X146471195Y-63429173D01*
X146561859Y-63390901D01*
X146653361Y-63408977D01*
X146701425Y-63454040D01*
X146715154Y-63509669D01*
X146726012Y-63620171D01*
X146734014Y-63773068D01*
X146739174Y-63955887D01*
X146741506Y-64156150D01*
X146741025Y-64361382D01*
X146737744Y-64559109D01*
X146731679Y-64736853D01*
X146722843Y-64882139D01*
X146711251Y-64982492D01*
X146699631Y-65022600D01*
X146625381Y-65074015D01*
X146530354Y-65073036D01*
X146471195Y-65041227D01*
X146454737Y-64994072D01*
X146441476Y-64891222D01*
X146431412Y-64744661D01*
X146424546Y-64566371D01*
X146420877Y-64368337D01*
X146420405Y-64162543D01*
X146423130Y-63960972D01*
G37*
X146423130Y-63960972D02*
X146429053Y-63775607D01*
X146438173Y-63618433D01*
X146450490Y-63501433D01*
X146466004Y-63436591D01*
X146471195Y-63429173D01*
X146561859Y-63390901D01*
X146653361Y-63408977D01*
X146701425Y-63454040D01*
X146715154Y-63509669D01*
X146726012Y-63620171D01*
X146734014Y-63773068D01*
X146739174Y-63955887D01*
X146741506Y-64156150D01*
X146741025Y-64361382D01*
X146737744Y-64559109D01*
X146731679Y-64736853D01*
X146722843Y-64882139D01*
X146711251Y-64982492D01*
X146699631Y-65022600D01*
X146625381Y-65074015D01*
X146530354Y-65073036D01*
X146471195Y-65041227D01*
X146454737Y-64994072D01*
X146441476Y-64891222D01*
X146431412Y-64744661D01*
X146424546Y-64566371D01*
X146420877Y-64368337D01*
X146420405Y-64162543D01*
X146423130Y-63960972D01*
G36*
X146431950Y-66177730D02*
G01*
X146437285Y-66007622D01*
X146443984Y-65893545D01*
X146455128Y-65823814D01*
X146473794Y-65786743D01*
X146503062Y-65770645D01*
X146540844Y-65764450D01*
X146622296Y-65767014D01*
X146679560Y-65802883D01*
X146716282Y-65880293D01*
X146736111Y-66007484D01*
X146742694Y-66192691D01*
X146742767Y-66220454D01*
X146739858Y-66390511D01*
X146729824Y-66505455D01*
X146710709Y-66577764D01*
X146680552Y-66619917D01*
X146680009Y-66620381D01*
X146607452Y-66663511D01*
X146565088Y-66673600D01*
X146506667Y-66661808D01*
X146466413Y-66620474D01*
X146441927Y-66540658D01*
X146430809Y-66413421D01*
X146430659Y-66229824D01*
X146431950Y-66177730D01*
G37*
X146431950Y-66177730D02*
X146437285Y-66007622D01*
X146443984Y-65893545D01*
X146455128Y-65823814D01*
X146473794Y-65786743D01*
X146503062Y-65770645D01*
X146540844Y-65764450D01*
X146622296Y-65767014D01*
X146679560Y-65802883D01*
X146716282Y-65880293D01*
X146736111Y-66007484D01*
X146742694Y-66192691D01*
X146742767Y-66220454D01*
X146739858Y-66390511D01*
X146729824Y-66505455D01*
X146710709Y-66577764D01*
X146680552Y-66619917D01*
X146680009Y-66620381D01*
X146607452Y-66663511D01*
X146565088Y-66673600D01*
X146506667Y-66661808D01*
X146466413Y-66620474D01*
X146441927Y-66540658D01*
X146430809Y-66413421D01*
X146430659Y-66229824D01*
X146431950Y-66177730D01*
G36*
X147919093Y-64630652D02*
G01*
X147938494Y-64603816D01*
X147970963Y-64589195D01*
X148014705Y-64581769D01*
X148031633Y-64580011D01*
X148107903Y-64582075D01*
X148158547Y-64617960D01*
X148204650Y-64698544D01*
X148234632Y-64759986D01*
X148291426Y-64875623D01*
X148370958Y-65037186D01*
X148469152Y-65236407D01*
X148581934Y-65465015D01*
X148705228Y-65714744D01*
X148802813Y-65912276D01*
X148954373Y-66220234D01*
X149076576Y-66471976D01*
X149171843Y-66673428D01*
X149242594Y-66830516D01*
X149291250Y-66949165D01*
X149320232Y-67035303D01*
X149331959Y-67094855D01*
X149328854Y-67133747D01*
X149313335Y-67157906D01*
X149312055Y-67159022D01*
X149236349Y-67181461D01*
X149143683Y-67158896D01*
X149090689Y-67122333D01*
X149059237Y-67075866D01*
X149002189Y-66975809D01*
X148924342Y-66831215D01*
X148830491Y-66651132D01*
X148725432Y-66444611D01*
X148628544Y-66250266D01*
X148449602Y-65887567D01*
X148299875Y-65582267D01*
X148177568Y-65329347D01*
X148080889Y-65123787D01*
X148008042Y-64960565D01*
X147957233Y-64834661D01*
X147926668Y-64741054D01*
X147914552Y-64674725D01*
X147919093Y-64630652D01*
G37*
X147919093Y-64630652D02*
X147938494Y-64603816D01*
X147970963Y-64589195D01*
X148014705Y-64581769D01*
X148031633Y-64580011D01*
X148107903Y-64582075D01*
X148158547Y-64617960D01*
X148204650Y-64698544D01*
X148234632Y-64759986D01*
X148291426Y-64875623D01*
X148370958Y-65037186D01*
X148469152Y-65236407D01*
X148581934Y-65465015D01*
X148705228Y-65714744D01*
X148802813Y-65912276D01*
X148954373Y-66220234D01*
X149076576Y-66471976D01*
X149171843Y-66673428D01*
X149242594Y-66830516D01*
X149291250Y-66949165D01*
X149320232Y-67035303D01*
X149331959Y-67094855D01*
X149328854Y-67133747D01*
X149313335Y-67157906D01*
X149312055Y-67159022D01*
X149236349Y-67181461D01*
X149143683Y-67158896D01*
X149090689Y-67122333D01*
X149059237Y-67075866D01*
X149002189Y-66975809D01*
X148924342Y-66831215D01*
X148830491Y-66651132D01*
X148725432Y-66444611D01*
X148628544Y-66250266D01*
X148449602Y-65887567D01*
X148299875Y-65582267D01*
X148177568Y-65329347D01*
X148080889Y-65123787D01*
X148008042Y-64960565D01*
X147957233Y-64834661D01*
X147926668Y-64741054D01*
X147914552Y-64674725D01*
X147919093Y-64630652D01*
G36*
X149558119Y-68267276D02*
G01*
X149627119Y-68185767D01*
X149702608Y-68144829D01*
X149843738Y-68112488D01*
X149968351Y-68134615D01*
X150065692Y-68198121D01*
X150125007Y-68289918D01*
X150135543Y-68396916D01*
X150086547Y-68506026D01*
X150039394Y-68554739D01*
X149942061Y-68612494D01*
X149841512Y-68637818D01*
X149837893Y-68637867D01*
X149724428Y-68609024D01*
X149620109Y-68537224D01*
X149551435Y-68444557D01*
X149538365Y-68388176D01*
X149558119Y-68267276D01*
G37*
X149558119Y-68267276D02*
X149627119Y-68185767D01*
X149702608Y-68144829D01*
X149843738Y-68112488D01*
X149968351Y-68134615D01*
X150065692Y-68198121D01*
X150125007Y-68289918D01*
X150135543Y-68396916D01*
X150086547Y-68506026D01*
X150039394Y-68554739D01*
X149942061Y-68612494D01*
X149841512Y-68637818D01*
X149837893Y-68637867D01*
X149724428Y-68609024D01*
X149620109Y-68537224D01*
X149551435Y-68444557D01*
X149538365Y-68388176D01*
X149558119Y-68267276D01*
G36*
X150801323Y-59983789D02*
G01*
X150885833Y-59902491D01*
X151007590Y-59858493D01*
X151055975Y-59855111D01*
X151186363Y-59882337D01*
X151287906Y-59952329D01*
X151346229Y-60047552D01*
X151346956Y-60150475D01*
X151329029Y-60188133D01*
X151225618Y-60291407D01*
X151094094Y-60338469D01*
X150952369Y-60325926D01*
X150854058Y-60278077D01*
X150777158Y-60188922D01*
X150762339Y-60085046D01*
X150801323Y-59983789D01*
G37*
X150801323Y-59983789D02*
X150885833Y-59902491D01*
X151007590Y-59858493D01*
X151055975Y-59855111D01*
X151186363Y-59882337D01*
X151287906Y-59952329D01*
X151346229Y-60047552D01*
X151346956Y-60150475D01*
X151329029Y-60188133D01*
X151225618Y-60291407D01*
X151094094Y-60338469D01*
X150952369Y-60325926D01*
X150854058Y-60278077D01*
X150777158Y-60188922D01*
X150762339Y-60085046D01*
X150801323Y-59983789D01*
G36*
X149682284Y-61601683D02*
G01*
X149735425Y-61560925D01*
X149800654Y-61549847D01*
X149939545Y-61540642D01*
X150145908Y-61533496D01*
X150413557Y-61528597D01*
X150736302Y-61526132D01*
X150896227Y-61525866D01*
X151241528Y-61527187D01*
X151534491Y-61531025D01*
X151768925Y-61537192D01*
X151938644Y-61545503D01*
X152037459Y-61555769D01*
X152057028Y-61560925D01*
X152121920Y-61624166D01*
X152121530Y-61719828D01*
X152107827Y-61754466D01*
X152063397Y-61767163D01*
X151951230Y-61777810D01*
X151783425Y-61786398D01*
X151572085Y-61792918D01*
X151329310Y-61797363D01*
X151067199Y-61799723D01*
X150797855Y-61799991D01*
X150533377Y-61798157D01*
X150285866Y-61794213D01*
X150067424Y-61788150D01*
X149890149Y-61779961D01*
X149766144Y-61769636D01*
X149707508Y-61757167D01*
X149706101Y-61756160D01*
X149660969Y-61679277D01*
X149682284Y-61601683D01*
G37*
X149682284Y-61601683D02*
X149735425Y-61560925D01*
X149800654Y-61549847D01*
X149939545Y-61540642D01*
X150145908Y-61533496D01*
X150413557Y-61528597D01*
X150736302Y-61526132D01*
X150896227Y-61525866D01*
X151241528Y-61527187D01*
X151534491Y-61531025D01*
X151768925Y-61537192D01*
X151938644Y-61545503D01*
X152037459Y-61555769D01*
X152057028Y-61560925D01*
X152121920Y-61624166D01*
X152121530Y-61719828D01*
X152107827Y-61754466D01*
X152063397Y-61767163D01*
X151951230Y-61777810D01*
X151783425Y-61786398D01*
X151572085Y-61792918D01*
X151329310Y-61797363D01*
X151067199Y-61799723D01*
X150797855Y-61799991D01*
X150533377Y-61798157D01*
X150285866Y-61794213D01*
X150067424Y-61788150D01*
X149890149Y-61779961D01*
X149766144Y-61769636D01*
X149707508Y-61757167D01*
X149706101Y-61756160D01*
X149660969Y-61679277D01*
X149682284Y-61601683D01*
G36*
X140642374Y-55666271D02*
G01*
X140760230Y-55589441D01*
X140896190Y-55500193D01*
X141055404Y-55395099D01*
X141243020Y-55270731D01*
X141464188Y-55123664D01*
X141724057Y-54950470D01*
X142027778Y-54747722D01*
X142380498Y-54511993D01*
X142787369Y-54239857D01*
X143081067Y-54043324D01*
X143285740Y-53906821D01*
X143468868Y-53785600D01*
X143621387Y-53685585D01*
X143734231Y-53612702D01*
X143798335Y-53572878D01*
X143809429Y-53567200D01*
X143839350Y-53590659D01*
X143922002Y-53658965D01*
X144053705Y-53769011D01*
X144230780Y-53917691D01*
X144449548Y-54101899D01*
X144706328Y-54318528D01*
X144997442Y-54564472D01*
X145319210Y-54836623D01*
X145667953Y-55131876D01*
X146039990Y-55447124D01*
X146431643Y-55779261D01*
X146839233Y-56125180D01*
X146841808Y-56127366D01*
X149857238Y-58687533D01*
X149982310Y-58598288D01*
X150067786Y-58543384D01*
X150125659Y-58530210D01*
X150185026Y-58552791D01*
X150190103Y-58555620D01*
X150266513Y-58611261D01*
X150279330Y-58667880D01*
X150229098Y-58743109D01*
X150196951Y-58776870D01*
X150093427Y-58881200D01*
X150441623Y-59173165D01*
X150789820Y-59465131D01*
X149635184Y-60444699D01*
X149332752Y-60702262D01*
X149084879Y-60915652D01*
X148888543Y-61087638D01*
X148740724Y-61220991D01*
X148638400Y-61318480D01*
X148578551Y-61382875D01*
X148558156Y-61416946D01*
X148566882Y-61424266D01*
X148707038Y-61443957D01*
X148804076Y-61511711D01*
X148844089Y-61567315D01*
X148882915Y-61654492D01*
X148872371Y-61733286D01*
X148857103Y-61767705D01*
X148770884Y-61873801D01*
X148654270Y-61927656D01*
X148526013Y-61930421D01*
X148404868Y-61883247D01*
X148309587Y-61787286D01*
X148281664Y-61732385D01*
X148239634Y-61626529D01*
X147921082Y-61898255D01*
X147602531Y-62169980D01*
X149285141Y-63600523D01*
X149589422Y-63859820D01*
X149877468Y-64106439D01*
X150144197Y-64335953D01*
X150384525Y-64543933D01*
X150593370Y-64725950D01*
X150765650Y-64877576D01*
X150896282Y-64994382D01*
X150980183Y-65071940D01*
X151011863Y-65105040D01*
X151047217Y-65189191D01*
X151055975Y-65240596D01*
X151083902Y-65273817D01*
X151165785Y-65352186D01*
X151298781Y-65473229D01*
X151480045Y-65634473D01*
X151706732Y-65833445D01*
X151975999Y-66067671D01*
X152285001Y-66334678D01*
X152630894Y-66631994D01*
X153010833Y-66957144D01*
X153421973Y-67307656D01*
X153861472Y-67681057D01*
X153911478Y-67723466D01*
X154383865Y-68124189D01*
X154802665Y-68479942D01*
X155170929Y-68793516D01*
X155491711Y-69067699D01*
X155768062Y-69305281D01*
X156003036Y-69509052D01*
X156199684Y-69681801D01*
X156361060Y-69826317D01*
X156490214Y-69945389D01*
X156590200Y-70041807D01*
X156664070Y-70118361D01*
X156714876Y-70177840D01*
X156745671Y-70223033D01*
X156759507Y-70256729D01*
X156759436Y-70281719D01*
X156748512Y-70300791D01*
X156740357Y-70308622D01*
X156720038Y-70321368D01*
X156694311Y-70326145D01*
X156659887Y-70320366D01*
X156613477Y-70301441D01*
X156551791Y-70266782D01*
X156471539Y-70213801D01*
X156369433Y-70139910D01*
X156242182Y-70042519D01*
X156086499Y-69919042D01*
X155899092Y-69766888D01*
X155676673Y-69583471D01*
X155415953Y-69366200D01*
X155113641Y-69112489D01*
X154766449Y-68819749D01*
X154371088Y-68485390D01*
X153924267Y-68106825D01*
X153691824Y-67909733D01*
X153206506Y-67498480D01*
X152774495Y-67133141D01*
X152392991Y-66811421D01*
X152059195Y-66531025D01*
X151770306Y-66289658D01*
X151523525Y-66085026D01*
X151316052Y-65914834D01*
X151145088Y-65776786D01*
X151007832Y-65668588D01*
X150901485Y-65587945D01*
X150823247Y-65532562D01*
X150770319Y-65500144D01*
X150739900Y-65488396D01*
X150737640Y-65488266D01*
X150704477Y-65478218D01*
X150648364Y-65446137D01*
X150565684Y-65389126D01*
X150452819Y-65304285D01*
X150306153Y-65188712D01*
X150122066Y-65039510D01*
X149896943Y-64853777D01*
X149627165Y-64628614D01*
X149309115Y-64361121D01*
X148939176Y-64048399D01*
X148900038Y-64015247D01*
X147161326Y-62542227D01*
X145488356Y-63961207D01*
X144146191Y-65099604D01*
X144146191Y-63946936D01*
X144188518Y-63923606D01*
X144270456Y-63864891D01*
X144387359Y-63773544D01*
X144534581Y-63652319D01*
X144583002Y-63611357D01*
X144995143Y-63260668D01*
X144881944Y-63214534D01*
X144774129Y-63139218D01*
X144724822Y-63037387D01*
X144732153Y-62926871D01*
X144794251Y-62825495D01*
X144909246Y-62751087D01*
X144931403Y-62743205D01*
X145061160Y-62734179D01*
X145188170Y-62777969D01*
X145281379Y-62863600D01*
X145320449Y-62923328D01*
X145336400Y-62946645D01*
X145368263Y-62931611D01*
X145445009Y-62875105D01*
X145557214Y-62785324D01*
X145695450Y-62670461D01*
X145850292Y-62538713D01*
X146012314Y-62398274D01*
X146172090Y-62257341D01*
X146320194Y-62124107D01*
X146447199Y-62006768D01*
X146543681Y-61913520D01*
X146600212Y-61852558D01*
X146608808Y-61840378D01*
X146674094Y-61760322D01*
X146750083Y-61711521D01*
X146756606Y-61709602D01*
X146801070Y-61682370D01*
X146892812Y-61614401D01*
X147023750Y-61512407D01*
X147185802Y-61383095D01*
X147370886Y-61233175D01*
X147570921Y-61069357D01*
X147777825Y-60898349D01*
X147983515Y-60726861D01*
X148179912Y-60561603D01*
X148358931Y-60409283D01*
X148512493Y-60276610D01*
X148632515Y-60170294D01*
X148710915Y-60097045D01*
X148739611Y-60063570D01*
X148739623Y-60063354D01*
X148706014Y-60064311D01*
X148616328Y-60088413D01*
X148487269Y-60130910D01*
X148430110Y-60151357D01*
X148303891Y-60197832D01*
X148119579Y-60266196D01*
X147892100Y-60350886D01*
X147636383Y-60446342D01*
X147367354Y-60547002D01*
X147222013Y-60601483D01*
X146909620Y-60718072D01*
X146742767Y-60779863D01*
X146742767Y-60203390D01*
X146832626Y-60173848D01*
X146895599Y-60151798D01*
X147019311Y-60107369D01*
X147191214Y-60045109D01*
X147398756Y-59969565D01*
X147629386Y-59885288D01*
X147681289Y-59866278D01*
X147920338Y-59778815D01*
X148143782Y-59697291D01*
X148337779Y-59626740D01*
X148488492Y-59572192D01*
X148582079Y-59538679D01*
X148591244Y-59535460D01*
X148677419Y-59497934D01*
X148714035Y-59466493D01*
X148711055Y-59458609D01*
X148699686Y-59453045D01*
X148699686Y-58876691D01*
X148706296Y-58871654D01*
X148682040Y-58841720D01*
X148624420Y-58784707D01*
X148530938Y-58698431D01*
X148399097Y-58580708D01*
X148226397Y-58429356D01*
X148010342Y-58242192D01*
X147748433Y-58017031D01*
X147438172Y-57751691D01*
X147077062Y-57443989D01*
X146662603Y-57091741D01*
X146483424Y-56939662D01*
X146182699Y-56684721D01*
X145885352Y-56433052D01*
X145598808Y-56190910D01*
X145330492Y-55964553D01*
X145087828Y-55760238D01*
X144878241Y-55584221D01*
X144709155Y-55442760D01*
X144587996Y-55342111D01*
X144575107Y-55331489D01*
X144146856Y-54979112D01*
X144146856Y-57214525D01*
X144296620Y-57266742D01*
X144427440Y-57313046D01*
X144620981Y-57382489D01*
X144866702Y-57471226D01*
X145154064Y-57575412D01*
X145472524Y-57691203D01*
X145811543Y-57814753D01*
X146160579Y-57942218D01*
X146509092Y-58069751D01*
X146846540Y-58193509D01*
X147162384Y-58309647D01*
X147446083Y-58414319D01*
X147661321Y-58494095D01*
X147924099Y-58591654D01*
X148164690Y-58680741D01*
X148372842Y-58757581D01*
X148538305Y-58818394D01*
X148650827Y-58859406D01*
X148699686Y-58876691D01*
X148699686Y-59453045D01*
X148662720Y-59434951D01*
X148559323Y-59391623D01*
X148418990Y-59336087D01*
X148340252Y-59305928D01*
X148182950Y-59246991D01*
X147974310Y-59169766D01*
X147736524Y-59082419D01*
X147491785Y-58993116D01*
X147371777Y-58949571D01*
X146742767Y-58721833D01*
X146742767Y-60203390D01*
X146742767Y-60779863D01*
X146562985Y-60846443D01*
X146207801Y-60977146D01*
X145869757Y-61100734D01*
X145574546Y-61207756D01*
X145530132Y-61223744D01*
X145271165Y-61317341D01*
X145079090Y-61388353D01*
X144946941Y-61439984D01*
X144867751Y-61475439D01*
X144834554Y-61497920D01*
X144840383Y-61510632D01*
X144878273Y-61516779D01*
X144891139Y-61517621D01*
X145087074Y-61532931D01*
X145216265Y-61554803D01*
X145291756Y-61586615D01*
X145326049Y-61630268D01*
X145337450Y-61698970D01*
X145305554Y-61746725D01*
X145221324Y-61776781D01*
X145075727Y-61792389D01*
X144863098Y-61796800D01*
X144679569Y-61795365D01*
X144558977Y-61789328D01*
X144484423Y-61776093D01*
X144439004Y-61753065D01*
X144413884Y-61727794D01*
X144362104Y-61681769D01*
X144300197Y-61682658D01*
X144251871Y-61699363D01*
X144164833Y-61732992D01*
X144164833Y-61153333D01*
X144205490Y-61140384D01*
X144309666Y-61103886D01*
X144467665Y-61047365D01*
X144669792Y-60974347D01*
X144906350Y-60888357D01*
X145167642Y-60792922D01*
X145443973Y-60691566D01*
X145725646Y-60587816D01*
X146002966Y-60485198D01*
X146034544Y-60473479D01*
X146424591Y-60328678D01*
X146413946Y-59465029D01*
X146403302Y-58601379D01*
X146003931Y-58450603D01*
X145834005Y-58386810D01*
X145611780Y-58303908D01*
X145358256Y-58209705D01*
X145094434Y-58112004D01*
X144885692Y-58034957D01*
X144166824Y-57770086D01*
X144145424Y-59440020D01*
X144385763Y-59645654D01*
X144519172Y-59766111D01*
X144595805Y-59854126D01*
X144621153Y-59919678D01*
X144600713Y-59972745D01*
X144578176Y-59995093D01*
X144511481Y-60030520D01*
X144434611Y-60020605D01*
X144331156Y-59961702D01*
X144288025Y-59930625D01*
X144146856Y-59825517D01*
X144146856Y-60489425D01*
X144147726Y-60693131D01*
X144150154Y-60871545D01*
X144153861Y-61014427D01*
X144158570Y-61111536D01*
X144164004Y-61152632D01*
X144164833Y-61153333D01*
X144164833Y-61732992D01*
X144146856Y-61739939D01*
X144146856Y-62632256D01*
X144146997Y-62900642D01*
X144147876Y-63108546D01*
X144150176Y-63263219D01*
X144154578Y-63371912D01*
X144161766Y-63441876D01*
X144172422Y-63480363D01*
X144187230Y-63494622D01*
X144206870Y-63491906D01*
X144226868Y-63482201D01*
X144314514Y-63457619D01*
X144376632Y-63477077D01*
X144442660Y-63532490D01*
X144446943Y-63601546D01*
X144387436Y-63692619D01*
X144303329Y-63777090D01*
X144198951Y-63876431D01*
X144148120Y-63932129D01*
X144146191Y-63946936D01*
X144146191Y-65099604D01*
X143815385Y-65380188D01*
X143475439Y-65151708D01*
X143475439Y-64112728D01*
X143483110Y-64076034D01*
X143490134Y-63979550D01*
X143496289Y-63831216D01*
X143501354Y-63638976D01*
X143505109Y-63410770D01*
X143507332Y-63154540D01*
X143507862Y-62947692D01*
X143507862Y-61799649D01*
X143464054Y-61798248D01*
X143464054Y-61187200D01*
X143474818Y-61163839D01*
X143483934Y-61091947D01*
X143491469Y-60968805D01*
X143497494Y-60791697D01*
X143502076Y-60557906D01*
X143505285Y-60264714D01*
X143507190Y-59909404D01*
X143507859Y-59489260D01*
X143507862Y-59460000D01*
X143507293Y-59125128D01*
X143505659Y-58811658D01*
X143503072Y-58525940D01*
X143499639Y-58274321D01*
X143495473Y-58063151D01*
X143490683Y-57898778D01*
X143485378Y-57787550D01*
X143479670Y-57735818D01*
X143477909Y-57732848D01*
X143432501Y-57742391D01*
X143321619Y-57769145D01*
X143156109Y-57810339D01*
X142946817Y-57863205D01*
X142704589Y-57924974D01*
X142440271Y-57992875D01*
X142164709Y-58064141D01*
X141888750Y-58136000D01*
X141623238Y-58205685D01*
X141540959Y-58227414D01*
X141221611Y-58311898D01*
X141221611Y-57766666D01*
X141266438Y-57756983D01*
X141376994Y-57729724D01*
X141542794Y-57687576D01*
X141753349Y-57633223D01*
X141998175Y-57569354D01*
X142230023Y-57508365D01*
X142504262Y-57436183D01*
X142760813Y-57369081D01*
X142987443Y-57310224D01*
X143171920Y-57262779D01*
X143302011Y-57229912D01*
X143358098Y-57216378D01*
X143507862Y-57182694D01*
X143507862Y-55984547D01*
X143507355Y-55707283D01*
X143505913Y-55452694D01*
X143503655Y-55228402D01*
X143500698Y-55042031D01*
X143497163Y-54901203D01*
X143493167Y-54813542D01*
X143489226Y-54786400D01*
X143453414Y-54806275D01*
X143364950Y-54861573D01*
X143233929Y-54945803D01*
X143070443Y-55052476D01*
X142884588Y-55175101D01*
X142880185Y-55178021D01*
X142639561Y-55337573D01*
X142369616Y-55516476D01*
X142096801Y-55697204D01*
X141847570Y-55862232D01*
X141742826Y-55931555D01*
X141195872Y-56293467D01*
X141193691Y-57030067D01*
X141194371Y-57245210D01*
X141197496Y-57435580D01*
X141202696Y-57591457D01*
X141209603Y-57703119D01*
X141217848Y-57760844D01*
X141221611Y-57766666D01*
X141221611Y-58311898D01*
X141191510Y-58319862D01*
X141191510Y-60608554D01*
X141700708Y-60743086D01*
X142047703Y-60834282D01*
X142375516Y-60919519D01*
X142675691Y-60996668D01*
X142939770Y-61063596D01*
X143159294Y-61118175D01*
X143325806Y-61158274D01*
X143430849Y-61181764D01*
X143464054Y-61187200D01*
X143464054Y-61798248D01*
X143198628Y-61789758D01*
X143043140Y-61783833D01*
X142949826Y-61774465D01*
X142901036Y-61755794D01*
X142879121Y-61721962D01*
X142869147Y-61680383D01*
X142860133Y-61646978D01*
X142841736Y-61618883D01*
X142804168Y-61592490D01*
X142737643Y-61564189D01*
X142632374Y-61530370D01*
X142478575Y-61487426D01*
X142266459Y-61431746D01*
X142030189Y-61370988D01*
X141211478Y-61161078D01*
X141189908Y-62622906D01*
X141300536Y-62700690D01*
X141368352Y-62747033D01*
X141486283Y-62826244D01*
X141641346Y-62929659D01*
X141820559Y-63048612D01*
X141962944Y-63142770D01*
X142190553Y-63293366D01*
X142440834Y-63459495D01*
X142688414Y-63624286D01*
X142907922Y-63770863D01*
X142978870Y-63818394D01*
X143143758Y-63926518D01*
X143287316Y-64015997D01*
X143397804Y-64079873D01*
X143463483Y-64111186D01*
X143475439Y-64112728D01*
X143475439Y-65151708D01*
X143454886Y-65137894D01*
X143135535Y-64923722D01*
X142787131Y-64690882D01*
X142423136Y-64448314D01*
X142057011Y-64204955D01*
X141702218Y-63969743D01*
X141372217Y-63751618D01*
X141080469Y-63559516D01*
X140882898Y-63430082D01*
X140274759Y-63032933D01*
X140273858Y-59469535D01*
X140272956Y-55906137D01*
X140642374Y-55666271D01*
G37*
X140642374Y-55666271D02*
X140760230Y-55589441D01*
X140896190Y-55500193D01*
X141055404Y-55395099D01*
X141243020Y-55270731D01*
X141464188Y-55123664D01*
X141724057Y-54950470D01*
X142027778Y-54747722D01*
X142380498Y-54511993D01*
X142787369Y-54239857D01*
X143081067Y-54043324D01*
X143285740Y-53906821D01*
X143468868Y-53785600D01*
X143621387Y-53685585D01*
X143734231Y-53612702D01*
X143798335Y-53572878D01*
X143809429Y-53567200D01*
X143839350Y-53590659D01*
X143922002Y-53658965D01*
X144053705Y-53769011D01*
X144230780Y-53917691D01*
X144449548Y-54101899D01*
X144706328Y-54318528D01*
X144997442Y-54564472D01*
X145319210Y-54836623D01*
X145667953Y-55131876D01*
X146039990Y-55447124D01*
X146431643Y-55779261D01*
X146839233Y-56125180D01*
X146841808Y-56127366D01*
X149857238Y-58687533D01*
X149982310Y-58598288D01*
X150067786Y-58543384D01*
X150125659Y-58530210D01*
X150185026Y-58552791D01*
X150190103Y-58555620D01*
X150266513Y-58611261D01*
X150279330Y-58667880D01*
X150229098Y-58743109D01*
X150196951Y-58776870D01*
X150093427Y-58881200D01*
X150441623Y-59173165D01*
X150789820Y-59465131D01*
X149635184Y-60444699D01*
X149332752Y-60702262D01*
X149084879Y-60915652D01*
X148888543Y-61087638D01*
X148740724Y-61220991D01*
X148638400Y-61318480D01*
X148578551Y-61382875D01*
X148558156Y-61416946D01*
X148566882Y-61424266D01*
X148707038Y-61443957D01*
X148804076Y-61511711D01*
X148844089Y-61567315D01*
X148882915Y-61654492D01*
X148872371Y-61733286D01*
X148857103Y-61767705D01*
X148770884Y-61873801D01*
X148654270Y-61927656D01*
X148526013Y-61930421D01*
X148404868Y-61883247D01*
X148309587Y-61787286D01*
X148281664Y-61732385D01*
X148239634Y-61626529D01*
X147921082Y-61898255D01*
X147602531Y-62169980D01*
X149285141Y-63600523D01*
X149589422Y-63859820D01*
X149877468Y-64106439D01*
X150144197Y-64335953D01*
X150384525Y-64543933D01*
X150593370Y-64725950D01*
X150765650Y-64877576D01*
X150896282Y-64994382D01*
X150980183Y-65071940D01*
X151011863Y-65105040D01*
X151047217Y-65189191D01*
X151055975Y-65240596D01*
X151083902Y-65273817D01*
X151165785Y-65352186D01*
X151298781Y-65473229D01*
X151480045Y-65634473D01*
X151706732Y-65833445D01*
X151975999Y-66067671D01*
X152285001Y-66334678D01*
X152630894Y-66631994D01*
X153010833Y-66957144D01*
X153421973Y-67307656D01*
X153861472Y-67681057D01*
X153911478Y-67723466D01*
X154383865Y-68124189D01*
X154802665Y-68479942D01*
X155170929Y-68793516D01*
X155491711Y-69067699D01*
X155768062Y-69305281D01*
X156003036Y-69509052D01*
X156199684Y-69681801D01*
X156361060Y-69826317D01*
X156490214Y-69945389D01*
X156590200Y-70041807D01*
X156664070Y-70118361D01*
X156714876Y-70177840D01*
X156745671Y-70223033D01*
X156759507Y-70256729D01*
X156759436Y-70281719D01*
X156748512Y-70300791D01*
X156740357Y-70308622D01*
X156720038Y-70321368D01*
X156694311Y-70326145D01*
X156659887Y-70320366D01*
X156613477Y-70301441D01*
X156551791Y-70266782D01*
X156471539Y-70213801D01*
X156369433Y-70139910D01*
X156242182Y-70042519D01*
X156086499Y-69919042D01*
X155899092Y-69766888D01*
X155676673Y-69583471D01*
X155415953Y-69366200D01*
X155113641Y-69112489D01*
X154766449Y-68819749D01*
X154371088Y-68485390D01*
X153924267Y-68106825D01*
X153691824Y-67909733D01*
X153206506Y-67498480D01*
X152774495Y-67133141D01*
X152392991Y-66811421D01*
X152059195Y-66531025D01*
X151770306Y-66289658D01*
X151523525Y-66085026D01*
X151316052Y-65914834D01*
X151145088Y-65776786D01*
X151007832Y-65668588D01*
X150901485Y-65587945D01*
X150823247Y-65532562D01*
X150770319Y-65500144D01*
X150739900Y-65488396D01*
X150737640Y-65488266D01*
X150704477Y-65478218D01*
X150648364Y-65446137D01*
X150565684Y-65389126D01*
X150452819Y-65304285D01*
X150306153Y-65188712D01*
X150122066Y-65039510D01*
X149896943Y-64853777D01*
X149627165Y-64628614D01*
X149309115Y-64361121D01*
X148939176Y-64048399D01*
X148900038Y-64015247D01*
X147161326Y-62542227D01*
X145488356Y-63961207D01*
X144146191Y-65099604D01*
X144146191Y-63946936D01*
X144188518Y-63923606D01*
X144270456Y-63864891D01*
X144387359Y-63773544D01*
X144534581Y-63652319D01*
X144583002Y-63611357D01*
X144995143Y-63260668D01*
X144881944Y-63214534D01*
X144774129Y-63139218D01*
X144724822Y-63037387D01*
X144732153Y-62926871D01*
X144794251Y-62825495D01*
X144909246Y-62751087D01*
X144931403Y-62743205D01*
X145061160Y-62734179D01*
X145188170Y-62777969D01*
X145281379Y-62863600D01*
X145320449Y-62923328D01*
X145336400Y-62946645D01*
X145368263Y-62931611D01*
X145445009Y-62875105D01*
X145557214Y-62785324D01*
X145695450Y-62670461D01*
X145850292Y-62538713D01*
X146012314Y-62398274D01*
X146172090Y-62257341D01*
X146320194Y-62124107D01*
X146447199Y-62006768D01*
X146543681Y-61913520D01*
X146600212Y-61852558D01*
X146608808Y-61840378D01*
X146674094Y-61760322D01*
X146750083Y-61711521D01*
X146756606Y-61709602D01*
X146801070Y-61682370D01*
X146892812Y-61614401D01*
X147023750Y-61512407D01*
X147185802Y-61383095D01*
X147370886Y-61233175D01*
X147570921Y-61069357D01*
X147777825Y-60898349D01*
X147983515Y-60726861D01*
X148179912Y-60561603D01*
X148358931Y-60409283D01*
X148512493Y-60276610D01*
X148632515Y-60170294D01*
X148710915Y-60097045D01*
X148739611Y-60063570D01*
X148739623Y-60063354D01*
X148706014Y-60064311D01*
X148616328Y-60088413D01*
X148487269Y-60130910D01*
X148430110Y-60151357D01*
X148303891Y-60197832D01*
X148119579Y-60266196D01*
X147892100Y-60350886D01*
X147636383Y-60446342D01*
X147367354Y-60547002D01*
X147222013Y-60601483D01*
X146909620Y-60718072D01*
X146742767Y-60779863D01*
X146742767Y-60203390D01*
X146832626Y-60173848D01*
X146895599Y-60151798D01*
X147019311Y-60107369D01*
X147191214Y-60045109D01*
X147398756Y-59969565D01*
X147629386Y-59885288D01*
X147681289Y-59866278D01*
X147920338Y-59778815D01*
X148143782Y-59697291D01*
X148337779Y-59626740D01*
X148488492Y-59572192D01*
X148582079Y-59538679D01*
X148591244Y-59535460D01*
X148677419Y-59497934D01*
X148714035Y-59466493D01*
X148711055Y-59458609D01*
X148699686Y-59453045D01*
X148699686Y-58876691D01*
X148706296Y-58871654D01*
X148682040Y-58841720D01*
X148624420Y-58784707D01*
X148530938Y-58698431D01*
X148399097Y-58580708D01*
X148226397Y-58429356D01*
X148010342Y-58242192D01*
X147748433Y-58017031D01*
X147438172Y-57751691D01*
X147077062Y-57443989D01*
X146662603Y-57091741D01*
X146483424Y-56939662D01*
X146182699Y-56684721D01*
X145885352Y-56433052D01*
X145598808Y-56190910D01*
X145330492Y-55964553D01*
X145087828Y-55760238D01*
X144878241Y-55584221D01*
X144709155Y-55442760D01*
X144587996Y-55342111D01*
X144575107Y-55331489D01*
X144146856Y-54979112D01*
X144146856Y-57214525D01*
X144296620Y-57266742D01*
X144427440Y-57313046D01*
X144620981Y-57382489D01*
X144866702Y-57471226D01*
X145154064Y-57575412D01*
X145472524Y-57691203D01*
X145811543Y-57814753D01*
X146160579Y-57942218D01*
X146509092Y-58069751D01*
X146846540Y-58193509D01*
X147162384Y-58309647D01*
X147446083Y-58414319D01*
X147661321Y-58494095D01*
X147924099Y-58591654D01*
X148164690Y-58680741D01*
X148372842Y-58757581D01*
X148538305Y-58818394D01*
X148650827Y-58859406D01*
X148699686Y-58876691D01*
X148699686Y-59453045D01*
X148662720Y-59434951D01*
X148559323Y-59391623D01*
X148418990Y-59336087D01*
X148340252Y-59305928D01*
X148182950Y-59246991D01*
X147974310Y-59169766D01*
X147736524Y-59082419D01*
X147491785Y-58993116D01*
X147371777Y-58949571D01*
X146742767Y-58721833D01*
X146742767Y-60203390D01*
X146742767Y-60779863D01*
X146562985Y-60846443D01*
X146207801Y-60977146D01*
X145869757Y-61100734D01*
X145574546Y-61207756D01*
X145530132Y-61223744D01*
X145271165Y-61317341D01*
X145079090Y-61388353D01*
X144946941Y-61439984D01*
X144867751Y-61475439D01*
X144834554Y-61497920D01*
X144840383Y-61510632D01*
X144878273Y-61516779D01*
X144891139Y-61517621D01*
X145087074Y-61532931D01*
X145216265Y-61554803D01*
X145291756Y-61586615D01*
X145326049Y-61630268D01*
X145337450Y-61698970D01*
X145305554Y-61746725D01*
X145221324Y-61776781D01*
X145075727Y-61792389D01*
X144863098Y-61796800D01*
X144679569Y-61795365D01*
X144558977Y-61789328D01*
X144484423Y-61776093D01*
X144439004Y-61753065D01*
X144413884Y-61727794D01*
X144362104Y-61681769D01*
X144300197Y-61682658D01*
X144251871Y-61699363D01*
X144164833Y-61732992D01*
X144164833Y-61153333D01*
X144205490Y-61140384D01*
X144309666Y-61103886D01*
X144467665Y-61047365D01*
X144669792Y-60974347D01*
X144906350Y-60888357D01*
X145167642Y-60792922D01*
X145443973Y-60691566D01*
X145725646Y-60587816D01*
X146002966Y-60485198D01*
X146034544Y-60473479D01*
X146424591Y-60328678D01*
X146413946Y-59465029D01*
X146403302Y-58601379D01*
X146003931Y-58450603D01*
X145834005Y-58386810D01*
X145611780Y-58303908D01*
X145358256Y-58209705D01*
X145094434Y-58112004D01*
X144885692Y-58034957D01*
X144166824Y-57770086D01*
X144145424Y-59440020D01*
X144385763Y-59645654D01*
X144519172Y-59766111D01*
X144595805Y-59854126D01*
X144621153Y-59919678D01*
X144600713Y-59972745D01*
X144578176Y-59995093D01*
X144511481Y-60030520D01*
X144434611Y-60020605D01*
X144331156Y-59961702D01*
X144288025Y-59930625D01*
X144146856Y-59825517D01*
X144146856Y-60489425D01*
X144147726Y-60693131D01*
X144150154Y-60871545D01*
X144153861Y-61014427D01*
X144158570Y-61111536D01*
X144164004Y-61152632D01*
X144164833Y-61153333D01*
X144164833Y-61732992D01*
X144146856Y-61739939D01*
X144146856Y-62632256D01*
X144146997Y-62900642D01*
X144147876Y-63108546D01*
X144150176Y-63263219D01*
X144154578Y-63371912D01*
X144161766Y-63441876D01*
X144172422Y-63480363D01*
X144187230Y-63494622D01*
X144206870Y-63491906D01*
X144226868Y-63482201D01*
X144314514Y-63457619D01*
X144376632Y-63477077D01*
X144442660Y-63532490D01*
X144446943Y-63601546D01*
X144387436Y-63692619D01*
X144303329Y-63777090D01*
X144198951Y-63876431D01*
X144148120Y-63932129D01*
X144146191Y-63946936D01*
X144146191Y-65099604D01*
X143815385Y-65380188D01*
X143475439Y-65151708D01*
X143475439Y-64112728D01*
X143483110Y-64076034D01*
X143490134Y-63979550D01*
X143496289Y-63831216D01*
X143501354Y-63638976D01*
X143505109Y-63410770D01*
X143507332Y-63154540D01*
X143507862Y-62947692D01*
X143507862Y-61799649D01*
X143464054Y-61798248D01*
X143464054Y-61187200D01*
X143474818Y-61163839D01*
X143483934Y-61091947D01*
X143491469Y-60968805D01*
X143497494Y-60791697D01*
X143502076Y-60557906D01*
X143505285Y-60264714D01*
X143507190Y-59909404D01*
X143507859Y-59489260D01*
X143507862Y-59460000D01*
X143507293Y-59125128D01*
X143505659Y-58811658D01*
X143503072Y-58525940D01*
X143499639Y-58274321D01*
X143495473Y-58063151D01*
X143490683Y-57898778D01*
X143485378Y-57787550D01*
X143479670Y-57735818D01*
X143477909Y-57732848D01*
X143432501Y-57742391D01*
X143321619Y-57769145D01*
X143156109Y-57810339D01*
X142946817Y-57863205D01*
X142704589Y-57924974D01*
X142440271Y-57992875D01*
X142164709Y-58064141D01*
X141888750Y-58136000D01*
X141623238Y-58205685D01*
X141540959Y-58227414D01*
X141221611Y-58311898D01*
X141221611Y-57766666D01*
X141266438Y-57756983D01*
X141376994Y-57729724D01*
X141542794Y-57687576D01*
X141753349Y-57633223D01*
X141998175Y-57569354D01*
X142230023Y-57508365D01*
X142504262Y-57436183D01*
X142760813Y-57369081D01*
X142987443Y-57310224D01*
X143171920Y-57262779D01*
X143302011Y-57229912D01*
X143358098Y-57216378D01*
X143507862Y-57182694D01*
X143507862Y-55984547D01*
X143507355Y-55707283D01*
X143505913Y-55452694D01*
X143503655Y-55228402D01*
X143500698Y-55042031D01*
X143497163Y-54901203D01*
X143493167Y-54813542D01*
X143489226Y-54786400D01*
X143453414Y-54806275D01*
X143364950Y-54861573D01*
X143233929Y-54945803D01*
X143070443Y-55052476D01*
X142884588Y-55175101D01*
X142880185Y-55178021D01*
X142639561Y-55337573D01*
X142369616Y-55516476D01*
X142096801Y-55697204D01*
X141847570Y-55862232D01*
X141742826Y-55931555D01*
X141195872Y-56293467D01*
X141193691Y-57030067D01*
X141194371Y-57245210D01*
X141197496Y-57435580D01*
X141202696Y-57591457D01*
X141209603Y-57703119D01*
X141217848Y-57760844D01*
X141221611Y-57766666D01*
X141221611Y-58311898D01*
X141191510Y-58319862D01*
X141191510Y-60608554D01*
X141700708Y-60743086D01*
X142047703Y-60834282D01*
X142375516Y-60919519D01*
X142675691Y-60996668D01*
X142939770Y-61063596D01*
X143159294Y-61118175D01*
X143325806Y-61158274D01*
X143430849Y-61181764D01*
X143464054Y-61187200D01*
X143464054Y-61798248D01*
X143198628Y-61789758D01*
X143043140Y-61783833D01*
X142949826Y-61774465D01*
X142901036Y-61755794D01*
X142879121Y-61721962D01*
X142869147Y-61680383D01*
X142860133Y-61646978D01*
X142841736Y-61618883D01*
X142804168Y-61592490D01*
X142737643Y-61564189D01*
X142632374Y-61530370D01*
X142478575Y-61487426D01*
X142266459Y-61431746D01*
X142030189Y-61370988D01*
X141211478Y-61161078D01*
X141189908Y-62622906D01*
X141300536Y-62700690D01*
X141368352Y-62747033D01*
X141486283Y-62826244D01*
X141641346Y-62929659D01*
X141820559Y-63048612D01*
X141962944Y-63142770D01*
X142190553Y-63293366D01*
X142440834Y-63459495D01*
X142688414Y-63624286D01*
X142907922Y-63770863D01*
X142978870Y-63818394D01*
X143143758Y-63926518D01*
X143287316Y-64015997D01*
X143397804Y-64079873D01*
X143463483Y-64111186D01*
X143475439Y-64112728D01*
X143475439Y-65151708D01*
X143454886Y-65137894D01*
X143135535Y-64923722D01*
X142787131Y-64690882D01*
X142423136Y-64448314D01*
X142057011Y-64204955D01*
X141702218Y-63969743D01*
X141372217Y-63751618D01*
X141080469Y-63559516D01*
X140882898Y-63430082D01*
X140274759Y-63032933D01*
X140273858Y-59469535D01*
X140272956Y-55906137D01*
X140642374Y-55666271D01*
D13*
%TO.C,C2*%
X104950000Y-75875000D02*
X106700000Y-75875000D01*
X106700000Y-75875000D02*
X106700000Y-71375000D01*
X106700000Y-71375000D02*
X104700000Y-71375000D01*
X104700000Y-71375000D02*
X104700000Y-75875000D01*
X104700000Y-75875000D02*
X104950000Y-75875000D01*
%TO.C,C1*%
X119000000Y-73905000D02*
X117250000Y-73905000D01*
X117250000Y-73905000D02*
X117250000Y-78405000D01*
X117250000Y-78405000D02*
X119250000Y-78405000D01*
X119250000Y-78405000D02*
X119250000Y-73905000D01*
X119250000Y-73905000D02*
X119000000Y-73905000D01*
%TO.C,U4*%
X106850000Y-50000000D02*
X106850000Y-45000000D01*
X106850000Y-45000000D02*
X158150000Y-45000000D01*
X158150000Y-50000000D02*
X158150000Y-45000000D01*
X106850000Y-50000000D02*
X158150000Y-50000000D01*
%TO.C,U3*%
X136900000Y-61650000D02*
X111900000Y-61650000D01*
X136900000Y-63650000D02*
X136900000Y-61650000D01*
X111900000Y-63650000D02*
X136900000Y-63650000D01*
X111900000Y-61650000D02*
X111900000Y-63650000D01*
%TO.C,U2*%
X125095000Y-79380000D02*
X125095000Y-69220000D01*
X135255000Y-69220000D02*
X135255000Y-79380000D01*
X135255000Y-69220000D02*
X125095000Y-69220000D01*
X135255000Y-79380000D02*
X125095000Y-79380000D01*
%TO.C,U1*%
X110400000Y-69900000D02*
X114900000Y-69900000D01*
X114900000Y-79900000D02*
X110400000Y-79900000D01*
X110400000Y-79900000D02*
X110400000Y-69900000D01*
X114900000Y-79900000D02*
X114900000Y-69900000D01*
%TO.C,R2*%
X138875000Y-74575000D02*
X138875000Y-86575000D01*
X138875000Y-86575000D02*
X140875000Y-86575000D01*
X140875000Y-86575000D02*
X140875000Y-74575000D01*
X140875000Y-74575000D02*
X138875000Y-74575000D01*
%TO.C,D2*%
X151125000Y-95300000D02*
X147125000Y-95300000D01*
X151125000Y-97300000D02*
X151125000Y-95300000D01*
X147125000Y-97300000D02*
X151125000Y-97300000D01*
X147125000Y-95300000D02*
X147125000Y-97300000D01*
%TO.C,T1*%
D10*
X124738095Y-93202380D02*
X125309523Y-93202380D01*
X125023809Y-94202380D02*
X125023809Y-93202380D01*
X126166666Y-94202380D02*
X125595238Y-94202380D01*
X125880952Y-94202380D02*
X125880952Y-93202380D01*
X125785714Y-93345238D01*
X125690476Y-93440476D01*
X125595238Y-93488095D01*
X129778095Y-97100000D02*
X129682857Y-97052380D01*
X129540000Y-97052380D01*
X129397142Y-97100000D01*
X129301904Y-97195238D01*
X129254285Y-97290476D01*
X129206666Y-97480952D01*
X129206666Y-97623809D01*
X129254285Y-97814285D01*
X129301904Y-97909523D01*
X129397142Y-98004761D01*
X129540000Y-98052380D01*
X129635238Y-98052380D01*
X129778095Y-98004761D01*
X129825714Y-97957142D01*
X129825714Y-97623809D01*
X129635238Y-97623809D01*
X130254285Y-98052380D02*
X130254285Y-97052380D01*
X130825714Y-98052380D01*
X130825714Y-97052380D01*
X131301904Y-98052380D02*
X131301904Y-97052380D01*
X131540000Y-97052380D01*
X131682857Y-97100000D01*
X131778095Y-97195238D01*
X131825714Y-97290476D01*
X131873333Y-97480952D01*
X131873333Y-97623809D01*
X131825714Y-97814285D01*
X131778095Y-97909523D01*
X131682857Y-98004761D01*
X131540000Y-98052380D01*
X131301904Y-98052380D01*
X124269523Y-97052380D02*
X124602857Y-98052380D01*
X124936190Y-97052380D01*
X125698095Y-98004761D02*
X125602857Y-98052380D01*
X125412380Y-98052380D01*
X125317142Y-98004761D01*
X125269523Y-97957142D01*
X125221904Y-97861904D01*
X125221904Y-97576190D01*
X125269523Y-97480952D01*
X125317142Y-97433333D01*
X125412380Y-97385714D01*
X125602857Y-97385714D01*
X125698095Y-97433333D01*
X126555238Y-98004761D02*
X126460000Y-98052380D01*
X126269523Y-98052380D01*
X126174285Y-98004761D01*
X126126666Y-97957142D01*
X126079047Y-97861904D01*
X126079047Y-97576190D01*
X126126666Y-97480952D01*
X126174285Y-97433333D01*
X126269523Y-97385714D01*
X126460000Y-97385714D01*
X126555238Y-97433333D01*
%TO.C,T2*%
X135738095Y-93202380D02*
X136309523Y-93202380D01*
X136023809Y-94202380D02*
X136023809Y-93202380D01*
X136595238Y-93297619D02*
X136642857Y-93250000D01*
X136738095Y-93202380D01*
X136976190Y-93202380D01*
X137071428Y-93250000D01*
X137119047Y-93297619D01*
X137166666Y-93392857D01*
X137166666Y-93488095D01*
X137119047Y-93630952D01*
X136547619Y-94202380D01*
X137166666Y-94202380D01*
X140778095Y-97100000D02*
X140682857Y-97052380D01*
X140540000Y-97052380D01*
X140397142Y-97100000D01*
X140301904Y-97195238D01*
X140254285Y-97290476D01*
X140206666Y-97480952D01*
X140206666Y-97623809D01*
X140254285Y-97814285D01*
X140301904Y-97909523D01*
X140397142Y-98004761D01*
X140540000Y-98052380D01*
X140635238Y-98052380D01*
X140778095Y-98004761D01*
X140825714Y-97957142D01*
X140825714Y-97623809D01*
X140635238Y-97623809D01*
X141254285Y-98052380D02*
X141254285Y-97052380D01*
X141825714Y-98052380D01*
X141825714Y-97052380D01*
X142301904Y-98052380D02*
X142301904Y-97052380D01*
X142540000Y-97052380D01*
X142682857Y-97100000D01*
X142778095Y-97195238D01*
X142825714Y-97290476D01*
X142873333Y-97480952D01*
X142873333Y-97623809D01*
X142825714Y-97814285D01*
X142778095Y-97909523D01*
X142682857Y-98004761D01*
X142540000Y-98052380D01*
X142301904Y-98052380D01*
X135269523Y-97052380D02*
X135602857Y-98052380D01*
X135936190Y-97052380D01*
X136698095Y-98004761D02*
X136602857Y-98052380D01*
X136412380Y-98052380D01*
X136317142Y-98004761D01*
X136269523Y-97957142D01*
X136221904Y-97861904D01*
X136221904Y-97576190D01*
X136269523Y-97480952D01*
X136317142Y-97433333D01*
X136412380Y-97385714D01*
X136602857Y-97385714D01*
X136698095Y-97433333D01*
X137555238Y-98004761D02*
X137460000Y-98052380D01*
X137269523Y-98052380D01*
X137174285Y-98004761D01*
X137126666Y-97957142D01*
X137079047Y-97861904D01*
X137079047Y-97576190D01*
X137126666Y-97480952D01*
X137174285Y-97433333D01*
X137269523Y-97385714D01*
X137460000Y-97385714D01*
X137555238Y-97433333D01*
%TO.C,R1*%
X154702380Y-86866666D02*
X154226190Y-87200000D01*
X154702380Y-87438095D02*
X153702380Y-87438095D01*
X153702380Y-87057142D01*
X153750000Y-86961904D01*
X153797619Y-86914285D01*
X153892857Y-86866666D01*
X154035714Y-86866666D01*
X154130952Y-86914285D01*
X154178571Y-86961904D01*
X154226190Y-87057142D01*
X154226190Y-87438095D01*
X154702380Y-85914285D02*
X154702380Y-86485714D01*
X154702380Y-86200000D02*
X153702380Y-86200000D01*
X153845238Y-86295238D01*
X153940476Y-86390476D01*
X153988095Y-86485714D01*
%TO.C,D1*%
X154761904Y-94752380D02*
X154761904Y-93752380D01*
X155000000Y-93752380D01*
X155142857Y-93800000D01*
X155238095Y-93895238D01*
X155285714Y-93990476D01*
X155333333Y-94180952D01*
X155333333Y-94323809D01*
X155285714Y-94514285D01*
X155238095Y-94609523D01*
X155142857Y-94704761D01*
X155000000Y-94752380D01*
X154761904Y-94752380D01*
X156285714Y-94752380D02*
X155714285Y-94752380D01*
X156000000Y-94752380D02*
X156000000Y-93752380D01*
X155904761Y-93895238D01*
X155809523Y-93990476D01*
X155714285Y-94038095D01*
%TO.C,J1*%
X110066666Y-87352380D02*
X110066666Y-88066666D01*
X110019047Y-88209523D01*
X109923809Y-88304761D01*
X109780952Y-88352380D01*
X109685714Y-88352380D01*
X111066666Y-88352380D02*
X110495238Y-88352380D01*
X110780952Y-88352380D02*
X110780952Y-87352380D01*
X110685714Y-87495238D01*
X110590476Y-87590476D01*
X110495238Y-87638095D01*
%TO.C,C2*%
X104307142Y-73791666D02*
X104354761Y-73839285D01*
X104402380Y-73982142D01*
X104402380Y-74077380D01*
X104354761Y-74220238D01*
X104259523Y-74315476D01*
X104164285Y-74363095D01*
X103973809Y-74410714D01*
X103830952Y-74410714D01*
X103640476Y-74363095D01*
X103545238Y-74315476D01*
X103450000Y-74220238D01*
X103402380Y-74077380D01*
X103402380Y-73982142D01*
X103450000Y-73839285D01*
X103497619Y-73791666D01*
X103497619Y-73410714D02*
X103450000Y-73363095D01*
X103402380Y-73267857D01*
X103402380Y-73029761D01*
X103450000Y-72934523D01*
X103497619Y-72886904D01*
X103592857Y-72839285D01*
X103688095Y-72839285D01*
X103830952Y-72886904D01*
X104402380Y-73458333D01*
X104402380Y-72839285D01*
%TO.C,C1*%
X120357142Y-76321666D02*
X120404761Y-76369285D01*
X120452380Y-76512142D01*
X120452380Y-76607380D01*
X120404761Y-76750238D01*
X120309523Y-76845476D01*
X120214285Y-76893095D01*
X120023809Y-76940714D01*
X119880952Y-76940714D01*
X119690476Y-76893095D01*
X119595238Y-76845476D01*
X119500000Y-76750238D01*
X119452380Y-76607380D01*
X119452380Y-76512142D01*
X119500000Y-76369285D01*
X119547619Y-76321666D01*
X120452380Y-75369285D02*
X120452380Y-75940714D01*
X120452380Y-75655000D02*
X119452380Y-75655000D01*
X119595238Y-75750238D01*
X119690476Y-75845476D01*
X119738095Y-75940714D01*
%TO.C,U4*%
X104938095Y-44552380D02*
X104938095Y-45361904D01*
X104985714Y-45457142D01*
X105033333Y-45504761D01*
X105128571Y-45552380D01*
X105319047Y-45552380D01*
X105414285Y-45504761D01*
X105461904Y-45457142D01*
X105509523Y-45361904D01*
X105509523Y-44552380D01*
X106414285Y-44885714D02*
X106414285Y-45552380D01*
X106176190Y-44504761D02*
X105938095Y-45219047D01*
X106557142Y-45219047D01*
%TO.C,U3*%
X113138095Y-60352380D02*
X113138095Y-61161904D01*
X113185714Y-61257142D01*
X113233333Y-61304761D01*
X113328571Y-61352380D01*
X113519047Y-61352380D01*
X113614285Y-61304761D01*
X113661904Y-61257142D01*
X113709523Y-61161904D01*
X113709523Y-60352380D01*
X114090476Y-60352380D02*
X114709523Y-60352380D01*
X114376190Y-60733333D01*
X114519047Y-60733333D01*
X114614285Y-60780952D01*
X114661904Y-60828571D01*
X114709523Y-60923809D01*
X114709523Y-61161904D01*
X114661904Y-61257142D01*
X114614285Y-61304761D01*
X114519047Y-61352380D01*
X114233333Y-61352380D01*
X114138095Y-61304761D01*
X114090476Y-61257142D01*
%TO.C,U2*%
X132413095Y-79502380D02*
X132413095Y-80311904D01*
X132460714Y-80407142D01*
X132508333Y-80454761D01*
X132603571Y-80502380D01*
X132794047Y-80502380D01*
X132889285Y-80454761D01*
X132936904Y-80407142D01*
X132984523Y-80311904D01*
X132984523Y-79502380D01*
X133413095Y-79597619D02*
X133460714Y-79550000D01*
X133555952Y-79502380D01*
X133794047Y-79502380D01*
X133889285Y-79550000D01*
X133936904Y-79597619D01*
X133984523Y-79692857D01*
X133984523Y-79788095D01*
X133936904Y-79930952D01*
X133365476Y-80502380D01*
X133984523Y-80502380D01*
%TO.C,U1*%
X109052380Y-79761904D02*
X109861904Y-79761904D01*
X109957142Y-79714285D01*
X110004761Y-79666666D01*
X110052380Y-79571428D01*
X110052380Y-79380952D01*
X110004761Y-79285714D01*
X109957142Y-79238095D01*
X109861904Y-79190476D01*
X109052380Y-79190476D01*
X110052380Y-78190476D02*
X110052380Y-78761904D01*
X110052380Y-78476190D02*
X109052380Y-78476190D01*
X109195238Y-78571428D01*
X109290476Y-78666666D01*
X109338095Y-78761904D01*
%TO.C,R2*%
X140327380Y-80741666D02*
X139851190Y-81075000D01*
X140327380Y-81313095D02*
X139327380Y-81313095D01*
X139327380Y-80932142D01*
X139375000Y-80836904D01*
X139422619Y-80789285D01*
X139517857Y-80741666D01*
X139660714Y-80741666D01*
X139755952Y-80789285D01*
X139803571Y-80836904D01*
X139851190Y-80932142D01*
X139851190Y-81313095D01*
X139422619Y-80360714D02*
X139375000Y-80313095D01*
X139327380Y-80217857D01*
X139327380Y-79979761D01*
X139375000Y-79884523D01*
X139422619Y-79836904D01*
X139517857Y-79789285D01*
X139613095Y-79789285D01*
X139755952Y-79836904D01*
X140327380Y-80408333D01*
X140327380Y-79789285D01*
%TO.C,D2*%
X148386904Y-94752380D02*
X148386904Y-93752380D01*
X148625000Y-93752380D01*
X148767857Y-93800000D01*
X148863095Y-93895238D01*
X148910714Y-93990476D01*
X148958333Y-94180952D01*
X148958333Y-94323809D01*
X148910714Y-94514285D01*
X148863095Y-94609523D01*
X148767857Y-94704761D01*
X148625000Y-94752380D01*
X148386904Y-94752380D01*
X149339285Y-93847619D02*
X149386904Y-93800000D01*
X149482142Y-93752380D01*
X149720238Y-93752380D01*
X149815476Y-93800000D01*
X149863095Y-93847619D01*
X149910714Y-93942857D01*
X149910714Y-94038095D01*
X149863095Y-94180952D01*
X149291666Y-94752380D01*
X149910714Y-94752380D01*
%TD*%
M02*
