M48
; DRILL file {KiCad (5.1.6)-1} date 10/24/20 11:46:23
; FORMAT={-:-/ absolute / inch / decimal}
; #@! TF.CreationDate,2020-10-24T11:46:23+02:00
; #@! TF.GenerationSoftware,Kicad,Pcbnew,(5.1.6)-1
FMAT,2
INCH
T1C0.0300
T2C0.0315
T3C0.0394
T4C0.0453
%
G90
G05
T1
X4.1614Y-2.8486
X6.072Y-3.2185
X6.072Y-3.6122
X5.5069Y-2.9754
X5.5069Y-3.3691
X4.6555Y-2.9482
X4.6555Y-3.0482
X4.1614Y-2.9486
T2
X4.4476Y-2.4665
X4.5476Y-2.4665
X4.6476Y-2.4665
X4.7476Y-2.4665
X4.8476Y-2.4665
X4.9476Y-2.4665
X5.0476Y-2.4665
X5.1476Y-2.4665
X5.2476Y-2.4665
X5.3476Y-2.4665
X5.8211Y-3.7913
X5.9211Y-3.7913
X6.072Y-3.7913
X6.172Y-3.7913
T3
X4.4449Y-2.8488
X4.4449Y-2.9488
X4.4449Y-3.0488
X4.975Y-2.7752
X4.975Y-2.8752
X4.975Y-2.9752
X4.975Y-3.0752
X5.275Y-2.7752
X5.275Y-2.8752
X5.275Y-2.9752
X5.275Y-3.0752
X4.9394Y-3.7795
X5.1394Y-3.7795
X5.3724Y-3.7795
X5.5724Y-3.7795
T4
X4.2665Y-1.8201
X4.2665Y-1.9201
X4.3665Y-1.8201
X4.3665Y-1.9201
X4.4665Y-1.8201
X4.4665Y-1.9201
X4.5665Y-1.8201
X4.5665Y-1.9201
X4.6665Y-1.8201
X4.6665Y-1.9201
X4.7665Y-1.8201
X4.7665Y-1.9201
X4.8665Y-1.8201
X4.8665Y-1.9201
X4.9665Y-1.8201
X4.9665Y-1.9201
X5.0665Y-1.8201
X5.0665Y-1.9201
X5.1665Y-1.8201
X5.1665Y-1.9201
X5.2665Y-1.8201
X5.2665Y-1.9201
X5.3665Y-1.8201
X5.3665Y-1.9201
X5.4665Y-1.8201
X5.4665Y-1.9201
X5.5665Y-1.8201
X5.5665Y-1.9201
X5.6665Y-1.8201
X5.6665Y-1.9201
X5.7665Y-1.8201
X5.7665Y-1.9201
X5.8665Y-1.8201
X5.8665Y-1.9201
X5.9665Y-1.8201
X5.9665Y-1.9201
X6.0665Y-1.8201
X6.0665Y-1.9201
X6.1665Y-1.8201
X6.1665Y-1.9201
T3
G00X4.4055Y-3.5276
M15
G01X4.4843Y-3.5276
M16
G05
G00X4.4055Y-3.7756
M15
G01X4.4843Y-3.7756
M16
G05
G00X4.6339Y-3.6929
M15
G01X4.6339Y-3.6142
M16
G05
T0
M30
