%TF.GenerationSoftware,KiCad,Pcbnew,(5.1.6)-1*%
%TF.CreationDate,2020-10-24T11:46:20+02:00*%
%TF.ProjectId,DiaSense,44696153-656e-4736-952e-6b696361645f,rev?*%
%TF.SameCoordinates,Original*%
%TF.FileFunction,Soldermask,Bot*%
%TF.FilePolarity,Negative*%
%FSLAX46Y46*%
G04 Gerber Fmt 4.6, Leading zero omitted, Abs format (unit mm)*
G04 Created by KiCad (PCBNEW (5.1.6)-1) date 2020-10-24 11:46:20*
%MOMM*%
%LPD*%
G01*
G04 APERTURE LIST*
%ADD10C,1.850000*%
%ADD11C,1.840000*%
%ADD12C,1.624000*%
%ADD13O,1.600000X3.600000*%
%ADD14O,3.600000X1.600000*%
%ADD15C,1.800000*%
%ADD16R,1.800000X1.800000*%
%ADD17R,1.624000X1.624000*%
G04 APERTURE END LIST*
D10*
%TO.C,T1*%
X130540000Y-96000000D03*
D11*
X125460000Y-96000000D03*
%TD*%
D10*
%TO.C,T2*%
X141540000Y-96000000D03*
D11*
X136460000Y-96000000D03*
%TD*%
D12*
%TO.C,R1*%
X154230000Y-81750000D03*
X154230000Y-91750000D03*
%TD*%
%TO.C,D1*%
X154230000Y-96300000D03*
X156770000Y-96300000D03*
%TD*%
D13*
%TO.C,J1*%
X117700000Y-92800000D03*
D14*
X112900000Y-95900000D03*
X112900000Y-89600000D03*
%TD*%
D12*
%TO.C,C2*%
X105700000Y-72355000D03*
X105700000Y-74895000D03*
%TD*%
%TO.C,C1*%
X118250000Y-77425000D03*
X118250000Y-74885000D03*
%TD*%
D15*
%TO.C,U4*%
X156630000Y-46230000D03*
D16*
X156630000Y-48770000D03*
D15*
X154090000Y-46230000D03*
X154090000Y-48770000D03*
X151550000Y-46230000D03*
X151550000Y-48770000D03*
D16*
X149010000Y-46230000D03*
D15*
X149010000Y-48770000D03*
X146470000Y-46230000D03*
X146470000Y-48770000D03*
D16*
X143930000Y-46230000D03*
D15*
X143930000Y-48770000D03*
X141390000Y-46230000D03*
X141390000Y-48770000D03*
X138850000Y-46230000D03*
D16*
X138850000Y-48770000D03*
D15*
X136310000Y-46230000D03*
X136310000Y-48770000D03*
X133770000Y-46230000D03*
X133770000Y-48770000D03*
D16*
X131230000Y-46230000D03*
D15*
X131230000Y-48770000D03*
X128690000Y-46230000D03*
X128690000Y-48770000D03*
X126150000Y-46230000D03*
X126150000Y-48770000D03*
D16*
X123610000Y-46230000D03*
D15*
X123610000Y-48770000D03*
X121070000Y-46230000D03*
X121070000Y-48770000D03*
X118530000Y-46230000D03*
D16*
X118530000Y-48770000D03*
D15*
X115990000Y-46230000D03*
X115990000Y-48770000D03*
D16*
X113450000Y-46230000D03*
D15*
X113450000Y-48770000D03*
X110910000Y-46230000D03*
X110910000Y-48770000D03*
X108370000Y-46230000D03*
X108370000Y-48770000D03*
%TD*%
D12*
%TO.C,U3*%
X135830000Y-62650000D03*
X133290000Y-62650000D03*
X130750000Y-62650000D03*
X128210000Y-62650000D03*
X125670000Y-62650000D03*
X123130000Y-62650000D03*
X120590000Y-62650000D03*
X118050000Y-62650000D03*
D17*
X115510000Y-62650000D03*
D12*
X112970000Y-62650000D03*
%TD*%
D15*
%TO.C,U2*%
X126365000Y-78110000D03*
X126365000Y-75570000D03*
X126365000Y-73030000D03*
X126365000Y-70490000D03*
X133985000Y-70490000D03*
X133985000Y-73030000D03*
X133985000Y-75570000D03*
X133985000Y-78110000D03*
%TD*%
%TO.C,U1*%
X112900000Y-72360000D03*
X112900000Y-74900000D03*
X112900000Y-77440000D03*
%TD*%
D12*
%TO.C,R2*%
X139875000Y-75575000D03*
X139875000Y-85575000D03*
%TD*%
%TO.C,D2*%
X147855000Y-96300000D03*
X150395000Y-96300000D03*
%TD*%
M02*
